<svg width="612" height="396" viewBox="0 0 612 396" fill="none" xmlns="http://www.w3.org/2000/svg">
<rect x="44" y="48" width="498" height="297" fill="white" stroke="#665191" stroke-width="2" stroke-dasharray="5 5"/>
<rect x="104" y="150" width="100" height="100" rx="3" fill="#CCF8FF"/>
<rect x="241" y="150" width="100" height="100" rx="3" fill="#CCF8FF"/>
<rect x="378" y="150" width="100" height="100" rx="3" fill="#CCF8FF"/>
<path d="M118.645 166.604H114.468V171H113.155V161.047H119.321V162.127H114.468V165.531H118.645V166.604ZM122.069 171H120.805V160.5H122.069V171ZM127.169 171.137C126.166 171.137 125.351 170.809 124.722 170.152C124.093 169.492 123.778 168.61 123.778 167.507V167.274C123.778 166.541 123.917 165.887 124.195 165.312C124.478 164.734 124.87 164.283 125.371 163.959C125.877 163.631 126.424 163.467 127.012 163.467C127.973 163.467 128.721 163.784 129.254 164.417C129.787 165.05 130.054 165.957 130.054 167.138V167.664H125.043C125.061 168.393 125.273 168.983 125.679 169.435C126.089 169.881 126.608 170.104 127.237 170.104C127.684 170.104 128.062 170.013 128.372 169.831C128.682 169.649 128.953 169.407 129.186 169.106L129.958 169.708C129.338 170.66 128.409 171.137 127.169 171.137ZM127.012 164.506C126.501 164.506 126.073 164.693 125.727 165.066C125.38 165.436 125.166 165.955 125.084 166.625H128.789V166.529C128.753 165.887 128.579 165.39 128.27 165.039C127.96 164.684 127.54 164.506 127.012 164.506ZM134.005 166.304L135.646 163.604H137.122L134.702 167.261L137.197 171H135.734L134.025 168.231L132.316 171H130.847L133.342 167.261L130.922 163.604H132.385L134.005 166.304ZM143.315 171H142.051V163.604H143.315V171ZM141.948 161.642C141.948 161.437 142.01 161.263 142.133 161.122C142.26 160.981 142.447 160.91 142.693 160.91C142.939 160.91 143.126 160.981 143.254 161.122C143.382 161.263 143.445 161.437 143.445 161.642C143.445 161.847 143.382 162.018 143.254 162.154C143.126 162.291 142.939 162.359 142.693 162.359C142.447 162.359 142.26 162.291 142.133 162.154C142.01 162.018 141.948 161.847 141.948 161.642ZM147.062 161.812V163.604H148.442V164.581H147.062V169.168C147.062 169.464 147.123 169.688 147.246 169.838C147.369 169.984 147.579 170.057 147.875 170.057C148.021 170.057 148.221 170.029 148.477 169.975V171C148.144 171.091 147.82 171.137 147.506 171.137C146.941 171.137 146.515 170.966 146.228 170.624C145.94 170.282 145.797 169.797 145.797 169.168V164.581H144.45V163.604H145.797V161.812H147.062ZM152.995 171.137C151.993 171.137 151.177 170.809 150.548 170.152C149.919 169.492 149.604 168.61 149.604 167.507V167.274C149.604 166.541 149.743 165.887 150.021 165.312C150.304 164.734 150.696 164.283 151.197 163.959C151.703 163.631 152.25 163.467 152.838 163.467C153.799 163.467 154.547 163.784 155.08 164.417C155.613 165.05 155.88 165.957 155.88 167.138V167.664H150.869C150.887 168.393 151.099 168.983 151.505 169.435C151.915 169.881 152.435 170.104 153.063 170.104C153.51 170.104 153.888 170.013 154.198 169.831C154.508 169.649 154.779 169.407 155.012 169.106L155.784 169.708C155.164 170.66 154.235 171.137 152.995 171.137ZM152.838 164.506C152.327 164.506 151.899 164.693 151.553 165.066C151.206 165.436 150.992 165.955 150.91 166.625H154.615V166.529C154.579 165.887 154.406 165.39 154.096 165.039C153.786 164.684 153.367 164.506 152.838 164.506ZM158.539 163.604L158.573 164.424C159.116 163.786 159.847 163.467 160.768 163.467C161.802 163.467 162.506 163.863 162.88 164.656C163.126 164.301 163.445 164.014 163.837 163.795C164.233 163.576 164.701 163.467 165.238 163.467C166.861 163.467 167.686 164.326 167.713 166.044V171H166.448V166.119C166.448 165.59 166.327 165.196 166.086 164.937C165.844 164.672 165.439 164.54 164.869 164.54C164.4 164.54 164.01 164.681 163.7 164.964C163.39 165.242 163.21 165.618 163.16 166.092V171H161.889V166.153C161.889 165.078 161.362 164.54 160.31 164.54C159.48 164.54 158.913 164.893 158.607 165.6V171H157.343V163.604H158.539Z" fill="#00778B"/>
<path d="M68.543 72.3486H63.1729V78H61.4854V65.2031H69.4131V66.5918H63.1729V70.9688H68.543V72.3486ZM72.9463 78H71.3203V64.5H72.9463V78ZM79.5029 78.1758C78.2139 78.1758 77.165 77.7539 76.3564 76.9102C75.5479 76.0605 75.1436 74.9268 75.1436 73.5088V73.21C75.1436 72.2666 75.3223 71.4258 75.6797 70.6875C76.043 69.9434 76.5469 69.3633 77.1914 68.9473C77.8418 68.5254 78.5449 68.3145 79.3008 68.3145C80.5371 68.3145 81.498 68.7217 82.1836 69.5361C82.8691 70.3506 83.2119 71.5166 83.2119 73.0342V73.7109H76.7695C76.793 74.6484 77.0654 75.4072 77.5869 75.9873C78.1143 76.5615 78.7822 76.8486 79.5908 76.8486C80.165 76.8486 80.6514 76.7314 81.0498 76.4971C81.4482 76.2627 81.7969 75.9521 82.0957 75.5654L83.0889 76.3389C82.292 77.5635 81.0967 78.1758 79.5029 78.1758ZM79.3008 69.6504C78.6445 69.6504 78.0938 69.8906 77.6484 70.3711C77.2031 70.8457 76.9277 71.5137 76.8223 72.375H81.5859V72.252C81.5391 71.4258 81.3164 70.7871 80.918 70.3359C80.5195 69.8789 79.9805 69.6504 79.3008 69.6504ZM88.292 71.9619L90.4014 68.4902H92.2998L89.1885 73.1924L92.3965 78H90.5156L88.3184 74.4404L86.1211 78H84.2314L87.4395 73.1924L84.3281 68.4902H86.209L88.292 71.9619ZM102.311 76.8486C102.891 76.8486 103.397 76.6729 103.831 76.3213C104.265 75.9697 104.505 75.5303 104.552 75.0029H106.09C106.061 75.5479 105.873 76.0664 105.527 76.5586C105.182 77.0508 104.719 77.4434 104.139 77.7363C103.564 78.0293 102.955 78.1758 102.311 78.1758C101.016 78.1758 99.9844 77.7451 99.2168 76.8838C98.4551 76.0166 98.0742 74.833 98.0742 73.333V73.0605C98.0742 72.1348 98.2441 71.3115 98.584 70.5908C98.9238 69.8701 99.4102 69.3105 100.043 68.9121C100.682 68.5137 101.435 68.3145 102.302 68.3145C103.368 68.3145 104.253 68.6338 104.956 69.2725C105.665 69.9111 106.043 70.7402 106.09 71.7598H104.552C104.505 71.1445 104.271 70.6406 103.849 70.248C103.433 69.8496 102.917 69.6504 102.302 69.6504C101.476 69.6504 100.834 69.9492 100.377 70.5469C99.9258 71.1387 99.7002 71.9971 99.7002 73.1221V73.4297C99.7002 74.5254 99.9258 75.3691 100.377 75.9609C100.828 76.5527 101.473 76.8486 102.311 76.8486ZM107.487 73.1572C107.487 72.2256 107.669 71.3877 108.032 70.6436C108.401 69.8994 108.911 69.3252 109.562 68.9209C110.218 68.5166 110.965 68.3145 111.803 68.3145C113.098 68.3145 114.144 68.7627 114.94 69.6592C115.743 70.5557 116.145 71.748 116.145 73.2363V73.3506C116.145 74.2764 115.966 75.1084 115.608 75.8467C115.257 76.5791 114.75 77.1504 114.088 77.5605C113.432 77.9707 112.676 78.1758 111.82 78.1758C110.531 78.1758 109.485 77.7275 108.683 76.8311C107.886 75.9346 107.487 74.748 107.487 73.2715V73.1572ZM109.122 73.3506C109.122 74.4053 109.365 75.252 109.852 75.8906C110.344 76.5293 111 76.8486 111.82 76.8486C112.646 76.8486 113.303 76.5264 113.789 75.8818C114.275 75.2314 114.519 74.3232 114.519 73.1572C114.519 72.1143 114.27 71.2705 113.771 70.626C113.279 69.9756 112.623 69.6504 111.803 69.6504C111 69.6504 110.353 69.9697 109.86 70.6084C109.368 71.2471 109.122 72.1611 109.122 73.3506ZM119.722 68.4902L119.774 69.6855C120.501 68.7715 121.45 68.3145 122.622 68.3145C124.632 68.3145 125.646 69.4482 125.663 71.7158V78H124.037V71.707C124.031 71.0215 123.873 70.5146 123.562 70.1865C123.258 69.8584 122.78 69.6943 122.13 69.6943C121.603 69.6943 121.14 69.835 120.741 70.1162C120.343 70.3975 120.032 70.7666 119.81 71.2236V78H118.184V68.4902H119.722ZM130.321 66.1875V68.4902H132.097V69.7471H130.321V75.6445C130.321 76.0254 130.4 76.3125 130.559 76.5059C130.717 76.6934 130.986 76.7871 131.367 76.7871C131.555 76.7871 131.812 76.752 132.141 76.6816V78C131.713 78.1172 131.297 78.1758 130.893 78.1758C130.166 78.1758 129.618 77.9561 129.249 77.5166C128.88 77.0771 128.695 76.4531 128.695 75.6445V69.7471H126.964V68.4902H128.695V66.1875H130.321ZM139.875 78C139.781 77.8125 139.705 77.4785 139.646 76.998C138.891 77.7832 137.988 78.1758 136.939 78.1758C136.002 78.1758 135.231 77.9121 134.628 77.3848C134.03 76.8516 133.731 76.1777 133.731 75.3633C133.731 74.373 134.106 73.6055 134.856 73.0605C135.612 72.5098 136.673 72.2344 138.038 72.2344H139.62V71.4873C139.62 70.9189 139.45 70.4678 139.11 70.1338C138.771 69.7939 138.27 69.624 137.607 69.624C137.027 69.624 136.541 69.7705 136.148 70.0635C135.756 70.3564 135.56 70.7109 135.56 71.127H133.925C133.925 70.6523 134.092 70.1953 134.426 69.7559C134.766 69.3105 135.223 68.959 135.797 68.7012C136.377 68.4434 137.013 68.3145 137.704 68.3145C138.8 68.3145 139.658 68.5898 140.279 69.1406C140.9 69.6855 141.223 70.4385 141.246 71.3994V75.7764C141.246 76.6494 141.357 77.3438 141.58 77.8594V78H139.875ZM137.177 76.7607C137.687 76.7607 138.17 76.6289 138.627 76.3652C139.084 76.1016 139.415 75.7588 139.62 75.3369V73.3857H138.346C136.354 73.3857 135.357 73.9688 135.357 75.1348C135.357 75.6445 135.527 76.043 135.867 76.3301C136.207 76.6172 136.644 76.7607 137.177 76.7607ZM145.562 78H143.936V68.4902H145.562V78ZM143.804 65.9678C143.804 65.7041 143.883 65.4814 144.041 65.2998C144.205 65.1182 144.445 65.0273 144.762 65.0273C145.078 65.0273 145.318 65.1182 145.482 65.2998C145.646 65.4814 145.729 65.7041 145.729 65.9678C145.729 66.2314 145.646 66.4512 145.482 66.627C145.318 66.8027 145.078 66.8906 144.762 66.8906C144.445 66.8906 144.205 66.8027 144.041 66.627C143.883 66.4512 143.804 66.2314 143.804 65.9678ZM149.71 68.4902L149.763 69.6855C150.489 68.7715 151.438 68.3145 152.61 68.3145C154.62 68.3145 155.634 69.4482 155.651 71.7158V78H154.025V71.707C154.02 71.0215 153.861 70.5146 153.551 70.1865C153.246 69.8584 152.769 69.6943 152.118 69.6943C151.591 69.6943 151.128 69.835 150.729 70.1162C150.331 70.3975 150.021 70.7666 149.798 71.2236V78H148.172V68.4902H149.71ZM162.05 78.1758C160.761 78.1758 159.712 77.7539 158.903 76.9102C158.095 76.0605 157.69 74.9268 157.69 73.5088V73.21C157.69 72.2666 157.869 71.4258 158.227 70.6875C158.59 69.9434 159.094 69.3633 159.738 68.9473C160.389 68.5254 161.092 68.3145 161.848 68.3145C163.084 68.3145 164.045 68.7217 164.73 69.5361C165.416 70.3506 165.759 71.5166 165.759 73.0342V73.7109H159.316C159.34 74.6484 159.612 75.4072 160.134 75.9873C160.661 76.5615 161.329 76.8486 162.138 76.8486C162.712 76.8486 163.198 76.7314 163.597 76.4971C163.995 76.2627 164.344 75.9521 164.643 75.5654L165.636 76.3389C164.839 77.5635 163.644 78.1758 162.05 78.1758ZM161.848 69.6504C161.191 69.6504 160.641 69.8906 160.195 70.3711C159.75 70.8457 159.475 71.5137 159.369 72.375H164.133V72.252C164.086 71.4258 163.863 70.7871 163.465 70.3359C163.066 69.8789 162.527 69.6504 161.848 69.6504ZM172.245 69.9492C171.999 69.9082 171.732 69.8877 171.445 69.8877C170.379 69.8877 169.655 70.3418 169.274 71.25V78H167.648V68.4902H169.23L169.257 69.5889C169.79 68.7393 170.546 68.3145 171.524 68.3145C171.841 68.3145 172.081 68.3555 172.245 68.4375V69.9492Z" fill="#665191"/>
<path d="M255.645 166.604H251.468V171H250.155V161.047H256.321V162.127H251.468V165.531H255.645V166.604ZM259.069 171H257.805V160.5H259.069V171ZM264.169 171.137C263.166 171.137 262.351 170.809 261.722 170.152C261.093 169.492 260.778 168.61 260.778 167.507V167.274C260.778 166.541 260.917 165.887 261.195 165.312C261.478 164.734 261.87 164.283 262.371 163.959C262.877 163.631 263.424 163.467 264.012 163.467C264.973 163.467 265.721 163.784 266.254 164.417C266.787 165.05 267.054 165.957 267.054 167.138V167.664H262.043C262.061 168.393 262.273 168.983 262.679 169.435C263.089 169.881 263.608 170.104 264.237 170.104C264.684 170.104 265.062 170.013 265.372 169.831C265.682 169.649 265.953 169.407 266.186 169.106L266.958 169.708C266.338 170.66 265.409 171.137 264.169 171.137ZM264.012 164.506C263.501 164.506 263.073 164.693 262.727 165.066C262.38 165.436 262.166 165.955 262.084 166.625H265.789V166.529C265.753 165.887 265.579 165.39 265.27 165.039C264.96 164.684 264.54 164.506 264.012 164.506ZM271.005 166.304L272.646 163.604H274.122L271.702 167.261L274.197 171H272.734L271.025 168.231L269.316 171H267.847L270.342 167.261L267.922 163.604H269.385L271.005 166.304ZM280.315 171H279.051V163.604H280.315V171ZM278.948 161.642C278.948 161.437 279.01 161.263 279.133 161.122C279.26 160.981 279.447 160.91 279.693 160.91C279.939 160.91 280.126 160.981 280.254 161.122C280.382 161.263 280.445 161.437 280.445 161.642C280.445 161.847 280.382 162.018 280.254 162.154C280.126 162.291 279.939 162.359 279.693 162.359C279.447 162.359 279.26 162.291 279.133 162.154C279.01 162.018 278.948 161.847 278.948 161.642ZM284.062 161.812V163.604H285.442V164.581H284.062V169.168C284.062 169.464 284.123 169.688 284.246 169.838C284.369 169.984 284.579 170.057 284.875 170.057C285.021 170.057 285.221 170.029 285.477 169.975V171C285.144 171.091 284.82 171.137 284.506 171.137C283.941 171.137 283.515 170.966 283.228 170.624C282.94 170.282 282.797 169.797 282.797 169.168V164.581H281.45V163.604H282.797V161.812H284.062ZM289.995 171.137C288.993 171.137 288.177 170.809 287.548 170.152C286.919 169.492 286.604 168.61 286.604 167.507V167.274C286.604 166.541 286.743 165.887 287.021 165.312C287.304 164.734 287.696 164.283 288.197 163.959C288.703 163.631 289.25 163.467 289.838 163.467C290.799 163.467 291.547 163.784 292.08 164.417C292.613 165.05 292.88 165.957 292.88 167.138V167.664H287.869C287.887 168.393 288.099 168.983 288.505 169.435C288.915 169.881 289.435 170.104 290.063 170.104C290.51 170.104 290.888 170.013 291.198 169.831C291.508 169.649 291.779 169.407 292.012 169.106L292.784 169.708C292.164 170.66 291.235 171.137 289.995 171.137ZM289.838 164.506C289.327 164.506 288.899 164.693 288.553 165.066C288.206 165.436 287.992 165.955 287.91 166.625H291.615V166.529C291.579 165.887 291.406 165.39 291.096 165.039C290.786 164.684 290.367 164.506 289.838 164.506ZM295.539 163.604L295.573 164.424C296.116 163.786 296.847 163.467 297.768 163.467C298.802 163.467 299.506 163.863 299.88 164.656C300.126 164.301 300.445 164.014 300.837 163.795C301.233 163.576 301.701 163.467 302.238 163.467C303.861 163.467 304.686 164.326 304.713 166.044V171H303.448V166.119C303.448 165.59 303.327 165.196 303.086 164.937C302.844 164.672 302.439 164.54 301.869 164.54C301.4 164.54 301.01 164.681 300.7 164.964C300.39 165.242 300.21 165.618 300.16 166.092V171H298.889V166.153C298.889 165.078 298.362 164.54 297.31 164.54C296.48 164.54 295.913 164.893 295.607 165.6V171H294.343V163.604H295.539Z" fill="#00778B"/>
<path d="M392.645 166.604H388.468V171H387.155V161.047H393.321V162.127H388.468V165.531H392.645V166.604ZM396.069 171H394.805V160.5H396.069V171ZM401.169 171.137C400.166 171.137 399.351 170.809 398.722 170.152C398.093 169.492 397.778 168.61 397.778 167.507V167.274C397.778 166.541 397.917 165.887 398.195 165.312C398.478 164.734 398.87 164.283 399.371 163.959C399.877 163.631 400.424 163.467 401.012 163.467C401.973 163.467 402.721 163.784 403.254 164.417C403.787 165.05 404.054 165.957 404.054 167.138V167.664H399.043C399.061 168.393 399.273 168.983 399.679 169.435C400.089 169.881 400.608 170.104 401.237 170.104C401.684 170.104 402.062 170.013 402.372 169.831C402.682 169.649 402.953 169.407 403.186 169.106L403.958 169.708C403.338 170.66 402.409 171.137 401.169 171.137ZM401.012 164.506C400.501 164.506 400.073 164.693 399.727 165.066C399.38 165.436 399.166 165.955 399.084 166.625H402.789V166.529C402.753 165.887 402.579 165.39 402.27 165.039C401.96 164.684 401.54 164.506 401.012 164.506ZM408.005 166.304L409.646 163.604H411.122L408.702 167.261L411.197 171H409.734L408.025 168.231L406.316 171H404.847L407.342 167.261L404.922 163.604H406.385L408.005 166.304ZM417.315 171H416.051V163.604H417.315V171ZM415.948 161.642C415.948 161.437 416.01 161.263 416.133 161.122C416.26 160.981 416.447 160.91 416.693 160.91C416.939 160.91 417.126 160.981 417.254 161.122C417.382 161.263 417.445 161.437 417.445 161.642C417.445 161.847 417.382 162.018 417.254 162.154C417.126 162.291 416.939 162.359 416.693 162.359C416.447 162.359 416.26 162.291 416.133 162.154C416.01 162.018 415.948 161.847 415.948 161.642ZM421.062 161.812V163.604H422.442V164.581H421.062V169.168C421.062 169.464 421.123 169.688 421.246 169.838C421.369 169.984 421.579 170.057 421.875 170.057C422.021 170.057 422.221 170.029 422.477 169.975V171C422.144 171.091 421.82 171.137 421.506 171.137C420.941 171.137 420.515 170.966 420.228 170.624C419.94 170.282 419.797 169.797 419.797 169.168V164.581H418.45V163.604H419.797V161.812H421.062ZM426.995 171.137C425.993 171.137 425.177 170.809 424.548 170.152C423.919 169.492 423.604 168.61 423.604 167.507V167.274C423.604 166.541 423.743 165.887 424.021 165.312C424.304 164.734 424.696 164.283 425.197 163.959C425.703 163.631 426.25 163.467 426.838 163.467C427.799 163.467 428.547 163.784 429.08 164.417C429.613 165.05 429.88 165.957 429.88 167.138V167.664H424.869C424.887 168.393 425.099 168.983 425.505 169.435C425.915 169.881 426.435 170.104 427.063 170.104C427.51 170.104 427.888 170.013 428.198 169.831C428.508 169.649 428.779 169.407 429.012 169.106L429.784 169.708C429.164 170.66 428.235 171.137 426.995 171.137ZM426.838 164.506C426.327 164.506 425.899 164.693 425.553 165.066C425.206 165.436 424.992 165.955 424.91 166.625H428.615V166.529C428.579 165.887 428.406 165.39 428.096 165.039C427.786 164.684 427.367 164.506 426.838 164.506ZM432.539 163.604L432.573 164.424C433.116 163.786 433.847 163.467 434.768 163.467C435.802 163.467 436.506 163.863 436.88 164.656C437.126 164.301 437.445 164.014 437.837 163.795C438.233 163.576 438.701 163.467 439.238 163.467C440.861 163.467 441.686 164.326 441.713 166.044V171H440.448V166.119C440.448 165.59 440.327 165.196 440.086 164.937C439.844 164.672 439.439 164.54 438.869 164.54C438.4 164.54 438.01 164.681 437.7 164.964C437.39 165.242 437.21 165.618 437.16 166.092V171H435.889V166.153C435.889 165.078 435.362 164.54 434.31 164.54C433.48 164.54 432.913 164.893 432.607 165.6V171H431.343V163.604H432.539Z" fill="#00778B"/>
<circle cx="43.5" cy="197.5" r="16.5" fill="#F95D6A"/>
<circle cx="292.5" cy="44.5" r="16.5" fill="#FFA600"/>
<path d="M596 197L567.5 213.454L567.5 180.546L596 197Z" fill="#F95D6A"/>
<path d="M292.5 392L275.613 362.75L309.387 362.75L292.5 392Z" fill="#FFA600"/>
<rect x="52" y="196" width="522" height="3" fill="#F95D6A"/>
<rect x="43" y="347" width="2" height="46" fill="#F95D6A"/>
<rect x="541" y="347" width="2" height="46" fill="#F95D6A"/>
<rect x="590" y="344" width="2" height="46" transform="rotate(90 590 344)" fill="#FFA600"/>
<rect x="591" y="47" width="2" height="46" transform="rotate(90 591 47)" fill="#FFA600"/>
<rect x="294" y="47" width="320" height="3" transform="rotate(90 294 47)" fill="#FFA600"/>
<path d="M255.065 12.834C254.937 14.1992 254.433 15.2656 253.554 16.0332C252.675 16.7949 251.506 17.1758 250.047 17.1758C249.027 17.1758 248.128 16.9355 247.349 16.4551C246.575 15.9688 245.978 15.2803 245.556 14.3896C245.134 13.499 244.914 12.4648 244.896 11.2871V10.0918C244.896 8.88477 245.11 7.82129 245.538 6.90137C245.966 5.98145 246.578 5.27246 247.375 4.77441C248.178 4.27637 249.104 4.02734 250.152 4.02734C251.564 4.02734 252.701 4.41113 253.562 5.17871C254.424 5.94629 254.925 7.03027 255.065 8.43066H252.851C252.745 7.51074 252.476 6.84863 252.042 6.44434C251.614 6.03418 250.984 5.8291 250.152 5.8291C249.186 5.8291 248.441 6.18359 247.92 6.89258C247.404 7.5957 247.141 8.62988 247.129 9.99512V11.1289C247.129 12.5117 247.375 13.5664 247.867 14.293C248.365 15.0195 249.092 15.3828 250.047 15.3828C250.92 15.3828 251.576 15.1865 252.016 14.7939C252.455 14.4014 252.733 13.748 252.851 12.834H255.065ZM261.763 12.0693H259.284V17H257.061V4.20312H261.561C263.037 4.20312 264.177 4.53418 264.979 5.19629C265.782 5.8584 266.184 6.81641 266.184 8.07031C266.184 8.92578 265.976 9.64355 265.56 10.2236C265.149 10.7979 264.575 11.2402 263.837 11.5508L266.711 16.8857V17H264.329L261.763 12.0693ZM259.284 10.2852H261.569C262.319 10.2852 262.905 10.0977 263.327 9.72266C263.749 9.3418 263.96 8.82324 263.96 8.16699C263.96 7.48145 263.764 6.95117 263.371 6.57617C262.984 6.20117 262.404 6.00781 261.631 5.99609H259.284V10.2852ZM278.506 10.9355C278.506 12.1895 278.289 13.291 277.855 14.2402C277.422 15.1836 276.801 15.9102 275.992 16.4199C275.189 16.9238 274.264 17.1758 273.215 17.1758C272.178 17.1758 271.252 16.9238 270.438 16.4199C269.629 15.9102 269.002 15.1865 268.557 14.249C268.117 13.3115 267.895 12.2305 267.889 11.0059V10.2852C267.889 9.03711 268.108 7.93555 268.548 6.98047C268.993 6.02539 269.617 5.2959 270.42 4.79199C271.229 4.28223 272.154 4.02734 273.197 4.02734C274.24 4.02734 275.163 4.2793 275.966 4.7832C276.774 5.28125 277.398 6.00195 277.838 6.94531C278.277 7.88281 278.5 8.97559 278.506 10.2236V10.9355ZM276.282 10.2676C276.282 8.84961 276.013 7.7627 275.474 7.00684C274.94 6.25098 274.182 5.87305 273.197 5.87305C272.236 5.87305 271.483 6.25098 270.938 7.00684C270.399 7.75684 270.124 8.82031 270.112 10.1973V10.9355C270.112 12.3418 270.385 13.4287 270.93 14.1963C271.48 14.9639 272.242 15.3477 273.215 15.3477C274.199 15.3477 274.955 14.9727 275.482 14.2227C276.016 13.4727 276.282 12.377 276.282 10.9355V10.2676ZM287.409 13.7041C287.409 13.1416 287.21 12.708 286.812 12.4033C286.419 12.0986 285.707 11.791 284.676 11.4805C283.645 11.1699 282.824 10.8242 282.215 10.4434C281.049 9.71094 280.466 8.75586 280.466 7.57812C280.466 6.54688 280.885 5.69727 281.723 5.0293C282.566 4.36133 283.659 4.02734 285.001 4.02734C285.892 4.02734 286.686 4.19141 287.383 4.51953C288.08 4.84766 288.628 5.31641 289.026 5.92578C289.425 6.5293 289.624 7.2002 289.624 7.93848H287.409C287.409 7.27051 287.198 6.74902 286.776 6.37402C286.36 5.99316 285.763 5.80273 284.983 5.80273C284.257 5.80273 283.691 5.95801 283.287 6.26855C282.889 6.5791 282.689 7.0127 282.689 7.56934C282.689 8.03809 282.906 8.43066 283.34 8.74707C283.773 9.05762 284.488 9.3623 285.484 9.66113C286.48 9.9541 287.28 10.291 287.884 10.6719C288.487 11.0469 288.93 11.4805 289.211 11.9727C289.492 12.459 289.633 13.0303 289.633 13.6865C289.633 14.7529 289.223 15.6025 288.402 16.2354C287.588 16.8623 286.48 17.1758 285.08 17.1758C284.154 17.1758 283.302 17.0059 282.522 16.666C281.749 16.3203 281.146 15.8457 280.712 15.2422C280.284 14.6387 280.07 13.9355 280.07 13.1328H282.294C282.294 13.8594 282.534 14.4219 283.015 14.8203C283.495 15.2188 284.184 15.418 285.08 15.418C285.854 15.418 286.434 15.2627 286.82 14.9521C287.213 14.6357 287.409 14.2197 287.409 13.7041ZM298.272 13.7041C298.272 13.1416 298.073 12.708 297.675 12.4033C297.282 12.0986 296.57 11.791 295.539 11.4805C294.508 11.1699 293.688 10.8242 293.078 10.4434C291.912 9.71094 291.329 8.75586 291.329 7.57812C291.329 6.54688 291.748 5.69727 292.586 5.0293C293.43 4.36133 294.522 4.02734 295.864 4.02734C296.755 4.02734 297.549 4.19141 298.246 4.51953C298.943 4.84766 299.491 5.31641 299.89 5.92578C300.288 6.5293 300.487 7.2002 300.487 7.93848H298.272C298.272 7.27051 298.062 6.74902 297.64 6.37402C297.224 5.99316 296.626 5.80273 295.847 5.80273C295.12 5.80273 294.555 5.95801 294.15 6.26855C293.752 6.5791 293.553 7.0127 293.553 7.56934C293.553 8.03809 293.77 8.43066 294.203 8.74707C294.637 9.05762 295.352 9.3623 296.348 9.66113C297.344 9.9541 298.144 10.291 298.747 10.6719C299.351 11.0469 299.793 11.4805 300.074 11.9727C300.355 12.459 300.496 13.0303 300.496 13.6865C300.496 14.7529 300.086 15.6025 299.266 16.2354C298.451 16.8623 297.344 17.1758 295.943 17.1758C295.018 17.1758 294.165 17.0059 293.386 16.666C292.612 16.3203 292.009 15.8457 291.575 15.2422C291.147 14.6387 290.934 13.9355 290.934 13.1328H293.157C293.157 13.8594 293.397 14.4219 293.878 14.8203C294.358 15.2188 295.047 15.418 295.943 15.418C296.717 15.418 297.297 15.2627 297.684 14.9521C298.076 14.6357 298.272 14.2197 298.272 13.7041ZM314.093 14.0205H309.136L308.099 17H305.787L310.621 4.20312H312.616L317.459 17H315.139L314.093 14.0205ZM309.76 12.2275H313.469L311.614 6.91895L309.76 12.2275ZM323.321 8.82617L326.011 4.20312H328.577L324.71 10.5488L328.665 17H326.072L323.321 12.3066L320.562 17H317.978L321.941 10.5488L318.065 4.20312H320.632L323.321 8.82617ZM332.655 17H330.44V4.20312H332.655V17ZM342.077 13.7041C342.077 13.1416 341.878 12.708 341.479 12.4033C341.087 12.0986 340.375 11.791 339.344 11.4805C338.312 11.1699 337.492 10.8242 336.883 10.4434C335.717 9.71094 335.134 8.75586 335.134 7.57812C335.134 6.54688 335.553 5.69727 336.391 5.0293C337.234 4.36133 338.327 4.02734 339.669 4.02734C340.56 4.02734 341.354 4.19141 342.051 4.51953C342.748 4.84766 343.296 5.31641 343.694 5.92578C344.093 6.5293 344.292 7.2002 344.292 7.93848H342.077C342.077 7.27051 341.866 6.74902 341.444 6.37402C341.028 5.99316 340.431 5.80273 339.651 5.80273C338.925 5.80273 338.359 5.95801 337.955 6.26855C337.557 6.5791 337.357 7.0127 337.357 7.56934C337.357 8.03809 337.574 8.43066 338.008 8.74707C338.441 9.05762 339.156 9.3623 340.152 9.66113C341.148 9.9541 341.948 10.291 342.552 10.6719C343.155 11.0469 343.598 11.4805 343.879 11.9727C344.16 12.459 344.301 13.0303 344.301 13.6865C344.301 14.7529 343.891 15.6025 343.07 16.2354C342.256 16.8623 341.148 17.1758 339.748 17.1758C338.822 17.1758 337.97 17.0059 337.19 16.666C336.417 16.3203 335.813 15.8457 335.38 15.2422C334.952 14.6387 334.738 13.9355 334.738 13.1328H336.962C336.962 13.8594 337.202 14.4219 337.683 14.8203C338.163 15.2188 338.852 15.418 339.748 15.418C340.521 15.418 341.102 15.2627 341.488 14.9521C341.881 14.6357 342.077 14.2197 342.077 13.7041Z" fill="#FFA600"/>
<path d="M53.1465 367.604L53.1807 368.424C53.723 367.786 54.4544 367.467 55.375 367.467C56.4095 367.467 57.1136 367.863 57.4873 368.656C57.7334 368.301 58.0524 368.014 58.4443 367.795C58.8408 367.576 59.3079 367.467 59.8457 367.467C61.4681 367.467 62.293 368.326 62.3203 370.044V375H61.0557V370.119C61.0557 369.59 60.9349 369.196 60.6934 368.937C60.4518 368.672 60.0462 368.54 59.4766 368.54C59.0072 368.54 58.6175 368.681 58.3076 368.964C57.9977 369.242 57.8177 369.618 57.7676 370.092V375H56.4961V370.153C56.4961 369.078 55.9697 368.54 54.917 368.54C54.0876 368.54 53.5202 368.893 53.2148 369.6V375H51.9502V367.604H53.1465ZM68.8008 375C68.7279 374.854 68.6686 374.594 68.623 374.221C68.0352 374.831 67.3333 375.137 66.5176 375.137C65.7884 375.137 65.1891 374.932 64.7197 374.521C64.2549 374.107 64.0225 373.583 64.0225 372.949C64.0225 372.179 64.3141 371.582 64.8975 371.158C65.4854 370.73 66.3102 370.516 67.3721 370.516H68.6025V369.935C68.6025 369.493 68.4704 369.142 68.2061 368.882C67.9417 368.618 67.5521 368.485 67.0371 368.485C66.5859 368.485 66.2077 368.599 65.9023 368.827C65.597 369.055 65.4443 369.331 65.4443 369.654H64.1729C64.1729 369.285 64.3027 368.93 64.5625 368.588C64.8268 368.242 65.1823 367.968 65.6289 367.768C66.0801 367.567 66.5745 367.467 67.1123 367.467C67.9645 367.467 68.6322 367.681 69.1152 368.109C69.5983 368.533 69.849 369.119 69.8672 369.866V373.271C69.8672 373.95 69.9538 374.49 70.127 374.891V375H68.8008ZM66.7021 374.036C67.0986 374.036 67.4746 373.934 67.8301 373.729C68.1855 373.523 68.443 373.257 68.6025 372.929V371.411H67.6113C66.0618 371.411 65.2871 371.865 65.2871 372.771C65.2871 373.168 65.4193 373.478 65.6836 373.701C65.9479 373.924 66.2874 374.036 66.7021 374.036ZM73.2236 375H71.959V367.604H73.2236V375ZM71.8564 365.642C71.8564 365.437 71.918 365.263 72.041 365.122C72.1686 364.981 72.3555 364.91 72.6016 364.91C72.8477 364.91 73.0345 364.981 73.1621 365.122C73.2897 365.263 73.3535 365.437 73.3535 365.642C73.3535 365.847 73.2897 366.018 73.1621 366.154C73.0345 366.291 72.8477 366.359 72.6016 366.359C72.3555 366.359 72.1686 366.291 72.041 366.154C71.918 366.018 71.8564 365.847 71.8564 365.642ZM76.4502 367.604L76.4912 368.533C77.0563 367.822 77.7946 367.467 78.7061 367.467C80.2692 367.467 81.0576 368.349 81.0713 370.112V375H79.8066V370.105C79.8021 369.572 79.679 369.178 79.4375 368.923C79.2005 368.668 78.8291 368.54 78.3232 368.54C77.9131 368.54 77.5531 368.649 77.2432 368.868C76.9333 369.087 76.6917 369.374 76.5186 369.729V375H75.2539V367.604H76.4502ZM58.9893 389.704C58.9893 389.142 58.79 388.708 58.3916 388.403C57.999 388.099 57.2871 387.791 56.2559 387.48C55.2246 387.17 54.4043 386.824 53.7949 386.443C52.6289 385.711 52.0459 384.756 52.0459 383.578C52.0459 382.547 52.4648 381.697 53.3027 381.029C54.1465 380.361 55.2393 380.027 56.5811 380.027C57.4717 380.027 58.2656 380.191 58.9629 380.52C59.6602 380.848 60.208 381.316 60.6064 381.926C61.0049 382.529 61.2041 383.2 61.2041 383.938H58.9893C58.9893 383.271 58.7783 382.749 58.3564 382.374C57.9404 381.993 57.3428 381.803 56.5635 381.803C55.8369 381.803 55.2715 381.958 54.8672 382.269C54.4688 382.579 54.2695 383.013 54.2695 383.569C54.2695 384.038 54.4863 384.431 54.9199 384.747C55.3535 385.058 56.0684 385.362 57.0645 385.661C58.0605 385.954 58.8604 386.291 59.4639 386.672C60.0674 387.047 60.5098 387.48 60.791 387.973C61.0723 388.459 61.2129 389.03 61.2129 389.687C61.2129 390.753 60.8027 391.603 59.9824 392.235C59.168 392.862 58.0605 393.176 56.6602 393.176C55.7344 393.176 54.8818 393.006 54.1025 392.666C53.3291 392.32 52.7256 391.846 52.292 391.242C51.8643 390.639 51.6504 389.936 51.6504 389.133H53.874C53.874 389.859 54.1143 390.422 54.5947 390.82C55.0752 391.219 55.7637 391.418 56.6602 391.418C57.4336 391.418 58.0137 391.263 58.4004 390.952C58.793 390.636 58.9893 390.22 58.9893 389.704ZM72.4102 381.996H68.4199V393H66.2139V381.996H62.2588V380.203H72.4102V381.996ZM80.2061 390.021H75.249L74.2119 393H71.9004L76.7344 380.203H78.7295L83.5723 393H81.252L80.2061 390.021ZM75.873 388.228H79.582L77.7275 382.919L75.873 388.228ZM89.7334 388.069H87.2549V393H85.0312V380.203H89.5312C91.0078 380.203 92.1475 380.534 92.9502 381.196C93.7529 381.858 94.1543 382.816 94.1543 384.07C94.1543 384.926 93.9463 385.644 93.5303 386.224C93.1201 386.798 92.5459 387.24 91.8076 387.551L94.6816 392.886V393H92.2998L89.7334 388.069ZM87.2549 386.285H89.54C90.29 386.285 90.876 386.098 91.2979 385.723C91.7197 385.342 91.9307 384.823 91.9307 384.167C91.9307 383.481 91.7344 382.951 91.3418 382.576C90.9551 382.201 90.375 382.008 89.6016 381.996H87.2549V386.285ZM105.07 381.996H101.08V393H98.874V381.996H94.9189V380.203H105.07V381.996Z" fill="#F95D6A"/>
<path d="M502.146 367.604L502.181 368.424C502.723 367.786 503.454 367.467 504.375 367.467C505.41 367.467 506.114 367.863 506.487 368.656C506.733 368.301 507.052 368.014 507.444 367.795C507.841 367.576 508.308 367.467 508.846 367.467C510.468 367.467 511.293 368.326 511.32 370.044V375H510.056V370.119C510.056 369.59 509.935 369.196 509.693 368.937C509.452 368.672 509.046 368.54 508.477 368.54C508.007 368.54 507.618 368.681 507.308 368.964C506.998 369.242 506.818 369.618 506.768 370.092V375H505.496V370.153C505.496 369.078 504.97 368.54 503.917 368.54C503.088 368.54 502.52 368.893 502.215 369.6V375H500.95V367.604H502.146ZM517.801 375C517.728 374.854 517.669 374.594 517.623 374.221C517.035 374.831 516.333 375.137 515.518 375.137C514.788 375.137 514.189 374.932 513.72 374.521C513.255 374.107 513.022 373.583 513.022 372.949C513.022 372.179 513.314 371.582 513.897 371.158C514.485 370.73 515.31 370.516 516.372 370.516H517.603V369.935C517.603 369.493 517.47 369.142 517.206 368.882C516.942 368.618 516.552 368.485 516.037 368.485C515.586 368.485 515.208 368.599 514.902 368.827C514.597 369.055 514.444 369.331 514.444 369.654H513.173C513.173 369.285 513.303 368.93 513.562 368.588C513.827 368.242 514.182 367.968 514.629 367.768C515.08 367.567 515.575 367.467 516.112 367.467C516.965 367.467 517.632 367.681 518.115 368.109C518.598 368.533 518.849 369.119 518.867 369.866V373.271C518.867 373.95 518.954 374.49 519.127 374.891V375H517.801ZM515.702 374.036C516.099 374.036 516.475 373.934 516.83 373.729C517.186 373.523 517.443 373.257 517.603 372.929V371.411H516.611C515.062 371.411 514.287 371.865 514.287 372.771C514.287 373.168 514.419 373.478 514.684 373.701C514.948 373.924 515.287 374.036 515.702 374.036ZM522.224 375H520.959V367.604H522.224V375ZM520.856 365.642C520.856 365.437 520.918 365.263 521.041 365.122C521.169 364.981 521.355 364.91 521.602 364.91C521.848 364.91 522.035 364.981 522.162 365.122C522.29 365.263 522.354 365.437 522.354 365.642C522.354 365.847 522.29 366.018 522.162 366.154C522.035 366.291 521.848 366.359 521.602 366.359C521.355 366.359 521.169 366.291 521.041 366.154C520.918 366.018 520.856 365.847 520.856 365.642ZM525.45 367.604L525.491 368.533C526.056 367.822 526.795 367.467 527.706 367.467C529.269 367.467 530.058 368.349 530.071 370.112V375H528.807V370.105C528.802 369.572 528.679 369.178 528.438 368.923C528.201 368.668 527.829 368.54 527.323 368.54C526.913 368.54 526.553 368.649 526.243 368.868C525.933 369.087 525.692 369.374 525.519 369.729V375H524.254V367.604H525.45ZM508.78 387.287H503.524V391.225H509.668V393H501.301V380.203H509.606V381.996H503.524V385.529H508.78V387.287ZM521.63 393H519.406L513.702 383.921V393H511.479V380.203H513.702L519.424 389.317V380.203H521.63V393ZM524.258 393V380.203H528.037C529.168 380.203 530.17 380.455 531.043 380.959C531.922 381.463 532.602 382.178 533.082 383.104C533.562 384.029 533.803 385.09 533.803 386.285V386.927C533.803 388.14 533.56 389.206 533.073 390.126C532.593 391.046 531.904 391.755 531.008 392.253C530.117 392.751 529.095 393 527.94 393H524.258ZM526.481 381.996V391.225H527.932C529.098 391.225 529.991 390.861 530.612 390.135C531.239 389.402 531.559 388.354 531.57 386.988V386.276C531.57 384.888 531.269 383.827 530.665 383.095C530.062 382.362 529.186 381.996 528.037 381.996H526.481Z" fill="#F95D6A"/>
<path d="M560.924 59.1045C561.375 59.1045 561.769 58.9678 562.106 58.6943C562.444 58.4209 562.631 58.0791 562.667 57.6689H563.863C563.84 58.0928 563.695 58.4961 563.426 58.8789C563.157 59.2617 562.797 59.5671 562.346 59.7949C561.899 60.0228 561.425 60.1367 560.924 60.1367C559.917 60.1367 559.115 59.8018 558.518 59.1318C557.925 58.4574 557.629 57.5368 557.629 56.3701V56.1582C557.629 55.4382 557.761 54.7979 558.025 54.2373C558.29 53.6768 558.668 53.2415 559.16 52.9316C559.657 52.6217 560.243 52.4668 560.917 52.4668C561.746 52.4668 562.435 52.7152 562.981 53.2119C563.533 53.7087 563.827 54.3535 563.863 55.1465H562.667C562.631 54.668 562.448 54.276 562.12 53.9707C561.797 53.6608 561.396 53.5059 560.917 53.5059C560.274 53.5059 559.775 53.7383 559.42 54.2031C559.069 54.6634 558.894 55.3311 558.894 56.2061V56.4453C558.894 57.2975 559.069 57.9538 559.42 58.4141C559.771 58.8743 560.272 59.1045 560.924 59.1045ZM568.86 53.7383C568.669 53.7064 568.462 53.6904 568.238 53.6904C567.409 53.6904 566.846 54.0436 566.55 54.75V60H565.285V52.6035H566.516L566.536 53.458C566.951 52.7972 567.539 52.4668 568.3 52.4668C568.546 52.4668 568.733 52.4987 568.86 52.5625V53.7383ZM569.558 56.2334C569.558 55.5088 569.699 54.8571 569.981 54.2783C570.269 53.6995 570.665 53.2529 571.171 52.9385C571.681 52.624 572.262 52.4668 572.914 52.4668C573.921 52.4668 574.735 52.8154 575.354 53.5127C575.979 54.21 576.291 55.1374 576.291 56.2949V56.3838C576.291 57.1038 576.152 57.751 575.874 58.3252C575.601 58.8949 575.206 59.3392 574.691 59.6582C574.181 59.9772 573.593 60.1367 572.928 60.1367C571.925 60.1367 571.112 59.7881 570.487 59.0908C569.868 58.3936 569.558 57.4707 569.558 56.3223V56.2334ZM570.829 56.3838C570.829 57.2041 571.018 57.8626 571.396 58.3594C571.779 58.8561 572.29 59.1045 572.928 59.1045C573.57 59.1045 574.081 58.8538 574.459 58.3525C574.837 57.8467 575.026 57.1403 575.026 56.2334C575.026 55.4222 574.833 54.766 574.445 54.2646C574.062 53.7588 573.552 53.5059 572.914 53.5059C572.29 53.5059 571.786 53.7542 571.403 54.251C571.021 54.7477 570.829 55.4587 570.829 56.3838ZM582.184 58.0381C582.184 57.6963 582.054 57.432 581.794 57.2451C581.539 57.0537 581.09 56.8896 580.447 56.7529C579.809 56.6162 579.301 56.4521 578.923 56.2607C578.549 56.0693 578.271 55.8415 578.089 55.5771C577.911 55.3128 577.822 54.9984 577.822 54.6338C577.822 54.0277 578.077 53.515 578.588 53.0957C579.103 52.6764 579.759 52.4668 580.557 52.4668C581.395 52.4668 582.074 52.6833 582.594 53.1162C583.118 53.5492 583.38 54.1029 583.38 54.7773H582.108C582.108 54.431 581.96 54.1325 581.664 53.8818C581.372 53.6312 581.003 53.5059 580.557 53.5059C580.096 53.5059 579.736 53.6061 579.477 53.8066C579.217 54.0072 579.087 54.2692 579.087 54.5928C579.087 54.8981 579.208 55.1283 579.449 55.2832C579.691 55.4382 580.126 55.5863 580.755 55.7275C581.388 55.8688 581.901 56.0374 582.293 56.2334C582.685 56.4294 582.974 56.6663 583.161 56.9443C583.353 57.2178 583.448 57.5527 583.448 57.9492C583.448 58.61 583.184 59.141 582.655 59.542C582.127 59.9385 581.441 60.1367 580.598 60.1367C580.005 60.1367 579.481 60.0319 579.025 59.8223C578.57 59.6126 578.212 59.321 577.952 58.9473C577.697 58.569 577.569 58.1611 577.569 57.7236H578.834C578.857 58.1475 579.025 58.4847 579.34 58.7354C579.659 58.9814 580.078 59.1045 580.598 59.1045C581.076 59.1045 581.459 59.0088 581.746 58.8174C582.038 58.6214 582.184 58.3617 582.184 58.0381ZM589.402 58.0381C589.402 57.6963 589.272 57.432 589.013 57.2451C588.757 57.0537 588.309 56.8896 587.666 56.7529C587.028 56.6162 586.52 56.4521 586.142 56.2607C585.768 56.0693 585.49 55.8415 585.308 55.5771C585.13 55.3128 585.041 54.9984 585.041 54.6338C585.041 54.0277 585.296 53.515 585.807 53.0957C586.322 52.6764 586.978 52.4668 587.775 52.4668C588.614 52.4668 589.293 52.6833 589.812 53.1162C590.337 53.5492 590.599 54.1029 590.599 54.7773H589.327C589.327 54.431 589.179 54.1325 588.883 53.8818C588.591 53.6312 588.222 53.5059 587.775 53.5059C587.315 53.5059 586.955 53.6061 586.695 53.8066C586.436 54.0072 586.306 54.2692 586.306 54.5928C586.306 54.8981 586.426 55.1283 586.668 55.2832C586.91 55.4382 587.345 55.5863 587.974 55.7275C588.607 55.8688 589.12 56.0374 589.512 56.2334C589.904 56.4294 590.193 56.6663 590.38 56.9443C590.571 57.2178 590.667 57.5527 590.667 57.9492C590.667 58.61 590.403 59.141 589.874 59.542C589.345 59.9385 588.66 60.1367 587.816 60.1367C587.224 60.1367 586.7 60.0319 586.244 59.8223C585.788 59.6126 585.431 59.321 585.171 58.9473C584.916 58.569 584.788 58.1611 584.788 57.7236H586.053C586.076 58.1475 586.244 58.4847 586.559 58.7354C586.878 58.9814 587.297 59.1045 587.816 59.1045C588.295 59.1045 588.678 59.0088 588.965 58.8174C589.257 58.6214 589.402 58.3617 589.402 58.0381ZM564.989 74.7041C564.989 74.1416 564.79 73.708 564.392 73.4033C563.999 73.0986 563.287 72.791 562.256 72.4805C561.225 72.1699 560.404 71.8242 559.795 71.4434C558.629 70.7109 558.046 69.7559 558.046 68.5781C558.046 67.5469 558.465 66.6973 559.303 66.0293C560.146 65.3613 561.239 65.0273 562.581 65.0273C563.472 65.0273 564.266 65.1914 564.963 65.5195C565.66 65.8477 566.208 66.3164 566.606 66.9258C567.005 67.5293 567.204 68.2002 567.204 68.9385H564.989C564.989 68.2705 564.778 67.749 564.356 67.374C563.94 66.9932 563.343 66.8027 562.563 66.8027C561.837 66.8027 561.271 66.958 560.867 67.2686C560.469 67.5791 560.27 68.0127 560.27 68.5693C560.27 69.0381 560.486 69.4307 560.92 69.7471C561.354 70.0576 562.068 70.3623 563.064 70.6611C564.061 70.9541 564.86 71.291 565.464 71.6719C566.067 72.0469 566.51 72.4805 566.791 72.9727C567.072 73.459 567.213 74.0303 567.213 74.6865C567.213 75.7529 566.803 76.6025 565.982 77.2354C565.168 77.8623 564.061 78.1758 562.66 78.1758C561.734 78.1758 560.882 78.0059 560.103 77.666C559.329 77.3203 558.726 76.8457 558.292 76.2422C557.864 75.6387 557.65 74.9355 557.65 74.1328H559.874C559.874 74.8594 560.114 75.4219 560.595 75.8203C561.075 76.2188 561.764 76.418 562.66 76.418C563.434 76.418 564.014 76.2627 564.4 75.9521C564.793 75.6357 564.989 75.2197 564.989 74.7041ZM578.41 66.9961H574.42V78H572.214V66.9961H568.259V65.2031H578.41V66.9961ZM586.206 75.0205H581.249L580.212 78H577.9L582.734 65.2031H584.729L589.572 78H587.252L586.206 75.0205ZM581.873 73.2275H585.582L583.728 67.9189L581.873 73.2275ZM595.733 73.0693H593.255V78H591.031V65.2031H595.531C597.008 65.2031 598.147 65.5342 598.95 66.1963C599.753 66.8584 600.154 67.8164 600.154 69.0703C600.154 69.9258 599.946 70.6436 599.53 71.2236C599.12 71.7979 598.546 72.2402 597.808 72.5508L600.682 77.8857V78H598.3L595.733 73.0693ZM593.255 71.2852H595.54C596.29 71.2852 596.876 71.0977 597.298 70.7227C597.72 70.3418 597.931 69.8232 597.931 69.167C597.931 68.4814 597.734 67.9512 597.342 67.5762C596.955 67.2012 596.375 67.0078 595.602 66.9961H593.255V71.2852ZM611.07 66.9961H607.08V78H604.874V66.9961H600.919V65.2031H611.07V66.9961Z" fill="#FFA600"/>
<rect x="43" y="150" width="24" height="30" fill="white"/>
<path d="M558.363 316.232C558.75 316.232 559.088 316.115 559.377 315.881C559.666 315.646 559.826 315.354 559.857 315.002H560.883C560.863 315.365 560.738 315.711 560.508 316.039C560.277 316.367 559.969 316.629 559.582 316.824C559.199 317.02 558.793 317.117 558.363 317.117C557.5 317.117 556.812 316.83 556.301 316.256C555.793 315.678 555.539 314.889 555.539 313.889V313.707C555.539 313.09 555.652 312.541 555.879 312.061C556.105 311.58 556.43 311.207 556.852 310.941C557.277 310.676 557.779 310.543 558.357 310.543C559.068 310.543 559.658 310.756 560.127 311.182C560.6 311.607 560.852 312.16 560.883 312.84H559.857C559.826 312.43 559.67 312.094 559.389 311.832C559.111 311.566 558.768 311.434 558.357 311.434C557.807 311.434 557.379 311.633 557.074 312.031C556.773 312.426 556.623 312.998 556.623 313.748V313.953C556.623 314.684 556.773 315.246 557.074 315.641C557.375 316.035 557.805 316.232 558.363 316.232ZM565.166 311.633C565.002 311.605 564.824 311.592 564.633 311.592C563.922 311.592 563.439 311.895 563.186 312.5V317H562.102V310.66H563.156L563.174 311.393C563.529 310.826 564.033 310.543 564.686 310.543C564.896 310.543 565.057 310.57 565.166 310.625V311.633ZM565.764 313.771C565.764 313.15 565.885 312.592 566.127 312.096C566.373 311.6 566.713 311.217 567.146 310.947C567.584 310.678 568.082 310.543 568.641 310.543C569.504 310.543 570.201 310.842 570.732 311.439C571.268 312.037 571.535 312.832 571.535 313.824V313.9C571.535 314.518 571.416 315.072 571.178 315.564C570.943 316.053 570.605 316.434 570.164 316.707C569.727 316.98 569.223 317.117 568.652 317.117C567.793 317.117 567.096 316.818 566.561 316.221C566.029 315.623 565.764 314.832 565.764 313.848V313.771ZM566.854 313.9C566.854 314.604 567.016 315.168 567.34 315.594C567.668 316.02 568.105 316.232 568.652 316.232C569.203 316.232 569.641 316.018 569.965 315.588C570.289 315.154 570.451 314.549 570.451 313.771C570.451 313.076 570.285 312.514 569.953 312.084C569.625 311.65 569.188 311.434 568.641 311.434C568.105 311.434 567.674 311.646 567.346 312.072C567.018 312.498 566.854 313.107 566.854 313.9ZM576.586 315.318C576.586 315.025 576.475 314.799 576.252 314.639C576.033 314.475 575.648 314.334 575.098 314.217C574.551 314.1 574.115 313.959 573.791 313.795C573.471 313.631 573.232 313.436 573.076 313.209C572.924 312.982 572.848 312.713 572.848 312.4C572.848 311.881 573.066 311.441 573.504 311.082C573.945 310.723 574.508 310.543 575.191 310.543C575.91 310.543 576.492 310.729 576.938 311.1C577.387 311.471 577.611 311.945 577.611 312.523H576.521C576.521 312.227 576.395 311.971 576.141 311.756C575.891 311.541 575.574 311.434 575.191 311.434C574.797 311.434 574.488 311.52 574.266 311.691C574.043 311.863 573.932 312.088 573.932 312.365C573.932 312.627 574.035 312.824 574.242 312.957C574.449 313.09 574.822 313.217 575.361 313.338C575.904 313.459 576.344 313.604 576.68 313.771C577.016 313.939 577.264 314.143 577.424 314.381C577.588 314.615 577.67 314.902 577.67 315.242C577.67 315.809 577.443 316.264 576.99 316.607C576.537 316.947 575.949 317.117 575.227 317.117C574.719 317.117 574.27 317.027 573.879 316.848C573.488 316.668 573.182 316.418 572.959 316.098C572.74 315.773 572.631 315.424 572.631 315.049H573.715C573.734 315.412 573.879 315.701 574.148 315.916C574.422 316.127 574.781 316.232 575.227 316.232C575.637 316.232 575.965 316.15 576.211 315.986C576.461 315.818 576.586 315.596 576.586 315.318ZM582.773 315.318C582.773 315.025 582.662 314.799 582.439 314.639C582.221 314.475 581.836 314.334 581.285 314.217C580.738 314.1 580.303 313.959 579.979 313.795C579.658 313.631 579.42 313.436 579.264 313.209C579.111 312.982 579.035 312.713 579.035 312.4C579.035 311.881 579.254 311.441 579.691 311.082C580.133 310.723 580.695 310.543 581.379 310.543C582.098 310.543 582.68 310.729 583.125 311.1C583.574 311.471 583.799 311.945 583.799 312.523H582.709C582.709 312.227 582.582 311.971 582.328 311.756C582.078 311.541 581.762 311.434 581.379 311.434C580.984 311.434 580.676 311.52 580.453 311.691C580.23 311.863 580.119 312.088 580.119 312.365C580.119 312.627 580.223 312.824 580.43 312.957C580.637 313.09 581.01 313.217 581.549 313.338C582.092 313.459 582.531 313.604 582.867 313.771C583.203 313.939 583.451 314.143 583.611 314.381C583.775 314.615 583.857 314.902 583.857 315.242C583.857 315.809 583.631 316.264 583.178 316.607C582.725 316.947 582.137 317.117 581.414 317.117C580.906 317.117 580.457 317.027 580.066 316.848C579.676 316.668 579.369 316.418 579.146 316.098C578.928 315.773 578.818 315.424 578.818 315.049H579.902C579.922 315.412 580.066 315.701 580.336 315.916C580.609 316.127 580.969 316.232 581.414 316.232C581.824 316.232 582.152 316.15 582.398 315.986C582.648 315.818 582.773 315.596 582.773 315.318ZM563.78 329.287H558.524V333.225H564.668V335H556.301V322.203H564.606V323.996H558.524V327.529H563.78V329.287ZM576.63 335H574.406L568.702 325.921V335H566.479V322.203H568.702L574.424 331.317V322.203H576.63V335ZM579.258 335V322.203H583.037C584.168 322.203 585.17 322.455 586.043 322.959C586.922 323.463 587.602 324.178 588.082 325.104C588.562 326.029 588.803 327.09 588.803 328.285V328.927C588.803 330.14 588.56 331.206 588.073 332.126C587.593 333.046 586.904 333.755 586.008 334.253C585.117 334.751 584.095 335 582.94 335H579.258ZM581.481 323.996V333.225H582.932C584.098 333.225 584.991 332.861 585.612 332.135C586.239 331.402 586.559 330.354 586.57 328.988V328.276C586.57 326.888 586.269 325.827 585.665 325.095C585.062 324.362 584.186 323.996 583.037 323.996H581.481Z" fill="#FFA600"/>
<path d="M4.18359 159.203L7.875 169.012L11.5576 159.203H14.4316V172H12.2168V167.781L12.4365 162.139L8.65723 172H7.06641L3.2959 162.147L3.51562 167.781V172H1.30078V159.203H4.18359ZM24.3896 169.021H19.4326L18.3955 172H16.084L20.918 159.203H22.9131L27.7559 172H25.4355L24.3896 169.021ZM20.0566 167.228H23.7656L21.9111 161.919L20.0566 167.228ZM31.5615 172H29.3467V159.203H31.5615V172ZM44.4463 172H42.2227L36.5186 162.921V172H34.2949V159.203H36.5186L42.2402 168.317V159.203H44.4463V172ZM58.7197 169.021H53.7627L52.7256 172H50.4141L55.248 159.203H57.2432L62.0859 172H59.7656L58.7197 169.021ZM54.3867 167.228H58.0957L56.2412 161.919L54.3867 167.228ZM67.9482 163.826L70.6377 159.203H73.2041L69.3369 165.549L73.292 172H70.6992L67.9482 167.307L65.1885 172H62.6045L66.5684 165.549L62.6924 159.203H65.2588L67.9482 163.826ZM77.2822 172H75.0674V159.203H77.2822V172ZM86.7041 168.704C86.7041 168.142 86.5049 167.708 86.1064 167.403C85.7139 167.099 85.002 166.791 83.9707 166.48C82.9395 166.17 82.1191 165.824 81.5098 165.443C80.3438 164.711 79.7607 163.756 79.7607 162.578C79.7607 161.547 80.1797 160.697 81.0176 160.029C81.8613 159.361 82.9541 159.027 84.2959 159.027C85.1865 159.027 85.9805 159.191 86.6777 159.52C87.375 159.848 87.9229 160.316 88.3213 160.926C88.7197 161.529 88.9189 162.2 88.9189 162.938H86.7041C86.7041 162.271 86.4932 161.749 86.0713 161.374C85.6553 160.993 85.0576 160.803 84.2783 160.803C83.5518 160.803 82.9863 160.958 82.582 161.269C82.1836 161.579 81.9844 162.013 81.9844 162.569C81.9844 163.038 82.2012 163.431 82.6348 163.747C83.0684 164.058 83.7832 164.362 84.7793 164.661C85.7754 164.954 86.5752 165.291 87.1787 165.672C87.7822 166.047 88.2246 166.48 88.5059 166.973C88.7871 167.459 88.9277 168.03 88.9277 168.687C88.9277 169.753 88.5176 170.603 87.6973 171.235C86.8828 171.862 85.7754 172.176 84.375 172.176C83.4492 172.176 82.5967 172.006 81.8174 171.666C81.0439 171.32 80.4404 170.846 80.0068 170.242C79.5791 169.639 79.3652 168.936 79.3652 168.133H81.5889C81.5889 168.859 81.8291 169.422 82.3096 169.82C82.79 170.219 83.4785 170.418 84.375 170.418C85.1484 170.418 85.7285 170.263 86.1152 169.952C86.5078 169.636 86.7041 169.22 86.7041 168.704Z" fill="#F95D6A"/>
</svg>
