<svg width="761" height="761" viewBox="0 0 761 761" fill="none" xmlns="http://www.w3.org/2000/svg">
<rect width="350" height="350" fill="white"/>
<circle cx="52.5" cy="191.333" r="11.6667" fill="#F95D6A"/>
<circle cx="168" cy="70" r="11.6667" fill="#FFA600"/>
<path d="M299.833 192.5L278.833 204.624L278.833 180.376L299.833 192.5Z" fill="#F95D6A"/>
<path d="M168 320.833L155.876 299.833L180.124 299.833L168 320.833Z" fill="#FFA600"/>
<rect x="52.5" y="191.333" width="233.333" height="2.33333" fill="#F95D6A"/>
<rect x="169.167" y="73.5" width="233.333" height="2.33333" transform="rotate(90 169.167 73.5)" fill="#FFA600"/>
<path d="M186.508 102.501C186.374 103.92 185.85 105.03 184.936 105.828C184.022 106.62 182.806 107.016 181.289 107.016C180.228 107.016 179.293 106.766 178.483 106.267C177.678 105.761 177.057 105.045 176.618 104.118C176.179 103.192 175.951 102.117 175.932 100.892V99.6487C175.932 98.3934 176.155 97.2874 176.6 96.3307C177.044 95.374 177.681 94.6366 178.51 94.1186C179.345 93.6007 180.308 93.3417 181.398 93.3417C182.867 93.3417 184.049 93.7408 184.945 94.5391C185.841 95.3374 186.362 96.4647 186.508 97.9211H184.205C184.095 96.9644 183.815 96.2758 183.364 95.8554C182.919 95.4288 182.264 95.2155 181.398 95.2155C180.393 95.2155 179.619 95.5842 179.077 96.3215C178.54 97.0528 178.266 98.1283 178.254 99.5482V100.727C178.254 102.165 178.51 103.262 179.022 104.018C179.54 104.774 180.295 105.151 181.289 105.151C182.197 105.151 182.879 104.947 183.336 104.539C183.793 104.131 184.083 103.451 184.205 102.501H186.508ZM193.473 101.705H190.896V106.833H188.583V93.5245H193.263C194.799 93.5245 195.984 93.8688 196.819 94.5574C197.654 95.246 198.071 96.2423 198.071 97.5464C198.071 98.4361 197.855 99.1825 197.422 99.7858C196.995 100.383 196.398 100.843 195.63 101.166L198.619 106.714V106.833H196.142L193.473 101.705ZM190.896 99.8498H193.272C194.052 99.8498 194.661 99.6548 195.1 99.2648C195.539 98.8687 195.758 98.3294 195.758 97.6469C195.758 96.934 195.554 96.3825 195.146 95.9925C194.744 95.6025 194.14 95.4014 193.336 95.3892H190.896V99.8498ZM210.886 100.526C210.886 101.83 210.661 102.976 210.21 103.963C209.759 104.944 209.113 105.7 208.272 106.23C207.437 106.754 206.474 107.016 205.383 107.016C204.305 107.016 203.342 106.754 202.495 106.23C201.654 105.7 201.002 104.947 200.539 103.972C200.082 102.997 199.85 101.873 199.844 100.599V99.8498C199.844 98.5518 200.073 97.4062 200.53 96.4129C200.993 95.4197 201.642 94.661 202.477 94.1369C203.318 93.6068 204.28 93.3417 205.365 93.3417C206.45 93.3417 207.41 93.6037 208.244 94.1278C209.085 94.6458 209.734 95.3953 210.191 96.3764C210.648 97.3514 210.88 98.4879 210.886 99.7858V100.526ZM208.574 99.8315C208.574 98.3568 208.293 97.2265 207.733 96.4404C207.178 95.6543 206.389 95.2612 205.365 95.2612C204.366 95.2612 203.583 95.6543 203.016 96.4404C202.455 97.2204 202.169 98.3264 202.157 99.7584V100.526C202.157 101.989 202.44 103.119 203.007 103.917C203.58 104.716 204.372 105.115 205.383 105.115C206.407 105.115 207.193 104.725 207.742 103.945C208.296 103.165 208.574 102.025 208.574 100.526V99.8315ZM220.146 103.406C220.146 102.821 219.938 102.37 219.524 102.053C219.116 101.736 218.375 101.416 217.303 101.093C216.23 100.77 215.377 100.41 214.743 100.014C213.531 99.2526 212.924 98.2593 212.924 97.0345C212.924 95.962 213.36 95.0784 214.232 94.3837C215.109 93.689 216.246 93.3417 217.641 93.3417C218.567 93.3417 219.393 93.5123 220.118 93.8536C220.843 94.1948 221.413 94.6823 221.827 95.3161C222.242 95.9437 222.449 96.6415 222.449 97.4093H220.146C220.146 96.7146 219.926 96.1722 219.487 95.7822C219.055 95.3861 218.433 95.1881 217.623 95.1881C216.867 95.1881 216.279 95.3496 215.859 95.6725C215.444 95.9955 215.237 96.4465 215.237 97.0254C215.237 97.5129 215.462 97.9211 215.913 98.2502C216.364 98.5732 217.108 98.89 218.144 99.2008C219.18 99.5055 220.011 99.8559 220.639 100.252C221.267 100.642 221.727 101.093 222.019 101.605C222.312 102.111 222.458 102.705 222.458 103.387C222.458 104.496 222.032 105.38 221.178 106.038C220.331 106.69 219.18 107.016 217.723 107.016C216.76 107.016 215.874 106.839 215.063 106.486C214.259 106.126 213.631 105.633 213.18 105.005C212.736 104.377 212.513 103.646 212.513 102.811H214.826C214.826 103.567 215.076 104.152 215.575 104.566C216.075 104.981 216.791 105.188 217.723 105.188C218.528 105.188 219.131 105.026 219.533 104.703C219.941 104.374 220.146 103.942 220.146 103.406ZM231.443 103.406C231.443 102.821 231.236 102.37 230.822 102.053C230.414 101.736 229.673 101.416 228.601 101.093C227.528 100.77 226.675 100.41 226.041 100.014C224.829 99.2526 224.222 98.2593 224.222 97.0345C224.222 95.962 224.658 95.0784 225.529 94.3837C226.407 93.689 227.543 93.3417 228.939 93.3417C229.865 93.3417 230.691 93.5123 231.416 93.8536C232.141 94.1948 232.711 94.6823 233.125 95.3161C233.54 95.9437 233.747 96.6415 233.747 97.4093H231.443C231.443 96.7146 231.224 96.1722 230.785 95.7822C230.353 95.3861 229.731 95.1881 228.921 95.1881C228.165 95.1881 227.577 95.3496 227.156 95.6725C226.742 95.9955 226.535 96.4465 226.535 97.0254C226.535 97.5129 226.76 97.9211 227.211 98.2502C227.662 98.5732 228.406 98.89 229.442 99.2008C230.477 99.5055 231.309 99.8559 231.937 100.252C232.565 100.642 233.025 101.093 233.317 101.605C233.61 102.111 233.756 102.705 233.756 103.387C233.756 104.496 233.329 105.38 232.476 106.038C231.629 106.69 230.477 107.016 229.021 107.016C228.058 107.016 227.172 106.839 226.361 106.486C225.557 106.126 224.929 105.633 224.478 105.005C224.033 104.377 223.811 103.646 223.811 102.811H226.124C226.124 103.567 226.373 104.152 226.873 104.566C227.373 104.981 228.089 105.188 229.021 105.188C229.825 105.188 230.429 105.026 230.831 104.703C231.239 104.374 231.443 103.942 231.443 103.406ZM247.896 103.735H242.741L241.663 106.833H239.259L244.286 93.5245H246.361L251.397 106.833H248.984L247.896 103.735ZM243.39 101.87H247.248L245.319 96.349L243.39 101.87ZM257.494 98.3325L260.291 93.5245H262.96L258.938 100.124L263.052 106.833H260.355L257.494 101.952L254.624 106.833H251.937L256.059 100.124L252.028 93.5245H254.697L257.494 98.3325ZM267.201 106.833H264.898V93.5245H267.201V106.833ZM277 103.406C277 102.821 276.793 102.37 276.379 102.053C275.97 101.736 275.23 101.416 274.157 101.093C273.085 100.77 272.232 100.41 271.598 100.014C270.385 99.2526 269.779 98.2593 269.779 97.0345C269.779 95.962 270.215 95.0784 271.086 94.3837C271.964 93.689 273.1 93.3417 274.496 93.3417C275.422 93.3417 276.248 93.5123 276.973 93.8536C277.698 94.1948 278.268 94.6823 278.682 95.3161C279.096 95.9437 279.304 96.6415 279.304 97.4093H277C277 96.7146 276.781 96.1722 276.342 95.7822C275.909 95.3861 275.288 95.1881 274.477 95.1881C273.722 95.1881 273.134 95.3496 272.713 95.6725C272.299 95.9955 272.092 96.4465 272.092 97.0254C272.092 97.5129 272.317 97.9211 272.768 98.2502C273.219 98.5732 273.962 98.89 274.998 99.2008C276.034 99.5055 276.866 99.8559 277.494 100.252C278.121 100.642 278.582 101.093 278.874 101.605C279.167 102.111 279.313 102.705 279.313 103.387C279.313 104.496 278.886 105.38 278.033 106.038C277.186 106.69 276.034 107.016 274.578 107.016C273.615 107.016 272.729 106.839 271.918 106.486C271.114 106.126 270.486 105.633 270.035 105.005C269.59 104.377 269.368 103.646 269.368 102.811H271.68C271.68 103.567 271.93 104.152 272.43 104.566C272.93 104.981 273.646 105.188 274.578 105.188C275.382 105.188 275.986 105.026 276.388 104.703C276.796 104.374 277 103.942 277 103.406Z" fill="#FFA600"/>
<path d="M21.8509 214.858L25.69 225.059L29.5199 214.858H32.5089V228.167H30.2055V223.779L30.434 217.911L26.5035 228.167H24.8491L20.9277 217.92L21.1562 223.779V228.167H18.8528V214.858H21.8509ZM42.8652 225.068H37.7099L36.6313 228.167H34.2273L39.2547 214.858H41.3296L46.3661 228.167H43.953L42.8652 225.068ZM38.3589 223.203H42.2163L40.2876 217.682L38.3589 223.203ZM50.324 228.167H48.0205V214.858H50.324V228.167ZM63.7241 228.167H61.4116L55.4793 218.724V228.167H53.1667V214.858H55.4793L61.4298 224.337V214.858H63.7241V228.167ZM78.5685 225.068H73.4132L72.3346 228.167H69.9306L74.958 214.858H77.0329L82.0694 228.167H79.6562L78.5685 225.068ZM74.0622 223.203H77.9195L75.9909 217.682L74.0622 223.203ZM88.1662 219.666L90.9632 214.858H93.6323L89.6104 221.458L93.7237 228.167H91.0272L88.1662 223.286L85.296 228.167H82.6087L86.7311 221.458L82.7001 214.858H85.3691L88.1662 219.666ZM97.8735 228.167H95.5701V214.858H97.8735V228.167ZM107.672 224.739C107.672 224.154 107.465 223.703 107.051 223.386C106.642 223.069 105.902 222.749 104.83 222.426C103.757 222.103 102.904 221.744 102.27 221.348C101.057 220.586 100.451 219.593 100.451 218.368C100.451 217.295 100.887 216.412 101.758 215.717C102.636 215.023 103.772 214.675 105.168 214.675C106.094 214.675 106.92 214.846 107.645 215.187C108.37 215.528 108.94 216.016 109.354 216.65C109.769 217.277 109.976 217.975 109.976 218.743H107.672C107.672 218.048 107.453 217.506 107.014 217.116C106.581 216.72 105.96 216.522 105.149 216.522C104.394 216.522 103.806 216.683 103.385 217.006C102.971 217.329 102.764 217.78 102.764 218.359C102.764 218.846 102.989 219.255 103.44 219.584C103.891 219.907 104.635 220.224 105.67 220.534C106.706 220.839 107.538 221.189 108.166 221.585C108.794 221.975 109.254 222.426 109.546 222.938C109.839 223.444 109.985 224.038 109.985 224.721C109.985 225.83 109.558 226.713 108.705 227.372C107.858 228.024 106.706 228.35 105.25 228.35C104.287 228.35 103.401 228.173 102.59 227.819C101.786 227.46 101.158 226.966 100.707 226.339C100.262 225.711 100.04 224.98 100.04 224.145H102.352C102.352 224.9 102.602 225.485 103.102 225.9C103.602 226.314 104.318 226.521 105.25 226.521C106.054 226.521 106.658 226.36 107.06 226.037C107.468 225.708 107.672 225.275 107.672 224.739Z" fill="#F95D6A"/>
<rect y="411" width="350" height="350" fill="white"/>
<circle cx="52.5" cy="602.333" r="11.6667" fill="#FFA600"/>
<circle cx="168" cy="481" r="11.6667" fill="#F95D6A"/>
<path d="M299.833 603.5L278.833 615.624L278.833 591.376L299.833 603.5Z" fill="#FFA600"/>
<path d="M168 731.833L155.876 710.833L180.124 710.833L168 731.833Z" fill="#F95D6A"/>
<rect x="52.5" y="602.333" width="233.333" height="2.33333" fill="#FFA600"/>
<rect x="169.167" y="484.5" width="233.333" height="2.33333" transform="rotate(90 169.167 484.5)" fill="#F95D6A"/>
<path d="M27.508 636.667C27.374 638.087 26.8499 639.196 25.9359 639.995C25.0218 640.787 23.8061 641.183 22.2887 641.183C21.2284 641.183 20.293 640.933 19.4826 640.433C18.6782 639.928 18.0566 639.211 17.6179 638.285C17.1791 637.359 16.9506 636.283 16.9323 635.059V633.815C16.9323 632.56 17.1548 631.454 17.5996 630.497C18.0445 629.541 18.6812 628.803 19.51 628.285C20.3448 627.767 21.3077 627.508 22.3984 627.508C23.867 627.508 25.0492 627.908 25.945 628.706C26.8408 629.504 27.3618 630.631 27.508 632.088H25.2046C25.0949 631.131 24.8146 630.443 24.3637 630.022C23.9188 629.596 23.2637 629.382 22.3984 629.382C21.393 629.382 20.6191 629.751 20.0767 630.488C19.5405 631.22 19.2662 632.295 19.2541 633.715V634.894C19.2541 636.332 19.51 637.429 20.0219 638.185C20.5398 638.94 21.2955 639.318 22.2887 639.318C23.1967 639.318 23.8792 639.114 24.3362 638.706C24.7933 638.297 25.0827 637.618 25.2046 636.667H27.508ZM34.4732 635.872H31.8955V641H29.583V627.691H34.263C35.7986 627.691 36.9838 628.036 37.8187 628.724C38.6535 629.413 39.0709 630.409 39.0709 631.713C39.0709 632.603 38.8546 633.349 38.422 633.953C37.9954 634.55 37.3982 635.01 36.6304 635.333L39.6194 640.881V641H37.1423L34.4732 635.872ZM31.8955 634.017H34.2721C35.0521 634.017 35.6615 633.822 36.1002 633.432C36.539 633.035 36.7584 632.496 36.7584 631.814C36.7584 631.101 36.5542 630.549 36.1459 630.159C35.7437 629.769 35.1405 629.568 34.3361 629.556H31.8955V634.017ZM51.8861 634.693C51.8861 635.997 51.6606 637.143 51.2097 638.13C50.7587 639.111 50.1128 639.867 49.2719 640.397C48.437 640.921 47.4742 641.183 46.3834 641.183C45.3048 641.183 44.342 640.921 43.495 640.397C42.6541 639.867 42.002 639.114 41.5389 638.139C41.0819 637.164 40.8503 636.04 40.8442 634.766V634.017C40.8442 632.719 41.0727 631.573 41.5298 630.58C41.9929 629.586 42.6419 628.828 43.4767 628.304C44.3177 627.774 45.2805 627.508 46.3652 627.508C47.4498 627.508 48.4096 627.77 49.2445 628.295C50.0854 628.813 50.7344 629.562 51.1914 630.543C51.6484 631.518 51.88 632.655 51.8861 633.953V634.693ZM49.5735 633.998C49.5735 632.524 49.2932 631.393 48.7326 630.607C48.178 629.821 47.3889 629.428 46.3652 629.428C45.3658 629.428 44.5827 629.821 44.016 630.607C43.4554 631.387 43.169 632.493 43.1568 633.925V634.693C43.1568 636.155 43.4402 637.286 44.0069 638.084C44.5797 638.882 45.3719 639.282 46.3834 639.282C47.4072 639.282 48.1933 638.892 48.7417 638.112C49.2962 637.332 49.5735 636.192 49.5735 634.693V633.998ZM61.1455 637.572C61.1455 636.987 60.9384 636.536 60.524 636.219C60.1157 635.903 59.3753 635.583 58.3028 635.26C57.2303 634.937 56.3772 634.577 55.7434 634.181C54.5308 633.419 53.9245 632.426 53.9245 631.201C53.9245 630.129 54.3602 629.245 55.2316 628.55C56.1091 627.856 57.2455 627.508 58.641 627.508C59.5673 627.508 60.393 627.679 61.1181 628.02C61.8433 628.362 62.413 628.849 62.8274 629.483C63.2418 630.11 63.449 630.808 63.449 631.576H61.1455C61.1455 630.881 60.9262 630.339 60.4874 629.949C60.0548 629.553 59.4332 629.355 58.6227 629.355C57.8671 629.355 57.2791 629.516 56.8586 629.839C56.4442 630.162 56.237 630.613 56.237 631.192C56.237 631.68 56.4625 632.088 56.9134 632.417C57.3644 632.74 58.1078 633.057 59.1437 633.368C60.1797 633.672 61.0115 634.023 61.6391 634.419C62.2668 634.809 62.7269 635.26 63.0194 635.772C63.3119 636.277 63.4581 636.871 63.4581 637.554C63.4581 638.663 63.0316 639.547 62.1784 640.205C61.3314 640.857 60.1797 641.183 58.7233 641.183C57.7605 641.183 56.8738 641.006 56.0634 640.653C55.259 640.293 54.6313 639.8 54.1804 639.172C53.7355 638.544 53.5131 637.813 53.5131 636.978H55.8257C55.8257 637.734 56.0755 638.319 56.5752 638.733C57.0749 639.148 57.7909 639.355 58.7233 639.355C59.5277 639.355 60.1309 639.193 60.5331 638.87C60.9414 638.541 61.1455 638.109 61.1455 637.572ZM72.4434 637.572C72.4434 636.987 72.2362 636.536 71.8218 636.219C71.4135 635.903 70.6731 635.583 69.6006 635.26C68.5281 634.937 67.675 634.577 67.0412 634.181C65.8286 633.419 65.2223 632.426 65.2223 631.201C65.2223 630.129 65.658 629.245 66.5294 628.55C67.4069 627.856 68.5434 627.508 69.9388 627.508C70.8651 627.508 71.6908 627.679 72.4159 628.02C73.1411 628.362 73.7109 628.849 74.1252 629.483C74.5396 630.11 74.7468 630.808 74.7468 631.576H72.4434C72.4434 630.881 72.224 630.339 71.7852 629.949C71.3526 629.553 70.731 629.355 69.9205 629.355C69.1649 629.355 68.5769 629.516 68.1564 629.839C67.742 630.162 67.5348 630.613 67.5348 631.192C67.5348 631.68 67.7603 632.088 68.2112 632.417C68.6622 632.74 69.4056 633.057 70.4416 633.368C71.4775 633.672 72.3093 634.023 72.937 634.419C73.5646 634.809 74.0247 635.26 74.3172 635.772C74.6097 636.277 74.7559 636.871 74.7559 637.554C74.7559 638.663 74.3294 639.547 73.4762 640.205C72.6292 640.857 71.4775 641.183 70.0211 641.183C69.0583 641.183 68.1716 641.006 67.3612 640.653C66.5568 640.293 65.9291 639.8 65.4782 639.172C65.0334 638.544 64.8109 637.813 64.8109 636.978H67.1235C67.1235 637.734 67.3734 638.319 67.873 638.733C68.3727 639.148 69.0887 639.355 70.0211 639.355C70.8255 639.355 71.4287 639.193 71.8309 638.87C72.2392 638.541 72.4434 638.109 72.4434 637.572ZM88.8965 637.901H83.7412L82.6626 641H80.2586L85.2859 627.691H87.3609L92.3973 641H89.9842L88.8965 637.901ZM84.3902 636.037H88.2475L86.3188 630.516L84.3902 636.037ZM98.4941 632.499L101.291 627.691H103.96L99.9384 634.291L104.052 641H101.355L98.4941 636.119L95.624 641H92.9366L97.0591 634.291L93.028 627.691H95.6971L98.4941 632.499ZM108.201 641H105.898V627.691H108.201V641ZM118 637.572C118 636.987 117.793 636.536 117.379 636.219C116.97 635.903 116.23 635.583 115.157 635.26C114.085 634.937 113.232 634.577 112.598 634.181C111.385 633.419 110.779 632.426 110.779 631.201C110.779 630.129 111.215 629.245 112.086 628.55C112.964 627.856 114.1 627.508 115.496 627.508C116.422 627.508 117.248 627.679 117.973 628.02C118.698 628.362 119.268 628.849 119.682 629.483C120.096 630.11 120.304 630.808 120.304 631.576H118C118 630.881 117.781 630.339 117.342 629.949C116.909 629.553 116.288 629.355 115.477 629.355C114.722 629.355 114.134 629.516 113.713 629.839C113.299 630.162 113.092 630.613 113.092 631.192C113.092 631.68 113.317 632.088 113.768 632.417C114.219 632.74 114.962 633.057 115.998 633.368C117.034 633.672 117.866 634.023 118.494 634.419C119.121 634.809 119.582 635.26 119.874 635.772C120.167 636.277 120.313 636.871 120.313 637.554C120.313 638.663 119.886 639.547 119.033 640.205C118.186 640.857 117.034 641.183 115.578 641.183C114.615 641.183 113.729 641.006 112.918 640.653C112.114 640.293 111.486 639.8 111.035 639.172C110.59 638.544 110.368 637.813 110.368 636.978H112.68C112.68 637.734 112.93 638.319 113.43 638.733C113.93 639.148 114.646 639.355 115.578 639.355C116.382 639.355 116.986 639.193 117.388 638.87C117.796 638.541 118 638.109 118 637.572Z" fill="#FFA600"/>
<path d="M191.351 496.691L195.19 506.892L199.02 496.691H202.009V510H199.705V505.613L199.934 499.744L196.004 510H194.349L190.428 499.753L190.656 505.613V510H188.353V496.691H191.351ZM212.365 506.901H207.21L206.131 510H203.727L208.755 496.691H210.83L215.866 510H213.453L212.365 506.901ZM207.859 505.037H211.716L209.788 499.516L207.859 505.037ZM219.824 510H217.521V496.691H219.824V510ZM233.224 510H230.912L224.979 500.558V510H222.667V496.691H224.979L230.93 506.17V496.691H233.224V510ZM248.069 506.901H242.913L241.835 510H239.431L244.458 496.691H246.533L251.569 510H249.156L248.069 506.901ZM243.562 505.037H247.42L245.491 499.516L243.562 505.037ZM257.666 501.499L260.463 496.691H263.132L259.11 503.291L263.224 510H260.527L257.666 505.119L254.796 510H252.109L256.231 503.291L252.2 496.691H254.869L257.666 501.499ZM267.374 510H265.07V496.691H267.374V510ZM277.172 506.572C277.172 505.987 276.965 505.536 276.551 505.219C276.142 504.903 275.402 504.583 274.33 504.26C273.257 503.937 272.404 503.577 271.77 503.181C270.557 502.419 269.951 501.426 269.951 500.201C269.951 499.129 270.387 498.245 271.258 497.55C272.136 496.856 273.272 496.508 274.668 496.508C275.594 496.508 276.42 496.679 277.145 497.02C277.87 497.362 278.44 497.849 278.854 498.483C279.269 499.11 279.476 499.808 279.476 500.576H277.172C277.172 499.881 276.953 499.339 276.514 498.949C276.081 498.553 275.46 498.355 274.649 498.355C273.894 498.355 273.306 498.516 272.885 498.839C272.471 499.162 272.264 499.613 272.264 500.192C272.264 500.68 272.489 501.088 272.94 501.417C273.391 501.74 274.135 502.057 275.17 502.368C276.206 502.672 277.038 503.023 277.666 503.419C278.294 503.809 278.754 504.26 279.046 504.772C279.339 505.277 279.485 505.871 279.485 506.554C279.485 507.663 279.058 508.547 278.205 509.205C277.358 509.857 276.206 510.183 274.75 510.183C273.787 510.183 272.901 510.006 272.09 509.653C271.286 509.293 270.658 508.8 270.207 508.172C269.762 507.544 269.54 506.813 269.54 505.978H271.852C271.852 506.734 272.102 507.319 272.602 507.733C273.102 508.148 273.818 508.355 274.75 508.355C275.554 508.355 276.158 508.193 276.56 507.87C276.968 507.541 277.172 507.109 277.172 506.572Z" fill="#F95D6A"/>
<rect x="410" y="411" width="350" height="350" fill="white"/>
<circle cx="462.5" cy="602.333" r="11.6667" fill="#FFA600"/>
<circle cx="578.667" cy="717.667" r="11.6667" fill="#F95D6A"/>
<path d="M709.833 603.5L688.833 615.624L688.833 591.376L709.833 603.5Z" fill="#FFA600"/>
<path d="M578 470L590.124 491L565.876 491L578 470Z" fill="#F95D6A"/>
<rect x="462.5" y="602.333" width="233.333" height="2.33333" fill="#FFA600"/>
<rect x="579.167" y="484.5" width="233.333" height="2.33333" transform="rotate(90 579.167 484.5)" fill="#F95D6A"/>
<path d="M437.508 636.667C437.374 638.087 436.85 639.196 435.936 639.995C435.022 640.787 433.806 641.183 432.289 641.183C431.228 641.183 430.293 640.933 429.483 640.433C428.678 639.928 428.057 639.211 427.618 638.285C427.179 637.359 426.951 636.283 426.932 635.059V633.815C426.932 632.56 427.155 631.454 427.6 630.497C428.044 629.541 428.681 628.803 429.51 628.285C430.345 627.767 431.308 627.508 432.398 627.508C433.867 627.508 435.049 627.908 435.945 628.706C436.841 629.504 437.362 630.631 437.508 632.088H435.205C435.095 631.131 434.815 630.443 434.364 630.022C433.919 629.596 433.264 629.382 432.398 629.382C431.393 629.382 430.619 629.751 430.077 630.488C429.54 631.22 429.266 632.295 429.254 633.715V634.894C429.254 636.332 429.51 637.429 430.022 638.185C430.54 638.94 431.295 639.318 432.289 639.318C433.197 639.318 433.879 639.114 434.336 638.706C434.793 638.297 435.083 637.618 435.205 636.667H437.508ZM444.473 635.872H441.896V641H439.583V627.691H444.263C445.799 627.691 446.984 628.036 447.819 628.724C448.654 629.413 449.071 630.409 449.071 631.713C449.071 632.603 448.855 633.349 448.422 633.953C447.995 634.55 447.398 635.01 446.63 635.333L449.619 640.881V641H447.142L444.473 635.872ZM441.896 634.017H444.272C445.052 634.017 445.661 633.822 446.1 633.432C446.539 633.035 446.758 632.496 446.758 631.814C446.758 631.101 446.554 630.549 446.146 630.159C445.744 629.769 445.14 629.568 444.336 629.556H441.896V634.017ZM461.886 634.693C461.886 635.997 461.661 637.143 461.21 638.13C460.759 639.111 460.113 639.867 459.272 640.397C458.437 640.921 457.474 641.183 456.383 641.183C455.305 641.183 454.342 640.921 453.495 640.397C452.654 639.867 452.002 639.114 451.539 638.139C451.082 637.164 450.85 636.04 450.844 634.766V634.017C450.844 632.719 451.073 631.573 451.53 630.58C451.993 629.586 452.642 628.828 453.477 628.304C454.318 627.774 455.28 627.508 456.365 627.508C457.45 627.508 458.41 627.77 459.244 628.295C460.085 628.813 460.734 629.562 461.191 630.543C461.648 631.518 461.88 632.655 461.886 633.953V634.693ZM459.574 633.998C459.574 632.524 459.293 631.393 458.733 630.607C458.178 629.821 457.389 629.428 456.365 629.428C455.366 629.428 454.583 629.821 454.016 630.607C453.455 631.387 453.169 632.493 453.157 633.925V634.693C453.157 636.155 453.44 637.286 454.007 638.084C454.58 638.882 455.372 639.282 456.383 639.282C457.407 639.282 458.193 638.892 458.742 638.112C459.296 637.332 459.574 636.192 459.574 634.693V633.998ZM471.146 637.572C471.146 636.987 470.938 636.536 470.524 636.219C470.116 635.903 469.375 635.583 468.303 635.26C467.23 634.937 466.377 634.577 465.743 634.181C464.531 633.419 463.924 632.426 463.924 631.201C463.924 630.129 464.36 629.245 465.232 628.55C466.109 627.856 467.246 627.508 468.641 627.508C469.567 627.508 470.393 627.679 471.118 628.02C471.843 628.362 472.413 628.849 472.827 629.483C473.242 630.11 473.449 630.808 473.449 631.576H471.146C471.146 630.881 470.926 630.339 470.487 629.949C470.055 629.553 469.433 629.355 468.623 629.355C467.867 629.355 467.279 629.516 466.859 629.839C466.444 630.162 466.237 630.613 466.237 631.192C466.237 631.68 466.462 632.088 466.913 632.417C467.364 632.74 468.108 633.057 469.144 633.368C470.18 633.672 471.011 634.023 471.639 634.419C472.267 634.809 472.727 635.26 473.019 635.772C473.312 636.277 473.458 636.871 473.458 637.554C473.458 638.663 473.032 639.547 472.178 640.205C471.331 640.857 470.18 641.183 468.723 641.183C467.76 641.183 466.874 641.006 466.063 640.653C465.259 640.293 464.631 639.8 464.18 639.172C463.736 638.544 463.513 637.813 463.513 636.978H465.826C465.826 637.734 466.076 638.319 466.575 638.733C467.075 639.148 467.791 639.355 468.723 639.355C469.528 639.355 470.131 639.193 470.533 638.87C470.941 638.541 471.146 638.109 471.146 637.572ZM482.443 637.572C482.443 636.987 482.236 636.536 481.822 636.219C481.414 635.903 480.673 635.583 479.601 635.26C478.528 634.937 477.675 634.577 477.041 634.181C475.829 633.419 475.222 632.426 475.222 631.201C475.222 630.129 475.658 629.245 476.529 628.55C477.407 627.856 478.543 627.508 479.939 627.508C480.865 627.508 481.691 627.679 482.416 628.02C483.141 628.362 483.711 628.849 484.125 629.483C484.54 630.11 484.747 630.808 484.747 631.576H482.443C482.443 630.881 482.224 630.339 481.785 629.949C481.353 629.553 480.731 629.355 479.921 629.355C479.165 629.355 478.577 629.516 478.156 629.839C477.742 630.162 477.535 630.613 477.535 631.192C477.535 631.68 477.76 632.088 478.211 632.417C478.662 632.74 479.406 633.057 480.442 633.368C481.477 633.672 482.309 634.023 482.937 634.419C483.565 634.809 484.025 635.26 484.317 635.772C484.61 636.277 484.756 636.871 484.756 637.554C484.756 638.663 484.329 639.547 483.476 640.205C482.629 640.857 481.477 641.183 480.021 641.183C479.058 641.183 478.172 641.006 477.361 640.653C476.557 640.293 475.929 639.8 475.478 639.172C475.033 638.544 474.811 637.813 474.811 636.978H477.124C477.124 637.734 477.373 638.319 477.873 638.733C478.373 639.148 479.089 639.355 480.021 639.355C480.825 639.355 481.429 639.193 481.831 638.87C482.239 638.541 482.443 638.109 482.443 637.572ZM498.896 637.901H493.741L492.663 641H490.259L495.286 627.691H497.361L502.397 641H499.984L498.896 637.901ZM494.39 636.037H498.248L496.319 630.516L494.39 636.037ZM508.494 632.499L511.291 627.691H513.96L509.938 634.291L514.052 641H511.355L508.494 636.119L505.624 641H502.937L507.059 634.291L503.028 627.691H505.697L508.494 632.499ZM518.201 641H515.898V627.691H518.201V641ZM528 637.572C528 636.987 527.793 636.536 527.379 636.219C526.97 635.903 526.23 635.583 525.157 635.26C524.085 634.937 523.232 634.577 522.598 634.181C521.385 633.419 520.779 632.426 520.779 631.201C520.779 630.129 521.215 629.245 522.086 628.55C522.964 627.856 524.1 627.508 525.496 627.508C526.422 627.508 527.248 627.679 527.973 628.02C528.698 628.362 529.268 628.849 529.682 629.483C530.096 630.11 530.304 630.808 530.304 631.576H528C528 630.881 527.781 630.339 527.342 629.949C526.909 629.553 526.288 629.355 525.477 629.355C524.722 629.355 524.134 629.516 523.713 629.839C523.299 630.162 523.092 630.613 523.092 631.192C523.092 631.68 523.317 632.088 523.768 632.417C524.219 632.74 524.962 633.057 525.998 633.368C527.034 633.672 527.866 634.023 528.494 634.419C529.121 634.809 529.582 635.26 529.874 635.772C530.167 636.277 530.313 636.871 530.313 637.554C530.313 638.663 529.886 639.547 529.033 640.205C528.186 640.857 527.034 641.183 525.578 641.183C524.615 641.183 523.729 641.006 522.918 640.653C522.114 640.293 521.486 639.8 521.035 639.172C520.59 638.544 520.368 637.813 520.368 636.978H522.68C522.68 637.734 522.93 638.319 523.43 638.733C523.93 639.148 524.646 639.355 525.578 639.355C526.382 639.355 526.986 639.193 527.388 638.87C527.796 638.541 528 638.109 528 637.572Z" fill="#FFA600"/>
<path d="M594.351 678.691L598.19 688.892L602.02 678.691H605.009V692H602.705V687.613L602.934 681.744L599.004 692H597.349L593.428 681.753L593.656 687.613V692H591.353V678.691H594.351ZM615.365 688.901H610.21L609.131 692H606.727L611.755 678.691H613.83L618.866 692H616.453L615.365 688.901ZM610.859 687.037H614.716L612.788 681.516L610.859 687.037ZM622.824 692H620.521V678.691H622.824V692ZM636.224 692H633.912L627.979 682.558V692H625.667V678.691H627.979L633.93 688.17V678.691H636.224V692ZM651.069 688.901H645.913L644.835 692H642.431L647.458 678.691H649.533L654.569 692H652.156L651.069 688.901ZM646.562 687.037H650.42L648.491 681.516L646.562 687.037ZM660.666 683.499L663.463 678.691H666.132L662.11 685.291L666.224 692H663.527L660.666 687.119L657.796 692H655.109L659.231 685.291L655.2 678.691H657.869L660.666 683.499ZM670.374 692H668.07V678.691H670.374V692ZM680.172 688.572C680.172 687.987 679.965 687.536 679.551 687.219C679.142 686.903 678.402 686.583 677.33 686.26C676.257 685.937 675.404 685.577 674.77 685.181C673.557 684.419 672.951 683.426 672.951 682.201C672.951 681.129 673.387 680.245 674.258 679.55C675.136 678.856 676.272 678.508 677.668 678.508C678.594 678.508 679.42 678.679 680.145 679.02C680.87 679.362 681.44 679.849 681.854 680.483C682.269 681.11 682.476 681.808 682.476 682.576H680.172C680.172 681.881 679.953 681.339 679.514 680.949C679.081 680.553 678.46 680.355 677.649 680.355C676.894 680.355 676.306 680.516 675.885 680.839C675.471 681.162 675.264 681.613 675.264 682.192C675.264 682.68 675.489 683.088 675.94 683.417C676.391 683.74 677.135 684.057 678.17 684.368C679.206 684.672 680.038 685.023 680.666 685.419C681.294 685.809 681.754 686.26 682.046 686.772C682.339 687.277 682.485 687.871 682.485 688.554C682.485 689.663 682.058 690.547 681.205 691.205C680.358 691.857 679.206 692.183 677.75 692.183C676.787 692.183 675.901 692.006 675.09 691.653C674.286 691.293 673.658 690.8 673.207 690.172C672.762 689.544 672.54 688.813 672.54 687.978H674.852C674.852 688.734 675.102 689.319 675.602 689.733C676.102 690.148 676.818 690.355 677.75 690.355C678.554 690.355 679.158 690.193 679.56 689.87C679.968 689.541 680.172 689.109 680.172 688.572Z" fill="#F95D6A"/>
<rect x="410" y="1" width="350" height="350" fill="white"/>
<circle cx="697.667" cy="192.667" r="11.6667" fill="#F95D6A"/>
<circle cx="578" cy="71" r="11.6667" fill="#FFA600"/>
<path d="M443 194L464 181.876L464 206.124L443 194Z" fill="#F95D6A"/>
<path d="M578 321.833L565.876 300.833L590.124 300.833L578 321.833Z" fill="#FFA600"/>
<rect x="462.5" y="192.333" width="233.333" height="2.33333" fill="#F95D6A"/>
<rect x="579.167" y="74.5" width="233.333" height="2.33333" transform="rotate(90 579.167 74.5)" fill="#FFA600"/>
<path d="M462.508 100.667C462.374 102.087 461.85 103.196 460.936 103.995C460.022 104.787 458.806 105.183 457.289 105.183C456.228 105.183 455.293 104.933 454.483 104.433C453.678 103.928 453.057 103.211 452.618 102.285C452.179 101.359 451.951 100.283 451.932 99.0586V97.8155C451.932 96.5602 452.155 95.4541 452.6 94.4974C453.044 93.5407 453.681 92.8034 454.51 92.2854C455.345 91.7674 456.308 91.5084 457.398 91.5084C458.867 91.5084 460.049 91.9076 460.945 92.7059C461.841 93.5041 462.362 94.6315 462.508 96.0879H460.205C460.095 95.1312 459.815 94.4426 459.364 94.0221C458.919 93.5955 458.264 93.3823 457.398 93.3823C456.393 93.3823 455.619 93.7509 455.077 94.4883C454.54 95.2195 454.266 96.2951 454.254 97.7149V98.8941C454.254 100.332 454.51 101.429 455.022 102.185C455.54 102.94 456.295 103.318 457.289 103.318C458.197 103.318 458.879 103.114 459.336 102.706C459.793 102.297 460.083 101.618 460.205 100.667H462.508ZM469.473 99.8721H466.896V105H464.583V91.6913H469.263C470.799 91.6913 471.984 92.0355 472.819 92.7241C473.654 93.4127 474.071 94.4091 474.071 95.7131C474.071 96.6028 473.855 97.3493 473.422 97.9526C472.995 98.5498 472.398 99.0098 471.63 99.3328L474.619 104.881V105H472.142L469.473 99.8721ZM466.896 98.0166H469.272C470.052 98.0166 470.661 97.8216 471.1 97.4316C471.539 97.0355 471.758 96.4962 471.758 95.8137C471.758 95.1007 471.554 94.5492 471.146 94.1592C470.744 93.7692 470.14 93.5681 469.336 93.5559H466.896V98.0166ZM486.886 98.693C486.886 99.997 486.661 101.143 486.21 102.13C485.759 103.111 485.113 103.867 484.272 104.397C483.437 104.921 482.474 105.183 481.383 105.183C480.305 105.183 479.342 104.921 478.495 104.397C477.654 103.867 477.002 103.114 476.539 102.139C476.082 101.164 475.85 100.04 475.844 98.7661V98.0166C475.844 96.7186 476.073 95.573 476.53 94.5797C476.993 93.5864 477.642 92.8277 478.477 92.3037C479.318 91.7735 480.28 91.5084 481.365 91.5084C482.45 91.5084 483.41 91.7705 484.244 92.2945C485.085 92.8125 485.734 93.562 486.191 94.5431C486.648 95.5181 486.88 96.6546 486.886 97.9526V98.693ZM484.574 97.9983C484.574 96.5236 484.293 95.3932 483.733 94.6071C483.178 93.821 482.389 93.428 481.365 93.428C480.366 93.428 479.583 93.821 479.016 94.6071C478.455 95.3871 478.169 96.4931 478.157 97.9252V98.693C478.157 100.155 478.44 101.286 479.007 102.084C479.58 102.882 480.372 103.282 481.383 103.282C482.407 103.282 483.193 102.892 483.742 102.112C484.296 101.332 484.574 100.192 484.574 98.693V97.9983ZM496.146 101.572C496.146 100.987 495.938 100.536 495.524 100.219C495.116 99.9026 494.375 99.5827 493.303 99.2597C492.23 98.9367 491.377 98.5772 490.743 98.1811C489.531 97.4194 488.924 96.4261 488.924 95.2013C488.924 94.1288 489.36 93.2452 490.232 92.5505C491.109 91.8558 492.246 91.5084 493.641 91.5084C494.567 91.5084 495.393 91.6791 496.118 92.0203C496.843 92.3616 497.413 92.8491 497.827 93.4828C498.242 94.1105 498.449 94.8082 498.449 95.576H496.146C496.146 94.8813 495.926 94.339 495.487 93.949C495.055 93.5529 494.433 93.3548 493.623 93.3548C492.867 93.3548 492.279 93.5163 491.859 93.8393C491.444 94.1623 491.237 94.6132 491.237 95.1921C491.237 95.6796 491.462 96.0879 491.913 96.417C492.364 96.7399 493.108 97.0568 494.144 97.3676C495.18 97.6723 496.011 98.0227 496.639 98.4188C497.267 98.8088 497.727 99.2597 498.019 99.7716C498.312 100.277 498.458 100.871 498.458 101.554C498.458 102.663 498.032 103.547 497.178 104.205C496.331 104.857 495.18 105.183 493.723 105.183C492.76 105.183 491.874 105.006 491.063 104.653C490.259 104.293 489.631 103.8 489.18 103.172C488.736 102.544 488.513 101.813 488.513 100.978H490.826C490.826 101.734 491.076 102.319 491.575 102.733C492.075 103.148 492.791 103.355 493.723 103.355C494.528 103.355 495.131 103.193 495.533 102.87C495.941 102.541 496.146 102.109 496.146 101.572ZM507.443 101.572C507.443 100.987 507.236 100.536 506.822 100.219C506.414 99.9026 505.673 99.5827 504.601 99.2597C503.528 98.9367 502.675 98.5772 502.041 98.1811C500.829 97.4194 500.222 96.4261 500.222 95.2013C500.222 94.1288 500.658 93.2452 501.529 92.5505C502.407 91.8558 503.543 91.5084 504.939 91.5084C505.865 91.5084 506.691 91.6791 507.416 92.0203C508.141 92.3616 508.711 92.8491 509.125 93.4828C509.54 94.1105 509.747 94.8082 509.747 95.576H507.443C507.443 94.8813 507.224 94.339 506.785 93.949C506.353 93.5529 505.731 93.3548 504.921 93.3548C504.165 93.3548 503.577 93.5163 503.156 93.8393C502.742 94.1623 502.535 94.6132 502.535 95.1921C502.535 95.6796 502.76 96.0879 503.211 96.417C503.662 96.7399 504.406 97.0568 505.442 97.3676C506.477 97.6723 507.309 98.0227 507.937 98.4188C508.565 98.8088 509.025 99.2597 509.317 99.7716C509.61 100.277 509.756 100.871 509.756 101.554C509.756 102.663 509.329 103.547 508.476 104.205C507.629 104.857 506.477 105.183 505.021 105.183C504.058 105.183 503.172 105.006 502.361 104.653C501.557 104.293 500.929 103.8 500.478 103.172C500.033 102.544 499.811 101.813 499.811 100.978H502.124C502.124 101.734 502.373 102.319 502.873 102.733C503.373 103.148 504.089 103.355 505.021 103.355C505.825 103.355 506.429 103.193 506.831 102.87C507.239 102.541 507.443 102.109 507.443 101.572ZM523.896 101.901H518.741L517.663 105H515.259L520.286 91.6913H522.361L527.397 105H524.984L523.896 101.901ZM519.39 100.037H523.248L521.319 94.5157L519.39 100.037ZM533.494 96.4992L536.291 91.6913H538.96L534.938 98.2908L539.052 105H536.355L533.494 100.119L530.624 105H527.937L532.059 98.2908L528.028 91.6913H530.697L533.494 96.4992ZM543.201 105H540.898V91.6913H543.201V105ZM553 101.572C553 100.987 552.793 100.536 552.379 100.219C551.97 99.9026 551.23 99.5827 550.157 99.2597C549.085 98.9367 548.232 98.5772 547.598 98.1811C546.385 97.4194 545.779 96.4261 545.779 95.2013C545.779 94.1288 546.215 93.2452 547.086 92.5505C547.964 91.8558 549.1 91.5084 550.496 91.5084C551.422 91.5084 552.248 91.6791 552.973 92.0203C553.698 92.3616 554.268 92.8491 554.682 93.4828C555.096 94.1105 555.304 94.8082 555.304 95.576H553C553 94.8813 552.781 94.339 552.342 93.949C551.909 93.5529 551.288 93.3548 550.477 93.3548C549.722 93.3548 549.134 93.5163 548.713 93.8393C548.299 94.1623 548.092 94.6132 548.092 95.1921C548.092 95.6796 548.317 96.0879 548.768 96.417C549.219 96.7399 549.962 97.0568 550.998 97.3676C552.034 97.6723 552.866 98.0227 553.494 98.4188C554.121 98.8088 554.582 99.2597 554.874 99.7716C555.167 100.277 555.313 100.871 555.313 101.554C555.313 102.663 554.886 103.547 554.033 104.205C553.186 104.857 552.034 105.183 550.578 105.183C549.615 105.183 548.729 105.006 547.918 104.653C547.114 104.293 546.486 103.8 546.035 103.172C545.59 102.544 545.368 101.813 545.368 100.978H547.68C547.68 101.734 547.93 102.319 548.43 102.733C548.93 103.148 549.646 103.355 550.578 103.355C551.382 103.355 551.986 103.193 552.388 102.87C552.796 102.541 553 102.109 553 101.572Z" fill="#FFA600"/>
<path d="M653.351 212.691L657.19 222.892L661.02 212.691H664.009V226H661.705V221.613L661.934 215.744L658.004 226H656.349L652.428 215.753L652.656 221.613V226H650.353V212.691H653.351ZM674.365 222.901H669.21L668.131 226H665.727L670.755 212.691H672.83L677.866 226H675.453L674.365 222.901ZM669.859 221.037H673.716L671.788 215.516L669.859 221.037ZM681.824 226H679.521V212.691H681.824V226ZM695.224 226H692.912L686.979 216.558V226H684.667V212.691H686.979L692.93 222.17V212.691H695.224V226ZM710.069 222.901H704.913L703.835 226H701.431L706.458 212.691H708.533L713.569 226H711.156L710.069 222.901ZM705.562 221.037H709.42L707.491 215.516L705.562 221.037ZM719.666 217.499L722.463 212.691H725.132L721.11 219.291L725.224 226H722.527L719.666 221.119L716.796 226H714.109L718.231 219.291L714.2 212.691H716.869L719.666 217.499ZM729.374 226H727.07V212.691H729.374V226ZM739.172 222.572C739.172 221.987 738.965 221.536 738.551 221.219C738.142 220.903 737.402 220.583 736.33 220.26C735.257 219.937 734.404 219.577 733.77 219.181C732.557 218.419 731.951 217.426 731.951 216.201C731.951 215.129 732.387 214.245 733.258 213.55C734.136 212.856 735.272 212.508 736.668 212.508C737.594 212.508 738.42 212.679 739.145 213.02C739.87 213.362 740.44 213.849 740.854 214.483C741.269 215.11 741.476 215.808 741.476 216.576H739.172C739.172 215.881 738.953 215.339 738.514 214.949C738.081 214.553 737.46 214.355 736.649 214.355C735.894 214.355 735.306 214.516 734.885 214.839C734.471 215.162 734.264 215.613 734.264 216.192C734.264 216.68 734.489 217.088 734.94 217.417C735.391 217.74 736.135 218.057 737.17 218.368C738.206 218.672 739.038 219.023 739.666 219.419C740.294 219.809 740.754 220.26 741.046 220.772C741.339 221.277 741.485 221.871 741.485 222.554C741.485 223.663 741.058 224.547 740.205 225.205C739.358 225.857 738.206 226.183 736.75 226.183C735.787 226.183 734.901 226.006 734.09 225.653C733.286 225.293 732.658 224.8 732.207 224.172C731.762 223.544 731.54 222.813 731.54 221.978H733.852C733.852 222.734 734.102 223.319 734.602 223.733C735.102 224.148 735.818 224.355 736.75 224.355C737.554 224.355 738.158 224.193 738.56 223.87C738.968 223.541 739.172 223.109 739.172 222.572Z" fill="#F95D6A"/>
<rect width="351" height="42.12" fill="#B29DDD"/>
<rect y="411" width="351" height="42.12" fill="#B29DDD"/>
<rect x="410" y="411" width="351" height="42.12" fill="#B29DDD"/>
<rect x="410" y="1" width="351" height="42.12" fill="#B29DDD"/>
<path d="M155.685 15.3476C155.238 15.2729 154.752 15.2356 154.23 15.2356C152.289 15.2356 150.972 16.0621 150.279 17.715V30H147.319V12.6922H150.199L150.247 14.6917C151.217 13.1455 152.593 12.3723 154.374 12.3723C154.95 12.3723 155.387 12.447 155.685 12.5963V15.3476ZM157.317 21.1862C157.317 19.4906 157.648 17.9656 158.309 16.6113C158.981 15.2569 159.908 14.2119 161.092 13.476C162.286 12.7402 163.646 12.3723 165.171 12.3723C167.528 12.3723 169.431 13.1881 170.882 14.8197C172.343 16.4513 173.073 18.6214 173.073 21.3301V21.5381C173.073 23.223 172.748 24.7373 172.097 26.081C171.458 27.414 170.535 28.4537 169.33 29.2002C168.136 29.9467 166.76 30.3199 165.203 30.3199C162.857 30.3199 160.953 29.5041 159.492 27.8725C158.042 26.2409 157.317 24.0814 157.317 21.3941V21.1862ZM160.292 21.5381C160.292 23.4576 160.735 24.9986 161.62 26.1609C162.516 27.3233 163.71 27.9045 165.203 27.9045C166.707 27.9045 167.901 27.318 168.786 26.1449C169.671 24.9612 170.114 23.3083 170.114 21.1862C170.114 19.2879 169.661 17.7523 168.754 16.5793C167.858 15.3956 166.664 14.8037 165.171 14.8037C163.71 14.8037 162.532 15.3849 161.636 16.5473C160.74 17.7097 160.292 19.3733 160.292 21.5381ZM192.109 25.921L195.436 12.6922H198.395L193.356 30H190.957L186.75 16.8832L182.655 30H180.255L175.233 12.6922H178.176L181.583 25.6491L185.614 12.6922H187.998L192.109 25.921Z" fill="white"/>
<path d="M127.182 438.905C128.237 438.905 129.16 438.585 129.949 437.945C130.738 437.305 131.175 436.505 131.261 435.545H134.06C134.007 436.537 133.666 437.481 133.036 438.377C132.407 439.272 131.565 439.987 130.509 440.52C129.464 441.053 128.355 441.32 127.182 441.32C124.825 441.32 122.948 440.536 121.551 438.968C120.165 437.39 119.472 435.236 119.472 432.506V432.01C119.472 430.325 119.781 428.827 120.399 427.515C121.018 426.204 121.903 425.185 123.055 424.46C124.217 423.735 125.587 423.372 127.166 423.372C129.107 423.372 130.717 423.953 131.997 425.116C133.287 426.278 133.975 427.787 134.06 429.643H131.261C131.175 428.523 130.749 427.606 129.981 426.891C129.224 426.166 128.285 425.804 127.166 425.804C125.662 425.804 124.494 426.348 123.663 427.435C122.841 428.512 122.431 430.075 122.431 432.122V432.682C122.431 434.676 122.841 436.212 123.663 437.289C124.484 438.366 125.657 438.905 127.182 438.905ZM136.603 432.186C136.603 430.491 136.934 428.966 137.595 427.611C138.267 426.257 139.195 425.212 140.379 424.476C141.573 423.74 142.933 423.372 144.458 423.372C146.814 423.372 148.718 424.188 150.168 425.82C151.629 427.451 152.36 429.621 152.36 432.33V432.538C152.36 434.223 152.034 435.737 151.384 437.081C150.744 438.414 149.822 439.454 148.617 440.2C147.422 440.947 146.046 441.32 144.49 441.32C142.143 441.32 140.24 440.504 138.779 438.873C137.329 437.241 136.603 435.081 136.603 432.394V432.186ZM139.579 432.538C139.579 434.458 140.021 435.999 140.906 437.161C141.802 438.323 142.997 438.905 144.49 438.905C145.993 438.905 147.188 438.318 148.073 437.145C148.958 435.961 149.4 434.308 149.4 432.186C149.4 430.288 148.947 428.752 148.041 427.579C147.145 426.396 145.951 425.804 144.458 425.804C142.997 425.804 141.818 426.385 140.922 427.547C140.027 428.71 139.579 430.373 139.579 432.538ZM159.286 441H156.327V416.43H159.286V441ZM174.722 439.288C173.57 440.643 171.88 441.32 169.651 441.32C167.807 441.32 166.399 440.787 165.428 439.72C164.469 438.643 163.983 437.054 163.973 434.953V423.692H166.932V434.873C166.932 437.497 167.998 438.809 170.131 438.809C172.392 438.809 173.896 437.966 174.642 436.281V423.692H177.601V441H174.786L174.722 439.288ZM184.896 423.692L184.976 425.612C186.245 424.119 187.956 423.372 190.11 423.372C192.531 423.372 194.179 424.3 195.053 426.156C195.629 425.324 196.376 424.652 197.293 424.14C198.22 423.628 199.313 423.372 200.572 423.372C204.368 423.372 206.298 425.382 206.362 429.403V441H203.403V429.579C203.403 428.342 203.121 427.419 202.555 426.811C201.99 426.193 201.041 425.884 199.708 425.884C198.61 425.884 197.698 426.214 196.973 426.875C196.248 427.526 195.826 428.406 195.709 429.515V441H192.734V429.659C192.734 427.142 191.502 425.884 189.039 425.884C187.098 425.884 185.77 426.71 185.056 428.363V441H182.096V423.692H184.896ZM213.641 423.692L213.737 425.868C215.059 424.204 216.787 423.372 218.919 423.372C222.577 423.372 224.422 425.436 224.454 429.563V441H221.495V429.547C221.484 428.299 221.196 427.377 220.631 426.779C220.076 426.182 219.207 425.884 218.024 425.884C217.064 425.884 216.221 426.14 215.496 426.652C214.771 427.163 214.206 427.835 213.801 428.667V441H210.841V423.692H213.641Z" fill="white"/>
<path d="M475.182 438.905C476.237 438.905 477.16 438.585 477.949 437.945C478.738 437.305 479.175 436.505 479.261 435.545H482.06C482.007 436.537 481.666 437.481 481.036 438.377C480.407 439.272 479.565 439.987 478.509 440.52C477.464 441.053 476.355 441.32 475.182 441.32C472.825 441.32 470.948 440.536 469.551 438.968C468.165 437.39 467.472 435.236 467.472 432.506V432.01C467.472 430.325 467.781 428.827 468.399 427.515C469.018 426.204 469.903 425.185 471.055 424.46C472.217 423.735 473.587 423.372 475.166 423.372C477.107 423.372 478.717 423.953 479.997 425.116C481.287 426.278 481.975 427.787 482.06 429.643H479.261C479.175 428.523 478.749 427.606 477.981 426.891C477.224 426.166 476.285 425.804 475.166 425.804C473.662 425.804 472.494 426.348 471.663 427.435C470.841 428.512 470.431 430.075 470.431 432.122V432.682C470.431 434.676 470.841 436.212 471.663 437.289C472.484 438.366 473.657 438.905 475.182 438.905ZM484.603 432.186C484.603 430.491 484.934 428.966 485.595 427.611C486.267 426.257 487.195 425.212 488.379 424.476C489.573 423.74 490.933 423.372 492.458 423.372C494.814 423.372 496.718 424.188 498.168 425.82C499.629 427.451 500.36 429.621 500.36 432.33V432.538C500.36 434.223 500.034 435.737 499.384 437.081C498.744 438.414 497.822 439.454 496.617 440.2C495.422 440.947 494.046 441.32 492.49 441.32C490.143 441.32 488.24 440.504 486.779 438.873C485.329 437.241 484.603 435.081 484.603 432.394V432.186ZM487.579 432.538C487.579 434.458 488.021 435.999 488.906 437.161C489.802 438.323 490.997 438.905 492.49 438.905C493.993 438.905 495.188 438.318 496.073 437.145C496.958 435.961 497.4 434.308 497.4 432.186C497.4 430.288 496.947 428.752 496.041 427.579C495.145 426.396 493.951 425.804 492.458 425.804C490.997 425.804 489.818 426.385 488.922 427.547C488.027 428.71 487.579 430.373 487.579 432.538ZM507.286 441H504.327V416.43H507.286V441ZM522.722 439.288C521.57 440.643 519.88 441.32 517.651 441.32C515.807 441.32 514.399 440.787 513.428 439.72C512.469 438.643 511.983 437.054 511.973 434.953V423.692H514.932V434.873C514.932 437.497 515.998 438.809 518.131 438.809C520.392 438.809 521.896 437.966 522.642 436.281V423.692H525.601V441H522.786L522.722 439.288ZM532.896 423.692L532.976 425.612C534.245 424.119 535.956 423.372 538.11 423.372C540.531 423.372 542.179 424.3 543.053 426.156C543.629 425.324 544.376 424.652 545.293 424.14C546.22 423.628 547.313 423.372 548.572 423.372C552.368 423.372 554.298 425.382 554.362 429.403V441H551.403V429.579C551.403 428.342 551.121 427.419 550.555 426.811C549.99 426.193 549.041 425.884 547.708 425.884C546.61 425.884 545.698 426.214 544.973 426.875C544.248 427.526 543.826 428.406 543.709 429.515V441H540.734V429.659C540.734 427.142 539.502 425.884 537.039 425.884C535.098 425.884 533.77 426.71 533.056 428.363V441H530.096V423.692H532.896ZM561.641 423.692L561.737 425.868C563.059 424.204 564.787 423.372 566.919 423.372C570.577 423.372 572.422 425.436 572.454 429.563V441H569.495V429.547C569.484 428.299 569.196 427.377 568.631 426.779C568.076 426.182 567.207 425.884 566.024 425.884C565.064 425.884 564.221 426.14 563.496 426.652C562.771 427.163 562.206 427.835 561.801 428.667V441H558.841V423.692H561.641ZM583.075 432.314H575.269V429.899H583.075V432.314ZM594.337 426.348C593.889 426.273 593.404 426.236 592.881 426.236C590.94 426.236 589.623 427.062 588.93 428.715V441H585.971V423.692H588.85L588.898 425.692C589.868 424.145 591.244 423.372 593.025 423.372C593.601 423.372 594.038 423.447 594.337 423.596V426.348ZM603.934 441.32C601.588 441.32 599.679 440.552 598.208 439.016C596.736 437.47 596 435.407 596 432.826V432.282C596 430.565 596.325 429.035 596.976 427.691C597.637 426.337 598.554 425.281 599.727 424.524C600.911 423.756 602.191 423.372 603.566 423.372C605.817 423.372 607.565 424.113 608.813 425.596C610.061 427.078 610.685 429.2 610.685 431.962V433.194H598.96C599.002 434.9 599.498 436.281 600.447 437.337C601.407 438.382 602.623 438.905 604.094 438.905C605.139 438.905 606.024 438.691 606.75 438.265C607.475 437.838 608.109 437.273 608.653 436.569L610.461 437.977C609.01 440.206 606.835 441.32 603.934 441.32ZM603.566 425.804C602.372 425.804 601.37 426.241 600.559 427.115C599.749 427.979 599.247 429.195 599.055 430.763H607.725V430.539C607.64 429.035 607.235 427.873 606.51 427.051C605.785 426.22 604.803 425.804 603.566 425.804ZM619.61 436.985L623.897 423.692H626.921L620.714 441H618.459L612.188 423.692H615.212L619.61 436.985ZM636.726 441.32C634.38 441.32 632.471 440.552 631 439.016C629.528 437.47 628.792 435.407 628.792 432.826V432.282C628.792 430.565 629.117 429.035 629.768 427.691C630.429 426.337 631.346 425.281 632.519 424.524C633.703 423.756 634.983 423.372 636.358 423.372C638.609 423.372 640.357 424.113 641.605 425.596C642.853 427.078 643.477 429.2 643.477 431.962V433.194H631.752C631.794 434.9 632.29 436.281 633.239 437.337C634.199 438.382 635.415 438.905 636.886 438.905C637.931 438.905 638.816 438.691 639.542 438.265C640.267 437.838 640.901 437.273 641.445 436.569L643.253 437.977C641.802 440.206 639.627 441.32 636.726 441.32ZM636.358 425.804C635.164 425.804 634.162 426.241 633.351 427.115C632.541 427.979 632.039 429.195 631.847 430.763H640.517V430.539C640.432 429.035 640.027 427.873 639.302 427.051C638.577 426.22 637.595 425.804 636.358 425.804ZM655.282 426.348C654.834 426.273 654.349 426.236 653.826 426.236C651.885 426.236 650.568 427.062 649.875 428.715V441H646.916V423.692H649.795L649.843 425.692C650.814 424.145 652.189 423.372 653.97 423.372C654.546 423.372 654.983 423.447 655.282 423.596V426.348ZM668.095 436.409C668.095 435.609 667.791 434.991 667.183 434.554C666.586 434.106 665.535 433.722 664.032 433.402C662.539 433.082 661.35 432.698 660.465 432.25C659.59 431.802 658.94 431.269 658.513 430.651C658.097 430.032 657.889 429.296 657.889 428.443C657.889 427.025 658.486 425.825 659.681 424.844C660.886 423.863 662.421 423.372 664.288 423.372C666.25 423.372 667.839 423.879 669.054 424.892C670.281 425.905 670.894 427.201 670.894 428.779H667.919C667.919 427.969 667.572 427.27 666.879 426.683C666.196 426.097 665.333 425.804 664.288 425.804C663.211 425.804 662.368 426.038 661.76 426.508C661.152 426.977 660.848 427.59 660.848 428.347C660.848 429.062 661.131 429.6 661.696 429.963C662.261 430.325 663.28 430.672 664.751 431.002C666.234 431.333 667.433 431.728 668.351 432.186C669.268 432.645 669.945 433.199 670.382 433.85C670.83 434.49 671.054 435.273 671.054 436.201C671.054 437.747 670.435 438.99 669.198 439.928C667.961 440.856 666.356 441.32 664.384 441.32C662.997 441.32 661.771 441.075 660.704 440.584C659.638 440.094 658.801 439.411 658.193 438.537C657.596 437.651 657.297 436.697 657.297 435.673H660.257C660.31 436.665 660.704 437.454 661.44 438.041C662.187 438.617 663.168 438.905 664.384 438.905C665.503 438.905 666.399 438.681 667.071 438.233C667.753 437.774 668.095 437.166 668.095 436.409ZM682.091 441.32C679.745 441.32 677.836 440.552 676.365 439.016C674.893 437.47 674.157 435.407 674.157 432.826V432.282C674.157 430.565 674.482 429.035 675.133 427.691C675.794 426.337 676.711 425.281 677.884 424.524C679.068 423.756 680.348 423.372 681.723 423.372C683.973 423.372 685.722 424.113 686.97 425.596C688.218 427.078 688.842 429.2 688.842 431.962V433.194H677.116C677.159 434.9 677.655 436.281 678.604 437.337C679.564 438.382 680.78 438.905 682.251 438.905C683.296 438.905 684.181 438.691 684.907 438.265C685.632 437.838 686.266 437.273 686.81 436.569L688.618 437.977C687.167 440.206 684.992 441.32 682.091 441.32ZM681.723 425.804C680.529 425.804 679.527 426.241 678.716 427.115C677.906 427.979 677.404 429.195 677.212 430.763H685.882V430.539C685.797 429.035 685.392 427.873 684.667 427.051C683.941 426.22 682.96 425.804 681.723 425.804Z" fill="white"/>
<path d="M509.605 15.3476C509.158 15.2729 508.672 15.2356 508.15 15.2356C506.209 15.2356 504.892 16.0621 504.199 17.715V30H501.239V12.6922H504.119L504.167 14.6917C505.137 13.1455 506.513 12.3723 508.294 12.3723C508.87 12.3723 509.307 12.447 509.605 12.5963V15.3476ZM511.237 21.1862C511.237 19.4906 511.568 17.9656 512.229 16.6113C512.901 15.2569 513.828 14.2119 515.012 13.476C516.206 12.7402 517.566 12.3723 519.091 12.3723C521.448 12.3723 523.351 13.1881 524.802 14.8197C526.263 16.4513 526.993 18.6214 526.993 21.3301V21.5381C526.993 23.223 526.668 24.7373 526.017 26.081C525.378 27.414 524.455 28.4537 523.25 29.2002C522.056 29.9467 520.68 30.3199 519.123 30.3199C516.777 30.3199 514.873 29.5041 513.412 27.8725C511.962 26.2409 511.237 24.0814 511.237 21.3941V21.1862ZM514.212 21.5381C514.212 23.4576 514.655 24.9986 515.54 26.1609C516.436 27.3233 517.63 27.9045 519.123 27.9045C520.627 27.9045 521.821 27.318 522.706 26.1449C523.591 24.9612 524.034 23.3083 524.034 21.1862C524.034 19.2879 523.581 17.7523 522.674 16.5793C521.778 15.3956 520.584 14.8037 519.091 14.8037C517.63 14.8037 516.452 15.3849 515.556 16.5473C514.66 17.7097 514.212 19.3733 514.212 21.5381ZM546.029 25.921L549.356 12.6922H552.315L547.276 30H544.877L540.67 16.8832L536.575 30H534.175L529.153 12.6922H532.096L535.503 25.6491L539.534 12.6922H541.918L546.029 25.921ZM561.497 21.3141H553.691V18.8987H561.497V21.3141ZM572.758 15.3476C572.31 15.2729 571.825 15.2356 571.302 15.2356C569.361 15.2356 568.044 16.0621 567.351 17.715V30H564.392V12.6922H567.271L567.319 14.6917C568.29 13.1455 569.665 12.3723 571.446 12.3723C572.022 12.3723 572.459 12.447 572.758 12.5963V15.3476ZM582.356 30.3199C580.01 30.3199 578.101 29.5521 576.629 28.0165C575.157 26.4702 574.422 24.4067 574.422 21.826V21.2821C574.422 19.5652 574.747 18.0349 575.397 16.6913C576.059 15.3369 576.976 14.2812 578.149 13.524C579.332 12.7562 580.612 12.3723 581.988 12.3723C584.238 12.3723 585.987 13.1135 587.234 14.5958C588.482 16.0781 589.106 18.2002 589.106 20.9622V22.1939H577.381C577.424 23.9002 577.919 25.2812 578.868 26.3369C579.828 27.382 581.044 27.9045 582.516 27.9045C583.561 27.9045 584.446 27.6912 585.171 27.2647C585.896 26.8381 586.531 26.2729 587.074 25.5691L588.882 26.9767C587.432 29.2055 585.256 30.3199 582.356 30.3199ZM581.988 14.8037C580.793 14.8037 579.791 15.2409 578.98 16.1154C578.17 16.9792 577.669 18.1949 577.477 19.7625H586.147V19.5386C586.061 18.0349 585.656 16.8725 584.931 16.0514C584.206 15.2196 583.225 14.8037 581.988 14.8037ZM598.032 25.985L602.319 12.6922H605.342L599.136 30H596.88L590.61 12.6922H593.633L598.032 25.985ZM615.148 30.3199C612.802 30.3199 610.893 29.5521 609.421 28.0165C607.949 26.4702 607.214 24.4067 607.214 21.826V21.2821C607.214 19.5652 607.539 18.0349 608.189 16.6913C608.851 15.3369 609.768 14.2812 610.941 13.524C612.124 12.7562 613.404 12.3723 614.78 12.3723C617.03 12.3723 618.779 13.1135 620.026 14.5958C621.274 16.0781 621.898 18.2002 621.898 20.9622V22.1939H610.173C610.216 23.9002 610.711 25.2812 611.66 26.3369C612.62 27.382 613.836 27.9045 615.308 27.9045C616.353 27.9045 617.238 27.6912 617.963 27.2647C618.688 26.8381 619.323 26.2729 619.866 25.5691L621.674 26.9767C620.224 29.2055 618.048 30.3199 615.148 30.3199ZM614.78 14.8037C613.585 14.8037 612.583 15.2409 611.772 16.1154C610.962 16.9792 610.461 18.1949 610.269 19.7625H618.939V19.5386C618.853 18.0349 618.448 16.8725 617.723 16.0514C616.998 15.2196 616.017 14.8037 614.78 14.8037ZM633.703 15.3476C633.255 15.2729 632.77 15.2356 632.247 15.2356C630.307 15.2356 628.99 16.0621 628.296 17.715V30H625.337V12.6922H628.216L628.264 14.6917C629.235 13.1455 630.611 12.3723 632.391 12.3723C632.967 12.3723 633.405 12.447 633.703 12.5963V15.3476ZM646.516 25.4091C646.516 24.6093 646.212 23.9908 645.604 23.5536C645.007 23.1057 643.957 22.7218 642.453 22.4019C640.96 22.0819 639.771 21.698 638.886 21.2501C638.011 20.8022 637.361 20.269 636.934 19.6505C636.518 19.032 636.31 18.2962 636.31 17.4431C636.31 16.0247 636.908 14.825 638.102 13.8439C639.307 12.8629 640.843 12.3723 642.709 12.3723C644.671 12.3723 646.26 12.8788 647.476 13.8919C648.702 14.905 649.315 16.2007 649.315 17.779H646.34C646.34 16.9685 645.993 16.27 645.3 15.6835C644.618 15.097 643.754 14.8037 642.709 14.8037C641.632 14.8037 640.789 15.0383 640.182 15.5075C639.574 15.9768 639.27 16.5899 639.27 17.3471C639.27 18.0616 639.552 18.6001 640.118 18.9627C640.683 19.3253 641.701 19.6719 643.173 20.0024C644.655 20.333 645.855 20.7276 646.772 21.1862C647.689 21.6447 648.366 22.1992 648.803 22.8497C649.251 23.4896 649.475 24.2734 649.475 25.2012C649.475 26.7475 648.857 27.9898 647.62 28.9283C646.383 29.856 644.778 30.3199 642.805 30.3199C641.419 30.3199 640.192 30.0746 639.126 29.5841C638.059 29.0936 637.222 28.4111 636.614 27.5366C636.017 26.6515 635.719 25.6971 635.719 24.6733H638.678C638.731 25.6651 639.126 26.4542 639.862 27.0407C640.608 27.6166 641.589 27.9045 642.805 27.9045C643.925 27.9045 644.82 27.6806 645.492 27.2327C646.175 26.7741 646.516 26.1663 646.516 25.4091ZM660.513 30.3199C658.166 30.3199 656.258 29.5521 654.786 28.0165C653.314 26.4702 652.578 24.4067 652.578 21.826V21.2821C652.578 19.5652 652.904 18.0349 653.554 16.6913C654.215 15.3369 655.133 14.2812 656.306 13.524C657.489 12.7562 658.769 12.3723 660.145 12.3723C662.395 12.3723 664.144 13.1135 665.391 14.5958C666.639 16.0781 667.263 18.2002 667.263 20.9622V22.1939H655.538C655.58 23.9002 656.076 25.2812 657.025 26.3369C657.985 27.382 659.201 27.9045 660.673 27.9045C661.718 27.9045 662.603 27.6912 663.328 27.2647C664.053 26.8381 664.688 26.2729 665.231 25.5691L667.039 26.9767C665.589 29.2055 663.413 30.3199 660.513 30.3199ZM660.145 14.8037C658.95 14.8037 657.948 15.2409 657.137 16.1154C656.327 16.9792 655.826 18.1949 655.634 19.7625H664.304V19.5386C664.218 18.0349 663.813 16.8725 663.088 16.0514C662.363 15.2196 661.382 14.8037 660.145 14.8037Z" fill="white"/>
</svg>
