<svg width="600" height="288" viewBox="0 0 600 288" fill="none" xmlns="http://www.w3.org/2000/svg">
<rect x="0.5" y="26.5" width="599" height="129" rx="2.5" stroke="#212121" stroke-dasharray="5 5"/>
<rect x="15" y="41" width="100" height="100" rx="3" fill="#159A6B"/>
<rect x="117" y="41" width="100" height="100" rx="3" fill="#128279"/>
<rect x="219" y="41" width="367" height="100" rx="3" fill="#0B5A72"/>
<path d="M66.8145 102H63.5449V80.3262L56.9883 82.7344V79.7812L66.3047 76.2832H66.8145V102Z" fill="white"/>
<path d="M174.896 102H158.127V99.6621L166.986 89.8184C168.299 88.3301 169.201 87.123 169.693 86.1973C170.197 85.2598 170.449 84.293 170.449 83.2969C170.449 81.9609 170.045 80.8652 169.236 80.0098C168.428 79.1543 167.35 78.7266 166.002 78.7266C164.385 78.7266 163.125 79.1895 162.223 80.1152C161.332 81.0293 160.887 82.3066 160.887 83.9473H157.635C157.635 81.5918 158.391 79.6875 159.902 78.2344C161.426 76.7812 163.459 76.0547 166.002 76.0547C168.381 76.0547 170.262 76.6816 171.645 77.9355C173.027 79.1777 173.719 80.8359 173.719 82.9102C173.719 85.4297 172.113 88.4297 168.902 91.9102L162.047 99.3457H174.896V102Z" fill="white"/>
<path d="M396.855 87.6211H399.299C400.834 87.5977 402.041 87.1934 402.92 86.4082C403.799 85.623 404.238 84.5625 404.238 83.2266C404.238 80.2266 402.744 78.7266 399.756 78.7266C398.35 78.7266 397.225 79.1309 396.381 79.9395C395.549 80.7363 395.133 81.7969 395.133 83.1211H391.881C391.881 81.0938 392.619 79.4121 394.096 78.0762C395.584 76.7285 397.471 76.0547 399.756 76.0547C402.17 76.0547 404.062 76.6934 405.434 77.9707C406.805 79.248 407.49 81.0234 407.49 83.2969C407.49 84.4102 407.127 85.4883 406.4 86.5312C405.686 87.5742 404.707 88.3535 403.465 88.8691C404.871 89.3145 405.955 90.0527 406.717 91.084C407.49 92.1152 407.877 93.375 407.877 94.8633C407.877 97.1602 407.127 98.9824 405.627 100.33C404.127 101.678 402.176 102.352 399.773 102.352C397.371 102.352 395.414 101.701 393.902 100.4C392.402 99.0996 391.652 97.3828 391.652 95.25H394.922C394.922 96.5977 395.361 97.6758 396.24 98.4844C397.119 99.293 398.297 99.6973 399.773 99.6973C401.344 99.6973 402.545 99.2871 403.377 98.4668C404.209 97.6465 404.625 96.4688 404.625 94.9336C404.625 93.4453 404.168 92.3027 403.254 91.5059C402.34 90.709 401.021 90.2988 399.299 90.2754H396.855V87.6211Z" fill="white"/>
<path d="M83.459 245.216V243.098H85.8496V245.216H83.459ZM83.459 256V246.561H85.8496V256H83.459ZM93.0918 256.105C91.6562 256.105 90.6279 255.889 90.0068 255.455C89.3857 255.021 89.0752 254.204 89.0752 253.003V248.081H87.8184V246.561H89.1455L89.3652 243.528H91.4658V246.561H93.707V248.081H91.4658V252.836C91.4658 253.422 91.6035 253.817 91.8789 254.022C92.1602 254.228 92.6963 254.33 93.4873 254.33H93.7686L93.6807 256.105H93.0918ZM97.8906 250.278H101.283V249.171C101.283 248.603 101.055 248.254 100.598 248.125C100.357 248.055 99.9912 248.022 99.499 248.028C99.0127 248.028 98.623 248.11 98.3301 248.274C98.0371 248.438 97.8906 248.752 97.8906 249.215V250.278ZM97.9434 256.044C97.4746 255.944 97.0527 255.777 96.6777 255.543C95.8926 255.062 95.5 254.23 95.5 253.047V249.364C95.5 248.415 95.8604 247.677 96.5811 247.149C97.3018 246.622 98.2832 246.358 99.5254 246.358C102.203 246.358 103.542 247.39 103.542 249.452V251.737H97.8906V253.275C97.8906 253.797 98.0195 254.14 98.2773 254.304C98.5352 254.462 98.9717 254.541 99.5869 254.541C100.202 254.541 100.565 254.512 100.677 254.453C100.94 254.307 101.11 254.131 101.187 253.926C101.263 253.715 101.307 253.439 101.318 253.1H103.533C103.498 254.553 102.985 255.473 101.995 255.859C101.415 256.082 100.712 256.193 99.8857 256.193C99.0596 256.199 98.4121 256.149 97.9434 256.044ZM105.924 256V246.561H108.314V247.404C108.643 247.064 109.067 246.807 109.589 246.631C110.116 246.449 110.62 246.358 111.101 246.358C112.36 246.358 113.225 246.748 113.693 247.527C114.473 246.748 115.519 246.358 116.831 246.358C117.733 246.358 118.457 246.604 119.002 247.097C119.553 247.583 119.828 248.225 119.828 249.021V256H117.438V249.303C117.438 248.846 117.317 248.535 117.077 248.371C116.843 248.201 116.5 248.116 116.049 248.116C115.604 248.116 115.173 248.233 114.757 248.468C114.347 248.702 114.124 249.016 114.089 249.408V256H111.698V249.303C111.698 248.846 111.572 248.535 111.32 248.371C111.068 248.201 110.711 248.116 110.248 248.116C109.791 248.116 109.354 248.242 108.938 248.494C108.522 248.74 108.314 249.077 108.314 249.505V256H105.924ZM122.324 251.658V250.357H128.512V251.658H122.324ZM135.956 254.26C137.497 254.26 138.268 253.592 138.268 252.256C138.268 251.623 138.186 251.163 138.021 250.876C137.863 250.583 137.582 250.372 137.178 250.243C136.773 250.108 136.188 250.041 135.42 250.041V248.292C136.838 248.292 137.682 248.075 137.951 247.642C138.115 247.372 138.197 246.965 138.197 246.42C138.197 245.869 138.03 245.456 137.696 245.181C137.362 244.899 136.773 244.759 135.93 244.759C135.086 244.759 134.497 244.917 134.163 245.233C133.835 245.544 133.674 246.106 133.68 246.921H131.324C131.336 245.397 131.746 244.328 132.555 243.713C133.363 243.098 134.482 242.79 135.912 242.79C137.348 242.79 138.493 243.104 139.349 243.73C140.204 244.352 140.632 245.216 140.632 246.323C140.632 247.214 140.462 247.873 140.122 248.301C139.782 248.723 139.296 249.004 138.663 249.145C140.052 249.52 140.746 250.557 140.746 252.256C140.746 253.434 140.371 254.392 139.621 255.13C138.871 255.868 137.679 256.237 136.044 256.237C134.409 256.237 133.214 255.892 132.458 255.2C131.702 254.503 131.307 253.492 131.271 252.168H133.627C133.639 252.965 133.823 253.513 134.181 253.812C134.544 254.11 135.136 254.26 135.956 254.26ZM149.79 256L147.109 246.684H148.621L150.687 253.996L152.928 246.684H154.519L156.856 253.996L158.852 246.684H160.381L157.656 256H156.118L153.736 248.573L151.354 256H149.79ZM162.648 256V246.684H164.301V256H162.648ZM162.648 245.005V243.291H164.301V245.005H162.648ZM171.271 246.508C172.021 246.508 172.709 246.625 173.336 246.859V242.764H174.988V256H173.863L173.591 255.385C173.304 255.607 172.926 255.798 172.457 255.956C171.988 256.114 171.525 256.193 171.068 256.193C169.797 256.193 168.862 255.912 168.265 255.35C167.673 254.781 167.377 254.017 167.377 253.056V249.54C167.377 248.573 167.696 247.826 168.335 247.299C168.974 246.771 169.952 246.508 171.271 246.508ZM169.029 253.179C169.029 253.735 169.226 254.16 169.618 254.453C170.017 254.746 170.482 254.893 171.016 254.893C171.965 254.893 172.738 254.708 173.336 254.339V248.16C172.803 247.902 172.155 247.773 171.394 247.773C169.817 247.773 169.029 248.301 169.029 249.355V253.179ZM182.564 256.07C181.264 256.07 180.323 255.865 179.743 255.455C179.169 255.045 178.882 254.339 178.882 253.337V247.932H177.326V246.684H178.943L179.146 243.801H180.534V246.684H182.872V247.932H180.534V253.231C180.534 253.817 180.701 254.207 181.035 254.4C181.375 254.588 181.964 254.682 182.802 254.682H182.986L182.811 256.07H182.564ZM191.582 249.118C191.582 248.222 190.891 247.773 189.508 247.773C188.816 247.773 188.274 247.917 187.882 248.204C187.489 248.491 187.293 248.869 187.293 249.338V256H185.641V242.772H187.293V247.562C187.896 246.859 188.822 246.508 190.07 246.508C191.652 246.508 192.648 247.059 193.059 248.16C193.176 248.477 193.234 248.825 193.234 249.206V256H191.582V249.118Z" fill="#212121"/>
<path d="M206.516 253.755V252.093H215.522V253.755H206.516ZM206.516 249.959V248.297H215.522V249.959H206.516Z" fill="#212121"/>
<path d="M466.516 250.755V249.093H475.522V250.755H466.516ZM466.516 246.959V245.297H475.522V246.959H466.516Z" fill="#212121"/>
<path d="M279.407 238H277.772V227.163L274.494 228.367V226.891L279.152 225.142H279.407V238Z" fill="#212121"/>
<path d="M35.5781 3.57324C35.013 3.4821 34.5573 3.43652 34.2109 3.43652C33.2995 3.43652 32.8438 3.91504 32.8438 4.87207V5.60352H34.4229V6.58105H32.8438V13H31.5791V6.58105H30.4102V5.60352H31.5791V4.79688C31.5837 4.00846 31.8047 3.40462 32.2422 2.98535C32.6797 2.56608 33.3018 2.35645 34.1084 2.35645C34.5687 2.35645 35.4801 2.49544 36.8428 2.77344V13H35.5781V3.57324ZM41.9834 13.1367C40.9808 13.1367 40.165 12.8086 39.5361 12.1523C38.9072 11.4915 38.5928 10.6097 38.5928 9.50684V9.27441C38.5928 8.54069 38.7318 7.88672 39.0098 7.3125C39.2923 6.73372 39.6842 6.28255 40.1855 5.95898C40.6914 5.63086 41.2383 5.4668 41.8262 5.4668C42.7878 5.4668 43.5352 5.78353 44.0684 6.41699C44.6016 7.05046 44.8682 7.95736 44.8682 9.1377V9.66406H39.8574C39.8757 10.3932 40.0876 10.9834 40.4932 11.4346C40.9033 11.8812 41.4229 12.1045 42.0518 12.1045C42.4984 12.1045 42.8766 12.0133 43.1865 11.8311C43.4964 11.6488 43.7676 11.4072 44 11.1064L44.7725 11.708C44.1527 12.6605 43.223 13.1367 41.9834 13.1367ZM41.8262 6.50586C41.3158 6.50586 40.8874 6.69271 40.541 7.06641C40.1947 7.43555 39.9805 7.95508 39.8984 8.625H43.6035V8.5293C43.5671 7.88672 43.3939 7.38997 43.084 7.03906C42.7741 6.68359 42.3548 6.50586 41.8262 6.50586ZM48.8193 8.30371L50.46 5.60352H51.9365L49.5166 9.26074L52.0117 13H50.5488L48.8398 10.2314L47.1309 13H45.6611L48.1562 9.26074L45.7363 5.60352H47.1992L48.8193 8.30371ZM55.915 9.28809H52.5791V8.25586H55.915V9.28809ZM56.8516 9.24023C56.8516 8.08724 57.1182 7.17122 57.6514 6.49219C58.1846 5.80859 58.891 5.4668 59.7705 5.4668C60.6729 5.4668 61.377 5.78581 61.8828 6.42383L61.9443 5.60352H63.0996V12.8223C63.0996 13.7793 62.8148 14.5335 62.2451 15.085C61.68 15.6364 60.9189 15.9121 59.9619 15.9121C59.4287 15.9121 58.9069 15.7982 58.3965 15.5703C57.8861 15.3424 57.4964 15.0303 57.2275 14.6338L57.8838 13.875C58.4261 14.5449 59.0892 14.8799 59.873 14.8799C60.4883 14.8799 60.9668 14.7067 61.3086 14.3604C61.6549 14.014 61.8281 13.5264 61.8281 12.8975V12.2617C61.3223 12.8451 60.6318 13.1367 59.7568 13.1367C58.891 13.1367 58.1891 12.7881 57.6514 12.0908C57.1182 11.3936 56.8516 10.4434 56.8516 9.24023ZM58.123 9.38379C58.123 10.2178 58.2939 10.874 58.6357 11.3525C58.9775 11.8265 59.4561 12.0635 60.0713 12.0635C60.8688 12.0635 61.4544 11.7012 61.8281 10.9766V7.59961C61.4408 6.89323 60.8597 6.54004 60.085 6.54004C59.4697 6.54004 58.9889 6.7793 58.6426 7.25781C58.2962 7.73633 58.123 8.44499 58.123 9.38379ZM68.5889 6.73828C68.3975 6.70638 68.1901 6.69043 67.9668 6.69043C67.1374 6.69043 66.5745 7.04362 66.2783 7.75V13H65.0137V5.60352H66.2441L66.2646 6.45801C66.6794 5.7972 67.2673 5.4668 68.0283 5.4668C68.2744 5.4668 68.4613 5.4987 68.5889 5.5625V6.73828ZM69.2861 9.2334C69.2861 8.50879 69.4274 7.8571 69.71 7.27832C69.9971 6.69954 70.3936 6.25293 70.8994 5.93848C71.4098 5.62402 71.9909 5.4668 72.6426 5.4668C73.6497 5.4668 74.4632 5.81543 75.083 6.5127C75.7074 7.20996 76.0195 8.13737 76.0195 9.29492V9.38379C76.0195 10.1038 75.8805 10.751 75.6025 11.3252C75.3291 11.8949 74.9349 12.3392 74.4199 12.6582C73.9095 12.9772 73.3216 13.1367 72.6562 13.1367C71.6536 13.1367 70.8402 12.7881 70.2158 12.0908C69.596 11.3936 69.2861 10.4707 69.2861 9.32227V9.2334ZM70.5576 9.38379C70.5576 10.2041 70.7467 10.8626 71.125 11.3594C71.5078 11.8561 72.0182 12.1045 72.6562 12.1045C73.2988 12.1045 73.8092 11.8538 74.1875 11.3525C74.5658 10.8467 74.7549 10.1403 74.7549 9.2334C74.7549 8.4222 74.5612 7.76595 74.1738 7.26465C73.791 6.75879 73.2806 6.50586 72.6426 6.50586C72.0182 6.50586 71.5146 6.75423 71.1318 7.25098C70.749 7.74772 70.5576 8.45866 70.5576 9.38379ZM84.1543 11.2568L85.5762 5.60352H86.8408L84.6875 13H83.6621L81.8643 7.39453L80.1143 13H79.0889L76.9424 5.60352H78.2002L79.6562 11.1406L81.3789 5.60352H82.3975L84.1543 11.2568ZM88.0918 12.3369C88.0918 12.1182 88.1556 11.9359 88.2832 11.79C88.4154 11.6442 88.6113 11.5713 88.8711 11.5713C89.1309 11.5713 89.3268 11.6442 89.459 11.79C89.5957 11.9359 89.6641 12.1182 89.6641 12.3369C89.6641 12.5465 89.5957 12.722 89.459 12.8633C89.3268 13.0046 89.1309 13.0752 88.8711 13.0752C88.6113 13.0752 88.4154 13.0046 88.2832 12.8633C88.1556 12.722 88.0918 12.5465 88.0918 12.3369ZM88.0986 6.30078C88.0986 6.08203 88.1624 5.89974 88.29 5.75391C88.4222 5.60807 88.6182 5.53516 88.8779 5.53516C89.1377 5.53516 89.3337 5.60807 89.4658 5.75391C89.6025 5.89974 89.6709 6.08203 89.6709 6.30078C89.6709 6.51042 89.6025 6.68587 89.4658 6.82715C89.3337 6.96842 89.1377 7.03906 88.8779 7.03906C88.6182 7.03906 88.4222 6.96842 88.29 6.82715C88.1624 6.68587 88.0986 6.51042 88.0986 6.30078ZM101.107 8.75488C101.107 10.236 100.854 11.3366 100.349 12.0566C99.8428 12.7767 99.0521 13.1367 97.9766 13.1367C96.9147 13.1367 96.1286 12.7858 95.6182 12.084C95.1077 11.3776 94.8434 10.3249 94.8252 8.92578V7.2373C94.8252 5.77441 95.0781 4.6875 95.584 3.97656C96.0898 3.26562 96.8828 2.91016 97.9629 2.91016C99.0339 2.91016 99.8223 3.25423 100.328 3.94238C100.834 4.62598 101.094 5.68327 101.107 7.11426V8.75488ZM99.8428 7.02539C99.8428 5.95443 99.6924 5.17513 99.3916 4.6875C99.0908 4.19531 98.6146 3.94922 97.9629 3.94922C97.3158 3.94922 96.8441 4.19303 96.5479 4.68066C96.2516 5.16829 96.099 5.91797 96.0898 6.92969V8.95312C96.0898 10.0286 96.2448 10.8239 96.5547 11.3389C96.8691 11.8493 97.3431 12.1045 97.9766 12.1045C98.6009 12.1045 99.0635 11.863 99.3643 11.3799C99.6696 10.8968 99.8291 10.1357 99.8428 9.09668V7.02539ZM102.659 6.30078C102.659 6.08203 102.723 5.89974 102.851 5.75391C102.983 5.60807 103.179 5.53516 103.438 5.53516C103.698 5.53516 103.894 5.60807 104.026 5.75391C104.163 5.89974 104.231 6.08203 104.231 6.30078C104.231 6.51042 104.163 6.68587 104.026 6.82715C103.894 6.96842 103.698 7.03906 103.438 7.03906C103.179 7.03906 102.983 6.96842 102.851 6.82715C102.723 6.68587 102.659 6.51042 102.659 6.30078ZM102.898 14.9824L102.181 14.4902C102.609 13.8932 102.832 13.278 102.851 12.6445V11.5029H104.088V12.4941C104.088 12.9544 103.974 13.4147 103.746 13.875C103.523 14.3353 103.24 14.7044 102.898 14.9824Z" fill="#212121"/>
<path d="M136.578 4.57324C136.013 4.4821 135.557 4.43652 135.211 4.43652C134.299 4.43652 133.844 4.91504 133.844 5.87207V6.60352H135.423V7.58105H133.844V14H132.579V7.58105H131.41V6.60352H132.579V5.79688C132.584 5.00846 132.805 4.40462 133.242 3.98535C133.68 3.56608 134.302 3.35645 135.108 3.35645C135.569 3.35645 136.48 3.49544 137.843 3.77344V14H136.578V4.57324ZM142.983 14.1367C141.981 14.1367 141.165 13.8086 140.536 13.1523C139.907 12.4915 139.593 11.6097 139.593 10.5068V10.2744C139.593 9.54069 139.732 8.88672 140.01 8.3125C140.292 7.73372 140.684 7.28255 141.186 6.95898C141.691 6.63086 142.238 6.4668 142.826 6.4668C143.788 6.4668 144.535 6.78353 145.068 7.41699C145.602 8.05046 145.868 8.95736 145.868 10.1377V10.6641H140.857C140.876 11.3932 141.088 11.9834 141.493 12.4346C141.903 12.8812 142.423 13.1045 143.052 13.1045C143.498 13.1045 143.877 13.0133 144.187 12.8311C144.496 12.6488 144.768 12.4072 145 12.1064L145.772 12.708C145.153 13.6605 144.223 14.1367 142.983 14.1367ZM142.826 7.50586C142.316 7.50586 141.887 7.69271 141.541 8.06641C141.195 8.43555 140.98 8.95508 140.898 9.625H144.604V9.5293C144.567 8.88672 144.394 8.38997 144.084 8.03906C143.774 7.68359 143.355 7.50586 142.826 7.50586ZM149.819 9.30371L151.46 6.60352H152.937L150.517 10.2607L153.012 14H151.549L149.84 11.2314L148.131 14H146.661L149.156 10.2607L146.736 6.60352H148.199L149.819 9.30371ZM156.915 10.2881H153.579V9.25586H156.915V10.2881ZM157.852 10.2402C157.852 9.08724 158.118 8.17122 158.651 7.49219C159.185 6.80859 159.891 6.4668 160.771 6.4668C161.673 6.4668 162.377 6.78581 162.883 7.42383L162.944 6.60352H164.1V13.8223C164.1 14.7793 163.815 15.5335 163.245 16.085C162.68 16.6364 161.919 16.9121 160.962 16.9121C160.429 16.9121 159.907 16.7982 159.396 16.5703C158.886 16.3424 158.496 16.0303 158.228 15.6338L158.884 14.875C159.426 15.5449 160.089 15.8799 160.873 15.8799C161.488 15.8799 161.967 15.7067 162.309 15.3604C162.655 15.014 162.828 14.5264 162.828 13.8975V13.2617C162.322 13.8451 161.632 14.1367 160.757 14.1367C159.891 14.1367 159.189 13.7881 158.651 13.0908C158.118 12.3936 157.852 11.4434 157.852 10.2402ZM159.123 10.3838C159.123 11.2178 159.294 11.874 159.636 12.3525C159.978 12.8265 160.456 13.0635 161.071 13.0635C161.869 13.0635 162.454 12.7012 162.828 11.9766V8.59961C162.441 7.89323 161.86 7.54004 161.085 7.54004C160.47 7.54004 159.989 7.7793 159.643 8.25781C159.296 8.73633 159.123 9.44499 159.123 10.3838ZM169.589 7.73828C169.397 7.70638 169.19 7.69043 168.967 7.69043C168.137 7.69043 167.575 8.04362 167.278 8.75V14H166.014V6.60352H167.244L167.265 7.45801C167.679 6.7972 168.267 6.4668 169.028 6.4668C169.274 6.4668 169.461 6.4987 169.589 6.5625V7.73828ZM170.286 10.2334C170.286 9.50879 170.427 8.8571 170.71 8.27832C170.997 7.69954 171.394 7.25293 171.899 6.93848C172.41 6.62402 172.991 6.4668 173.643 6.4668C174.65 6.4668 175.463 6.81543 176.083 7.5127C176.707 8.20996 177.02 9.13737 177.02 10.2949V10.3838C177.02 11.1038 176.881 11.751 176.603 12.3252C176.329 12.8949 175.935 13.3392 175.42 13.6582C174.91 13.9772 174.322 14.1367 173.656 14.1367C172.654 14.1367 171.84 13.7881 171.216 13.0908C170.596 12.3936 170.286 11.4707 170.286 10.3223V10.2334ZM171.558 10.3838C171.558 11.2041 171.747 11.8626 172.125 12.3594C172.508 12.8561 173.018 13.1045 173.656 13.1045C174.299 13.1045 174.809 12.8538 175.188 12.3525C175.566 11.8467 175.755 11.1403 175.755 10.2334C175.755 9.4222 175.561 8.76595 175.174 8.26465C174.791 7.75879 174.281 7.50586 173.643 7.50586C173.018 7.50586 172.515 7.75423 172.132 8.25098C171.749 8.74772 171.558 9.45866 171.558 10.3838ZM185.154 12.2568L186.576 6.60352H187.841L185.688 14H184.662L182.864 8.39453L181.114 14H180.089L177.942 6.60352H179.2L180.656 12.1406L182.379 6.60352H183.397L185.154 12.2568ZM189.092 13.3369C189.092 13.1182 189.156 12.9359 189.283 12.79C189.415 12.6442 189.611 12.5713 189.871 12.5713C190.131 12.5713 190.327 12.6442 190.459 12.79C190.596 12.9359 190.664 13.1182 190.664 13.3369C190.664 13.5465 190.596 13.722 190.459 13.8633C190.327 14.0046 190.131 14.0752 189.871 14.0752C189.611 14.0752 189.415 14.0046 189.283 13.8633C189.156 13.722 189.092 13.5465 189.092 13.3369ZM189.099 7.30078C189.099 7.08203 189.162 6.89974 189.29 6.75391C189.422 6.60807 189.618 6.53516 189.878 6.53516C190.138 6.53516 190.334 6.60807 190.466 6.75391C190.603 6.89974 190.671 7.08203 190.671 7.30078C190.671 7.51042 190.603 7.68587 190.466 7.82715C190.334 7.96842 190.138 8.03906 189.878 8.03906C189.618 8.03906 189.422 7.96842 189.29 7.82715C189.162 7.68587 189.099 7.51042 189.099 7.30078ZM202.107 9.75488C202.107 11.236 201.854 12.3366 201.349 13.0566C200.843 13.7767 200.052 14.1367 198.977 14.1367C197.915 14.1367 197.129 13.7858 196.618 13.084C196.108 12.3776 195.843 11.3249 195.825 9.92578V8.2373C195.825 6.77441 196.078 5.6875 196.584 4.97656C197.09 4.26562 197.883 3.91016 198.963 3.91016C200.034 3.91016 200.822 4.25423 201.328 4.94238C201.834 5.62598 202.094 6.68327 202.107 8.11426V9.75488ZM200.843 8.02539C200.843 6.95443 200.692 6.17513 200.392 5.6875C200.091 5.19531 199.615 4.94922 198.963 4.94922C198.316 4.94922 197.844 5.19303 197.548 5.68066C197.252 6.16829 197.099 6.91797 197.09 7.92969V9.95312C197.09 11.0286 197.245 11.8239 197.555 12.3389C197.869 12.8493 198.343 13.1045 198.977 13.1045C199.601 13.1045 200.063 12.863 200.364 12.3799C200.67 11.8968 200.829 11.1357 200.843 10.0967V8.02539ZM203.659 7.30078C203.659 7.08203 203.723 6.89974 203.851 6.75391C203.983 6.60807 204.179 6.53516 204.438 6.53516C204.698 6.53516 204.894 6.60807 205.026 6.75391C205.163 6.89974 205.231 7.08203 205.231 7.30078C205.231 7.51042 205.163 7.68587 205.026 7.82715C204.894 7.96842 204.698 8.03906 204.438 8.03906C204.179 8.03906 203.983 7.96842 203.851 7.82715C203.723 7.68587 203.659 7.51042 203.659 7.30078ZM203.898 15.9824L203.181 15.4902C203.609 14.8932 203.832 14.278 203.851 13.6445V12.5029H205.088V13.4941C205.088 13.9544 204.974 14.4147 204.746 14.875C204.523 15.3353 204.24 15.7044 203.898 15.9824Z" fill="#212121"/>
<path d="M368.578 4.57324C368.013 4.4821 367.557 4.43652 367.211 4.43652C366.299 4.43652 365.844 4.91504 365.844 5.87207V6.60352H367.423V7.58105H365.844V14H364.579V7.58105H363.41V6.60352H364.579V5.79688C364.584 5.00846 364.805 4.40462 365.242 3.98535C365.68 3.56608 366.302 3.35645 367.108 3.35645C367.569 3.35645 368.48 3.49544 369.843 3.77344V14H368.578V4.57324ZM374.983 14.1367C373.981 14.1367 373.165 13.8086 372.536 13.1523C371.907 12.4915 371.593 11.6097 371.593 10.5068V10.2744C371.593 9.54069 371.732 8.88672 372.01 8.3125C372.292 7.73372 372.684 7.28255 373.186 6.95898C373.691 6.63086 374.238 6.4668 374.826 6.4668C375.788 6.4668 376.535 6.78353 377.068 7.41699C377.602 8.05046 377.868 8.95736 377.868 10.1377V10.6641H372.857C372.876 11.3932 373.088 11.9834 373.493 12.4346C373.903 12.8812 374.423 13.1045 375.052 13.1045C375.498 13.1045 375.877 13.0133 376.187 12.8311C376.496 12.6488 376.768 12.4072 377 12.1064L377.772 12.708C377.153 13.6605 376.223 14.1367 374.983 14.1367ZM374.826 7.50586C374.316 7.50586 373.887 7.69271 373.541 8.06641C373.195 8.43555 372.98 8.95508 372.898 9.625H376.604V9.5293C376.567 8.88672 376.394 8.38997 376.084 8.03906C375.774 7.68359 375.355 7.50586 374.826 7.50586ZM381.819 9.30371L383.46 6.60352H384.937L382.517 10.2607L385.012 14H383.549L381.84 11.2314L380.131 14H378.661L381.156 10.2607L378.736 6.60352H380.199L381.819 9.30371ZM388.915 10.2881H385.579V9.25586H388.915V10.2881ZM389.852 10.2402C389.852 9.08724 390.118 8.17122 390.651 7.49219C391.185 6.80859 391.891 6.4668 392.771 6.4668C393.673 6.4668 394.377 6.78581 394.883 7.42383L394.944 6.60352H396.1V13.8223C396.1 14.7793 395.815 15.5335 395.245 16.085C394.68 16.6364 393.919 16.9121 392.962 16.9121C392.429 16.9121 391.907 16.7982 391.396 16.5703C390.886 16.3424 390.496 16.0303 390.228 15.6338L390.884 14.875C391.426 15.5449 392.089 15.8799 392.873 15.8799C393.488 15.8799 393.967 15.7067 394.309 15.3604C394.655 15.014 394.828 14.5264 394.828 13.8975V13.2617C394.322 13.8451 393.632 14.1367 392.757 14.1367C391.891 14.1367 391.189 13.7881 390.651 13.0908C390.118 12.3936 389.852 11.4434 389.852 10.2402ZM391.123 10.3838C391.123 11.2178 391.294 11.874 391.636 12.3525C391.978 12.8265 392.456 13.0635 393.071 13.0635C393.869 13.0635 394.454 12.7012 394.828 11.9766V8.59961C394.441 7.89323 393.86 7.54004 393.085 7.54004C392.47 7.54004 391.989 7.7793 391.643 8.25781C391.296 8.73633 391.123 9.44499 391.123 10.3838ZM401.589 7.73828C401.397 7.70638 401.19 7.69043 400.967 7.69043C400.137 7.69043 399.575 8.04362 399.278 8.75V14H398.014V6.60352H399.244L399.265 7.45801C399.679 6.7972 400.267 6.4668 401.028 6.4668C401.274 6.4668 401.461 6.4987 401.589 6.5625V7.73828ZM402.286 10.2334C402.286 9.50879 402.427 8.8571 402.71 8.27832C402.997 7.69954 403.394 7.25293 403.899 6.93848C404.41 6.62402 404.991 6.4668 405.643 6.4668C406.65 6.4668 407.463 6.81543 408.083 7.5127C408.707 8.20996 409.02 9.13737 409.02 10.2949V10.3838C409.02 11.1038 408.881 11.751 408.603 12.3252C408.329 12.8949 407.935 13.3392 407.42 13.6582C406.91 13.9772 406.322 14.1367 405.656 14.1367C404.654 14.1367 403.84 13.7881 403.216 13.0908C402.596 12.3936 402.286 11.4707 402.286 10.3223V10.2334ZM403.558 10.3838C403.558 11.2041 403.747 11.8626 404.125 12.3594C404.508 12.8561 405.018 13.1045 405.656 13.1045C406.299 13.1045 406.809 12.8538 407.188 12.3525C407.566 11.8467 407.755 11.1403 407.755 10.2334C407.755 9.4222 407.561 8.76595 407.174 8.26465C406.791 7.75879 406.281 7.50586 405.643 7.50586C405.018 7.50586 404.515 7.75423 404.132 8.25098C403.749 8.74772 403.558 9.45866 403.558 10.3838ZM417.154 12.2568L418.576 6.60352H419.841L417.688 14H416.662L414.864 8.39453L413.114 14H412.089L409.942 6.60352H411.2L412.656 12.1406L414.379 6.60352H415.397L417.154 12.2568ZM421.092 13.3369C421.092 13.1182 421.156 12.9359 421.283 12.79C421.415 12.6442 421.611 12.5713 421.871 12.5713C422.131 12.5713 422.327 12.6442 422.459 12.79C422.596 12.9359 422.664 13.1182 422.664 13.3369C422.664 13.5465 422.596 13.722 422.459 13.8633C422.327 14.0046 422.131 14.0752 421.871 14.0752C421.611 14.0752 421.415 14.0046 421.283 13.8633C421.156 13.722 421.092 13.5465 421.092 13.3369ZM421.099 7.30078C421.099 7.08203 421.162 6.89974 421.29 6.75391C421.422 6.60807 421.618 6.53516 421.878 6.53516C422.138 6.53516 422.334 6.60807 422.466 6.75391C422.603 6.89974 422.671 7.08203 422.671 7.30078C422.671 7.51042 422.603 7.68587 422.466 7.82715C422.334 7.96842 422.138 8.03906 421.878 8.03906C421.618 8.03906 421.422 7.96842 421.29 7.82715C421.162 7.68587 421.099 7.51042 421.099 7.30078ZM432.022 14H430.751V5.57129L428.201 6.50781V5.35938L431.824 3.99902H432.022V14ZM435.659 7.30078C435.659 7.08203 435.723 6.89974 435.851 6.75391C435.983 6.60807 436.179 6.53516 436.438 6.53516C436.698 6.53516 436.894 6.60807 437.026 6.75391C437.163 6.89974 437.231 7.08203 437.231 7.30078C437.231 7.51042 437.163 7.68587 437.026 7.82715C436.894 7.96842 436.698 8.03906 436.438 8.03906C436.179 8.03906 435.983 7.96842 435.851 7.82715C435.723 7.68587 435.659 7.51042 435.659 7.30078ZM435.898 15.9824L435.181 15.4902C435.609 14.8932 435.832 14.278 435.851 13.6445V12.5029H437.088V13.4941C437.088 13.9544 436.974 14.4147 436.746 14.875C436.523 15.3353 436.24 15.7044 435.898 15.9824Z" fill="#212121"/>
<path d="M279.854 274H278.219V263.163L274.94 264.367V262.891L279.599 261.142H279.854V274Z" fill="#212121"/>
<path d="M346.428 248.811H347.649C348.417 248.799 349.021 248.597 349.46 248.204C349.899 247.812 350.119 247.281 350.119 246.613C350.119 245.113 349.372 244.363 347.878 244.363C347.175 244.363 346.612 244.565 346.19 244.97C345.774 245.368 345.566 245.898 345.566 246.561H343.94C343.94 245.547 344.31 244.706 345.048 244.038C345.792 243.364 346.735 243.027 347.878 243.027C349.085 243.027 350.031 243.347 350.717 243.985C351.402 244.624 351.745 245.512 351.745 246.648C351.745 247.205 351.563 247.744 351.2 248.266C350.843 248.787 350.354 249.177 349.732 249.435C350.436 249.657 350.978 250.026 351.358 250.542C351.745 251.058 351.938 251.688 351.938 252.432C351.938 253.58 351.563 254.491 350.813 255.165C350.063 255.839 349.088 256.176 347.887 256.176C346.686 256.176 345.707 255.851 344.951 255.2C344.201 254.55 343.826 253.691 343.826 252.625H345.461C345.461 253.299 345.681 253.838 346.12 254.242C346.56 254.646 347.148 254.849 347.887 254.849C348.672 254.849 349.272 254.644 349.688 254.233C350.104 253.823 350.312 253.234 350.312 252.467C350.312 251.723 350.084 251.151 349.627 250.753C349.17 250.354 348.511 250.149 347.649 250.138H346.428V248.811ZM362.195 250.542C362.195 252.446 361.87 253.861 361.22 254.787C360.569 255.713 359.553 256.176 358.17 256.176C356.805 256.176 355.794 255.725 355.138 254.822C354.481 253.914 354.142 252.561 354.118 250.762V248.591C354.118 246.71 354.443 245.312 355.094 244.398C355.744 243.484 356.764 243.027 358.152 243.027C359.529 243.027 360.543 243.47 361.193 244.354C361.844 245.233 362.178 246.593 362.195 248.433V250.542ZM360.569 248.318C360.569 246.941 360.376 245.939 359.989 245.312C359.603 244.68 358.99 244.363 358.152 244.363C357.32 244.363 356.714 244.677 356.333 245.304C355.952 245.931 355.756 246.895 355.744 248.195V250.797C355.744 252.18 355.943 253.202 356.342 253.864C356.746 254.521 357.355 254.849 358.17 254.849C358.973 254.849 359.567 254.538 359.954 253.917C360.347 253.296 360.552 252.317 360.569 250.981V248.318ZM372.303 250.542C372.303 252.446 371.978 253.861 371.327 254.787C370.677 255.713 369.66 256.176 368.277 256.176C366.912 256.176 365.901 255.725 365.245 254.822C364.589 253.914 364.249 252.561 364.226 250.762V248.591C364.226 246.71 364.551 245.312 365.201 244.398C365.852 243.484 366.871 243.027 368.26 243.027C369.637 243.027 370.65 243.47 371.301 244.354C371.951 245.233 372.285 246.593 372.303 248.433V250.542ZM370.677 248.318C370.677 246.941 370.483 245.939 370.097 245.312C369.71 244.68 369.098 244.363 368.26 244.363C367.428 244.363 366.821 244.677 366.44 245.304C366.06 245.931 365.863 246.895 365.852 248.195V250.797C365.852 252.18 366.051 253.202 366.449 253.864C366.854 254.521 367.463 254.849 368.277 254.849C369.08 254.849 369.675 254.538 370.062 253.917C370.454 253.296 370.659 252.317 370.677 250.981V248.318Z" fill="black"/>
<path d="M414.889 248.136H418.457V249.674H414.889V253.717H413.254V249.674H409.686V248.136H413.254V244.4H414.889V248.136ZM430.085 255H428.45V244.163L425.172 245.367V243.891L429.83 242.142H430.085V255ZM442.873 249.542C442.873 251.446 442.548 252.861 441.897 253.787C441.247 254.713 440.23 255.176 438.848 255.176C437.482 255.176 436.472 254.725 435.815 253.822C435.159 252.914 434.819 251.561 434.796 249.762V247.591C434.796 245.71 435.121 244.312 435.771 243.398C436.422 242.484 437.441 242.027 438.83 242.027C440.207 242.027 441.221 242.47 441.871 243.354C442.521 244.233 442.855 245.593 442.873 247.433V249.542ZM441.247 247.318C441.247 245.941 441.054 244.939 440.667 244.312C440.28 243.68 439.668 243.363 438.83 243.363C437.998 243.363 437.392 243.677 437.011 244.304C436.63 244.931 436.434 245.895 436.422 247.195V249.797C436.422 251.18 436.621 252.202 437.02 252.864C437.424 253.521 438.033 253.849 438.848 253.849C439.65 253.849 440.245 253.538 440.632 252.917C441.024 252.296 441.229 251.317 441.247 249.981V247.318ZM452.98 249.542C452.98 251.446 452.655 252.861 452.005 253.787C451.354 254.713 450.338 255.176 448.955 255.176C447.59 255.176 446.579 254.725 445.923 253.822C445.267 252.914 444.927 251.561 444.903 249.762V247.591C444.903 245.71 445.229 244.312 445.879 243.398C446.529 242.484 447.549 242.027 448.938 242.027C450.314 242.027 451.328 242.47 451.979 243.354C452.629 244.233 452.963 245.593 452.98 247.433V249.542ZM451.354 247.318C451.354 245.941 451.161 244.939 450.774 244.312C450.388 243.68 449.775 243.363 448.938 243.363C448.105 243.363 447.499 243.677 447.118 244.304C446.737 244.931 446.541 245.895 446.529 247.195V249.797C446.529 251.18 446.729 252.202 447.127 252.864C447.531 253.521 448.141 253.849 448.955 253.849C449.758 253.849 450.353 253.538 450.739 252.917C451.132 252.296 451.337 251.317 451.354 249.981V247.318Z" fill="black"/>
<path d="M494.928 250.702H496.703V252.029H494.928V255H493.293V252.029H487.466V251.071L493.196 242.203H494.928V250.702ZM489.312 250.702H493.293V244.427L493.1 244.778L489.312 250.702ZM506.195 249.542C506.195 251.446 505.87 252.861 505.22 253.787C504.569 254.713 503.553 255.176 502.17 255.176C500.805 255.176 499.794 254.725 499.138 253.822C498.481 252.914 498.142 251.561 498.118 249.762V247.591C498.118 245.71 498.443 244.312 499.094 243.398C499.744 242.484 500.764 242.027 502.152 242.027C503.529 242.027 504.543 242.47 505.193 243.354C505.844 244.233 506.178 245.593 506.195 247.433V249.542ZM504.569 247.318C504.569 245.941 504.376 244.939 503.989 244.312C503.603 243.68 502.99 243.363 502.152 243.363C501.32 243.363 500.714 243.677 500.333 244.304C499.952 244.931 499.756 245.895 499.744 247.195V249.797C499.744 251.18 499.943 252.202 500.342 252.864C500.746 253.521 501.355 253.849 502.17 253.849C502.973 253.849 503.567 253.538 503.954 252.917C504.347 252.296 504.552 251.317 504.569 249.981V247.318ZM516.303 249.542C516.303 251.446 515.978 252.861 515.327 253.787C514.677 254.713 513.66 255.176 512.277 255.176C510.912 255.176 509.901 254.725 509.245 253.822C508.589 252.914 508.249 251.561 508.226 249.762V247.591C508.226 245.71 508.551 244.312 509.201 243.398C509.852 242.484 510.871 242.027 512.26 242.027C513.637 242.027 514.65 242.47 515.301 243.354C515.951 244.233 516.285 245.593 516.303 247.433V249.542ZM514.677 247.318C514.677 245.941 514.483 244.939 514.097 244.312C513.71 243.68 513.098 243.363 512.26 243.363C511.428 243.363 510.821 243.677 510.44 244.304C510.06 244.931 509.863 245.895 509.852 247.195V249.797C509.852 251.18 510.051 252.202 510.449 252.864C510.854 253.521 511.463 253.849 512.277 253.849C513.08 253.849 513.675 253.538 514.062 252.917C514.454 252.296 514.659 251.317 514.677 249.981V247.318ZM526.586 250.351C526.586 251.798 526.255 252.964 525.593 253.849C524.931 254.733 524.034 255.176 522.903 255.176C521.749 255.176 520.841 254.81 520.179 254.077V258.656H518.553V245.49H520.038L520.117 246.545C520.779 245.725 521.699 245.314 522.877 245.314C524.02 245.314 524.922 245.745 525.584 246.606C526.252 247.468 526.586 248.666 526.586 250.201V250.351ZM524.96 250.166C524.96 249.094 524.731 248.247 524.274 247.626C523.817 247.005 523.19 246.694 522.394 246.694C521.409 246.694 520.671 247.131 520.179 248.004V252.548C520.665 253.415 521.409 253.849 522.411 253.849C523.19 253.849 523.809 253.541 524.266 252.926C524.729 252.305 524.96 251.385 524.96 250.166ZM531.71 248.962L533.819 245.49H535.718L532.606 250.192L535.814 255H533.934L531.736 251.44L529.539 255H527.649L530.857 250.192L527.746 245.49H529.627L531.71 248.962Z" fill="black"/>
<path d="M329.421 248.962L331.53 245.49H333.429L330.317 250.192L333.525 255H331.645L329.447 251.44L327.25 255H325.36L328.568 250.192L325.457 245.49H327.338L329.421 248.962Z" fill="black"/>
<path d="M239.965 220.551H242.285C241.09 222.098 239.977 223.82 238.945 225.719C237.914 227.594 236.918 229.773 235.957 232.258C234.996 234.742 234.234 237.566 233.672 240.73C233.109 243.871 232.828 247.129 232.828 250.504C232.828 253.855 233.098 257.113 233.637 260.277C234.199 263.441 234.961 266.312 235.922 268.891C236.883 271.445 237.879 273.707 238.91 275.676C239.941 277.645 241.066 279.496 242.285 281.23H239.93C238.359 279.332 236.883 276.965 235.5 274.129C234.117 271.293 232.91 267.754 231.879 263.512C230.871 259.27 230.367 254.945 230.367 250.539C230.367 244.094 231.316 238.27 233.215 233.066C235.113 227.863 237.363 223.691 239.965 220.551Z" fill="#212121"/>
<path d="M383.406 220.551H385.727C388.328 223.691 390.578 227.863 392.477 233.066C394.375 238.27 395.324 244.094 395.324 250.539C395.324 254.945 394.809 259.27 393.777 263.512C392.77 267.754 391.574 271.293 390.191 274.129C388.809 276.965 387.332 279.332 385.762 281.23H383.406C384.625 279.496 385.75 277.645 386.781 275.676C387.812 273.707 388.809 271.445 389.77 268.891C390.73 266.312 391.48 263.441 392.02 260.277C392.582 257.113 392.863 253.855 392.863 250.504C392.863 247.129 392.582 243.871 392.02 240.73C391.457 237.566 390.695 234.742 389.734 232.258C388.773 229.773 387.777 227.594 386.746 225.719C385.715 223.82 384.602 222.098 383.406 220.551Z" fill="#212121"/>
<rect x="247" y="250" width="60" height="1" fill="#212121"/>
<path d="M47.9834 180H46.7119V171.571L44.1621 172.508V171.359L47.7852 169.999H47.9834V180ZM57.9297 175.755C57.9297 177.236 57.6768 178.337 57.1709 179.057C56.665 179.777 55.8743 180.137 54.7988 180.137C53.737 180.137 52.9508 179.786 52.4404 179.084C51.93 178.378 51.6657 177.325 51.6475 175.926V174.237C51.6475 172.774 51.9004 171.688 52.4062 170.977C52.9121 170.266 53.7051 169.91 54.7852 169.91C55.8561 169.91 56.6445 170.254 57.1504 170.942C57.6562 171.626 57.916 172.683 57.9297 174.114V175.755ZM56.665 174.025C56.665 172.954 56.5146 172.175 56.2139 171.688C55.9131 171.195 55.4368 170.949 54.7852 170.949C54.138 170.949 53.6663 171.193 53.3701 171.681C53.0739 172.168 52.9212 172.918 52.9121 173.93V175.953C52.9121 177.029 53.0671 177.824 53.377 178.339C53.6914 178.849 54.1654 179.104 54.7988 179.104C55.4232 179.104 55.8857 178.863 56.1865 178.38C56.4919 177.897 56.6514 177.136 56.665 176.097V174.025ZM65.791 175.755C65.791 177.236 65.5381 178.337 65.0322 179.057C64.5264 179.777 63.7357 180.137 62.6602 180.137C61.5983 180.137 60.8122 179.786 60.3018 179.084C59.7913 178.378 59.527 177.325 59.5088 175.926V174.237C59.5088 172.774 59.7617 171.688 60.2676 170.977C60.7734 170.266 61.5664 169.91 62.6465 169.91C63.7174 169.91 64.5059 170.254 65.0117 170.942C65.5176 171.626 65.7773 172.683 65.791 174.114V175.755ZM64.5264 174.025C64.5264 172.954 64.376 172.175 64.0752 171.688C63.7744 171.195 63.2982 170.949 62.6465 170.949C61.9993 170.949 61.5277 171.193 61.2314 171.681C60.9352 172.168 60.7826 172.918 60.7734 173.93V175.953C60.7734 177.029 60.9284 177.824 61.2383 178.339C61.5527 178.849 62.0267 179.104 62.6602 179.104C63.2845 179.104 63.7471 178.863 64.0479 178.38C64.3532 177.897 64.5127 177.136 64.5264 176.097V174.025ZM73.7891 176.384C73.7891 177.509 73.5316 178.416 73.0166 179.104C72.5016 179.793 71.8044 180.137 70.9248 180.137C70.027 180.137 69.3206 179.852 68.8057 179.282V182.844H67.541V172.604H68.6963L68.7578 173.424C69.2728 172.786 69.9883 172.467 70.9043 172.467C71.793 172.467 72.4948 172.802 73.0098 173.472C73.5293 174.142 73.7891 175.074 73.7891 176.268V176.384ZM72.5244 176.24C72.5244 175.406 72.3467 174.748 71.9912 174.265C71.6357 173.782 71.1481 173.54 70.5283 173.54C69.7627 173.54 69.1885 173.88 68.8057 174.559V178.093C69.1839 178.767 69.7627 179.104 70.542 179.104C71.1481 179.104 71.6289 178.865 71.9844 178.387C72.3444 177.904 72.5244 177.188 72.5244 176.24ZM77.7744 175.304L79.415 172.604H80.8916L78.4717 176.261L80.9668 180H79.5039L77.7949 177.231L76.0859 180H74.6162L77.1113 176.261L74.6914 172.604H76.1543L77.7744 175.304Z" fill="#212121"/>
<path d="M153.983 181H152.712V172.571L150.162 173.508V172.359L153.785 170.999H153.983V181ZM163.93 176.755C163.93 178.236 163.677 179.337 163.171 180.057C162.665 180.777 161.874 181.137 160.799 181.137C159.737 181.137 158.951 180.786 158.44 180.084C157.93 179.378 157.666 178.325 157.647 176.926V175.237C157.647 173.774 157.9 172.688 158.406 171.977C158.912 171.266 159.705 170.91 160.785 170.91C161.856 170.91 162.645 171.254 163.15 171.942C163.656 172.626 163.916 173.683 163.93 175.114V176.755ZM162.665 175.025C162.665 173.954 162.515 173.175 162.214 172.688C161.913 172.195 161.437 171.949 160.785 171.949C160.138 171.949 159.666 172.193 159.37 172.681C159.074 173.168 158.921 173.918 158.912 174.93V176.953C158.912 178.029 159.067 178.824 159.377 179.339C159.691 179.849 160.165 180.104 160.799 180.104C161.423 180.104 161.886 179.863 162.187 179.38C162.492 178.897 162.651 178.136 162.665 177.097V175.025ZM171.791 176.755C171.791 178.236 171.538 179.337 171.032 180.057C170.526 180.777 169.736 181.137 168.66 181.137C167.598 181.137 166.812 180.786 166.302 180.084C165.791 179.378 165.527 178.325 165.509 176.926V175.237C165.509 173.774 165.762 172.688 166.268 171.977C166.773 171.266 167.566 170.91 168.646 170.91C169.717 170.91 170.506 171.254 171.012 171.942C171.518 172.626 171.777 173.683 171.791 175.114V176.755ZM170.526 175.025C170.526 173.954 170.376 173.175 170.075 172.688C169.774 172.195 169.298 171.949 168.646 171.949C167.999 171.949 167.528 172.193 167.231 172.681C166.935 173.168 166.783 173.918 166.773 174.93V176.953C166.773 178.029 166.928 178.824 167.238 179.339C167.553 179.849 168.027 180.104 168.66 180.104C169.285 180.104 169.747 179.863 170.048 179.38C170.353 178.897 170.513 178.136 170.526 177.097V175.025ZM179.789 177.384C179.789 178.509 179.532 179.416 179.017 180.104C178.502 180.793 177.804 181.137 176.925 181.137C176.027 181.137 175.321 180.852 174.806 180.282V183.844H173.541V173.604H174.696L174.758 174.424C175.273 173.786 175.988 173.467 176.904 173.467C177.793 173.467 178.495 173.802 179.01 174.472C179.529 175.142 179.789 176.074 179.789 177.268V177.384ZM178.524 177.24C178.524 176.406 178.347 175.748 177.991 175.265C177.636 174.782 177.148 174.54 176.528 174.54C175.763 174.54 175.188 174.88 174.806 175.559V179.093C175.184 179.767 175.763 180.104 176.542 180.104C177.148 180.104 177.629 179.865 177.984 179.387C178.344 178.904 178.524 178.188 178.524 177.24ZM183.774 176.304L185.415 173.604H186.892L184.472 177.261L186.967 181H185.504L183.795 178.231L182.086 181H180.616L183.111 177.261L180.691 173.604H182.154L183.774 176.304Z" fill="#212121"/>
<path d="M389.166 176.657H390.547V177.689H389.166V180H387.895V177.689H383.362V176.944L387.819 170.047H389.166V176.657ZM384.798 176.657H387.895V171.776L387.744 172.05L384.798 176.657ZM397.93 175.755C397.93 177.236 397.677 178.337 397.171 179.057C396.665 179.777 395.874 180.137 394.799 180.137C393.737 180.137 392.951 179.786 392.44 179.084C391.93 178.378 391.666 177.325 391.647 175.926V174.237C391.647 172.774 391.9 171.688 392.406 170.977C392.912 170.266 393.705 169.91 394.785 169.91C395.856 169.91 396.645 170.254 397.15 170.942C397.656 171.626 397.916 172.683 397.93 174.114V175.755ZM396.665 174.025C396.665 172.954 396.515 172.175 396.214 171.688C395.913 171.195 395.437 170.949 394.785 170.949C394.138 170.949 393.666 171.193 393.37 171.681C393.074 172.168 392.921 172.918 392.912 173.93V175.953C392.912 177.029 393.067 177.824 393.377 178.339C393.691 178.849 394.165 179.104 394.799 179.104C395.423 179.104 395.886 178.863 396.187 178.38C396.492 177.897 396.651 177.136 396.665 176.097V174.025ZM405.791 175.755C405.791 177.236 405.538 178.337 405.032 179.057C404.526 179.777 403.736 180.137 402.66 180.137C401.598 180.137 400.812 179.786 400.302 179.084C399.791 178.378 399.527 177.325 399.509 175.926V174.237C399.509 172.774 399.762 171.688 400.268 170.977C400.773 170.266 401.566 169.91 402.646 169.91C403.717 169.91 404.506 170.254 405.012 170.942C405.518 171.626 405.777 172.683 405.791 174.114V175.755ZM404.526 174.025C404.526 172.954 404.376 172.175 404.075 171.688C403.774 171.195 403.298 170.949 402.646 170.949C401.999 170.949 401.528 171.193 401.231 171.681C400.935 172.168 400.783 172.918 400.773 173.93V175.953C400.773 177.029 400.928 177.824 401.238 178.339C401.553 178.849 402.027 179.104 402.66 179.104C403.285 179.104 403.747 178.863 404.048 178.38C404.353 177.897 404.513 177.136 404.526 176.097V174.025ZM413.789 176.384C413.789 177.509 413.532 178.416 413.017 179.104C412.502 179.793 411.804 180.137 410.925 180.137C410.027 180.137 409.321 179.852 408.806 179.282V182.844H407.541V172.604H408.696L408.758 173.424C409.273 172.786 409.988 172.467 410.904 172.467C411.793 172.467 412.495 172.802 413.01 173.472C413.529 174.142 413.789 175.074 413.789 176.268V176.384ZM412.524 176.24C412.524 175.406 412.347 174.748 411.991 174.265C411.636 173.782 411.148 173.54 410.528 173.54C409.763 173.54 409.188 173.88 408.806 174.559V178.093C409.184 178.767 409.763 179.104 410.542 179.104C411.148 179.104 411.629 178.865 411.984 178.387C412.344 177.904 412.524 177.188 412.524 176.24ZM417.774 175.304L419.415 172.604H420.892L418.472 176.261L420.967 180H419.504L417.795 177.231L416.086 180H414.616L417.111 176.261L414.691 172.604H416.154L417.774 175.304Z" fill="#212121"/>
</svg>
