<svg width="398" height="306" viewBox="0 0 398 306" fill="none" xmlns="http://www.w3.org/2000/svg">
<rect width="300" height="300" fill="white"/>
<ellipse cx="45.7265" cy="164" rx="9.97151" ry="10" fill="#FFA600"/>
<ellipse cx="144.444" cy="60" rx="9.97151" ry="10" fill="#F95D6A"/>
<path d="M257.123 165L239.174 175.392L239.174 154.608L257.123 165Z" fill="#FFA600"/>
<path d="M144.444 275L134.082 257L154.807 257L144.444 275Z" fill="#F95D6A"/>
<rect x="45.7266" y="164" width="199.43" height="2" fill="#FFA600"/>
<rect x="145.442" y="63" width="200" height="1.9943" transform="rotate(90 145.442 63)" fill="#F95D6A"/>
<path d="M24.4355 193.858C24.3205 195.075 23.8713 196.025 23.0879 196.71C22.3044 197.389 21.2623 197.728 19.9618 197.728C19.0529 197.728 18.2512 197.514 17.5565 197.086C16.867 196.652 16.3342 196.038 15.9582 195.244C15.5821 194.451 15.3862 193.529 15.3706 192.479V191.413C15.3706 190.337 15.5612 189.389 15.9425 188.569C16.3238 187.749 16.8696 187.117 17.58 186.673C18.2956 186.229 19.1208 186.007 20.0558 186.007C21.3146 186.007 22.3279 186.349 23.0957 187.034C23.8635 187.718 24.3101 188.684 24.4355 189.932H22.4611C22.3671 189.112 22.1268 188.522 21.7403 188.162C21.359 187.796 20.7975 187.613 20.0558 187.613C19.194 187.613 18.5306 187.929 18.0657 188.561C17.6061 189.188 17.3711 190.11 17.3606 191.327V192.338C17.3606 193.57 17.58 194.511 18.0187 195.158C18.4627 195.806 19.1104 196.13 19.9618 196.13C20.74 196.13 21.325 195.955 21.7168 195.605C22.1085 195.255 22.3566 194.673 22.4611 193.858H24.4355ZM30.4056 193.176H28.1962V197.571H26.214V186.164H30.2254C31.5416 186.164 32.5575 186.459 33.2731 187.049C33.9887 187.639 34.3465 188.493 34.3465 189.611C34.3465 190.374 34.1611 191.014 33.7902 191.531C33.4246 192.043 32.9127 192.437 32.2546 192.714L34.8166 197.47V197.571H32.6934L30.4056 193.176ZM28.1962 191.586H30.2332C30.9018 191.586 31.4241 191.418 31.8002 191.084C32.1763 190.745 32.3643 190.282 32.3643 189.697C32.3643 189.086 32.1893 188.614 31.8394 188.279C31.4946 187.945 30.9775 187.773 30.2881 187.762H28.1962V191.586ZM45.3309 192.165C45.3309 193.283 45.1377 194.265 44.7511 195.111C44.3646 195.952 43.811 196.6 43.0902 197.054C42.3746 197.504 41.5493 197.728 40.6144 197.728C39.6898 197.728 38.8646 197.504 38.1386 197.054C37.4177 196.6 36.8589 195.955 36.4619 195.119C36.0702 194.283 35.8717 193.32 35.8665 192.228V191.586C35.8665 190.473 36.0623 189.491 36.4541 188.64C36.851 187.788 37.4073 187.138 38.1229 186.689C38.8437 186.234 39.669 186.007 40.5987 186.007C41.5284 186.007 42.3511 186.232 43.0667 186.681C43.7875 187.125 44.3437 187.767 44.7355 188.608C45.1272 189.444 45.3257 190.418 45.3309 191.531V192.165ZM43.3487 191.57C43.3487 190.306 43.1084 189.337 42.6279 188.663C42.1526 187.989 41.4762 187.653 40.5987 187.653C39.7421 187.653 39.0709 187.989 38.5851 188.663C38.1046 189.332 37.8591 190.28 37.8487 191.507V192.165C37.8487 193.419 38.0915 194.388 38.5773 195.072C39.0683 195.756 39.7473 196.098 40.6144 196.098C41.4919 196.098 42.1657 195.764 42.6357 195.096C43.1111 194.427 43.3487 193.45 43.3487 192.165V191.57ZM53.2676 194.633C53.2676 194.132 53.09 193.745 52.7348 193.474C52.3849 193.202 51.7502 192.928 50.831 192.651C49.9117 192.374 49.1804 192.066 48.6372 191.727C47.5978 191.074 47.0781 190.222 47.0781 189.172C47.0781 188.253 47.4515 187.496 48.1985 186.9C48.9506 186.305 49.9247 186.007 51.1209 186.007C51.9148 186.007 52.6225 186.153 53.2441 186.446C53.8657 186.738 54.354 187.156 54.7092 187.7C55.0644 188.238 55.242 188.836 55.242 189.494H53.2676C53.2676 188.898 53.0796 188.433 52.7035 188.099C52.3326 187.76 51.7999 187.59 51.1052 187.59C50.4575 187.59 49.9535 187.728 49.5931 188.005C49.2379 188.282 49.0603 188.668 49.0603 189.165C49.0603 189.583 49.2536 189.932 49.6401 190.215C50.0266 190.491 50.6638 190.763 51.5518 191.029C52.4397 191.29 53.1527 191.591 53.6907 191.93C54.2287 192.265 54.623 192.651 54.8737 193.09C55.1244 193.523 55.2498 194.033 55.2498 194.618C55.2498 195.568 54.8842 196.326 54.1529 196.89C53.4269 197.449 52.4397 197.728 51.1914 197.728C50.3661 197.728 49.6061 197.577 48.9114 197.274C48.222 196.966 47.684 196.542 47.2975 196.004C46.9162 195.466 46.7255 194.84 46.7255 194.124H48.7077C48.7077 194.772 48.9219 195.273 49.3502 195.628C49.7785 195.984 50.3922 196.161 51.1914 196.161C51.8808 196.161 52.3979 196.023 52.7427 195.746C53.0926 195.464 53.2676 195.093 53.2676 194.633ZM62.9514 194.633C62.9514 194.132 62.7738 193.745 62.4187 193.474C62.0687 193.202 61.4341 192.928 60.5148 192.651C59.5955 192.374 58.8643 192.066 58.3211 191.727C57.2816 191.074 56.7619 190.222 56.7619 189.172C56.7619 188.253 57.1354 187.496 57.8823 186.9C58.6344 186.305 59.6086 186.007 60.8047 186.007C61.5986 186.007 62.3064 186.153 62.9279 186.446C63.5495 186.738 64.0379 187.156 64.393 187.7C64.7482 188.238 64.9258 188.836 64.9258 189.494H62.9514C62.9514 188.898 62.7634 188.433 62.3873 188.099C62.0165 187.76 61.4837 187.59 60.789 187.59C60.1413 187.59 59.6373 187.728 59.2769 188.005C58.9217 188.282 58.7441 188.668 58.7441 189.165C58.7441 189.583 58.9374 189.932 59.3239 190.215C59.7104 190.491 60.3477 190.763 61.2356 191.029C62.1236 191.29 62.8365 191.591 63.3745 191.93C63.9125 192.265 64.3069 192.651 64.5576 193.09C64.8083 193.523 64.9336 194.033 64.9336 194.618C64.9336 195.568 64.568 196.326 63.8368 196.89C63.1107 197.449 62.1236 197.728 60.8752 197.728C60.0499 197.728 59.29 197.577 58.5953 197.274C57.9058 196.966 57.3678 196.542 56.9813 196.004C56.6 195.466 56.4094 194.84 56.4094 194.124H58.3916C58.3916 194.772 58.6057 195.273 59.034 195.628C59.4623 195.984 60.0761 196.161 60.8752 196.161C61.5647 196.161 62.0818 196.023 62.4265 195.746C62.7765 195.464 62.9514 195.093 62.9514 194.633ZM77.0541 194.915H72.6353L71.7108 197.571H69.6502L73.9594 186.164H75.7379L80.0548 197.571H77.9865L77.0541 194.915ZM73.1915 193.317H76.4978L74.8447 188.585L73.1915 193.317ZM85.2807 190.285L87.6781 186.164H89.9659L86.5186 191.821L90.0442 197.571H87.733L85.2807 193.388L82.8205 197.571H80.5171L84.0506 191.821L80.5954 186.164H82.8832L85.2807 190.285ZM93.6013 197.571H91.6269V186.164H93.6013V197.571ZM102 194.633C102 194.132 101.823 193.745 101.467 193.474C101.117 193.202 100.483 192.928 99.5635 192.651C98.6443 192.374 97.913 192.066 97.3698 191.727C96.3304 191.074 95.8107 190.222 95.8107 189.172C95.8107 188.253 96.1841 187.496 96.931 186.9C97.6832 186.305 98.6573 186.007 99.8534 186.007C100.647 186.007 101.355 186.153 101.977 186.446C102.598 186.738 103.087 187.156 103.442 187.7C103.797 188.238 103.975 188.836 103.975 189.494H102C102 188.898 101.812 188.433 101.436 188.099C101.065 187.76 100.532 187.59 99.8378 187.59C99.1901 187.59 98.686 187.728 98.3256 188.005C97.9705 188.282 97.7929 188.668 97.7929 189.165C97.7929 189.583 97.9861 189.932 98.3727 190.215C98.7592 190.491 99.3964 190.763 100.284 191.029C101.172 191.29 101.885 191.591 102.423 191.93C102.961 192.265 103.356 192.651 103.606 193.09C103.857 193.523 103.982 194.033 103.982 194.618C103.982 195.568 103.617 196.326 102.886 196.89C102.159 197.449 101.172 197.728 99.924 197.728C99.0987 197.728 98.3387 197.577 97.644 197.274C96.9546 196.966 96.4166 196.542 96.03 196.004C95.6488 195.466 95.4581 194.84 95.4581 194.124H97.4403C97.4403 194.772 97.6545 195.273 98.0828 195.628C98.5111 195.984 99.1248 196.161 99.924 196.161C100.613 196.161 101.131 196.023 101.475 195.746C101.825 195.464 102 195.093 102 194.633Z" fill="#FFA600"/>
<path d="M164.015 73.8783L167.306 82.6219L170.589 73.8783H173.151V85.2858H171.176V81.5251L171.372 76.4951L168.003 85.2858H166.585L163.224 76.5029L163.42 81.5251V85.2858H161.445V73.8783H164.015ZM182.027 82.6298H177.609L176.684 85.2858H174.623L178.933 73.8783H180.711L185.028 85.2858H182.96L182.027 82.6298ZM178.165 81.0315H181.471L179.818 76.2992L178.165 81.0315ZM188.421 85.2858H186.446V73.8783H188.421V85.2858ZM199.906 85.2858H197.924L192.839 77.1924V85.2858H190.857V73.8783H192.839L197.94 82.003V73.8783H199.906V85.2858ZM212.63 82.6298H208.211L207.287 85.2858H205.226L209.535 73.8783H211.314L215.631 85.2858H213.563L212.63 82.6298ZM208.768 81.0315H212.074L210.421 76.2992L208.768 81.0315ZM220.857 77.9994L223.254 73.8783H225.542L222.095 79.535L225.62 85.2858H223.309L220.857 81.102L218.397 85.2858H216.093L219.627 79.535L216.172 73.8783H218.459L220.857 77.9994ZM229.177 85.2858H227.203V73.8783H229.177V85.2858ZM237.576 82.3477C237.576 81.8463 237.399 81.4598 237.044 81.1882C236.694 80.9165 236.059 80.6423 235.14 80.3655C234.22 80.0887 233.489 79.7805 232.946 79.441C231.906 78.7881 231.387 77.9367 231.387 76.8868C231.387 75.9676 231.76 75.2102 232.507 74.6147C233.259 74.0193 234.233 73.7216 235.43 73.7216C236.223 73.7216 236.931 73.8678 237.553 74.1603C238.174 74.4528 238.663 74.8707 239.018 75.4139C239.373 75.9519 239.551 76.5499 239.551 77.2081H237.576C237.576 76.6126 237.388 76.1478 237.012 75.8135C236.641 75.474 236.109 75.3042 235.414 75.3042C234.766 75.3042 234.262 75.4426 233.902 75.7195C233.547 75.9963 233.369 76.3828 233.369 76.879C233.369 77.2969 233.562 77.6468 233.949 77.9289C234.335 78.2057 234.973 78.4773 235.86 78.7437C236.748 79.0049 237.461 79.3052 237.999 79.6447C238.537 79.979 238.932 80.3655 239.182 80.8042C239.433 81.2378 239.558 81.747 239.558 82.332C239.558 83.2827 239.193 84.04 238.462 84.6041C237.736 85.163 236.748 85.4425 235.5 85.4425C234.675 85.4425 233.915 85.291 233.22 84.988C232.531 84.6799 231.993 84.2568 231.606 83.7188C231.225 83.1808 231.034 82.554 231.034 81.8384H233.016C233.016 82.4861 233.231 82.9876 233.659 83.3427C234.087 83.6979 234.701 83.8755 235.5 83.8755C236.19 83.8755 236.707 83.7371 237.051 83.4603C237.401 83.1782 237.576 82.8074 237.576 82.3477Z" fill="#F95D6A"/>
<rect width="300" height="36.1029" fill="#DEEEFF"/>
<path d="M107.727 25.4648C108.5 25.4648 109.176 25.2305 109.754 24.7617C110.332 24.293 110.652 23.707 110.715 23.0039H112.766C112.727 23.7305 112.477 24.4219 112.016 25.0781C111.555 25.7344 110.938 26.2578 110.164 26.6484C109.398 27.0391 108.586 27.2344 107.727 27.2344C106 27.2344 104.625 26.6602 103.602 25.5117C102.586 24.3555 102.078 22.7773 102.078 20.7773V20.4141C102.078 19.1797 102.305 18.082 102.758 17.1211C103.211 16.1602 103.859 15.4141 104.703 14.8828C105.555 14.3516 106.559 14.0859 107.715 14.0859C109.137 14.0859 110.316 14.5117 111.254 15.3633C112.199 16.2148 112.703 17.3203 112.766 18.6797H110.715C110.652 17.8594 110.34 17.1875 109.777 16.6641C109.223 16.1328 108.535 15.8672 107.715 15.8672C106.613 15.8672 105.758 16.2656 105.148 17.0625C104.547 17.8516 104.246 18.9961 104.246 20.4961V20.9062C104.246 22.3672 104.547 23.4922 105.148 24.2812C105.75 25.0703 106.609 25.4648 107.727 25.4648ZM114.629 20.543C114.629 19.3008 114.871 18.1836 115.355 17.1914C115.848 16.1992 116.527 15.4336 117.395 14.8945C118.27 14.3555 119.266 14.0859 120.383 14.0859C122.109 14.0859 123.504 14.6836 124.566 15.8789C125.637 17.0742 126.172 18.6641 126.172 20.6484V20.8008C126.172 22.0352 125.934 23.1445 125.457 24.1289C124.988 25.1055 124.312 25.8672 123.43 26.4141C122.555 26.9609 121.547 27.2344 120.406 27.2344C118.688 27.2344 117.293 26.6367 116.223 25.4414C115.16 24.2461 114.629 22.6641 114.629 20.6953V20.543ZM116.809 20.8008C116.809 22.207 117.133 23.3359 117.781 24.1875C118.438 25.0391 119.312 25.4648 120.406 25.4648C121.508 25.4648 122.383 25.0352 123.031 24.1758C123.68 23.3086 124.004 22.0977 124.004 20.543C124.004 19.1523 123.672 18.0273 123.008 17.168C122.352 16.3008 121.477 15.8672 120.383 15.8672C119.312 15.8672 118.449 16.293 117.793 17.1445C117.137 17.9961 116.809 19.2148 116.809 20.8008ZM131.246 27H129.078V9H131.246V27ZM142.555 25.7461C141.711 26.7383 140.473 27.2344 138.84 27.2344C137.488 27.2344 136.457 26.8438 135.746 26.0625C135.043 25.2734 134.688 24.1094 134.68 22.5703V14.3203H136.848V22.5117C136.848 24.4336 137.629 25.3945 139.191 25.3945C140.848 25.3945 141.949 24.7773 142.496 23.543V14.3203H144.664V27H142.602L142.555 25.7461ZM150.008 14.3203L150.066 15.7266C150.996 14.6328 152.25 14.0859 153.828 14.0859C155.602 14.0859 156.809 14.7656 157.449 16.125C157.871 15.5156 158.418 15.0234 159.09 14.6484C159.77 14.2734 160.57 14.0859 161.492 14.0859C164.273 14.0859 165.688 15.5586 165.734 18.5039V27H163.566V18.6328C163.566 17.7266 163.359 17.0508 162.945 16.6055C162.531 16.1523 161.836 15.9258 160.859 15.9258C160.055 15.9258 159.387 16.168 158.855 16.6523C158.324 17.1289 158.016 17.7734 157.93 18.5859V27H155.75V18.6914C155.75 16.8477 154.848 15.9258 153.043 15.9258C151.621 15.9258 150.648 16.5312 150.125 17.7422V27H147.957V14.3203H150.008ZM171.066 14.3203L171.137 15.9141C172.105 14.6953 173.371 14.0859 174.934 14.0859C177.613 14.0859 178.965 15.5977 178.988 18.6211V27H176.82V18.6094C176.812 17.6953 176.602 17.0195 176.188 16.582C175.781 16.1445 175.145 15.9258 174.277 15.9258C173.574 15.9258 172.957 16.1133 172.426 16.4883C171.895 16.8633 171.48 17.3555 171.184 17.9648V27H169.016V14.3203H171.066Z" fill="#212121"/>
<rect x="397.5" y="36.5" width="269" height="69" transform="rotate(90 397.5 36.5)" stroke="#212121" stroke-dasharray="5 5"/>
<rect x="393" y="41" width="60" height="60" transform="rotate(90 393 41)" fill="#159A6B"/>
<rect x="393" y="106" width="60" height="60" transform="rotate(90 393 106)" fill="#128279"/>
<rect x="393" y="171" width="60" height="60" transform="rotate(90 393 171)" fill="#0B5A72"/>
<path d="M363.806 78.5H361.687V64.4521L357.437 66.013V64.099L363.475 61.8317H363.806V78.5Z" fill="white"/>
<path d="M367.748 142.5H356.879V140.985L362.621 134.604C363.471 133.64 364.056 132.858 364.375 132.257C364.702 131.65 364.865 131.023 364.865 130.378C364.865 129.512 364.603 128.802 364.079 128.247C363.555 127.693 362.856 127.415 361.983 127.415C360.935 127.415 360.118 127.715 359.533 128.315C358.956 128.908 358.667 129.736 358.667 130.799H356.56C356.56 129.272 357.049 128.038 358.029 127.096C359.017 126.155 360.335 125.684 361.983 125.684C363.525 125.684 364.744 126.09 365.64 126.903C366.536 127.708 366.984 128.783 366.984 130.127C366.984 131.76 365.944 133.704 363.863 135.96L359.419 140.78H367.748V142.5Z" fill="white"/>
<path d="M359.943 199.18H361.527C362.522 199.165 363.304 198.903 363.874 198.394C364.444 197.885 364.729 197.198 364.729 196.332C364.729 194.388 363.76 193.415 361.823 193.415C360.912 193.415 360.183 193.677 359.636 194.201C359.096 194.718 358.827 195.405 358.827 196.264H356.719C356.719 194.95 357.198 193.86 358.155 192.994C359.119 192.12 360.342 191.684 361.823 191.684C363.388 191.684 364.615 192.098 365.503 192.925C366.392 193.753 366.836 194.904 366.836 196.378C366.836 197.099 366.601 197.798 366.13 198.474C365.667 199.15 365.032 199.655 364.227 199.989C365.139 200.278 365.841 200.756 366.335 201.425C366.836 202.093 367.087 202.91 367.087 203.874C367.087 205.363 366.601 206.544 365.629 207.418C364.656 208.291 363.392 208.728 361.835 208.728C360.278 208.728 359.009 208.306 358.029 207.463C357.057 206.62 356.571 205.507 356.571 204.125H358.69C358.69 204.998 358.975 205.697 359.545 206.221C360.114 206.745 360.878 207.007 361.835 207.007C362.852 207.007 363.631 206.742 364.17 206.21C364.71 205.678 364.979 204.915 364.979 203.92C364.979 202.955 364.683 202.215 364.09 201.698C363.498 201.182 362.644 200.916 361.527 200.901H359.943V199.18Z" fill="white"/>
</svg>
