<svg width="300" height="370" viewBox="0 0 300 370" fill="none" xmlns="http://www.w3.org/2000/svg">
<rect y="0.0212402" width="300" height="299.979" fill="white"/>
<ellipse cx="246.571" cy="164.295" rx="10" ry="9.99929" fill="#F95D6A"/>
<ellipse cx="144" cy="60.0171" rx="10" ry="9.99929" fill="#FFA600"/>
<path d="M28.2856 165.438L46.2856 155.047L46.2856 175.83L28.2856 165.438Z" fill="#F95D6A"/>
<path d="M144 275.002L133.608 257.003L154.392 257.003L144 275.002Z" fill="#FFA600"/>
<rect x="44.9999" y="164.01" width="200" height="1.99986" fill="#F95D6A"/>
<rect x="145" y="63.0168" width="199.986" height="2" transform="rotate(90 145 63.0168)" fill="#FFA600"/>
<path d="M45.0062 85.874C44.8913 87.0909 44.4421 88.0414 43.6587 88.7256C42.8752 89.4046 41.8333 89.7441 40.5328 89.7441C39.624 89.7441 38.8223 89.53 38.1277 89.1017C37.4383 88.6682 36.9055 88.0545 36.5295 87.2606C36.1534 86.4668 35.9576 85.5449 35.9419 84.4951V83.4297C35.9419 82.3538 36.1326 81.4058 36.5138 80.5858C36.8951 79.7658 37.4409 79.1339 38.1512 78.6899C38.8667 78.246 39.6919 78.024 40.6268 78.024C41.8855 78.024 42.8987 78.3661 43.6665 79.0503C44.4343 79.7345 44.8808 80.7007 45.0062 81.949H43.0319C42.9379 81.129 42.6977 80.5388 42.3112 80.1785C41.9299 79.8129 41.3685 79.6301 40.6268 79.6301C39.765 79.6301 39.1017 79.946 38.6369 80.578C38.1773 81.2047 37.9423 82.1266 37.9318 83.3435V84.3541C37.9318 85.5867 38.1512 86.5268 38.5899 87.1744C39.0338 87.8221 39.6815 88.1459 40.5328 88.1459C41.311 88.1459 41.896 87.9709 42.2877 87.621C42.6794 87.2711 42.9275 86.6887 43.0319 85.874H45.0062ZM50.9759 85.1924H48.7666V89.5874H46.7845V78.1807H50.7957C52.1118 78.1807 53.1277 78.4758 53.8432 79.066C54.5587 79.6562 54.9165 80.5101 54.9165 81.6278C54.9165 82.3903 54.7311 83.0301 54.3603 83.5472C53.9947 84.059 53.4828 84.4533 52.8248 84.7302L55.3866 89.4856V89.5874H53.2635L50.9759 85.1924ZM48.7666 83.602H50.8035C51.472 83.602 51.9943 83.4349 52.3704 83.1006C52.7464 82.7611 52.9344 82.2989 52.9344 81.714C52.9344 81.1029 52.7595 80.6302 52.4095 80.296C52.0648 79.9617 51.5478 79.7893 50.8584 79.7789H48.7666V83.602ZM65.9001 84.1818C65.9001 85.2994 65.7069 86.2813 65.3204 87.1274C64.9339 87.9683 64.3803 88.616 63.6595 89.0703C62.944 89.5195 62.1188 89.7441 61.1839 89.7441C60.2595 89.7441 59.4343 89.5195 58.7083 89.0703C57.9875 88.616 57.4287 87.9709 57.0318 87.1353C56.64 86.2996 56.4416 85.336 56.4364 84.2444V83.602C56.4364 82.4896 56.6322 81.5077 57.0239 80.6563C57.4209 79.805 57.9771 79.1548 58.6926 78.7056C59.4134 78.2512 60.2386 78.024 61.1682 78.024C62.0979 78.024 62.9205 78.2486 63.636 78.6978C64.3568 79.1417 64.913 79.7841 65.3047 80.625C65.6965 81.4607 65.8949 82.4347 65.9001 83.5472V84.1818ZM63.9181 83.5864C63.9181 82.3224 63.6778 81.3536 63.1973 80.6798C62.722 80.0061 62.0457 79.6692 61.1682 79.6692C60.3117 79.6692 59.6406 80.0061 59.1548 80.6798C58.6743 81.3484 58.4289 82.2963 58.4184 83.5237V84.1818C58.4184 85.4352 58.6613 86.4041 59.147 87.0883C59.638 87.7725 60.3169 88.1146 61.1839 88.1146C62.0614 88.1146 62.7351 87.7803 63.2052 87.1118C63.6804 86.4433 63.9181 85.4666 63.9181 84.1818V83.5864ZM73.8363 86.6496C73.8363 86.1482 73.6587 85.7617 73.3035 85.4901C72.9536 85.2185 72.319 84.9443 71.3998 84.6675C70.4806 84.3907 69.7494 84.0825 69.2062 83.743C68.1669 83.0902 67.6472 82.2389 67.6472 81.1891C67.6472 80.2699 68.0206 79.5125 68.7675 78.9171C69.5196 78.3217 70.4936 78.024 71.6897 78.024C72.4835 78.024 73.1912 78.1703 73.8127 78.4627C74.4343 78.7552 74.9226 79.1731 75.2778 79.7162C75.6329 80.2542 75.8105 80.8522 75.8105 81.5103H73.8363C73.8363 80.9149 73.6482 80.45 73.2722 80.1158C72.9014 79.7763 72.3686 79.6065 71.674 79.6065C71.0264 79.6065 70.5224 79.745 70.162 80.0218C69.8068 80.2986 69.6293 80.6851 69.6293 81.1812C69.6293 81.5991 69.8225 81.949 70.209 82.231C70.5955 82.5078 71.2327 82.7794 72.1205 83.0458C73.0084 83.3069 73.7214 83.6072 74.2593 83.9467C74.7973 84.281 75.1916 84.6675 75.4423 85.1062C75.693 85.5397 75.8183 86.0489 75.8183 86.6339C75.8183 87.5844 75.4527 88.3418 74.7215 88.9058C73.9955 89.4647 73.0084 89.7441 71.7602 89.7441C70.935 89.7441 70.175 89.5926 69.4804 89.2897C68.791 88.9816 68.253 88.5585 67.8665 88.0205C67.4853 87.4826 67.2946 86.8559 67.2946 86.1403H69.2767C69.2767 86.788 69.4908 87.2894 69.9191 87.6445C70.3474 87.9997 70.9611 88.1772 71.7602 88.1772C72.4496 88.1772 72.9666 88.0388 73.3114 87.762C73.6613 87.48 73.8363 87.1092 73.8363 86.6496ZM83.5194 86.6496C83.5194 86.1482 83.3418 85.7617 82.9867 85.4901C82.6367 85.2185 82.0022 84.9443 81.0829 84.6675C80.1637 84.3907 79.4325 84.0825 78.8894 83.743C77.85 83.0902 77.3303 82.2389 77.3303 81.1891C77.3303 80.2699 77.7038 79.5125 78.4506 78.9171C79.2027 78.3217 80.1768 78.024 81.3728 78.024C82.1667 78.024 82.8744 78.1703 83.4959 78.4627C84.1174 78.7552 84.6058 79.1731 84.9609 79.7162C85.3161 80.2542 85.4936 80.8522 85.4936 81.5103H83.5194C83.5194 80.9149 83.3314 80.45 82.9553 80.1158C82.5845 79.7763 82.0518 79.6065 81.3571 79.6065C80.7095 79.6065 80.2055 79.745 79.8451 80.0218C79.49 80.2986 79.3124 80.6851 79.3124 81.1812C79.3124 81.5991 79.5056 81.949 79.8921 82.231C80.2786 82.5078 80.9158 82.7794 81.8037 83.0458C82.6916 83.3069 83.4045 83.6072 83.9425 83.9467C84.4804 84.281 84.8747 84.6675 85.1254 85.1062C85.3761 85.5397 85.5015 86.0489 85.5015 86.6339C85.5015 87.5844 85.1359 88.3418 84.4047 88.9058C83.6787 89.4647 82.6916 89.7441 81.4433 89.7441C80.6181 89.7441 79.8582 89.5926 79.1636 89.2897C78.4741 88.9816 77.9362 88.5585 77.5497 88.0205C77.1684 87.4826 76.9778 86.8559 76.9778 86.1403H78.9599C78.9599 86.788 79.174 87.2894 79.6023 87.6445C80.0305 87.9997 80.6442 88.1772 81.4433 88.1772C82.1327 88.1772 82.6498 88.0388 82.9945 87.762C83.3444 87.48 83.5194 87.1092 83.5194 86.6496ZM97.6211 86.9316H93.2026L92.2781 89.5874H90.2177L94.5265 78.1807H96.3049L100.622 89.5874H98.5534L97.6211 86.9316ZM93.7588 85.3334H97.0648L95.4118 80.6015L93.7588 85.3334ZM105.847 82.3015L108.244 78.1807H110.532L107.085 83.8371L110.61 89.5874H108.299L105.847 85.4039L103.387 89.5874H101.084L104.617 83.8371L101.162 78.1807H103.45L105.847 82.3015ZM114.167 89.5874H112.193V78.1807H114.167V89.5874ZM122.565 86.6496C122.565 86.1482 122.388 85.7617 122.033 85.4901C121.683 85.2185 121.048 84.9443 120.129 84.6675C119.21 84.3907 118.479 84.0825 117.935 83.743C116.896 83.0902 116.376 82.2389 116.376 81.1891C116.376 80.2699 116.75 79.5125 117.497 78.9171C118.249 78.3217 119.223 78.024 120.419 78.024C121.213 78.024 121.92 78.1703 122.542 78.4627C123.163 78.7552 123.652 79.1731 124.007 79.7162C124.362 80.2542 124.54 80.8522 124.54 81.5103H122.565C122.565 80.9149 122.377 80.45 122.001 80.1158C121.63 79.7763 121.098 79.6065 120.403 79.6065C119.755 79.6065 119.251 79.745 118.891 80.0218C118.536 80.2986 118.358 80.6851 118.358 81.1812C118.358 81.5991 118.552 81.949 118.938 82.231C119.325 82.5078 119.962 82.7794 120.85 83.0458C121.738 83.3069 122.45 83.6072 122.988 83.9467C123.526 84.281 123.921 84.6675 124.171 85.1062C124.422 85.5397 124.547 86.0489 124.547 86.6339C124.547 87.5844 124.182 88.3418 123.451 88.9058C122.725 89.4647 121.738 89.7441 120.489 89.7441C119.664 89.7441 118.904 89.5926 118.21 89.2897C117.52 88.9816 116.982 88.5585 116.596 88.0205C116.214 87.4826 116.024 86.8559 116.024 86.1403H118.006C118.006 86.788 118.22 87.2894 118.648 87.6445C119.077 87.9997 119.69 88.1772 120.489 88.1772C121.179 88.1772 121.696 88.0388 122.04 87.762C122.39 87.48 122.565 87.1092 122.565 86.6496Z" fill="#FFA600"/>
<path d="M208.586 181.888L211.876 190.631L215.159 181.888H217.721V193.294H215.747V189.534L215.942 184.504L212.574 193.294H211.156L207.795 184.512L207.991 189.534V193.294H206.016V181.888H208.586ZM226.597 190.638H222.178L221.254 193.294H219.194L223.502 181.888H225.281L229.598 193.294H227.529L226.597 190.638ZM222.735 189.04H226.041L224.388 184.308L222.735 189.04ZM232.99 193.294H231.016V181.888H232.99V193.294ZM244.475 193.294H242.493L237.408 185.202V193.294H235.426V181.888H237.408L242.508 190.012V181.888H244.475V193.294ZM257.198 190.638H252.779L251.855 193.294H249.794L254.103 181.888H255.881L260.198 193.294H258.13L257.198 190.638ZM253.335 189.04H256.641L254.988 184.308L253.335 189.04ZM265.424 186.008L267.821 181.888H270.109L266.661 187.544L270.187 193.294H267.876L265.424 189.111L262.964 193.294H260.66L264.194 187.544L260.739 181.888H263.026L265.424 186.008ZM273.744 193.294H271.769V181.888H273.744V193.294ZM282.142 190.356C282.142 189.855 281.964 189.469 281.609 189.197C281.259 188.925 280.625 188.651 279.705 188.374C278.786 188.098 278.055 187.789 277.512 187.45C276.473 186.797 275.953 185.946 275.953 184.896C275.953 183.977 276.326 183.219 277.073 182.624C277.825 182.029 278.799 181.731 279.995 181.731C280.789 181.731 281.497 181.877 282.118 182.17C282.74 182.462 283.228 182.88 283.583 183.423C283.939 183.961 284.116 184.559 284.116 185.217H282.142C282.142 184.622 281.954 184.157 281.578 183.823C281.207 183.483 280.674 183.313 279.98 183.313C279.332 183.313 278.828 183.452 278.468 183.729C278.113 184.005 277.935 184.392 277.935 184.888C277.935 185.306 278.128 185.656 278.515 185.938C278.901 186.215 279.538 186.486 280.426 186.753C281.314 187.014 282.027 187.314 282.565 187.654C283.103 187.988 283.497 188.374 283.748 188.813C283.999 189.247 284.124 189.756 284.124 190.341C284.124 191.291 283.758 192.049 283.027 192.613C282.301 193.172 281.314 193.451 280.066 193.451C279.241 193.451 278.481 193.3 277.786 192.997C277.097 192.688 276.559 192.265 276.172 191.727C275.791 191.19 275.6 190.563 275.6 189.847H277.582C277.582 190.495 277.797 190.996 278.225 191.351C278.653 191.707 279.267 191.884 280.066 191.884C280.755 191.884 281.272 191.746 281.617 191.469C281.967 191.187 282.142 190.816 282.142 190.356Z" fill="#F95D6A"/>
<rect y="0.0224609" width="300" height="36.1003" fill="#DEEEFF"/>
<path d="M93.7695 15.2656C93.4414 15.2109 93.0859 15.1836 92.7031 15.1836C91.2812 15.1836 90.3164 15.7891 89.8086 17V26H87.6406V13.3203H89.75L89.7852 14.7852C90.4961 13.6523 91.5039 13.0859 92.8086 13.0859C93.2305 13.0859 93.5508 13.1406 93.7695 13.25V15.2656ZM94.9648 19.543C94.9648 18.3008 95.207 17.1836 95.6914 16.1914C96.1836 15.1992 96.8633 14.4336 97.7305 13.8945C98.6055 13.3555 99.6016 13.0859 100.719 13.0859C102.445 13.0859 103.84 13.6836 104.902 14.8789C105.973 16.0742 106.508 17.6641 106.508 19.6484V19.8008C106.508 21.0352 106.27 22.1445 105.793 23.1289C105.324 24.1055 104.648 24.8672 103.766 25.4141C102.891 25.9609 101.883 26.2344 100.742 26.2344C99.0234 26.2344 97.6289 25.6367 96.5586 24.4414C95.4961 23.2461 94.9648 21.6641 94.9648 19.6953V19.543ZM97.1445 19.8008C97.1445 21.207 97.4688 22.3359 98.1172 23.1875C98.7734 24.0391 99.6484 24.4648 100.742 24.4648C101.844 24.4648 102.719 24.0352 103.367 23.1758C104.016 22.3086 104.34 21.0977 104.34 19.543C104.34 18.1523 104.008 17.0273 103.344 16.168C102.688 15.3008 101.812 14.8672 100.719 14.8672C99.6484 14.8672 98.7852 15.293 98.1289 16.1445C97.4727 16.9961 97.1445 18.2148 97.1445 19.8008ZM120.453 23.0117L122.891 13.3203H125.059L121.367 26H119.609L116.527 16.3906L113.527 26H111.77L108.09 13.3203H110.246L112.742 22.8125L115.695 13.3203H117.441L120.453 23.0117ZM131.785 19.6367H126.066V17.8672H131.785V19.6367ZM140.035 15.2656C139.707 15.2109 139.352 15.1836 138.969 15.1836C137.547 15.1836 136.582 15.7891 136.074 17V26H133.906V13.3203H136.016L136.051 14.7852C136.762 13.6523 137.77 13.0859 139.074 13.0859C139.496 13.0859 139.816 13.1406 140.035 13.25V15.2656ZM147.066 26.2344C145.348 26.2344 143.949 25.6719 142.871 24.5469C141.793 23.4141 141.254 21.9023 141.254 20.0117V19.6133C141.254 18.3555 141.492 17.2344 141.969 16.25C142.453 15.2578 143.125 14.4844 143.984 13.9297C144.852 13.3672 145.789 13.0859 146.797 13.0859C148.445 13.0859 149.727 13.6289 150.641 14.7148C151.555 15.8008 152.012 17.3555 152.012 19.3789V20.2812H143.422C143.453 21.5312 143.816 22.543 144.512 23.3164C145.215 24.082 146.105 24.4648 147.184 24.4648C147.949 24.4648 148.598 24.3086 149.129 23.9961C149.66 23.6836 150.125 23.2695 150.523 22.7539L151.848 23.7852C150.785 25.418 149.191 26.2344 147.066 26.2344ZM146.797 14.8672C145.922 14.8672 145.188 15.1875 144.594 15.8281C144 16.4609 143.633 17.3516 143.492 18.5H149.844V18.3359C149.781 17.2344 149.484 16.3828 148.953 15.7812C148.422 15.1719 147.703 14.8672 146.797 14.8672ZM158.551 23.0586L161.691 13.3203H163.906L159.359 26H157.707L153.113 13.3203H155.328L158.551 23.0586ZM171.09 26.2344C169.371 26.2344 167.973 25.6719 166.895 24.5469C165.816 23.4141 165.277 21.9023 165.277 20.0117V19.6133C165.277 18.3555 165.516 17.2344 165.992 16.25C166.477 15.2578 167.148 14.4844 168.008 13.9297C168.875 13.3672 169.812 13.0859 170.82 13.0859C172.469 13.0859 173.75 13.6289 174.664 14.7148C175.578 15.8008 176.035 17.3555 176.035 19.3789V20.2812H167.445C167.477 21.5312 167.84 22.543 168.535 23.3164C169.238 24.082 170.129 24.4648 171.207 24.4648C171.973 24.4648 172.621 24.3086 173.152 23.9961C173.684 23.6836 174.148 23.2695 174.547 22.7539L175.871 23.7852C174.809 25.418 173.215 26.2344 171.09 26.2344ZM170.82 14.8672C169.945 14.8672 169.211 15.1875 168.617 15.8281C168.023 16.4609 167.656 17.3516 167.516 18.5H173.867V18.3359C173.805 17.2344 173.508 16.3828 172.977 15.7812C172.445 15.1719 171.727 14.8672 170.82 14.8672ZM184.684 15.2656C184.355 15.2109 184 15.1836 183.617 15.1836C182.195 15.1836 181.23 15.7891 180.723 17V26H178.555V13.3203H180.664L180.699 14.7852C181.41 13.6523 182.418 13.0859 183.723 13.0859C184.145 13.0859 184.465 13.1406 184.684 13.25V15.2656ZM194.07 22.6367C194.07 22.0508 193.848 21.5977 193.402 21.2773C192.965 20.9492 192.195 20.668 191.094 20.4336C190 20.1992 189.129 19.918 188.48 19.5898C187.84 19.2617 187.363 18.8711 187.051 18.418C186.746 17.9648 186.594 17.4258 186.594 16.8008C186.594 15.7617 187.031 14.8828 187.906 14.1641C188.789 13.4453 189.914 13.0859 191.281 13.0859C192.719 13.0859 193.883 13.457 194.773 14.1992C195.672 14.9414 196.121 15.8906 196.121 17.0469H193.941C193.941 16.4531 193.688 15.9414 193.18 15.5117C192.68 15.082 192.047 14.8672 191.281 14.8672C190.492 14.8672 189.875 15.0391 189.43 15.3828C188.984 15.7266 188.762 16.1758 188.762 16.7305C188.762 17.2539 188.969 17.6484 189.383 17.9141C189.797 18.1797 190.543 18.4336 191.621 18.6758C192.707 18.918 193.586 19.207 194.258 19.543C194.93 19.8789 195.426 20.2852 195.746 20.7617C196.074 21.2305 196.238 21.8047 196.238 22.4844C196.238 23.6172 195.785 24.5273 194.879 25.2148C193.973 25.8945 192.797 26.2344 191.352 26.2344C190.336 26.2344 189.438 26.0547 188.656 25.6953C187.875 25.3359 187.262 24.8359 186.816 24.1953C186.379 23.5469 186.16 22.8477 186.16 22.0977H188.328C188.367 22.8242 188.656 23.4023 189.195 23.832C189.742 24.2539 190.461 24.4648 191.352 24.4648C192.172 24.4648 192.828 24.3008 193.32 23.9727C193.82 23.6367 194.07 23.1914 194.07 22.6367ZM204.324 26.2344C202.605 26.2344 201.207 25.6719 200.129 24.5469C199.051 23.4141 198.512 21.9023 198.512 20.0117V19.6133C198.512 18.3555 198.75 17.2344 199.227 16.25C199.711 15.2578 200.383 14.4844 201.242 13.9297C202.109 13.3672 203.047 13.0859 204.055 13.0859C205.703 13.0859 206.984 13.6289 207.898 14.7148C208.812 15.8008 209.27 17.3555 209.27 19.3789V20.2812H200.68C200.711 21.5312 201.074 22.543 201.77 23.3164C202.473 24.082 203.363 24.4648 204.441 24.4648C205.207 24.4648 205.855 24.3086 206.387 23.9961C206.918 23.6836 207.383 23.2695 207.781 22.7539L209.105 23.7852C208.043 25.418 206.449 26.2344 204.324 26.2344ZM204.055 14.8672C203.18 14.8672 202.445 15.1875 201.852 15.8281C201.258 16.4609 200.891 17.3516 200.75 18.5H207.102V18.3359C207.039 17.2344 206.742 16.3828 206.211 15.7812C205.68 15.1719 204.961 14.8672 204.055 14.8672Z" fill="#212121"/>
<rect x="0.5" y="300.5" width="299" height="69" stroke="#212121" stroke-dasharray="5 5"/>
<rect x="104" y="305" width="60" height="60" fill="#159A6B"/>
<rect x="169" y="305" width="60" height="60" fill="#128279"/>
<rect x="234" y="305" width="60" height="60" fill="#0B5A72"/>
<path d="M265.306 343H263.187V328.952L258.937 330.513V328.599L264.975 326.332H265.306V343Z" fill="white"/>
<path d="M204.248 343H193.379V341.485L199.121 335.104C199.971 334.14 200.556 333.358 200.875 332.757C201.202 332.15 201.365 331.523 201.365 330.878C201.365 330.012 201.103 329.302 200.579 328.747C200.055 328.193 199.356 327.915 198.483 327.915C197.435 327.915 196.618 328.215 196.033 328.815C195.456 329.408 195.167 330.236 195.167 331.299H193.06C193.06 329.772 193.549 328.538 194.529 327.596C195.517 326.655 196.835 326.184 198.483 326.184C200.025 326.184 201.244 326.59 202.14 327.403C203.036 328.208 203.484 329.283 203.484 330.627C203.484 332.26 202.444 334.204 200.363 336.46L195.919 341.28H204.248V343Z" fill="white"/>
<path d="M132.443 333.68H134.027C135.022 333.665 135.804 333.403 136.374 332.894C136.944 332.385 137.229 331.698 137.229 330.832C137.229 328.888 136.26 327.915 134.323 327.915C133.412 327.915 132.683 328.177 132.136 328.701C131.596 329.218 131.327 329.905 131.327 330.764H129.219C129.219 329.45 129.698 328.36 130.655 327.494C131.619 326.62 132.842 326.184 134.323 326.184C135.888 326.184 137.115 326.598 138.003 327.425C138.892 328.253 139.336 329.404 139.336 330.878C139.336 331.599 139.101 332.298 138.63 332.974C138.167 333.65 137.532 334.155 136.727 334.489C137.639 334.778 138.341 335.256 138.835 335.925C139.336 336.593 139.587 337.41 139.587 338.374C139.587 339.863 139.101 341.044 138.129 341.918C137.156 342.791 135.892 343.228 134.335 343.228C132.778 343.228 131.509 342.806 130.529 341.963C129.557 341.12 129.071 340.007 129.071 338.625H131.19C131.19 339.498 131.475 340.197 132.045 340.721C132.614 341.245 133.378 341.507 134.335 341.507C135.352 341.507 136.131 341.242 136.67 340.71C137.21 340.178 137.479 339.415 137.479 338.42C137.479 337.455 137.183 336.715 136.59 336.198C135.998 335.682 135.144 335.416 134.027 335.401H132.443V333.68Z" fill="white"/>
</svg>
