<svg width="603" height="288" viewBox="0 0 603 288" fill="none" xmlns="http://www.w3.org/2000/svg">
<rect x="0.5" y="24.5" width="599" height="129" rx="2.5" stroke="#212121" stroke-dasharray="5 5"/>
<rect x="15" y="38" width="155" height="100" rx="3" fill="#159A6B"/>
<rect x="172" y="37" width="100" height="100" rx="3" fill="#128279"/>
<rect x="274" y="37" width="310" height="100" rx="3" fill="#0B5A72"/>
<path d="M94.8145 100H91.5449V78.3262L84.9883 80.7344V77.7812L94.3047 74.2832H94.8145V100Z" fill="white"/>
<path d="M229.896 99H213.127V96.6621L221.986 86.8184C223.299 85.3301 224.201 84.123 224.693 83.1973C225.197 82.2598 225.449 81.293 225.449 80.2969C225.449 78.9609 225.045 77.8652 224.236 77.0098C223.428 76.1543 222.35 75.7266 221.002 75.7266C219.385 75.7266 218.125 76.1895 217.223 77.1152C216.332 78.0293 215.887 79.3066 215.887 80.9473H212.635C212.635 78.5918 213.391 76.6875 214.902 75.2344C216.426 73.7812 218.459 73.0547 221.002 73.0547C223.381 73.0547 225.262 73.6816 226.645 74.9355C228.027 76.1777 228.719 77.8359 228.719 79.9102C228.719 82.4297 227.113 85.4297 223.902 88.9102L217.047 96.3457H229.896V99Z" fill="white"/>
<path d="M422.855 85.6211H425.299C426.834 85.5977 428.041 85.1934 428.92 84.4082C429.799 83.623 430.238 82.5625 430.238 81.2266C430.238 78.2266 428.744 76.7266 425.756 76.7266C424.35 76.7266 423.225 77.1309 422.381 77.9395C421.549 78.7363 421.133 79.7969 421.133 81.1211H417.881C417.881 79.0938 418.619 77.4121 420.096 76.0762C421.584 74.7285 423.471 74.0547 425.756 74.0547C428.17 74.0547 430.062 74.6934 431.434 75.9707C432.805 77.248 433.49 79.0234 433.49 81.2969C433.49 82.4102 433.127 83.4883 432.4 84.5312C431.686 85.5742 430.707 86.3535 429.465 86.8691C430.871 87.3145 431.955 88.0527 432.717 89.084C433.49 90.1152 433.877 91.375 433.877 92.8633C433.877 95.1602 433.127 96.9824 431.627 98.3301C430.127 99.6777 428.176 100.352 425.773 100.352C423.371 100.352 421.414 99.7012 419.902 98.4004C418.402 97.0996 417.652 95.3828 417.652 93.25H420.922C420.922 94.5977 421.361 95.6758 422.24 96.4844C423.119 97.293 424.297 97.6973 425.773 97.6973C427.344 97.6973 428.545 97.2871 429.377 96.4668C430.209 95.6465 430.625 94.4688 430.625 92.9336C430.625 91.4453 430.168 90.3027 429.254 89.5059C428.34 88.709 427.021 88.2988 425.299 88.2754H422.855V85.6211Z" fill="white"/>
<path d="M345.459 245.216V243.098H347.85V245.216H345.459ZM345.459 256V246.561H347.85V256H345.459ZM355.092 256.105C353.656 256.105 352.628 255.889 352.007 255.455C351.386 255.021 351.075 254.204 351.075 253.003V248.081H349.818V246.561H351.146L351.365 243.528H353.466V246.561H355.707V248.081H353.466V252.836C353.466 253.422 353.604 253.817 353.879 254.022C354.16 254.228 354.696 254.33 355.487 254.33H355.769L355.681 256.105H355.092ZM359.891 250.278H363.283V249.171C363.283 248.603 363.055 248.254 362.598 248.125C362.357 248.055 361.991 248.022 361.499 248.028C361.013 248.028 360.623 248.11 360.33 248.274C360.037 248.438 359.891 248.752 359.891 249.215V250.278ZM359.943 256.044C359.475 255.944 359.053 255.777 358.678 255.543C357.893 255.062 357.5 254.23 357.5 253.047V249.364C357.5 248.415 357.86 247.677 358.581 247.149C359.302 246.622 360.283 246.358 361.525 246.358C364.203 246.358 365.542 247.39 365.542 249.452V251.737H359.891V253.275C359.891 253.797 360.02 254.14 360.277 254.304C360.535 254.462 360.972 254.541 361.587 254.541C362.202 254.541 362.565 254.512 362.677 254.453C362.94 254.307 363.11 254.131 363.187 253.926C363.263 253.715 363.307 253.439 363.318 253.1H365.533C365.498 254.553 364.985 255.473 363.995 255.859C363.415 256.082 362.712 256.193 361.886 256.193C361.06 256.199 360.412 256.149 359.943 256.044ZM367.924 256V246.561H370.314V247.404C370.643 247.064 371.067 246.807 371.589 246.631C372.116 246.449 372.62 246.358 373.101 246.358C374.36 246.358 375.225 246.748 375.693 247.527C376.473 246.748 377.519 246.358 378.831 246.358C379.733 246.358 380.457 246.604 381.002 247.097C381.553 247.583 381.828 248.225 381.828 249.021V256H379.438V249.303C379.438 248.846 379.317 248.535 379.077 248.371C378.843 248.201 378.5 248.116 378.049 248.116C377.604 248.116 377.173 248.233 376.757 248.468C376.347 248.702 376.124 249.016 376.089 249.408V256H373.698V249.303C373.698 248.846 373.572 248.535 373.32 248.371C373.068 248.201 372.711 248.116 372.248 248.116C371.791 248.116 371.354 248.242 370.938 248.494C370.522 248.74 370.314 249.077 370.314 249.505V256H367.924ZM384.324 251.658V250.357H390.512V251.658H384.324ZM397.956 254.26C399.497 254.26 400.268 253.592 400.268 252.256C400.268 251.623 400.186 251.163 400.021 250.876C399.863 250.583 399.582 250.372 399.178 250.243C398.773 250.108 398.188 250.041 397.42 250.041V248.292C398.838 248.292 399.682 248.075 399.951 247.642C400.115 247.372 400.197 246.965 400.197 246.42C400.197 245.869 400.03 245.456 399.696 245.181C399.362 244.899 398.773 244.759 397.93 244.759C397.086 244.759 396.497 244.917 396.163 245.233C395.835 245.544 395.674 246.106 395.68 246.921H393.324C393.336 245.397 393.746 244.328 394.555 243.713C395.363 243.098 396.482 242.79 397.912 242.79C399.348 242.79 400.493 243.104 401.349 243.73C402.204 244.352 402.632 245.216 402.632 246.323C402.632 247.214 402.462 247.873 402.122 248.301C401.782 248.723 401.296 249.004 400.663 249.145C402.052 249.52 402.746 250.557 402.746 252.256C402.746 253.434 402.371 254.392 401.621 255.13C400.871 255.868 399.679 256.237 398.044 256.237C396.409 256.237 395.214 255.892 394.458 255.2C393.702 254.503 393.307 253.492 393.271 252.168H395.627C395.639 252.965 395.823 253.513 396.181 253.812C396.544 254.11 397.136 254.26 397.956 254.26Z" fill="#212121"/>
<path d="M3.45898 246.216V244.098H5.84961V246.216H3.45898ZM3.45898 257V247.561H5.84961V257H3.45898ZM13.0918 257.105C11.6562 257.105 10.6279 256.889 10.0068 256.455C9.38574 256.021 9.0752 255.204 9.0752 254.003V249.081H7.81836V247.561H9.14551L9.36523 244.528H11.4658V247.561H13.707V249.081H11.4658V253.836C11.4658 254.422 11.6035 254.817 11.8789 255.022C12.1602 255.228 12.6963 255.33 13.4873 255.33H13.7686L13.6807 257.105H13.0918ZM17.8906 251.278H21.2832V250.171C21.2832 249.603 21.0547 249.254 20.5977 249.125C20.3574 249.055 19.9912 249.022 19.499 249.028C19.0127 249.028 18.623 249.11 18.3301 249.274C18.0371 249.438 17.8906 249.752 17.8906 250.215V251.278ZM17.9434 257.044C17.4746 256.944 17.0527 256.777 16.6777 256.543C15.8926 256.062 15.5 255.23 15.5 254.047V250.364C15.5 249.415 15.8604 248.677 16.5811 248.149C17.3018 247.622 18.2832 247.358 19.5254 247.358C22.2031 247.358 23.542 248.39 23.542 250.452V252.737H17.8906V254.275C17.8906 254.797 18.0195 255.14 18.2773 255.304C18.5352 255.462 18.9717 255.541 19.5869 255.541C20.2021 255.541 20.5654 255.512 20.6768 255.453C20.9404 255.307 21.1104 255.131 21.1865 254.926C21.2627 254.715 21.3066 254.439 21.3184 254.1H23.5332C23.498 255.553 22.9854 256.473 21.9951 256.859C21.415 257.082 20.7119 257.193 19.8857 257.193C19.0596 257.199 18.4121 257.149 17.9434 257.044ZM25.9238 257V247.561H28.3145V248.404C28.6426 248.064 29.0674 247.807 29.5889 247.631C30.1162 247.449 30.6201 247.358 31.1006 247.358C32.3604 247.358 33.2246 247.748 33.6934 248.527C34.4727 247.748 35.5186 247.358 36.8311 247.358C37.7334 247.358 38.457 247.604 39.002 248.097C39.5527 248.583 39.8281 249.225 39.8281 250.021V257H37.4375V250.303C37.4375 249.846 37.3174 249.535 37.0771 249.371C36.8428 249.201 36.5 249.116 36.0488 249.116C35.6035 249.116 35.1729 249.233 34.7568 249.468C34.3467 249.702 34.124 250.016 34.0889 250.408V257H31.6982V250.303C31.6982 249.846 31.5723 249.535 31.3203 249.371C31.0684 249.201 30.7109 249.116 30.248 249.116C29.791 249.116 29.3545 249.242 28.9385 249.494C28.5225 249.74 28.3145 250.077 28.3145 250.505V257H25.9238ZM42.3242 252.658V251.357H48.5117V252.658H42.3242ZM51.4561 257V255.163H55.2529V246.093L51.6494 246.567L51.4209 244.66L56.0615 244.027H57.8633V255.163H61.1943V257H51.4561Z" fill="#212121"/>
<path d="M413.516 252.755V251.093H422.522V252.755H413.516ZM413.516 248.959V247.297H422.522V248.959H413.516Z" fill="#212121"/>
<path d="M68.5156 253.755V252.093H77.5225V253.755H68.5156ZM68.5156 249.959V248.297H77.5225V249.959H68.5156Z" fill="#212121"/>
<path d="M463.428 232.811H464.649C465.417 232.799 466.021 232.597 466.46 232.204C466.899 231.812 467.119 231.281 467.119 230.613C467.119 229.113 466.372 228.363 464.878 228.363C464.175 228.363 463.612 228.565 463.19 228.97C462.774 229.368 462.566 229.898 462.566 230.561H460.94C460.94 229.547 461.31 228.706 462.048 228.038C462.792 227.364 463.735 227.027 464.878 227.027C466.085 227.027 467.031 227.347 467.717 227.985C468.402 228.624 468.745 229.512 468.745 230.648C468.745 231.205 468.563 231.744 468.2 232.266C467.843 232.787 467.354 233.177 466.732 233.435C467.436 233.657 467.978 234.026 468.358 234.542C468.745 235.058 468.938 235.688 468.938 236.432C468.938 237.58 468.563 238.491 467.813 239.165C467.063 239.839 466.088 240.176 464.887 240.176C463.686 240.176 462.707 239.851 461.951 239.2C461.201 238.55 460.826 237.691 460.826 236.625H462.461C462.461 237.299 462.681 237.838 463.12 238.242C463.56 238.646 464.148 238.849 464.887 238.849C465.672 238.849 466.272 238.644 466.688 238.233C467.104 237.823 467.312 237.234 467.312 236.467C467.312 235.723 467.084 235.151 466.627 234.753C466.17 234.354 465.511 234.149 464.649 234.138H463.428V232.811Z" fill="#212121"/>
<path d="M122.407 241H120.772V230.163L117.494 231.367V229.891L122.152 228.142H122.407V241Z" fill="#212121"/>
<path d="M57.5781 3.57324C57.013 3.4821 56.5573 3.43652 56.2109 3.43652C55.2995 3.43652 54.8438 3.91504 54.8438 4.87207V5.60352H56.4229V6.58105H54.8438V13H53.5791V6.58105H52.4102V5.60352H53.5791V4.79688C53.5837 4.00846 53.8047 3.40462 54.2422 2.98535C54.6797 2.56608 55.3018 2.35645 56.1084 2.35645C56.5687 2.35645 57.4801 2.49544 58.8428 2.77344V13H57.5781V3.57324ZM63.9834 13.1367C62.9808 13.1367 62.165 12.8086 61.5361 12.1523C60.9072 11.4915 60.5928 10.6097 60.5928 9.50684V9.27441C60.5928 8.54069 60.7318 7.88672 61.0098 7.3125C61.2923 6.73372 61.6842 6.28255 62.1855 5.95898C62.6914 5.63086 63.2383 5.4668 63.8262 5.4668C64.7878 5.4668 65.5352 5.78353 66.0684 6.41699C66.6016 7.05046 66.8682 7.95736 66.8682 9.1377V9.66406H61.8574C61.8757 10.3932 62.0876 10.9834 62.4932 11.4346C62.9033 11.8812 63.4229 12.1045 64.0518 12.1045C64.4984 12.1045 64.8766 12.0133 65.1865 11.8311C65.4964 11.6488 65.7676 11.4072 66 11.1064L66.7725 11.708C66.1527 12.6605 65.223 13.1367 63.9834 13.1367ZM63.8262 6.50586C63.3158 6.50586 62.8874 6.69271 62.541 7.06641C62.1947 7.43555 61.9805 7.95508 61.8984 8.625H65.6035V8.5293C65.5671 7.88672 65.3939 7.38997 65.084 7.03906C64.7741 6.68359 64.3548 6.50586 63.8262 6.50586ZM70.8193 8.30371L72.46 5.60352H73.9365L71.5166 9.26074L74.0117 13H72.5488L70.8398 10.2314L69.1309 13H67.6611L70.1562 9.26074L67.7363 5.60352H69.1992L70.8193 8.30371ZM77.915 9.28809H74.5791V8.25586H77.915V9.28809ZM78.8516 9.24023C78.8516 8.08724 79.1182 7.17122 79.6514 6.49219C80.1846 5.80859 80.891 5.4668 81.7705 5.4668C82.6729 5.4668 83.377 5.78581 83.8828 6.42383L83.9443 5.60352H85.0996V12.8223C85.0996 13.7793 84.8148 14.5335 84.2451 15.085C83.68 15.6364 82.9189 15.9121 81.9619 15.9121C81.4287 15.9121 80.9069 15.7982 80.3965 15.5703C79.8861 15.3424 79.4964 15.0303 79.2275 14.6338L79.8838 13.875C80.4261 14.5449 81.0892 14.8799 81.873 14.8799C82.4883 14.8799 82.9668 14.7067 83.3086 14.3604C83.6549 14.014 83.8281 13.5264 83.8281 12.8975V12.2617C83.3223 12.8451 82.6318 13.1367 81.7568 13.1367C80.891 13.1367 80.1891 12.7881 79.6514 12.0908C79.1182 11.3936 78.8516 10.4434 78.8516 9.24023ZM80.123 9.38379C80.123 10.2178 80.2939 10.874 80.6357 11.3525C80.9775 11.8265 81.4561 12.0635 82.0713 12.0635C82.8688 12.0635 83.4544 11.7012 83.8281 10.9766V7.59961C83.4408 6.89323 82.8597 6.54004 82.085 6.54004C81.4697 6.54004 80.9889 6.7793 80.6426 7.25781C80.2962 7.73633 80.123 8.44499 80.123 9.38379ZM90.5889 6.73828C90.3975 6.70638 90.1901 6.69043 89.9668 6.69043C89.1374 6.69043 88.5745 7.04362 88.2783 7.75V13H87.0137V5.60352H88.2441L88.2646 6.45801C88.6794 5.7972 89.2673 5.4668 90.0283 5.4668C90.2744 5.4668 90.4613 5.4987 90.5889 5.5625V6.73828ZM91.2861 9.2334C91.2861 8.50879 91.4274 7.8571 91.71 7.27832C91.9971 6.69954 92.3936 6.25293 92.8994 5.93848C93.4098 5.62402 93.9909 5.4668 94.6426 5.4668C95.6497 5.4668 96.4632 5.81543 97.083 6.5127C97.7074 7.20996 98.0195 8.13737 98.0195 9.29492V9.38379C98.0195 10.1038 97.8805 10.751 97.6025 11.3252C97.3291 11.8949 96.9349 12.3392 96.4199 12.6582C95.9095 12.9772 95.3216 13.1367 94.6562 13.1367C93.6536 13.1367 92.8402 12.7881 92.2158 12.0908C91.596 11.3936 91.2861 10.4707 91.2861 9.32227V9.2334ZM92.5576 9.38379C92.5576 10.2041 92.7467 10.8626 93.125 11.3594C93.5078 11.8561 94.0182 12.1045 94.6562 12.1045C95.2988 12.1045 95.8092 11.8538 96.1875 11.3525C96.5658 10.8467 96.7549 10.1403 96.7549 9.2334C96.7549 8.4222 96.5612 7.76595 96.1738 7.26465C95.791 6.75879 95.2806 6.50586 94.6426 6.50586C94.0182 6.50586 93.5146 6.75423 93.1318 7.25098C92.749 7.74772 92.5576 8.45866 92.5576 9.38379ZM106.154 11.2568L107.576 5.60352H108.841L106.688 13H105.662L103.864 7.39453L102.114 13H101.089L98.9424 5.60352H100.2L101.656 11.1406L103.379 5.60352H104.397L106.154 11.2568ZM110.092 12.3369C110.092 12.1182 110.156 11.9359 110.283 11.79C110.415 11.6442 110.611 11.5713 110.871 11.5713C111.131 11.5713 111.327 11.6442 111.459 11.79C111.596 11.9359 111.664 12.1182 111.664 12.3369C111.664 12.5465 111.596 12.722 111.459 12.8633C111.327 13.0046 111.131 13.0752 110.871 13.0752C110.611 13.0752 110.415 13.0046 110.283 12.8633C110.156 12.722 110.092 12.5465 110.092 12.3369ZM110.099 6.30078C110.099 6.08203 110.162 5.89974 110.29 5.75391C110.422 5.60807 110.618 5.53516 110.878 5.53516C111.138 5.53516 111.334 5.60807 111.466 5.75391C111.603 5.89974 111.671 6.08203 111.671 6.30078C111.671 6.51042 111.603 6.68587 111.466 6.82715C111.334 6.96842 111.138 7.03906 110.878 7.03906C110.618 7.03906 110.422 6.96842 110.29 6.82715C110.162 6.68587 110.099 6.51042 110.099 6.30078ZM121.022 13H119.751V4.57129L117.201 5.50781V4.35938L120.824 2.99902H121.022V13ZM124.659 6.30078C124.659 6.08203 124.723 5.89974 124.851 5.75391C124.983 5.60807 125.179 5.53516 125.438 5.53516C125.698 5.53516 125.894 5.60807 126.026 5.75391C126.163 5.89974 126.231 6.08203 126.231 6.30078C126.231 6.51042 126.163 6.68587 126.026 6.82715C125.894 6.96842 125.698 7.03906 125.438 7.03906C125.179 7.03906 124.983 6.96842 124.851 6.82715C124.723 6.68587 124.659 6.51042 124.659 6.30078ZM124.898 14.9824L124.181 14.4902C124.609 13.8932 124.832 13.278 124.851 12.6445V11.5029H126.088V12.4941C126.088 12.9544 125.974 13.4147 125.746 13.875C125.523 14.3353 125.24 14.7044 124.898 14.9824Z" fill="#212121"/>
<path d="M190.578 3.57324C190.013 3.4821 189.557 3.43652 189.211 3.43652C188.299 3.43652 187.844 3.91504 187.844 4.87207V5.60352H189.423V6.58105H187.844V13H186.579V6.58105H185.41V5.60352H186.579V4.79688C186.584 4.00846 186.805 3.40462 187.242 2.98535C187.68 2.56608 188.302 2.35645 189.108 2.35645C189.569 2.35645 190.48 2.49544 191.843 2.77344V13H190.578V3.57324ZM196.983 13.1367C195.981 13.1367 195.165 12.8086 194.536 12.1523C193.907 11.4915 193.593 10.6097 193.593 9.50684V9.27441C193.593 8.54069 193.732 7.88672 194.01 7.3125C194.292 6.73372 194.684 6.28255 195.186 5.95898C195.691 5.63086 196.238 5.4668 196.826 5.4668C197.788 5.4668 198.535 5.78353 199.068 6.41699C199.602 7.05046 199.868 7.95736 199.868 9.1377V9.66406H194.857C194.876 10.3932 195.088 10.9834 195.493 11.4346C195.903 11.8812 196.423 12.1045 197.052 12.1045C197.498 12.1045 197.877 12.0133 198.187 11.8311C198.496 11.6488 198.768 11.4072 199 11.1064L199.772 11.708C199.153 12.6605 198.223 13.1367 196.983 13.1367ZM196.826 6.50586C196.316 6.50586 195.887 6.69271 195.541 7.06641C195.195 7.43555 194.98 7.95508 194.898 8.625H198.604V8.5293C198.567 7.88672 198.394 7.38997 198.084 7.03906C197.774 6.68359 197.355 6.50586 196.826 6.50586ZM203.819 8.30371L205.46 5.60352H206.937L204.517 9.26074L207.012 13H205.549L203.84 10.2314L202.131 13H200.661L203.156 9.26074L200.736 5.60352H202.199L203.819 8.30371ZM210.915 9.28809H207.579V8.25586H210.915V9.28809ZM211.852 9.24023C211.852 8.08724 212.118 7.17122 212.651 6.49219C213.185 5.80859 213.891 5.4668 214.771 5.4668C215.673 5.4668 216.377 5.78581 216.883 6.42383L216.944 5.60352H218.1V12.8223C218.1 13.7793 217.815 14.5335 217.245 15.085C216.68 15.6364 215.919 15.9121 214.962 15.9121C214.429 15.9121 213.907 15.7982 213.396 15.5703C212.886 15.3424 212.496 15.0303 212.228 14.6338L212.884 13.875C213.426 14.5449 214.089 14.8799 214.873 14.8799C215.488 14.8799 215.967 14.7067 216.309 14.3604C216.655 14.014 216.828 13.5264 216.828 12.8975V12.2617C216.322 12.8451 215.632 13.1367 214.757 13.1367C213.891 13.1367 213.189 12.7881 212.651 12.0908C212.118 11.3936 211.852 10.4434 211.852 9.24023ZM213.123 9.38379C213.123 10.2178 213.294 10.874 213.636 11.3525C213.978 11.8265 214.456 12.0635 215.071 12.0635C215.869 12.0635 216.454 11.7012 216.828 10.9766V7.59961C216.441 6.89323 215.86 6.54004 215.085 6.54004C214.47 6.54004 213.989 6.7793 213.643 7.25781C213.296 7.73633 213.123 8.44499 213.123 9.38379ZM223.589 6.73828C223.397 6.70638 223.19 6.69043 222.967 6.69043C222.137 6.69043 221.575 7.04362 221.278 7.75V13H220.014V5.60352H221.244L221.265 6.45801C221.679 5.7972 222.267 5.4668 223.028 5.4668C223.274 5.4668 223.461 5.4987 223.589 5.5625V6.73828ZM224.286 9.2334C224.286 8.50879 224.427 7.8571 224.71 7.27832C224.997 6.69954 225.394 6.25293 225.899 5.93848C226.41 5.62402 226.991 5.4668 227.643 5.4668C228.65 5.4668 229.463 5.81543 230.083 6.5127C230.707 7.20996 231.02 8.13737 231.02 9.29492V9.38379C231.02 10.1038 230.881 10.751 230.603 11.3252C230.329 11.8949 229.935 12.3392 229.42 12.6582C228.91 12.9772 228.322 13.1367 227.656 13.1367C226.654 13.1367 225.84 12.7881 225.216 12.0908C224.596 11.3936 224.286 10.4707 224.286 9.32227V9.2334ZM225.558 9.38379C225.558 10.2041 225.747 10.8626 226.125 11.3594C226.508 11.8561 227.018 12.1045 227.656 12.1045C228.299 12.1045 228.809 11.8538 229.188 11.3525C229.566 10.8467 229.755 10.1403 229.755 9.2334C229.755 8.4222 229.561 7.76595 229.174 7.26465C228.791 6.75879 228.281 6.50586 227.643 6.50586C227.018 6.50586 226.515 6.75423 226.132 7.25098C225.749 7.74772 225.558 8.45866 225.558 9.38379ZM239.154 11.2568L240.576 5.60352H241.841L239.688 13H238.662L236.864 7.39453L235.114 13H234.089L231.942 5.60352H233.2L234.656 11.1406L236.379 5.60352H237.397L239.154 11.2568ZM243.092 12.3369C243.092 12.1182 243.156 11.9359 243.283 11.79C243.415 11.6442 243.611 11.5713 243.871 11.5713C244.131 11.5713 244.327 11.6442 244.459 11.79C244.596 11.9359 244.664 12.1182 244.664 12.3369C244.664 12.5465 244.596 12.722 244.459 12.8633C244.327 13.0046 244.131 13.0752 243.871 13.0752C243.611 13.0752 243.415 13.0046 243.283 12.8633C243.156 12.722 243.092 12.5465 243.092 12.3369ZM243.099 6.30078C243.099 6.08203 243.162 5.89974 243.29 5.75391C243.422 5.60807 243.618 5.53516 243.878 5.53516C244.138 5.53516 244.334 5.60807 244.466 5.75391C244.603 5.89974 244.671 6.08203 244.671 6.30078C244.671 6.51042 244.603 6.68587 244.466 6.82715C244.334 6.96842 244.138 7.03906 243.878 7.03906C243.618 7.03906 243.422 6.96842 243.29 6.82715C243.162 6.68587 243.099 6.51042 243.099 6.30078ZM256.107 8.75488C256.107 10.236 255.854 11.3366 255.349 12.0566C254.843 12.7767 254.052 13.1367 252.977 13.1367C251.915 13.1367 251.129 12.7858 250.618 12.084C250.108 11.3776 249.843 10.3249 249.825 8.92578V7.2373C249.825 5.77441 250.078 4.6875 250.584 3.97656C251.09 3.26562 251.883 2.91016 252.963 2.91016C254.034 2.91016 254.822 3.25423 255.328 3.94238C255.834 4.62598 256.094 5.68327 256.107 7.11426V8.75488ZM254.843 7.02539C254.843 5.95443 254.692 5.17513 254.392 4.6875C254.091 4.19531 253.615 3.94922 252.963 3.94922C252.316 3.94922 251.844 4.19303 251.548 4.68066C251.252 5.16829 251.099 5.91797 251.09 6.92969V8.95312C251.09 10.0286 251.245 10.8239 251.555 11.3389C251.869 11.8493 252.343 12.1045 252.977 12.1045C253.601 12.1045 254.063 11.863 254.364 11.3799C254.67 10.8968 254.829 10.1357 254.843 9.09668V7.02539ZM257.659 6.30078C257.659 6.08203 257.723 5.89974 257.851 5.75391C257.983 5.60807 258.179 5.53516 258.438 5.53516C258.698 5.53516 258.894 5.60807 259.026 5.75391C259.163 5.89974 259.231 6.08203 259.231 6.30078C259.231 6.51042 259.163 6.68587 259.026 6.82715C258.894 6.96842 258.698 7.03906 258.438 7.03906C258.179 7.03906 257.983 6.96842 257.851 6.82715C257.723 6.68587 257.659 6.51042 257.659 6.30078ZM257.898 14.9824L257.181 14.4902C257.609 13.8932 257.832 13.278 257.851 12.6445V11.5029H259.088V12.4941C259.088 12.9544 258.974 13.4147 258.746 13.875C258.523 14.3353 258.24 14.7044 257.898 14.9824Z" fill="#212121"/>
<path d="M397.578 3.57324C397.013 3.4821 396.557 3.43652 396.211 3.43652C395.299 3.43652 394.844 3.91504 394.844 4.87207V5.60352H396.423V6.58105H394.844V13H393.579V6.58105H392.41V5.60352H393.579V4.79688C393.584 4.00846 393.805 3.40462 394.242 2.98535C394.68 2.56608 395.302 2.35645 396.108 2.35645C396.569 2.35645 397.48 2.49544 398.843 2.77344V13H397.578V3.57324ZM403.983 13.1367C402.981 13.1367 402.165 12.8086 401.536 12.1523C400.907 11.4915 400.593 10.6097 400.593 9.50684V9.27441C400.593 8.54069 400.732 7.88672 401.01 7.3125C401.292 6.73372 401.684 6.28255 402.186 5.95898C402.691 5.63086 403.238 5.4668 403.826 5.4668C404.788 5.4668 405.535 5.78353 406.068 6.41699C406.602 7.05046 406.868 7.95736 406.868 9.1377V9.66406H401.857C401.876 10.3932 402.088 10.9834 402.493 11.4346C402.903 11.8812 403.423 12.1045 404.052 12.1045C404.498 12.1045 404.877 12.0133 405.187 11.8311C405.496 11.6488 405.768 11.4072 406 11.1064L406.772 11.708C406.153 12.6605 405.223 13.1367 403.983 13.1367ZM403.826 6.50586C403.316 6.50586 402.887 6.69271 402.541 7.06641C402.195 7.43555 401.98 7.95508 401.898 8.625H405.604V8.5293C405.567 7.88672 405.394 7.38997 405.084 7.03906C404.774 6.68359 404.355 6.50586 403.826 6.50586ZM410.819 8.30371L412.46 5.60352H413.937L411.517 9.26074L414.012 13H412.549L410.84 10.2314L409.131 13H407.661L410.156 9.26074L407.736 5.60352H409.199L410.819 8.30371ZM417.915 9.28809H414.579V8.25586H417.915V9.28809ZM418.852 9.24023C418.852 8.08724 419.118 7.17122 419.651 6.49219C420.185 5.80859 420.891 5.4668 421.771 5.4668C422.673 5.4668 423.377 5.78581 423.883 6.42383L423.944 5.60352H425.1V12.8223C425.1 13.7793 424.815 14.5335 424.245 15.085C423.68 15.6364 422.919 15.9121 421.962 15.9121C421.429 15.9121 420.907 15.7982 420.396 15.5703C419.886 15.3424 419.496 15.0303 419.228 14.6338L419.884 13.875C420.426 14.5449 421.089 14.8799 421.873 14.8799C422.488 14.8799 422.967 14.7067 423.309 14.3604C423.655 14.014 423.828 13.5264 423.828 12.8975V12.2617C423.322 12.8451 422.632 13.1367 421.757 13.1367C420.891 13.1367 420.189 12.7881 419.651 12.0908C419.118 11.3936 418.852 10.4434 418.852 9.24023ZM420.123 9.38379C420.123 10.2178 420.294 10.874 420.636 11.3525C420.978 11.8265 421.456 12.0635 422.071 12.0635C422.869 12.0635 423.454 11.7012 423.828 10.9766V7.59961C423.441 6.89323 422.86 6.54004 422.085 6.54004C421.47 6.54004 420.989 6.7793 420.643 7.25781C420.296 7.73633 420.123 8.44499 420.123 9.38379ZM430.589 6.73828C430.397 6.70638 430.19 6.69043 429.967 6.69043C429.137 6.69043 428.575 7.04362 428.278 7.75V13H427.014V5.60352H428.244L428.265 6.45801C428.679 5.7972 429.267 5.4668 430.028 5.4668C430.274 5.4668 430.461 5.4987 430.589 5.5625V6.73828ZM431.286 9.2334C431.286 8.50879 431.427 7.8571 431.71 7.27832C431.997 6.69954 432.394 6.25293 432.899 5.93848C433.41 5.62402 433.991 5.4668 434.643 5.4668C435.65 5.4668 436.463 5.81543 437.083 6.5127C437.707 7.20996 438.02 8.13737 438.02 9.29492V9.38379C438.02 10.1038 437.881 10.751 437.603 11.3252C437.329 11.8949 436.935 12.3392 436.42 12.6582C435.91 12.9772 435.322 13.1367 434.656 13.1367C433.654 13.1367 432.84 12.7881 432.216 12.0908C431.596 11.3936 431.286 10.4707 431.286 9.32227V9.2334ZM432.558 9.38379C432.558 10.2041 432.747 10.8626 433.125 11.3594C433.508 11.8561 434.018 12.1045 434.656 12.1045C435.299 12.1045 435.809 11.8538 436.188 11.3525C436.566 10.8467 436.755 10.1403 436.755 9.2334C436.755 8.4222 436.561 7.76595 436.174 7.26465C435.791 6.75879 435.281 6.50586 434.643 6.50586C434.018 6.50586 433.515 6.75423 433.132 7.25098C432.749 7.74772 432.558 8.45866 432.558 9.38379ZM446.154 11.2568L447.576 5.60352H448.841L446.688 13H445.662L443.864 7.39453L442.114 13H441.089L438.942 5.60352H440.2L441.656 11.1406L443.379 5.60352H444.397L446.154 11.2568ZM450.092 12.3369C450.092 12.1182 450.156 11.9359 450.283 11.79C450.415 11.6442 450.611 11.5713 450.871 11.5713C451.131 11.5713 451.327 11.6442 451.459 11.79C451.596 11.9359 451.664 12.1182 451.664 12.3369C451.664 12.5465 451.596 12.722 451.459 12.8633C451.327 13.0046 451.131 13.0752 450.871 13.0752C450.611 13.0752 450.415 13.0046 450.283 12.8633C450.156 12.722 450.092 12.5465 450.092 12.3369ZM450.099 6.30078C450.099 6.08203 450.162 5.89974 450.29 5.75391C450.422 5.60807 450.618 5.53516 450.878 5.53516C451.138 5.53516 451.334 5.60807 451.466 5.75391C451.603 5.89974 451.671 6.08203 451.671 6.30078C451.671 6.51042 451.603 6.68587 451.466 6.82715C451.334 6.96842 451.138 7.03906 450.878 7.03906C450.618 7.03906 450.422 6.96842 450.29 6.82715C450.162 6.68587 450.099 6.51042 450.099 6.30078ZM458.705 7.4082H459.655C460.252 7.39909 460.722 7.24186 461.063 6.93652C461.405 6.63118 461.576 6.21875 461.576 5.69922C461.576 4.53255 460.995 3.94922 459.833 3.94922C459.286 3.94922 458.849 4.10645 458.521 4.4209C458.197 4.73079 458.035 5.14323 458.035 5.6582H456.771C456.771 4.86979 457.058 4.21582 457.632 3.69629C458.211 3.1722 458.944 2.91016 459.833 2.91016C460.772 2.91016 461.508 3.15853 462.041 3.65527C462.574 4.15202 462.841 4.84245 462.841 5.72656C462.841 6.15951 462.7 6.57878 462.417 6.98438C462.139 7.38997 461.758 7.69303 461.275 7.89355C461.822 8.06673 462.244 8.35384 462.54 8.75488C462.841 9.15592 462.991 9.64583 462.991 10.2246C462.991 11.1178 462.7 11.8265 462.116 12.3506C461.533 12.8747 460.774 13.1367 459.84 13.1367C458.906 13.1367 458.145 12.8838 457.557 12.3779C456.973 11.8721 456.682 11.2044 456.682 10.375H457.953C457.953 10.8991 458.124 11.3184 458.466 11.6328C458.808 11.9473 459.266 12.1045 459.84 12.1045C460.451 12.1045 460.918 11.945 461.241 11.626C461.565 11.307 461.727 10.849 461.727 10.252C461.727 9.67318 461.549 9.22884 461.193 8.91895C460.838 8.60905 460.325 8.44954 459.655 8.44043H458.705V7.4082ZM464.659 6.30078C464.659 6.08203 464.723 5.89974 464.851 5.75391C464.983 5.60807 465.179 5.53516 465.438 5.53516C465.698 5.53516 465.894 5.60807 466.026 5.75391C466.163 5.89974 466.231 6.08203 466.231 6.30078C466.231 6.51042 466.163 6.68587 466.026 6.82715C465.894 6.96842 465.698 7.03906 465.438 7.03906C465.179 7.03906 464.983 6.96842 464.851 6.82715C464.723 6.68587 464.659 6.51042 464.659 6.30078ZM464.898 14.9824L464.181 14.4902C464.609 13.8932 464.832 13.278 464.851 12.6445V11.5029H466.088V12.4941C466.088 12.9544 465.974 13.4147 465.746 13.875C465.523 14.3353 465.24 14.7044 464.898 14.9824Z" fill="#212121"/>
<path d="M468.374 266.702H470.149V268.029H468.374V271H466.739V268.029H460.912V267.071L466.643 258.203H468.374V266.702ZM462.758 266.702H466.739V260.427L466.546 260.778L462.758 266.702Z" fill="#212121"/>
<path d="M122.374 267.702H124.149V269.029H122.374V272H120.739V269.029H114.912V268.071L120.643 259.203H122.374V267.702ZM116.758 267.702H120.739V261.427L120.546 261.778L116.758 267.702Z" fill="#212121"/>
<path d="M506.428 247.811H507.649C508.417 247.799 509.021 247.597 509.46 247.204C509.899 246.812 510.119 246.281 510.119 245.613C510.119 244.113 509.372 243.363 507.878 243.363C507.175 243.363 506.612 243.565 506.19 243.97C505.774 244.368 505.566 244.898 505.566 245.561H503.94C503.94 244.547 504.31 243.706 505.048 243.038C505.792 242.364 506.735 242.027 507.878 242.027C509.085 242.027 510.031 242.347 510.717 242.985C511.402 243.624 511.745 244.512 511.745 245.648C511.745 246.205 511.563 246.744 511.2 247.266C510.843 247.787 510.354 248.177 509.732 248.435C510.436 248.657 510.978 249.026 511.358 249.542C511.745 250.058 511.938 250.688 511.938 251.432C511.938 252.58 511.563 253.491 510.813 254.165C510.063 254.839 509.088 255.176 507.887 255.176C506.686 255.176 505.707 254.851 504.951 254.2C504.201 253.55 503.826 252.691 503.826 251.625H505.461C505.461 252.299 505.681 252.838 506.12 253.242C506.56 253.646 507.148 253.849 507.887 253.849C508.672 253.849 509.272 253.644 509.688 253.233C510.104 252.823 510.312 252.234 510.312 251.467C510.312 250.723 510.084 250.151 509.627 249.753C509.17 249.354 508.511 249.149 507.649 249.138H506.428V247.811ZM522.195 249.542C522.195 251.446 521.87 252.861 521.22 253.787C520.569 254.713 519.553 255.176 518.17 255.176C516.805 255.176 515.794 254.725 515.138 253.822C514.481 252.914 514.142 251.561 514.118 249.762V247.591C514.118 245.71 514.443 244.312 515.094 243.398C515.744 242.484 516.764 242.027 518.152 242.027C519.529 242.027 520.543 242.47 521.193 243.354C521.844 244.233 522.178 245.593 522.195 247.433V249.542ZM520.569 247.318C520.569 245.941 520.376 244.939 519.989 244.312C519.603 243.68 518.99 243.363 518.152 243.363C517.32 243.363 516.714 243.677 516.333 244.304C515.952 244.931 515.756 245.895 515.744 247.195V249.797C515.744 251.18 515.943 252.202 516.342 252.864C516.746 253.521 517.355 253.849 518.17 253.849C518.973 253.849 519.567 253.538 519.954 252.917C520.347 252.296 520.552 251.317 520.569 249.981V247.318ZM532.303 249.542C532.303 251.446 531.978 252.861 531.327 253.787C530.677 254.713 529.66 255.176 528.277 255.176C526.912 255.176 525.901 254.725 525.245 253.822C524.589 252.914 524.249 251.561 524.226 249.762V247.591C524.226 245.71 524.551 244.312 525.201 243.398C525.852 242.484 526.871 242.027 528.26 242.027C529.637 242.027 530.65 242.47 531.301 243.354C531.951 244.233 532.285 245.593 532.303 247.433V249.542ZM530.677 247.318C530.677 245.941 530.483 244.939 530.097 244.312C529.71 243.68 529.098 243.363 528.26 243.363C527.428 243.363 526.821 243.677 526.44 244.304C526.06 244.931 525.863 245.895 525.852 247.195V249.797C525.852 251.18 526.051 252.202 526.449 252.864C526.854 253.521 527.463 253.849 528.277 253.849C529.08 253.849 529.675 253.538 530.062 252.917C530.454 252.296 530.659 251.317 530.677 249.981V247.318Z" fill="black"/>
<path d="M163.428 247.811H164.649C165.417 247.799 166.021 247.597 166.46 247.204C166.899 246.812 167.119 246.281 167.119 245.613C167.119 244.113 166.372 243.363 164.878 243.363C164.175 243.363 163.612 243.565 163.19 243.97C162.774 244.368 162.566 244.898 162.566 245.561H160.94C160.94 244.547 161.31 243.706 162.048 243.038C162.792 242.364 163.735 242.027 164.878 242.027C166.085 242.027 167.031 242.347 167.717 242.985C168.402 243.624 168.745 244.512 168.745 245.648C168.745 246.205 168.563 246.744 168.2 247.266C167.843 247.787 167.354 248.177 166.732 248.435C167.436 248.657 167.978 249.026 168.358 249.542C168.745 250.058 168.938 250.688 168.938 251.432C168.938 252.58 168.563 253.491 167.813 254.165C167.063 254.839 166.088 255.176 164.887 255.176C163.686 255.176 162.707 254.851 161.951 254.2C161.201 253.55 160.826 252.691 160.826 251.625H162.461C162.461 252.299 162.681 252.838 163.12 253.242C163.56 253.646 164.148 253.849 164.887 253.849C165.672 253.849 166.272 253.644 166.688 253.233C167.104 252.823 167.312 252.234 167.312 251.467C167.312 250.723 167.084 250.151 166.627 249.753C166.17 249.354 165.511 249.149 164.649 249.138H163.428V247.811ZM179.195 249.542C179.195 251.446 178.87 252.861 178.22 253.787C177.569 254.713 176.553 255.176 175.17 255.176C173.805 255.176 172.794 254.725 172.138 253.822C171.481 252.914 171.142 251.561 171.118 249.762V247.591C171.118 245.71 171.443 244.312 172.094 243.398C172.744 242.484 173.764 242.027 175.152 242.027C176.529 242.027 177.543 242.47 178.193 243.354C178.844 244.233 179.178 245.593 179.195 247.433V249.542ZM177.569 247.318C177.569 245.941 177.376 244.939 176.989 244.312C176.603 243.68 175.99 243.363 175.152 243.363C174.32 243.363 173.714 243.677 173.333 244.304C172.952 244.931 172.756 245.895 172.744 247.195V249.797C172.744 251.18 172.943 252.202 173.342 252.864C173.746 253.521 174.355 253.849 175.17 253.849C175.973 253.849 176.567 253.538 176.954 252.917C177.347 252.296 177.552 251.317 177.569 249.981V247.318ZM189.303 249.542C189.303 251.446 188.978 252.861 188.327 253.787C187.677 254.713 186.66 255.176 185.277 255.176C183.912 255.176 182.901 254.725 182.245 253.822C181.589 252.914 181.249 251.561 181.226 249.762V247.591C181.226 245.71 181.551 244.312 182.201 243.398C182.852 242.484 183.871 242.027 185.26 242.027C186.637 242.027 187.65 242.47 188.301 243.354C188.951 244.233 189.285 245.593 189.303 247.433V249.542ZM187.677 247.318C187.677 245.941 187.483 244.939 187.097 244.312C186.71 243.68 186.098 243.363 185.26 243.363C184.428 243.363 183.821 243.677 183.44 244.304C183.06 244.931 182.863 245.895 182.852 247.195V249.797C182.852 251.18 183.051 252.202 183.449 252.864C183.854 253.521 184.463 253.849 185.277 253.849C186.08 253.849 186.675 253.538 187.062 252.917C187.454 252.296 187.659 251.317 187.677 249.981V247.318Z" fill="black"/>
<path d="M563.889 247.136H567.457V248.674H563.889V252.717H562.254V248.674H558.686V247.136H562.254V243.4H563.889V247.136ZM579.085 254H577.45V243.163L574.172 244.367V242.891L578.83 241.142H579.085V254ZM591.873 248.542C591.873 250.446 591.548 251.861 590.897 252.787C590.247 253.713 589.23 254.176 587.848 254.176C586.482 254.176 585.472 253.725 584.815 252.822C584.159 251.914 583.819 250.561 583.796 248.762V246.591C583.796 244.71 584.121 243.312 584.771 242.398C585.422 241.484 586.441 241.027 587.83 241.027C589.207 241.027 590.221 241.47 590.871 242.354C591.521 243.233 591.855 244.593 591.873 246.433V248.542ZM590.247 246.318C590.247 244.941 590.054 243.939 589.667 243.312C589.28 242.68 588.668 242.363 587.83 242.363C586.998 242.363 586.392 242.677 586.011 243.304C585.63 243.931 585.434 244.895 585.422 246.195V248.797C585.422 250.18 585.621 251.202 586.02 251.864C586.424 252.521 587.033 252.849 587.848 252.849C588.65 252.849 589.245 252.538 589.632 251.917C590.024 251.296 590.229 250.317 590.247 248.981V246.318ZM601.98 248.542C601.98 250.446 601.655 251.861 601.005 252.787C600.354 253.713 599.338 254.176 597.955 254.176C596.59 254.176 595.579 253.725 594.923 252.822C594.267 251.914 593.927 250.561 593.903 248.762V246.591C593.903 244.71 594.229 243.312 594.879 242.398C595.529 241.484 596.549 241.027 597.938 241.027C599.314 241.027 600.328 241.47 600.979 242.354C601.629 243.233 601.963 244.593 601.98 246.433V248.542ZM600.354 246.318C600.354 244.941 600.161 243.939 599.774 243.312C599.388 242.68 598.775 242.363 597.938 242.363C597.105 242.363 596.499 242.677 596.118 243.304C595.737 243.931 595.541 244.895 595.529 246.195V248.797C595.529 250.18 595.729 251.202 596.127 251.864C596.531 252.521 597.141 252.849 597.955 252.849C598.758 252.849 599.353 252.538 599.739 251.917C600.132 251.296 600.337 250.317 600.354 248.981V246.318Z" fill="black"/>
<path d="M227.889 248.136H231.457V249.674H227.889V253.717H226.254V249.674H222.686V248.136H226.254V244.4H227.889V248.136ZM243.085 255H241.45V244.163L238.172 245.367V243.891L242.83 242.142H243.085V255ZM255.873 249.542C255.873 251.446 255.548 252.861 254.897 253.787C254.247 254.713 253.23 255.176 251.848 255.176C250.482 255.176 249.472 254.725 248.815 253.822C248.159 252.914 247.819 251.561 247.796 249.762V247.591C247.796 245.71 248.121 244.312 248.771 243.398C249.422 242.484 250.441 242.027 251.83 242.027C253.207 242.027 254.221 242.47 254.871 243.354C255.521 244.233 255.855 245.593 255.873 247.433V249.542ZM254.247 247.318C254.247 245.941 254.054 244.939 253.667 244.312C253.28 243.68 252.668 243.363 251.83 243.363C250.998 243.363 250.392 243.677 250.011 244.304C249.63 244.931 249.434 245.895 249.422 247.195V249.797C249.422 251.18 249.621 252.202 250.02 252.864C250.424 253.521 251.033 253.849 251.848 253.849C252.65 253.849 253.245 253.538 253.632 252.917C254.024 252.296 254.229 251.317 254.247 249.981V247.318ZM265.98 249.542C265.98 251.446 265.655 252.861 265.005 253.787C264.354 254.713 263.338 255.176 261.955 255.176C260.59 255.176 259.579 254.725 258.923 253.822C258.267 252.914 257.927 251.561 257.903 249.762V247.591C257.903 245.71 258.229 244.312 258.879 243.398C259.529 242.484 260.549 242.027 261.938 242.027C263.314 242.027 264.328 242.47 264.979 243.354C265.629 244.233 265.963 245.593 265.98 247.433V249.542ZM264.354 247.318C264.354 245.941 264.161 244.939 263.774 244.312C263.388 243.68 262.775 243.363 261.938 243.363C261.105 243.363 260.499 243.677 260.118 244.304C259.737 244.931 259.541 245.895 259.529 247.195V249.797C259.529 251.18 259.729 252.202 260.127 252.864C260.531 253.521 261.141 253.849 261.955 253.849C262.758 253.849 263.353 253.538 263.739 252.917C264.132 252.296 264.337 251.317 264.354 249.981V247.318Z" fill="black"/>
<path d="M492.421 247.962L494.53 244.49H496.429L493.317 249.192L496.525 254H494.645L492.447 250.44L490.25 254H488.36L491.568 249.192L488.457 244.49H490.338L492.421 247.962Z" fill="black"/>
<path d="M146.421 247.962L148.53 244.49H150.429L147.317 249.192L150.525 254H148.645L146.447 250.44L144.25 254H142.36L145.568 249.192L142.457 244.49H144.338L146.421 247.962Z" fill="black"/>
<path d="M442.965 219.551H445.285C444.09 221.098 442.977 222.82 441.945 224.719C440.914 226.594 439.918 228.773 438.957 231.258C437.996 233.742 437.234 236.566 436.672 239.73C436.109 242.871 435.828 246.129 435.828 249.504C435.828 252.855 436.098 256.113 436.637 259.277C437.199 262.441 437.961 265.312 438.922 267.891C439.883 270.445 440.879 272.707 441.91 274.676C442.941 276.645 444.066 278.496 445.285 280.23H442.93C441.359 278.332 439.883 275.965 438.5 273.129C437.117 270.293 435.91 266.754 434.879 262.512C433.871 258.27 433.367 253.945 433.367 249.539C433.367 243.094 434.316 237.27 436.215 232.066C438.113 226.863 440.363 222.691 442.965 219.551Z" fill="#212121"/>
<path d="M97.9648 220.551H100.285C99.0898 222.098 97.9766 223.82 96.9453 225.719C95.9141 227.594 94.918 229.773 93.957 232.258C92.9961 234.742 92.2344 237.566 91.6719 240.73C91.1094 243.871 90.8281 247.129 90.8281 250.504C90.8281 253.855 91.0977 257.113 91.6367 260.277C92.1992 263.441 92.9609 266.312 93.9219 268.891C94.8828 271.445 95.8789 273.707 96.9102 275.676C97.9414 277.645 99.0664 279.496 100.285 281.23H97.9297C96.3594 279.332 94.8828 276.965 93.5 274.129C92.1172 271.293 90.9102 267.754 89.8789 263.512C88.8711 259.27 88.3672 254.945 88.3672 250.539C88.3672 244.094 89.3164 238.27 91.2148 233.066C93.1133 227.863 95.3633 223.691 97.9648 220.551Z" fill="#212121"/>
<path d="M536.406 220.551H538.727C541.328 223.691 543.578 227.863 545.477 233.066C547.375 238.27 548.324 244.094 548.324 250.539C548.324 254.945 547.809 259.27 546.777 263.512C545.77 267.754 544.574 271.293 543.191 274.129C541.809 276.965 540.332 279.332 538.762 281.23H536.406C537.625 279.496 538.75 277.645 539.781 275.676C540.812 273.707 541.809 271.445 542.77 268.891C543.73 266.312 544.48 263.441 545.02 260.277C545.582 257.113 545.863 253.855 545.863 250.504C545.863 247.129 545.582 243.871 545.02 240.73C544.457 237.566 543.695 234.742 542.734 232.258C541.773 229.773 540.777 227.594 539.746 225.719C538.715 223.82 537.602 222.098 536.406 220.551Z" fill="#212121"/>
<path d="M198.406 220.551H200.727C203.328 223.691 205.578 227.863 207.477 233.066C209.375 238.27 210.324 244.094 210.324 250.539C210.324 254.945 209.809 259.27 208.777 263.512C207.77 267.754 206.574 271.293 205.191 274.129C203.809 276.965 202.332 279.332 200.762 281.23H198.406C199.625 279.496 200.75 277.645 201.781 275.676C202.812 273.707 203.809 271.445 204.77 268.891C205.73 266.312 206.48 263.441 207.02 260.277C207.582 257.113 207.863 253.855 207.863 250.504C207.863 247.129 207.582 243.871 207.02 240.73C206.457 237.566 205.695 234.742 204.734 232.258C203.773 229.773 202.777 227.594 201.746 225.719C200.715 223.82 199.602 222.098 198.406 220.551Z" fill="#212121"/>
<rect x="450" y="249" width="30" height="1" fill="#212121"/>
<rect x="105" y="250" width="30" height="1" fill="#212121"/>
<path d="M77.9834 182H76.7119V173.571L74.1621 174.508V173.359L77.7852 171.999H77.9834V182ZM88.1143 172.758L83.9922 182H82.666L86.7744 173.086H81.3877V172.047H88.1143V172.758ZM90.1309 177.01L90.6367 172.047H95.7363V173.216H91.71L91.4092 175.93C91.8968 175.643 92.4505 175.499 93.0703 175.499C93.9772 175.499 94.6973 175.8 95.2305 176.401C95.7637 176.998 96.0303 177.807 96.0303 178.828C96.0303 179.854 95.7523 180.662 95.1963 181.255C94.6449 181.843 93.8724 182.137 92.8789 182.137C91.9993 182.137 91.2816 181.893 90.7256 181.405C90.1696 180.918 89.8529 180.243 89.7754 179.382H90.9717C91.0492 179.951 91.252 180.382 91.5801 180.674C91.9082 180.961 92.3411 181.104 92.8789 181.104C93.4668 181.104 93.9271 180.904 94.2598 180.503C94.597 180.102 94.7656 179.548 94.7656 178.842C94.7656 178.176 94.5833 177.643 94.2188 177.242C93.8587 176.837 93.3779 176.634 92.7764 176.634C92.2249 176.634 91.792 176.755 91.4775 176.996L91.1426 177.27L90.1309 177.01ZM103.789 178.384C103.789 179.509 103.532 180.416 103.017 181.104C102.502 181.793 101.804 182.137 100.925 182.137C100.027 182.137 99.3206 181.852 98.8057 181.282V184.844H97.541V174.604H98.6963L98.7578 175.424C99.2728 174.786 99.9883 174.467 100.904 174.467C101.793 174.467 102.495 174.802 103.01 175.472C103.529 176.142 103.789 177.074 103.789 178.268V178.384ZM102.524 178.24C102.524 177.406 102.347 176.748 101.991 176.265C101.636 175.782 101.148 175.54 100.528 175.54C99.7627 175.54 99.1885 175.88 98.8057 176.559V180.093C99.1839 180.767 99.7627 181.104 100.542 181.104C101.148 181.104 101.629 180.865 101.984 180.387C102.344 179.904 102.524 179.188 102.524 178.24ZM107.774 177.304L109.415 174.604H110.892L108.472 178.261L110.967 182H109.504L107.795 179.231L106.086 182H104.616L107.111 178.261L104.691 174.604H106.154L107.774 177.304Z" fill="#212121"/>
<path d="M206.983 182H205.712V173.571L203.162 174.508V173.359L206.785 171.999H206.983V182ZM216.93 177.755C216.93 179.236 216.677 180.337 216.171 181.057C215.665 181.777 214.874 182.137 213.799 182.137C212.737 182.137 211.951 181.786 211.44 181.084C210.93 180.378 210.666 179.325 210.647 177.926V176.237C210.647 174.774 210.9 173.688 211.406 172.977C211.912 172.266 212.705 171.91 213.785 171.91C214.856 171.91 215.645 172.254 216.15 172.942C216.656 173.626 216.916 174.683 216.93 176.114V177.755ZM215.665 176.025C215.665 174.954 215.515 174.175 215.214 173.688C214.913 173.195 214.437 172.949 213.785 172.949C213.138 172.949 212.666 173.193 212.37 173.681C212.074 174.168 211.921 174.918 211.912 175.93V177.953C211.912 179.029 212.067 179.824 212.377 180.339C212.691 180.849 213.165 181.104 213.799 181.104C214.423 181.104 214.886 180.863 215.187 180.38C215.492 179.897 215.651 179.136 215.665 178.097V176.025ZM224.791 177.755C224.791 179.236 224.538 180.337 224.032 181.057C223.526 181.777 222.736 182.137 221.66 182.137C220.598 182.137 219.812 181.786 219.302 181.084C218.791 180.378 218.527 179.325 218.509 177.926V176.237C218.509 174.774 218.762 173.688 219.268 172.977C219.773 172.266 220.566 171.91 221.646 171.91C222.717 171.91 223.506 172.254 224.012 172.942C224.518 173.626 224.777 174.683 224.791 176.114V177.755ZM223.526 176.025C223.526 174.954 223.376 174.175 223.075 173.688C222.774 173.195 222.298 172.949 221.646 172.949C220.999 172.949 220.528 173.193 220.231 173.681C219.935 174.168 219.783 174.918 219.773 175.93V177.953C219.773 179.029 219.928 179.824 220.238 180.339C220.553 180.849 221.027 181.104 221.66 181.104C222.285 181.104 222.747 180.863 223.048 180.38C223.353 179.897 223.513 179.136 223.526 178.097V176.025ZM232.789 178.384C232.789 179.509 232.532 180.416 232.017 181.104C231.502 181.793 230.804 182.137 229.925 182.137C229.027 182.137 228.321 181.852 227.806 181.282V184.844H226.541V174.604H227.696L227.758 175.424C228.273 174.786 228.988 174.467 229.904 174.467C230.793 174.467 231.495 174.802 232.01 175.472C232.529 176.142 232.789 177.074 232.789 178.268V178.384ZM231.524 178.24C231.524 177.406 231.347 176.748 230.991 176.265C230.636 175.782 230.148 175.54 229.528 175.54C228.763 175.54 228.188 175.88 227.806 176.559V180.093C228.184 180.767 228.763 181.104 229.542 181.104C230.148 181.104 230.629 180.865 230.984 180.387C231.344 179.904 231.524 179.188 231.524 178.24ZM236.774 177.304L238.415 174.604H239.892L237.472 178.261L239.967 182H238.504L236.795 179.231L235.086 182H233.616L236.111 178.261L233.691 174.604H235.154L236.774 177.304Z" fill="#212121"/>
<path d="M412.666 176.408H413.616C414.213 176.399 414.683 176.242 415.024 175.937C415.366 175.631 415.537 175.219 415.537 174.699C415.537 173.533 414.956 172.949 413.794 172.949C413.247 172.949 412.81 173.106 412.481 173.421C412.158 173.731 411.996 174.143 411.996 174.658H410.731C410.731 173.87 411.019 173.216 411.593 172.696C412.172 172.172 412.905 171.91 413.794 171.91C414.733 171.91 415.469 172.159 416.002 172.655C416.535 173.152 416.802 173.842 416.802 174.727C416.802 175.16 416.66 175.579 416.378 175.984C416.1 176.39 415.719 176.693 415.236 176.894C415.783 177.067 416.205 177.354 416.501 177.755C416.802 178.156 416.952 178.646 416.952 179.225C416.952 180.118 416.66 180.826 416.077 181.351C415.494 181.875 414.735 182.137 413.801 182.137C412.867 182.137 412.105 181.884 411.518 181.378C410.934 180.872 410.643 180.204 410.643 179.375H411.914C411.914 179.899 412.085 180.318 412.427 180.633C412.769 180.947 413.227 181.104 413.801 181.104C414.411 181.104 414.879 180.945 415.202 180.626C415.526 180.307 415.688 179.849 415.688 179.252C415.688 178.673 415.51 178.229 415.154 177.919C414.799 177.609 414.286 177.45 413.616 177.44H412.666V176.408ZM425.21 182H418.688V181.091L422.134 177.263C422.644 176.684 422.995 176.215 423.187 175.854C423.382 175.49 423.48 175.114 423.48 174.727C423.48 174.207 423.323 173.781 423.009 173.448C422.694 173.116 422.275 172.949 421.751 172.949C421.122 172.949 420.632 173.129 420.281 173.489C419.935 173.845 419.762 174.341 419.762 174.979H418.497C418.497 174.063 418.791 173.323 419.379 172.758C419.971 172.193 420.762 171.91 421.751 171.91C422.676 171.91 423.408 172.154 423.945 172.642C424.483 173.125 424.752 173.77 424.752 174.576C424.752 175.556 424.128 176.723 422.879 178.076L420.213 180.968H425.21V182ZM427.131 177.01L427.637 172.047H432.736V173.216H428.71L428.409 175.93C428.897 175.643 429.451 175.499 430.07 175.499C430.977 175.499 431.697 175.8 432.23 176.401C432.764 176.998 433.03 177.807 433.03 178.828C433.03 179.854 432.752 180.662 432.196 181.255C431.645 181.843 430.872 182.137 429.879 182.137C428.999 182.137 428.282 181.893 427.726 181.405C427.17 180.918 426.853 180.243 426.775 179.382H427.972C428.049 179.951 428.252 180.382 428.58 180.674C428.908 180.961 429.341 181.104 429.879 181.104C430.467 181.104 430.927 180.904 431.26 180.503C431.597 180.102 431.766 179.548 431.766 178.842C431.766 178.176 431.583 177.643 431.219 177.242C430.859 176.837 430.378 176.634 429.776 176.634C429.225 176.634 428.792 176.755 428.478 176.996L428.143 177.27L427.131 177.01ZM440.789 178.384C440.789 179.509 440.532 180.416 440.017 181.104C439.502 181.793 438.804 182.137 437.925 182.137C437.027 182.137 436.321 181.852 435.806 181.282V184.844H434.541V174.604H435.696L435.758 175.424C436.273 174.786 436.988 174.467 437.904 174.467C438.793 174.467 439.495 174.802 440.01 175.472C440.529 176.142 440.789 177.074 440.789 178.268V178.384ZM439.524 178.24C439.524 177.406 439.347 176.748 438.991 176.265C438.636 175.782 438.148 175.54 437.528 175.54C436.763 175.54 436.188 175.88 435.806 176.559V180.093C436.184 180.767 436.763 181.104 437.542 181.104C438.148 181.104 438.629 180.865 438.984 180.387C439.344 179.904 439.524 179.188 439.524 178.24ZM444.774 177.304L446.415 174.604H447.892L445.472 178.261L447.967 182H446.504L444.795 179.231L443.086 182H441.616L444.111 178.261L441.691 174.604H443.154L444.774 177.304Z" fill="#212121"/>
</svg>
