<svg width="398" height="306" viewBox="0 0 398 306" fill="none" xmlns="http://www.w3.org/2000/svg">
<rect width="300" height="300" fill="white"/>
<ellipse cx="45" cy="164" rx="10" ry="10" fill="#FFA600"/>
<ellipse cx="144.572" cy="262.857" rx="10" ry="10" fill="#F95D6A"/>
<path d="M257 165L239 175.392L239 154.608L257 165Z" fill="#FFA600"/>
<path d="M144 50.5714L154.392 68.5714L133.608 68.5714L144 50.5714Z" fill="#F95D6A"/>
<rect x="45" y="164" width="200" height="2" fill="#FFA600"/>
<rect x="145" y="63" width="200" height="2" transform="rotate(90 145 63)" fill="#F95D6A"/>
<path d="M23.55 193.868C23.4355 195.082 22.9875 196.03 22.2063 196.712C21.425 197.389 20.386 197.728 19.0891 197.728C18.1829 197.728 17.3834 197.514 16.6907 197.087C16.0032 196.655 15.4719 196.043 15.0969 195.251C14.7219 194.459 14.5266 193.54 14.511 192.493V191.431C14.511 190.358 14.7011 189.413 15.0813 188.595C15.4615 187.777 16.0058 187.147 16.7141 186.704C17.4277 186.262 18.2506 186.04 19.1829 186.04C20.4381 186.04 21.4485 186.381 22.2141 187.064C22.9797 187.746 23.425 188.709 23.55 189.954H21.5813C21.4875 189.137 21.248 188.548 20.8625 188.189C20.4823 187.824 19.9224 187.642 19.1829 187.642C18.3235 187.642 17.662 187.957 17.1985 188.587C16.7402 189.212 16.5058 190.131 16.4954 191.345V192.353C16.4954 193.582 16.7141 194.519 17.1516 195.165C17.5943 195.811 18.2402 196.134 19.0891 196.134C19.8652 196.134 20.4485 195.959 20.8391 195.61C21.2297 195.262 21.4771 194.681 21.5813 193.868H23.55ZM29.5032 193.189H27.3V197.571H25.3235V186.196H29.3235C30.636 186.196 31.649 186.491 32.3625 187.079C33.0761 187.668 33.4329 188.519 33.4329 189.634C33.4329 190.394 33.248 191.032 32.8782 191.548C32.5136 192.058 32.0032 192.452 31.3469 192.728L33.9016 197.47V197.571H31.7844L29.5032 193.189ZM27.3 191.603H29.3313C29.998 191.603 30.5188 191.436 30.8938 191.103C31.2688 190.764 31.4563 190.303 31.4563 189.72C31.4563 189.11 31.2818 188.639 30.9329 188.306C30.5891 187.972 30.0735 187.801 29.386 187.79H27.3V191.603ZM44.386 192.181C44.386 193.295 44.1933 194.275 43.8079 195.118C43.4224 195.957 42.8704 196.603 42.1516 197.056C41.4381 197.504 40.6152 197.728 39.6829 197.728C38.761 197.728 37.9381 197.504 37.2141 197.056C36.4954 196.603 35.9381 195.959 35.5422 195.126C35.1516 194.293 34.9537 193.332 34.9485 192.243V191.603C34.9485 190.493 35.1438 189.514 35.5344 188.665C35.9303 187.816 36.4849 187.168 37.1985 186.72C37.9172 186.267 38.7402 186.04 39.6672 186.04C40.5943 186.04 41.4146 186.264 42.1282 186.712C42.8469 187.155 43.4016 187.795 43.7922 188.634C44.1829 189.467 44.3808 190.439 44.386 191.548V192.181ZM42.4094 191.587C42.4094 190.327 42.1698 189.36 41.6907 188.689C41.2167 188.017 40.5422 187.681 39.6672 187.681C38.8131 187.681 38.1438 188.017 37.6594 188.689C37.1803 189.355 36.9355 190.301 36.925 191.525V192.181C36.925 193.431 37.1672 194.397 37.6516 195.079C38.1412 195.762 38.8183 196.103 39.6829 196.103C40.5579 196.103 41.2297 195.769 41.6985 195.103C42.1724 194.436 42.4094 193.462 42.4094 192.181V191.587ZM52.3 194.642C52.3 194.142 52.123 193.756 51.7688 193.485C51.4198 193.215 50.787 192.941 49.8704 192.665C48.9537 192.389 48.2245 192.082 47.6829 191.743C46.6464 191.092 46.1282 190.243 46.1282 189.196C46.1282 188.28 46.5006 187.525 47.2454 186.931C47.9954 186.337 48.9667 186.04 50.1594 186.04C50.9511 186.04 51.6568 186.186 52.2766 186.478C52.8964 186.769 53.3834 187.186 53.7375 187.728C54.0917 188.264 54.2688 188.86 54.2688 189.517H52.3C52.3 188.923 52.1125 188.459 51.7375 188.126C51.3678 187.788 50.8365 187.618 50.1438 187.618C49.498 187.618 48.9954 187.756 48.636 188.032C48.2818 188.308 48.1047 188.694 48.1047 189.189C48.1047 189.605 48.2974 189.954 48.6829 190.235C49.0683 190.512 49.7037 190.782 50.5891 191.048C51.4745 191.308 52.1855 191.608 52.7219 191.946C53.2584 192.28 53.6516 192.665 53.9016 193.103C54.1516 193.535 54.2766 194.043 54.2766 194.626C54.2766 195.574 53.912 196.329 53.1829 196.892C52.4589 197.449 51.4745 197.728 50.2297 197.728C49.4068 197.728 48.649 197.577 47.9563 197.275C47.2688 196.967 46.7323 196.545 46.3469 196.009C45.9667 195.472 45.7766 194.847 45.7766 194.134H47.7532C47.7532 194.78 47.9667 195.28 48.3938 195.634C48.8209 195.988 49.4329 196.165 50.2297 196.165C50.9172 196.165 51.4329 196.027 51.7766 195.751C52.1256 195.47 52.3 195.1 52.3 194.642ZM61.9563 194.642C61.9563 194.142 61.7792 193.756 61.425 193.485C61.0761 193.215 60.4433 192.941 59.5266 192.665C58.6099 192.389 57.8808 192.082 57.3391 191.743C56.3026 191.092 55.7844 190.243 55.7844 189.196C55.7844 188.28 56.1568 187.525 56.9016 186.931C57.6516 186.337 58.623 186.04 59.8157 186.04C60.6073 186.04 61.3131 186.186 61.9329 186.478C62.5526 186.769 63.0396 187.186 63.3938 187.728C63.748 188.264 63.925 188.86 63.925 189.517H61.9563C61.9563 188.923 61.7688 188.459 61.3938 188.126C61.024 187.788 60.4928 187.618 59.8 187.618C59.1542 187.618 58.6516 187.756 58.2922 188.032C57.9381 188.308 57.761 188.694 57.761 189.189C57.761 189.605 57.9537 189.954 58.3391 190.235C58.7245 190.512 59.3599 190.782 60.2454 191.048C61.1308 191.308 61.8417 191.608 62.3782 191.946C62.9146 192.28 63.3079 192.665 63.5579 193.103C63.8079 193.535 63.9329 194.043 63.9329 194.626C63.9329 195.574 63.5683 196.329 62.8391 196.892C62.1151 197.449 61.1308 197.728 59.886 197.728C59.0631 197.728 58.3053 197.577 57.6125 197.275C56.925 196.967 56.3886 196.545 56.0032 196.009C55.623 195.472 55.4329 194.847 55.4329 194.134H57.4094C57.4094 194.78 57.623 195.28 58.05 195.634C58.4771 195.988 59.0891 196.165 59.886 196.165C60.5735 196.165 61.0891 196.027 61.4329 195.751C61.7818 195.47 61.9563 195.1 61.9563 194.642ZM76.0188 194.923H71.6125L70.6907 197.571H68.636L72.9329 186.196H74.7063L79.011 197.571H76.9485L76.0188 194.923ZM72.1672 193.329H75.4641L73.8157 188.61L72.1672 193.329ZM84.2219 190.306L86.6125 186.196H88.8938L85.4563 191.837L88.9719 197.571H86.6672L84.2219 193.4L81.7688 197.571H79.4719L82.9954 191.837L79.55 186.196H81.8313L84.2219 190.306ZM92.5188 197.571H90.55V186.196H92.5188V197.571ZM100.894 194.642C100.894 194.142 100.717 193.756 100.363 193.485C100.014 193.215 99.3808 192.941 98.4641 192.665C97.5474 192.389 96.8183 192.082 96.2766 191.743C95.2401 191.092 94.7219 190.243 94.7219 189.196C94.7219 188.28 95.0943 187.525 95.8391 186.931C96.5891 186.337 97.5605 186.04 98.7532 186.04C99.5448 186.04 100.251 186.186 100.87 186.478C101.49 186.769 101.977 187.186 102.331 187.728C102.685 188.264 102.863 188.86 102.863 189.517H100.894C100.894 188.923 100.706 188.459 100.331 188.126C99.9615 187.788 99.4302 187.618 98.7375 187.618C98.0917 187.618 97.5891 187.756 97.2297 188.032C96.8756 188.308 96.6985 188.694 96.6985 189.189C96.6985 189.605 96.8912 189.954 97.2766 190.235C97.662 190.512 98.2974 190.782 99.1829 191.048C100.068 191.308 100.779 191.608 101.316 191.946C101.852 192.28 102.245 192.665 102.495 193.103C102.745 193.535 102.87 194.043 102.87 194.626C102.87 195.574 102.506 196.329 101.777 196.892C101.053 197.449 100.068 197.728 98.8235 197.728C98.0006 197.728 97.2427 197.577 96.55 197.275C95.8625 196.967 95.3261 196.545 94.9407 196.009C94.5605 195.472 94.3704 194.847 94.3704 194.134H96.3469C96.3469 194.78 96.5605 195.28 96.9875 195.634C97.4146 195.988 98.0266 196.165 98.8235 196.165C99.511 196.165 100.027 196.027 100.37 195.751C100.719 195.47 100.894 195.1 100.894 194.642Z" fill="#FFA600"/>
<path d="M158.004 229.911L161.286 238.63L164.559 229.911H167.114V241.286H165.145V237.536L165.34 232.52L161.981 241.286H160.567L157.215 232.528L157.411 237.536V241.286H155.442V229.911H158.004ZM175.965 238.637H171.559L170.637 241.286H168.583L172.879 229.911H174.653L178.958 241.286H176.895L175.965 238.637ZM172.114 237.044H175.411L173.762 232.325L172.114 237.044ZM182.34 241.286H180.372V229.911H182.34V241.286ZM193.793 241.286H191.817L186.747 233.215V241.286H184.77V229.911H186.747L191.833 238.012V229.911H193.793V241.286ZM206.481 238.637H202.075L201.153 241.286H199.098L203.395 229.911H205.168L209.473 241.286H207.411L206.481 238.637ZM202.629 237.044H205.926L204.278 232.325L202.629 237.044ZM214.684 234.02L217.075 229.911H219.356L215.918 235.551L219.434 241.286H217.129L214.684 237.114L212.231 241.286H209.934L213.458 235.551L210.012 229.911H212.293L214.684 234.02ZM222.981 241.286H221.012V229.911H222.981V241.286ZM231.356 238.356C231.356 237.856 231.179 237.471 230.825 237.2C230.476 236.929 229.843 236.656 228.926 236.38C228.01 236.103 227.28 235.796 226.739 235.458C225.702 234.807 225.184 233.958 225.184 232.911C225.184 231.994 225.556 231.239 226.301 230.645C227.051 230.051 228.023 229.755 229.215 229.755C230.007 229.755 230.713 229.9 231.333 230.192C231.952 230.484 232.439 230.9 232.793 231.442C233.148 231.978 233.325 232.575 233.325 233.231H231.356C231.356 232.637 231.168 232.174 230.793 231.84C230.424 231.502 229.892 231.333 229.2 231.333C228.554 231.333 228.051 231.471 227.692 231.747C227.338 232.023 227.161 232.408 227.161 232.903C227.161 233.32 227.353 233.669 227.739 233.95C228.124 234.226 228.76 234.497 229.645 234.762C230.53 235.023 231.241 235.322 231.778 235.661C232.314 235.994 232.708 236.38 232.958 236.817C233.208 237.249 233.333 237.757 233.333 238.34C233.333 239.288 232.968 240.044 232.239 240.606C231.515 241.163 230.53 241.442 229.286 241.442C228.463 241.442 227.705 241.291 227.012 240.989C226.325 240.682 225.788 240.26 225.403 239.723C225.023 239.187 224.833 238.562 224.833 237.848H226.809C226.809 238.494 227.023 238.994 227.45 239.348C227.877 239.702 228.489 239.88 229.286 239.88C229.973 239.88 230.489 239.741 230.833 239.465C231.181 239.184 231.356 238.814 231.356 238.356Z" fill="#F95D6A"/>
<rect width="300" height="36.1029" fill="#DEEEFF"/>
<path d="M71.7266 23.4648C72.5 23.4648 73.1758 23.2305 73.7539 22.7617C74.332 22.293 74.6523 21.707 74.7148 21.0039H76.7656C76.7266 21.7305 76.4766 22.4219 76.0156 23.0781C75.5547 23.7344 74.9375 24.2578 74.1641 24.6484C73.3984 25.0391 72.5859 25.2344 71.7266 25.2344C70 25.2344 68.625 24.6602 67.6016 23.5117C66.5859 22.3555 66.0781 20.7773 66.0781 18.7773V18.4141C66.0781 17.1797 66.3047 16.082 66.7578 15.1211C67.2109 14.1602 67.8594 13.4141 68.7031 12.8828C69.5547 12.3516 70.5586 12.0859 71.7148 12.0859C73.1367 12.0859 74.3164 12.5117 75.2539 13.3633C76.1992 14.2148 76.7031 15.3203 76.7656 16.6797H74.7148C74.6523 15.8594 74.3398 15.1875 73.7773 14.6641C73.2227 14.1328 72.5352 13.8672 71.7148 13.8672C70.6133 13.8672 69.7578 14.2656 69.1484 15.0625C68.5469 15.8516 68.2461 16.9961 68.2461 18.4961V18.9062C68.2461 20.3672 68.5469 21.4922 69.1484 22.2812C69.75 23.0703 70.6094 23.4648 71.7266 23.4648ZM78.6289 18.543C78.6289 17.3008 78.8711 16.1836 79.3555 15.1914C79.8477 14.1992 80.5273 13.4336 81.3945 12.8945C82.2695 12.3555 83.2656 12.0859 84.3828 12.0859C86.1094 12.0859 87.5039 12.6836 88.5664 13.8789C89.6367 15.0742 90.1719 16.6641 90.1719 18.6484V18.8008C90.1719 20.0352 89.9336 21.1445 89.457 22.1289C88.9883 23.1055 88.3125 23.8672 87.4297 24.4141C86.5547 24.9609 85.5469 25.2344 84.4062 25.2344C82.6875 25.2344 81.293 24.6367 80.2227 23.4414C79.1602 22.2461 78.6289 20.6641 78.6289 18.6953V18.543ZM80.8086 18.8008C80.8086 20.207 81.1328 21.3359 81.7812 22.1875C82.4375 23.0391 83.3125 23.4648 84.4062 23.4648C85.5078 23.4648 86.3828 23.0352 87.0312 22.1758C87.6797 21.3086 88.0039 20.0977 88.0039 18.543C88.0039 17.1523 87.6719 16.0273 87.0078 15.168C86.3516 14.3008 85.4766 13.8672 84.3828 13.8672C83.3125 13.8672 82.4492 14.293 81.793 15.1445C81.1367 15.9961 80.8086 17.2148 80.8086 18.8008ZM95.2461 25H93.0781V7H95.2461V25ZM106.555 23.7461C105.711 24.7383 104.473 25.2344 102.84 25.2344C101.488 25.2344 100.457 24.8438 99.7461 24.0625C99.043 23.2734 98.6875 22.1094 98.6797 20.5703V12.3203H100.848V20.5117C100.848 22.4336 101.629 23.3945 103.191 23.3945C104.848 23.3945 105.949 22.7773 106.496 21.543V12.3203H108.664V25H106.602L106.555 23.7461ZM114.008 12.3203L114.066 13.7266C114.996 12.6328 116.25 12.0859 117.828 12.0859C119.602 12.0859 120.809 12.7656 121.449 14.125C121.871 13.5156 122.418 13.0234 123.09 12.6484C123.77 12.2734 124.57 12.0859 125.492 12.0859C128.273 12.0859 129.688 13.5586 129.734 16.5039V25H127.566V16.6328C127.566 15.7266 127.359 15.0508 126.945 14.6055C126.531 14.1523 125.836 13.9258 124.859 13.9258C124.055 13.9258 123.387 14.168 122.855 14.6523C122.324 15.1289 122.016 15.7734 121.93 16.5859V25H119.75V16.6914C119.75 14.8477 118.848 13.9258 117.043 13.9258C115.621 13.9258 114.648 14.5312 114.125 15.7422V25H111.957V12.3203H114.008ZM135.066 12.3203L135.137 13.9141C136.105 12.6953 137.371 12.0859 138.934 12.0859C141.613 12.0859 142.965 13.5977 142.988 16.6211V25H140.82V16.6094C140.812 15.6953 140.602 15.0195 140.188 14.582C139.781 14.1445 139.145 13.9258 138.277 13.9258C137.574 13.9258 136.957 14.1133 136.426 14.4883C135.895 14.8633 135.48 15.3555 135.184 15.9648V25H133.016V12.3203H135.066ZM150.77 18.6367H145.051V16.8672H150.77V18.6367ZM159.02 14.2656C158.691 14.2109 158.336 14.1836 157.953 14.1836C156.531 14.1836 155.566 14.7891 155.059 16V25H152.891V12.3203H155L155.035 13.7852C155.746 12.6523 156.754 12.0859 158.059 12.0859C158.48 12.0859 158.801 12.1406 159.02 12.25V14.2656ZM166.051 25.2344C164.332 25.2344 162.934 24.6719 161.855 23.5469C160.777 22.4141 160.238 20.9023 160.238 19.0117V18.6133C160.238 17.3555 160.477 16.2344 160.953 15.25C161.438 14.2578 162.109 13.4844 162.969 12.9297C163.836 12.3672 164.773 12.0859 165.781 12.0859C167.43 12.0859 168.711 12.6289 169.625 13.7148C170.539 14.8008 170.996 16.3555 170.996 18.3789V19.2812H162.406C162.438 20.5312 162.801 21.543 163.496 22.3164C164.199 23.082 165.09 23.4648 166.168 23.4648C166.934 23.4648 167.582 23.3086 168.113 22.9961C168.645 22.6836 169.109 22.2695 169.508 21.7539L170.832 22.7852C169.77 24.418 168.176 25.2344 166.051 25.2344ZM165.781 13.8672C164.906 13.8672 164.172 14.1875 163.578 14.8281C162.984 15.4609 162.617 16.3516 162.477 17.5H168.828V17.3359C168.766 16.2344 168.469 15.3828 167.938 14.7812C167.406 14.1719 166.688 13.8672 165.781 13.8672ZM177.535 22.0586L180.676 12.3203H182.891L178.344 25H176.691L172.098 12.3203H174.312L177.535 22.0586ZM190.074 25.2344C188.355 25.2344 186.957 24.6719 185.879 23.5469C184.801 22.4141 184.262 20.9023 184.262 19.0117V18.6133C184.262 17.3555 184.5 16.2344 184.977 15.25C185.461 14.2578 186.133 13.4844 186.992 12.9297C187.859 12.3672 188.797 12.0859 189.805 12.0859C191.453 12.0859 192.734 12.6289 193.648 13.7148C194.562 14.8008 195.02 16.3555 195.02 18.3789V19.2812H186.43C186.461 20.5312 186.824 21.543 187.52 22.3164C188.223 23.082 189.113 23.4648 190.191 23.4648C190.957 23.4648 191.605 23.3086 192.137 22.9961C192.668 22.6836 193.133 22.2695 193.531 21.7539L194.855 22.7852C193.793 24.418 192.199 25.2344 190.074 25.2344ZM189.805 13.8672C188.93 13.8672 188.195 14.1875 187.602 14.8281C187.008 15.4609 186.641 16.3516 186.5 17.5H192.852V17.3359C192.789 16.2344 192.492 15.3828 191.961 14.7812C191.43 14.1719 190.711 13.8672 189.805 13.8672ZM203.668 14.2656C203.34 14.2109 202.984 14.1836 202.602 14.1836C201.18 14.1836 200.215 14.7891 199.707 16V25H197.539V12.3203H199.648L199.684 13.7852C200.395 12.6523 201.402 12.0859 202.707 12.0859C203.129 12.0859 203.449 12.1406 203.668 12.25V14.2656ZM213.055 21.6367C213.055 21.0508 212.832 20.5977 212.387 20.2773C211.949 19.9492 211.18 19.668 210.078 19.4336C208.984 19.1992 208.113 18.918 207.465 18.5898C206.824 18.2617 206.348 17.8711 206.035 17.418C205.73 16.9648 205.578 16.4258 205.578 15.8008C205.578 14.7617 206.016 13.8828 206.891 13.1641C207.773 12.4453 208.898 12.0859 210.266 12.0859C211.703 12.0859 212.867 12.457 213.758 13.1992C214.656 13.9414 215.105 14.8906 215.105 16.0469H212.926C212.926 15.4531 212.672 14.9414 212.164 14.5117C211.664 14.082 211.031 13.8672 210.266 13.8672C209.477 13.8672 208.859 14.0391 208.414 14.3828C207.969 14.7266 207.746 15.1758 207.746 15.7305C207.746 16.2539 207.953 16.6484 208.367 16.9141C208.781 17.1797 209.527 17.4336 210.605 17.6758C211.691 17.918 212.57 18.207 213.242 18.543C213.914 18.8789 214.41 19.2852 214.73 19.7617C215.059 20.2305 215.223 20.8047 215.223 21.4844C215.223 22.6172 214.77 23.5273 213.863 24.2148C212.957 24.8945 211.781 25.2344 210.336 25.2344C209.32 25.2344 208.422 25.0547 207.641 24.6953C206.859 24.3359 206.246 23.8359 205.801 23.1953C205.363 22.5469 205.145 21.8477 205.145 21.0977H207.312C207.352 21.8242 207.641 22.4023 208.18 22.832C208.727 23.2539 209.445 23.4648 210.336 23.4648C211.156 23.4648 211.812 23.3008 212.305 22.9727C212.805 22.6367 213.055 22.1914 213.055 21.6367ZM223.309 25.2344C221.59 25.2344 220.191 24.6719 219.113 23.5469C218.035 22.4141 217.496 20.9023 217.496 19.0117V18.6133C217.496 17.3555 217.734 16.2344 218.211 15.25C218.695 14.2578 219.367 13.4844 220.227 12.9297C221.094 12.3672 222.031 12.0859 223.039 12.0859C224.688 12.0859 225.969 12.6289 226.883 13.7148C227.797 14.8008 228.254 16.3555 228.254 18.3789V19.2812H219.664C219.695 20.5312 220.059 21.543 220.754 22.3164C221.457 23.082 222.348 23.4648 223.426 23.4648C224.191 23.4648 224.84 23.3086 225.371 22.9961C225.902 22.6836 226.367 22.2695 226.766 21.7539L228.09 22.7852C227.027 24.418 225.434 25.2344 223.309 25.2344ZM223.039 13.8672C222.164 13.8672 221.43 14.1875 220.836 14.8281C220.242 15.4609 219.875 16.3516 219.734 17.5H226.086V17.3359C226.023 16.2344 225.727 15.3828 225.195 14.7812C224.664 14.1719 223.945 13.8672 223.039 13.8672Z" fill="#212121"/>
<rect x="397.5" y="36.5" width="269" height="69" transform="rotate(90 397.5 36.5)" stroke="#212121" stroke-dasharray="5 5"/>
<rect x="393" y="111" width="60" height="60" transform="rotate(90 393 111)" fill="#0B5A72"/>
<rect x="393" y="176" width="60" height="60" transform="rotate(90 393 176)" fill="#128279"/>
<rect x="393" y="241" width="60" height="60" transform="rotate(90 393 241)" fill="#159A6B"/>
<path d="M365.306 279H363.187V264.952L358.937 266.513V264.599L364.975 262.332H365.306V279Z" fill="white"/>
<path d="M368.248 213H357.379V211.485L363.121 205.104C363.971 204.14 364.556 203.358 364.875 202.757C365.202 202.15 365.365 201.523 365.365 200.878C365.365 200.012 365.103 199.302 364.579 198.747C364.055 198.193 363.356 197.915 362.483 197.915C361.435 197.915 360.618 198.215 360.033 198.815C359.456 199.408 359.167 200.236 359.167 201.299H357.06C357.06 199.772 357.549 198.538 358.529 197.596C359.517 196.655 360.835 196.184 362.483 196.184C364.025 196.184 365.244 196.59 366.14 197.403C367.036 198.208 367.484 199.283 367.484 200.627C367.484 202.26 366.444 204.204 364.363 206.46L359.919 211.28H368.248V213Z" fill="white"/>
<path d="M360.443 140.68H362.027C363.022 140.665 363.804 140.403 364.374 139.894C364.944 139.385 365.229 138.698 365.229 137.832C365.229 135.888 364.26 134.915 362.323 134.915C361.412 134.915 360.683 135.177 360.136 135.701C359.596 136.218 359.327 136.905 359.327 137.764H357.219C357.219 136.45 357.698 135.36 358.655 134.494C359.619 133.62 360.842 133.184 362.323 133.184C363.888 133.184 365.115 133.598 366.003 134.425C366.892 135.253 367.336 136.404 367.336 137.878C367.336 138.599 367.101 139.298 366.63 139.974C366.167 140.65 365.532 141.155 364.727 141.489C365.639 141.778 366.341 142.256 366.835 142.925C367.336 143.593 367.587 144.41 367.587 145.374C367.587 146.863 367.101 148.044 366.129 148.918C365.156 149.791 363.892 150.228 362.335 150.228C360.778 150.228 359.509 149.806 358.529 148.963C357.557 148.12 357.071 147.007 357.071 145.625H359.19C359.19 146.498 359.475 147.197 360.045 147.721C360.614 148.245 361.378 148.507 362.335 148.507C363.352 148.507 364.131 148.242 364.67 147.71C365.21 147.178 365.479 146.415 365.479 145.42C365.479 144.455 365.183 143.715 364.59 143.198C363.998 142.682 363.144 142.416 362.027 142.401H360.443V140.68Z" fill="white"/>
</svg>
