<svg width="300" height="370" viewBox="0 0 300 370" fill="none" xmlns="http://www.w3.org/2000/svg">
<rect width="300" height="300" fill="white"/>
<ellipse cx="45" cy="164" rx="10" ry="10" fill="#F95D6A"/>
<ellipse cx="144" cy="60" rx="10" ry="10" fill="#FFA600"/>
<path d="M257 165L239 175.392L239 154.608L257 165Z" fill="#F95D6A"/>
<path d="M144 275L133.608 257L154.392 257L144 275Z" fill="#FFA600"/>
<rect x="45" y="164" width="200" height="2" fill="#F95D6A"/>
<rect x="145" y="63" width="200" height="2" transform="rotate(90 145 63)" fill="#FFA600"/>
<path d="M159.836 88.2969C159.721 89.5104 159.273 90.4583 158.492 91.1406C157.711 91.8177 156.672 92.1562 155.375 92.1562C154.469 92.1562 153.669 91.9427 152.977 91.5156C152.289 91.0833 151.758 90.4714 151.383 89.6797C151.008 88.888 150.812 87.9688 150.797 86.9219V85.8594C150.797 84.7865 150.987 83.8411 151.367 83.0234C151.747 82.2057 152.292 81.5755 153 81.1328C153.714 80.6901 154.536 80.4688 155.469 80.4688C156.724 80.4688 157.734 80.8099 158.5 81.4922C159.266 82.1745 159.711 83.138 159.836 84.3828H157.867C157.773 83.5651 157.534 82.9766 157.148 82.6172C156.768 82.2526 156.208 82.0703 155.469 82.0703C154.609 82.0703 153.948 82.3854 153.484 83.0156C153.026 83.6406 152.792 84.5599 152.781 85.7734V86.7812C152.781 88.0104 153 88.9479 153.438 89.5938C153.88 90.2396 154.526 90.5625 155.375 90.5625C156.151 90.5625 156.734 90.388 157.125 90.0391C157.516 89.6901 157.763 89.1094 157.867 88.2969H159.836ZM165.789 87.6172H163.586V92H161.609V80.625H165.609C166.922 80.625 167.935 80.9193 168.648 81.5078C169.362 82.0964 169.719 82.9479 169.719 84.0625C169.719 84.8229 169.534 85.4609 169.164 85.9766C168.799 86.487 168.289 86.8802 167.633 87.1562L170.188 91.8984V92H168.07L165.789 87.6172ZM163.586 86.0312H165.617C166.284 86.0312 166.805 85.8646 167.18 85.5312C167.555 85.1927 167.742 84.7318 167.742 84.1484C167.742 83.5391 167.568 83.0677 167.219 82.7344C166.875 82.401 166.359 82.2292 165.672 82.2188H163.586V86.0312ZM180.672 86.6094C180.672 87.724 180.479 88.7031 180.094 89.5469C179.708 90.3854 179.156 91.0312 178.438 91.4844C177.724 91.9323 176.901 92.1562 175.969 92.1562C175.047 92.1562 174.224 91.9323 173.5 91.4844C172.781 91.0312 172.224 90.388 171.828 89.5547C171.438 88.7214 171.24 87.7604 171.234 86.6719V86.0312C171.234 84.9219 171.43 83.9427 171.82 83.0938C172.216 82.2448 172.771 81.5964 173.484 81.1484C174.203 80.6953 175.026 80.4688 175.953 80.4688C176.88 80.4688 177.701 80.6927 178.414 81.1406C179.133 81.5833 179.688 82.224 180.078 83.0625C180.469 83.8958 180.667 84.8672 180.672 85.9766V86.6094ZM178.695 86.0156C178.695 84.7552 178.456 83.7891 177.977 83.1172C177.503 82.4453 176.828 82.1094 175.953 82.1094C175.099 82.1094 174.43 82.4453 173.945 83.1172C173.466 83.7839 173.221 84.7292 173.211 85.9531V86.6094C173.211 87.8594 173.453 88.8255 173.938 89.5078C174.427 90.1901 175.104 90.5312 175.969 90.5312C176.844 90.5312 177.516 90.1979 177.984 89.5312C178.458 88.8646 178.695 87.8906 178.695 86.6094V86.0156ZM188.586 89.0703C188.586 88.5703 188.409 88.1849 188.055 87.9141C187.706 87.6432 187.073 87.3698 186.156 87.0938C185.24 86.8177 184.51 86.5104 183.969 86.1719C182.932 85.5208 182.414 84.6719 182.414 83.625C182.414 82.7083 182.786 81.9531 183.531 81.3594C184.281 80.7656 185.253 80.4688 186.445 80.4688C187.237 80.4688 187.943 80.6146 188.562 80.9062C189.182 81.1979 189.669 81.6146 190.023 82.1562C190.378 82.6927 190.555 83.2891 190.555 83.9453H188.586C188.586 83.3516 188.398 82.888 188.023 82.5547C187.654 82.2161 187.122 82.0469 186.43 82.0469C185.784 82.0469 185.281 82.1849 184.922 82.4609C184.568 82.737 184.391 83.1224 184.391 83.6172C184.391 84.0339 184.583 84.3828 184.969 84.6641C185.354 84.9401 185.99 85.2109 186.875 85.4766C187.76 85.737 188.471 86.0365 189.008 86.375C189.544 86.7083 189.938 87.0938 190.188 87.5312C190.438 87.9635 190.562 88.4714 190.562 89.0547C190.562 90.0026 190.198 90.7578 189.469 91.3203C188.745 91.8776 187.76 92.1562 186.516 92.1562C185.693 92.1562 184.935 92.0052 184.242 91.7031C183.555 91.3958 183.018 90.974 182.633 90.4375C182.253 89.901 182.062 89.276 182.062 88.5625H184.039C184.039 89.2083 184.253 89.7083 184.68 90.0625C185.107 90.4167 185.719 90.5938 186.516 90.5938C187.203 90.5938 187.719 90.4557 188.062 90.1797C188.411 89.8984 188.586 89.5286 188.586 89.0703ZM198.242 89.0703C198.242 88.5703 198.065 88.1849 197.711 87.9141C197.362 87.6432 196.729 87.3698 195.812 87.0938C194.896 86.8177 194.167 86.5104 193.625 86.1719C192.589 85.5208 192.07 84.6719 192.07 83.625C192.07 82.7083 192.443 81.9531 193.188 81.3594C193.938 80.7656 194.909 80.4688 196.102 80.4688C196.893 80.4688 197.599 80.6146 198.219 80.9062C198.839 81.1979 199.326 81.6146 199.68 82.1562C200.034 82.6927 200.211 83.2891 200.211 83.9453H198.242C198.242 83.3516 198.055 82.888 197.68 82.5547C197.31 82.2161 196.779 82.0469 196.086 82.0469C195.44 82.0469 194.938 82.1849 194.578 82.4609C194.224 82.737 194.047 83.1224 194.047 83.6172C194.047 84.0339 194.24 84.3828 194.625 84.6641C195.01 84.9401 195.646 85.2109 196.531 85.4766C197.417 85.737 198.128 86.0365 198.664 86.375C199.201 86.7083 199.594 87.0938 199.844 87.5312C200.094 87.9635 200.219 88.4714 200.219 89.0547C200.219 90.0026 199.854 90.7578 199.125 91.3203C198.401 91.8776 197.417 92.1562 196.172 92.1562C195.349 92.1562 194.591 92.0052 193.898 91.7031C193.211 91.3958 192.674 90.974 192.289 90.4375C191.909 89.901 191.719 89.276 191.719 88.5625H193.695C193.695 89.2083 193.909 89.7083 194.336 90.0625C194.763 90.4167 195.375 90.5938 196.172 90.5938C196.859 90.5938 197.375 90.4557 197.719 90.1797C198.068 89.8984 198.242 89.5286 198.242 89.0703ZM212.305 89.3516H207.898L206.977 92H204.922L209.219 80.625H210.992L215.297 92H213.234L212.305 89.3516ZM208.453 87.7578H211.75L210.102 83.0391L208.453 87.7578ZM220.508 84.7344L222.898 80.625H225.18L221.742 86.2656L225.258 92H222.953L220.508 87.8281L218.055 92H215.758L219.281 86.2656L215.836 80.625H218.117L220.508 84.7344ZM228.805 92H226.836V80.625H228.805V92ZM237.18 89.0703C237.18 88.5703 237.003 88.1849 236.648 87.9141C236.299 87.6432 235.667 87.3698 234.75 87.0938C233.833 86.8177 233.104 86.5104 232.562 86.1719C231.526 85.5208 231.008 84.6719 231.008 83.625C231.008 82.7083 231.38 81.9531 232.125 81.3594C232.875 80.7656 233.846 80.4688 235.039 80.4688C235.831 80.4688 236.536 80.6146 237.156 80.9062C237.776 81.1979 238.263 81.6146 238.617 82.1562C238.971 82.6927 239.148 83.2891 239.148 83.9453H237.18C237.18 83.3516 236.992 82.888 236.617 82.5547C236.247 82.2161 235.716 82.0469 235.023 82.0469C234.378 82.0469 233.875 82.1849 233.516 82.4609C233.161 82.737 232.984 83.1224 232.984 83.6172C232.984 84.0339 233.177 84.3828 233.562 84.6641C233.948 84.9401 234.583 85.2109 235.469 85.4766C236.354 85.737 237.065 86.0365 237.602 86.375C238.138 86.7083 238.531 87.0938 238.781 87.5312C239.031 87.9635 239.156 88.4714 239.156 89.0547C239.156 90.0026 238.792 90.7578 238.062 91.3203C237.339 91.8776 236.354 92.1562 235.109 92.1562C234.286 92.1562 233.529 92.0052 232.836 91.7031C232.148 91.3958 231.612 90.974 231.227 90.4375C230.846 89.901 230.656 89.276 230.656 88.5625H232.633C232.633 89.2083 232.846 89.7083 233.273 90.0625C233.701 90.4167 234.312 90.5938 235.109 90.5938C235.797 90.5938 236.312 90.4557 236.656 90.1797C237.005 89.8984 237.18 89.5286 237.18 89.0703Z" fill="#FFA600"/>
<path d="M18.7188 184.625L22 193.344L25.2734 184.625H27.8281V196H25.8594V192.25L26.0547 187.234L22.6953 196H21.2812L17.9297 187.242L18.125 192.25V196H16.1562V184.625H18.7188ZM36.6797 193.352H32.2734L31.3516 196H29.2969L33.5938 184.625H35.3672L39.6719 196H37.6094L36.6797 193.352ZM32.8281 191.758H36.125L34.4766 187.039L32.8281 191.758ZM43.0547 196H41.0859V184.625H43.0547V196ZM54.5078 196H52.5312L47.4609 187.93V196H45.4844V184.625H47.4609L52.5469 192.727V184.625H54.5078V196ZM67.1953 193.352H62.7891L61.8672 196H59.8125L64.1094 184.625H65.8828L70.1875 196H68.125L67.1953 193.352ZM63.3438 191.758H66.6406L64.9922 187.039L63.3438 191.758ZM75.3984 188.734L77.7891 184.625H80.0703L76.6328 190.266L80.1484 196H77.8438L75.3984 191.828L72.9453 196H70.6484L74.1719 190.266L70.7266 184.625H73.0078L75.3984 188.734ZM83.6953 196H81.7266V184.625H83.6953V196ZM92.0703 193.07C92.0703 192.57 91.8932 192.185 91.5391 191.914C91.1901 191.643 90.5573 191.37 89.6406 191.094C88.724 190.818 87.9948 190.51 87.4531 190.172C86.4167 189.521 85.8984 188.672 85.8984 187.625C85.8984 186.708 86.2708 185.953 87.0156 185.359C87.7656 184.766 88.737 184.469 89.9297 184.469C90.7214 184.469 91.4271 184.615 92.0469 184.906C92.6667 185.198 93.1536 185.615 93.5078 186.156C93.862 186.693 94.0391 187.289 94.0391 187.945H92.0703C92.0703 187.352 91.8828 186.888 91.5078 186.555C91.138 186.216 90.6068 186.047 89.9141 186.047C89.2682 186.047 88.7656 186.185 88.4062 186.461C88.0521 186.737 87.875 187.122 87.875 187.617C87.875 188.034 88.0677 188.383 88.4531 188.664C88.8385 188.94 89.474 189.211 90.3594 189.477C91.2448 189.737 91.9557 190.036 92.4922 190.375C93.0286 190.708 93.4219 191.094 93.6719 191.531C93.9219 191.964 94.0469 192.471 94.0469 193.055C94.0469 194.003 93.6823 194.758 92.9531 195.32C92.2292 195.878 91.2448 196.156 90 196.156C89.1771 196.156 88.4193 196.005 87.7266 195.703C87.0391 195.396 86.5026 194.974 86.1172 194.438C85.737 193.901 85.5469 193.276 85.5469 192.562H87.5234C87.5234 193.208 87.737 193.708 88.1641 194.062C88.5911 194.417 89.2031 194.594 90 194.594C90.6875 194.594 91.2031 194.456 91.5469 194.18C91.8958 193.898 92.0703 193.529 92.0703 193.07Z" fill="#F95D6A"/>
<rect width="300" height="36.1029" fill="#DEEFFF"/>
<path d="M130.936 14.2656C130.608 14.2109 130.253 14.1836 129.87 14.1836C128.448 14.1836 127.483 14.7891 126.975 16V25H124.807V12.3203H126.917L126.952 13.7852C127.663 12.6523 128.671 12.0859 129.975 12.0859C130.397 12.0859 130.718 12.1406 130.936 12.25V14.2656ZM132.132 18.543C132.132 17.3008 132.374 16.1836 132.858 15.1914C133.35 14.1992 134.03 13.4336 134.897 12.8945C135.772 12.3555 136.768 12.0859 137.885 12.0859C139.612 12.0859 141.007 12.6836 142.069 13.8789C143.139 15.0742 143.675 16.6641 143.675 18.6484V18.8008C143.675 20.0352 143.436 21.1445 142.96 22.1289C142.491 23.1055 141.815 23.8672 140.932 24.4141C140.057 24.9609 139.05 25.2344 137.909 25.2344C136.19 25.2344 134.796 24.6367 133.725 23.4414C132.663 22.2461 132.132 20.6641 132.132 18.6953V18.543ZM134.311 18.8008C134.311 20.207 134.635 21.3359 135.284 22.1875C135.94 23.0391 136.815 23.4648 137.909 23.4648C139.01 23.4648 139.885 23.0352 140.534 22.1758C141.182 21.3086 141.507 20.0977 141.507 18.543C141.507 17.1523 141.175 16.0273 140.51 15.168C139.854 14.3008 138.979 13.8672 137.885 13.8672C136.815 13.8672 135.952 14.293 135.296 15.1445C134.639 15.9961 134.311 17.2148 134.311 18.8008ZM157.62 22.0117L160.057 12.3203H162.225L158.534 25H156.776L153.694 15.3906L150.694 25H148.936L145.257 12.3203H147.413L149.909 21.8125L152.862 12.3203H154.608L157.62 22.0117Z" fill="#212121"/>
<rect x="0.5" y="300.5" width="299" height="69" stroke="#212121" stroke-dasharray="5 5"/>
<rect x="5" y="305" width="60" height="60" fill="#159A6B"/>
<rect x="70" y="305" width="60" height="60" fill="#128279"/>
<rect x="135" y="305" width="60" height="60" fill="#0B5A72"/>
<path d="M36.3057 343H34.1865V328.952L29.9368 330.513V328.599L35.9753 326.332H36.3057V343Z" fill="white"/>
<path d="M102.248 343H91.3786V341.485L97.1208 335.104C97.9715 334.14 98.5563 333.358 98.8753 332.757C99.2019 332.15 99.3652 331.523 99.3652 330.878C99.3652 330.012 99.1032 329.302 98.5791 328.747C98.055 328.193 97.3562 327.915 96.4827 327.915C95.4346 327.915 94.6181 328.215 94.0332 328.815C93.4559 329.408 93.1673 330.236 93.1673 331.299H91.0596C91.0596 329.772 91.5495 328.538 92.5293 327.596C93.5167 326.655 94.8345 326.184 96.4827 326.184C98.0246 326.184 99.2437 326.59 100.14 327.403C101.036 328.208 101.484 329.283 101.484 330.627C101.484 332.26 100.444 334.204 98.3626 336.46L93.9193 341.28H102.248V343Z" fill="white"/>
<path d="M162.443 333.68H164.027C165.022 333.665 165.804 333.403 166.374 332.894C166.944 332.385 167.229 331.698 167.229 330.832C167.229 328.888 166.26 327.915 164.323 327.915C163.412 327.915 162.683 328.177 162.136 328.701C161.596 329.218 161.327 329.905 161.327 330.764H159.219C159.219 329.45 159.698 328.36 160.655 327.494C161.619 326.62 162.842 326.184 164.323 326.184C165.888 326.184 167.115 326.598 168.003 327.425C168.892 328.253 169.336 329.404 169.336 330.878C169.336 331.599 169.101 332.298 168.63 332.974C168.167 333.65 167.532 334.155 166.727 334.489C167.639 334.778 168.341 335.256 168.835 335.925C169.336 336.593 169.587 337.41 169.587 338.374C169.587 339.863 169.101 341.044 168.129 341.918C167.156 342.791 165.892 343.228 164.335 343.228C162.778 343.228 161.509 342.806 160.529 341.963C159.557 341.12 159.071 340.007 159.071 338.625H161.19C161.19 339.498 161.475 340.197 162.045 340.721C162.614 341.245 163.378 341.507 164.335 341.507C165.352 341.507 166.131 341.242 166.67 340.71C167.21 340.178 167.479 339.415 167.479 338.42C167.479 337.455 167.183 336.715 166.59 336.198C165.998 335.682 165.144 335.416 164.027 335.401H162.443V333.68Z" fill="white"/>
</svg>
