<svg width="600" height="295" viewBox="0 0 600 295" fill="none" xmlns="http://www.w3.org/2000/svg">
<rect x="0.5" y="26.5" width="599" height="129" rx="2.5" stroke="#212121" stroke-dasharray="5 5"/>
<rect x="15" y="41" width="100" height="100" rx="3" fill="#159A6B"/>
<rect x="117" y="41" width="100" height="100" rx="3" fill="#128279"/>
<rect x="219" y="41" width="100" height="100" rx="3" fill="#0B5A72"/>
<path d="M66.8145 102H63.5449V80.3262L56.9883 82.7344V79.7812L66.3047 76.2832H66.8145V102Z" fill="white"/>
<path d="M174.896 102H158.127V99.6621L166.986 89.8184C168.299 88.3301 169.201 87.123 169.693 86.1973C170.197 85.2598 170.449 84.293 170.449 83.2969C170.449 81.9609 170.045 80.8652 169.236 80.0098C168.428 79.1543 167.35 78.7266 166.002 78.7266C164.385 78.7266 163.125 79.1895 162.223 80.1152C161.332 81.0293 160.887 82.3066 160.887 83.9473H157.635C157.635 81.5918 158.391 79.6875 159.902 78.2344C161.426 76.7812 163.459 76.0547 166.002 76.0547C168.381 76.0547 170.262 76.6816 171.645 77.9355C173.027 79.1777 173.719 80.8359 173.719 82.9102C173.719 85.4297 172.113 88.4297 168.902 91.9102L162.047 99.3457H174.896V102Z" fill="white"/>
<path d="M264.855 87.6211H267.299C268.834 87.5977 270.041 87.1934 270.92 86.4082C271.799 85.623 272.238 84.5625 272.238 83.2266C272.238 80.2266 270.744 78.7266 267.756 78.7266C266.35 78.7266 265.225 79.1309 264.381 79.9395C263.549 80.7363 263.133 81.7969 263.133 83.1211H259.881C259.881 81.0938 260.619 79.4121 262.096 78.0762C263.584 76.7285 265.471 76.0547 267.756 76.0547C270.17 76.0547 272.062 76.6934 273.434 77.9707C274.805 79.248 275.49 81.0234 275.49 83.2969C275.49 84.4102 275.127 85.4883 274.4 86.5312C273.686 87.5742 272.707 88.3535 271.465 88.8691C272.871 89.3145 273.955 90.0527 274.717 91.084C275.49 92.1152 275.877 93.375 275.877 94.8633C275.877 97.1602 275.127 98.9824 273.627 100.33C272.127 101.678 270.176 102.352 267.773 102.352C265.371 102.352 263.414 101.701 261.902 100.4C260.402 99.0996 259.652 97.3828 259.652 95.25H262.922C262.922 96.5977 263.361 97.6758 264.24 98.4844C265.119 99.293 266.297 99.6973 267.773 99.6973C269.344 99.6973 270.545 99.2871 271.377 98.4668C272.209 97.6465 272.625 96.4688 272.625 94.9336C272.625 93.4453 272.168 92.3027 271.254 91.5059C270.34 90.709 269.021 90.2988 267.299 90.2754H264.855V87.6211Z" fill="white"/>
<path d="M12.114 253.352V257.366H17.352V253.352H18.936V263H17.352V258.698H12.114V263H10.53V253.352H12.114ZM30.3789 258.158C30.3789 259.754 29.9709 260.99 29.1549 261.866C28.3509 262.742 27.2589 263.18 25.8789 263.18C25.0269 263.18 24.2649 262.988 23.5929 262.604C22.9329 262.208 22.4109 261.638 22.0269 260.894C21.6429 260.138 21.4509 259.226 21.4509 258.158C21.4509 256.562 21.8529 255.332 22.6569 254.468C23.4609 253.604 24.5529 253.172 25.9329 253.172C26.8089 253.172 27.5769 253.37 28.2369 253.766C28.9089 254.15 29.4309 254.714 29.8029 255.458C30.1869 256.19 30.3789 257.09 30.3789 258.158ZM23.0889 258.158C23.0889 259.298 23.3109 260.204 23.7549 260.876C24.2109 261.536 24.9309 261.866 25.9149 261.866C26.8869 261.866 27.6009 261.536 28.0569 260.876C28.5129 260.204 28.7409 259.298 28.7409 258.158C28.7409 257.018 28.5129 256.124 28.0569 255.476C27.6009 254.828 26.8809 254.504 25.8969 254.504C24.9129 254.504 24.1989 254.828 23.7549 255.476C23.3109 256.124 23.0889 257.018 23.0889 258.158ZM40.6474 255.782C40.6474 256.382 40.4674 256.85 40.1074 257.186C39.7474 257.522 39.2854 257.75 38.7214 257.87V257.942C39.3214 258.026 39.8434 258.242 40.2874 258.59C40.7314 258.926 40.9534 259.454 40.9534 260.174C40.9534 260.99 40.6474 261.668 40.0354 262.208C39.4354 262.736 38.4394 263 37.0474 263H32.8894V253.352H37.0294C37.7134 253.352 38.3254 253.43 38.8654 253.586C39.4174 253.73 39.8494 253.982 40.1614 254.342C40.4854 254.69 40.6474 255.17 40.6474 255.782ZM39.0454 255.98C39.0454 255.524 38.8774 255.194 38.5414 254.99C38.2174 254.774 37.6834 254.666 36.9394 254.666H34.4734V257.312H36.6514C38.2474 257.312 39.0454 256.868 39.0454 255.98ZM39.3154 260.174C39.3154 259.622 39.1054 259.226 38.6854 258.986C38.2654 258.746 37.6474 258.626 36.8314 258.626H34.4734V261.722H36.8674C37.6594 261.722 38.2654 261.608 38.6854 261.38C39.1054 261.14 39.3154 260.738 39.3154 260.174ZM46.9145 253.19C48.0905 253.19 48.9605 253.448 49.5245 253.964C50.0885 254.48 50.3705 255.302 50.3705 256.43V263H49.2185L48.9125 261.632H48.8405C48.4205 262.16 47.9765 262.55 47.5085 262.802C47.0525 263.054 46.4165 263.18 45.6005 263.18C44.7245 263.18 43.9985 262.952 43.4225 262.496C42.8465 262.028 42.5585 261.302 42.5585 260.318C42.5585 259.358 42.9365 258.62 43.6925 258.104C44.4485 257.576 45.6125 257.288 47.1845 257.24L48.8225 257.186V256.61C48.8225 255.806 48.6485 255.248 48.3005 254.936C47.9525 254.624 47.4605 254.468 46.8245 254.468C46.3205 254.468 45.8405 254.546 45.3845 254.702C44.9285 254.846 44.5025 255.014 44.1065 255.206L43.6205 254.018C44.0405 253.79 44.5385 253.598 45.1145 253.442C45.6905 253.274 46.2905 253.19 46.9145 253.19ZM47.3825 258.338C46.1825 258.386 45.3485 258.578 44.8805 258.914C44.4245 259.25 44.1965 259.724 44.1965 260.336C44.1965 260.876 44.3585 261.272 44.6825 261.524C45.0185 261.776 45.4445 261.902 45.9605 261.902C46.7765 261.902 47.4545 261.68 47.9945 261.236C48.5345 260.78 48.8045 260.084 48.8045 259.148V258.284L47.3825 258.338ZM70.9363 253.352V263H57.8503V253.352H59.4343V261.668H63.5923V253.352H65.1763V261.668H69.3523V253.352H70.9363ZM75.5162 259.238C75.5162 259.382 75.5102 259.598 75.4982 259.886C75.4862 260.174 75.4682 260.462 75.4442 260.75C75.4322 261.038 75.4202 261.266 75.4082 261.434L80.5742 253.352H82.5182V263H81.0422V257.312C81.0422 257.12 81.0422 256.868 81.0422 256.556C81.0542 256.244 81.0662 255.938 81.0782 255.638C81.0902 255.326 81.1022 255.092 81.1142 254.936L75.9842 263H74.0222V253.352H75.5162V259.238ZM90.1786 253.172C91.3666 253.172 92.3206 253.586 93.0406 254.414C93.7726 255.242 94.1386 256.49 94.1386 258.158C94.1386 259.802 93.7726 261.05 93.0406 261.902C92.3206 262.754 91.3606 263.18 90.1606 263.18C89.4166 263.18 88.7986 263.042 88.3066 262.766C87.8266 262.478 87.4486 262.148 87.1726 261.776H87.0646C87.0886 261.98 87.1126 262.238 87.1366 262.55C87.1606 262.862 87.1726 263.132 87.1726 263.36V267.32H85.5886V253.352H86.8846L87.1006 254.666H87.1726C87.4606 254.246 87.8386 253.892 88.3066 253.604C88.7746 253.316 89.3986 253.172 90.1786 253.172ZM89.8906 254.504C88.9066 254.504 88.2106 254.78 87.8026 255.332C87.4066 255.884 87.1966 256.724 87.1726 257.852V258.158C87.1726 259.346 87.3646 260.264 87.7486 260.912C88.1446 261.548 88.8706 261.866 89.9266 261.866C90.5146 261.866 90.9946 261.704 91.3666 261.38C91.7506 261.056 92.0326 260.618 92.2126 260.066C92.4046 259.502 92.5006 258.86 92.5006 258.14C92.5006 257.036 92.2846 256.154 91.8526 255.494C91.4326 254.834 90.7786 254.504 89.8906 254.504ZM98.1568 259.238C98.1568 259.382 98.1508 259.598 98.1388 259.886C98.1268 260.174 98.1088 260.462 98.0848 260.75C98.0728 261.038 98.0608 261.266 98.0488 261.434L103.215 253.352H105.159V263H103.683V257.312C103.683 257.12 103.683 256.868 103.683 256.556C103.695 256.244 103.707 255.938 103.719 255.638C103.731 255.326 103.743 255.092 103.755 254.936L98.6248 263H96.6628V253.352H98.1568V259.238ZM109.813 253.352V257.366H115.051V253.352H116.635V263H115.051V258.698H109.813V263H108.229V253.352H109.813ZM123.344 253.19C124.52 253.19 125.39 253.448 125.954 253.964C126.518 254.48 126.8 255.302 126.8 256.43V263H125.648L125.342 261.632H125.27C124.85 262.16 124.406 262.55 123.938 262.802C123.482 263.054 122.846 263.18 122.03 263.18C121.154 263.18 120.428 262.952 119.852 262.496C119.276 262.028 118.988 261.302 118.988 260.318C118.988 259.358 119.366 258.62 120.122 258.104C120.878 257.576 122.042 257.288 123.614 257.24L125.252 257.186V256.61C125.252 255.806 125.078 255.248 124.73 254.936C124.382 254.624 123.89 254.468 123.254 254.468C122.75 254.468 122.27 254.546 121.814 254.702C121.358 254.846 120.932 255.014 120.536 255.206L120.05 254.018C120.47 253.79 120.968 253.598 121.544 253.442C122.12 253.274 122.72 253.19 123.344 253.19ZM123.812 258.338C122.612 258.386 121.778 258.578 121.31 258.914C120.854 259.25 120.626 259.724 120.626 260.336C120.626 260.876 120.788 261.272 121.112 261.524C121.448 261.776 121.874 261.902 122.39 261.902C123.206 261.902 123.884 261.68 124.424 261.236C124.964 260.78 125.234 260.084 125.234 259.148V258.284L123.812 258.338Z" fill="#212121"/>
<path d="M140.516 260.755V259.093H149.522V260.755H140.516ZM140.516 256.959V255.297H149.522V256.959H140.516Z" fill="#212121"/>
<path d="M221.172 234.88C220.445 234.763 219.859 234.704 219.414 234.704C218.242 234.704 217.656 235.319 217.656 236.55V237.49H219.687V238.747H217.656V247H216.03V238.747H214.527V237.49H216.03V236.453C216.036 235.439 216.32 234.663 216.883 234.124C217.445 233.585 218.245 233.315 219.282 233.315C219.874 233.315 221.046 233.494 222.798 233.852V247H221.172V234.88ZM229.407 247.176C228.118 247.176 227.069 246.754 226.261 245.91C225.452 245.061 225.048 243.927 225.048 242.509V242.21C225.048 241.267 225.227 240.426 225.584 239.688C225.947 238.943 226.451 238.363 227.096 237.947C227.746 237.525 228.449 237.314 229.205 237.314C230.441 237.314 231.402 237.722 232.088 238.536C232.773 239.351 233.116 240.517 233.116 242.034V242.711H226.674C226.697 243.648 226.97 244.407 227.491 244.987C228.019 245.562 228.687 245.849 229.495 245.849C230.069 245.849 230.556 245.731 230.954 245.497C231.353 245.263 231.701 244.952 232 244.565L232.993 245.339C232.196 246.563 231.001 247.176 229.407 247.176ZM229.205 238.65C228.549 238.65 227.998 238.891 227.553 239.371C227.107 239.846 226.832 240.514 226.727 241.375H231.49V241.252C231.443 240.426 231.221 239.787 230.822 239.336C230.424 238.879 229.885 238.65 229.205 238.65ZM238.196 240.962L240.306 237.49H242.204L239.093 242.192L242.301 247H240.42L238.223 243.44L236.025 247H234.136L237.344 242.192L234.232 237.49H236.113L238.196 240.962ZM247.319 242.228H243.03V240.9H247.319V242.228ZM248.523 242.166C248.523 240.684 248.866 239.506 249.552 238.633C250.237 237.754 251.146 237.314 252.276 237.314C253.437 237.314 254.342 237.725 254.992 238.545L255.071 237.49H256.557V246.771C256.557 248.002 256.19 248.972 255.458 249.681C254.731 250.39 253.753 250.744 252.522 250.744C251.837 250.744 251.166 250.598 250.51 250.305C249.854 250.012 249.353 249.61 249.007 249.101L249.851 248.125C250.548 248.986 251.4 249.417 252.408 249.417C253.199 249.417 253.814 249.194 254.254 248.749C254.699 248.304 254.922 247.677 254.922 246.868V246.051C254.271 246.801 253.384 247.176 252.259 247.176C251.146 247.176 250.243 246.728 249.552 245.831C248.866 244.935 248.523 243.713 248.523 242.166ZM250.158 242.351C250.158 243.423 250.378 244.267 250.817 244.882C251.257 245.491 251.872 245.796 252.663 245.796C253.688 245.796 254.441 245.33 254.922 244.398V240.057C254.424 239.148 253.677 238.694 252.681 238.694C251.89 238.694 251.271 239.002 250.826 239.617C250.381 240.232 250.158 241.144 250.158 242.351ZM263.614 238.949C263.368 238.908 263.102 238.888 262.814 238.888C261.748 238.888 261.024 239.342 260.644 240.25V247H259.018V237.49H260.6L260.626 238.589C261.159 237.739 261.915 237.314 262.894 237.314C263.21 237.314 263.45 237.355 263.614 237.438V238.949ZM264.511 242.157C264.511 241.226 264.692 240.388 265.056 239.644C265.425 238.899 265.935 238.325 266.585 237.921C267.241 237.517 267.988 237.314 268.826 237.314C270.121 237.314 271.167 237.763 271.964 238.659C272.767 239.556 273.168 240.748 273.168 242.236V242.351C273.168 243.276 272.989 244.108 272.632 244.847C272.28 245.579 271.773 246.15 271.111 246.561C270.455 246.971 269.699 247.176 268.844 247.176C267.555 247.176 266.509 246.728 265.706 245.831C264.909 244.935 264.511 243.748 264.511 242.271V242.157ZM266.146 242.351C266.146 243.405 266.389 244.252 266.875 244.891C267.367 245.529 268.023 245.849 268.844 245.849C269.67 245.849 270.326 245.526 270.812 244.882C271.299 244.231 271.542 243.323 271.542 242.157C271.542 241.114 271.293 240.271 270.795 239.626C270.303 238.976 269.646 238.65 268.826 238.65C268.023 238.65 267.376 238.97 266.884 239.608C266.392 240.247 266.146 241.161 266.146 242.351ZM283.627 244.759L285.455 237.49H287.081L284.312 247H282.994L280.683 239.793L278.433 247H277.114L274.354 237.49H275.972L277.844 244.609L280.059 237.49H281.368L283.627 244.759Z" fill="#212121"/>
<path d="M35.5781 3.57324C35.013 3.4821 34.5573 3.43652 34.2109 3.43652C33.2995 3.43652 32.8438 3.91504 32.8438 4.87207V5.60352H34.4229V6.58105H32.8438V13H31.5791V6.58105H30.4102V5.60352H31.5791V4.79688C31.5837 4.00846 31.8047 3.40462 32.2422 2.98535C32.6797 2.56608 33.3018 2.35645 34.1084 2.35645C34.5687 2.35645 35.4801 2.49544 36.8428 2.77344V13H35.5781V3.57324ZM41.9834 13.1367C40.9808 13.1367 40.165 12.8086 39.5361 12.1523C38.9072 11.4915 38.5928 10.6097 38.5928 9.50684V9.27441C38.5928 8.54069 38.7318 7.88672 39.0098 7.3125C39.2923 6.73372 39.6842 6.28255 40.1855 5.95898C40.6914 5.63086 41.2383 5.4668 41.8262 5.4668C42.7878 5.4668 43.5352 5.78353 44.0684 6.41699C44.6016 7.05046 44.8682 7.95736 44.8682 9.1377V9.66406H39.8574C39.8757 10.3932 40.0876 10.9834 40.4932 11.4346C40.9033 11.8812 41.4229 12.1045 42.0518 12.1045C42.4984 12.1045 42.8766 12.0133 43.1865 11.8311C43.4964 11.6488 43.7676 11.4072 44 11.1064L44.7725 11.708C44.1527 12.6605 43.223 13.1367 41.9834 13.1367ZM41.8262 6.50586C41.3158 6.50586 40.8874 6.69271 40.541 7.06641C40.1947 7.43555 39.9805 7.95508 39.8984 8.625H43.6035V8.5293C43.5671 7.88672 43.3939 7.38997 43.084 7.03906C42.7741 6.68359 42.3548 6.50586 41.8262 6.50586ZM48.8193 8.30371L50.46 5.60352H51.9365L49.5166 9.26074L52.0117 13H50.5488L48.8398 10.2314L47.1309 13H45.6611L48.1562 9.26074L45.7363 5.60352H47.1992L48.8193 8.30371ZM55.915 9.28809H52.5791V8.25586H55.915V9.28809ZM56.8516 9.24023C56.8516 8.08724 57.1182 7.17122 57.6514 6.49219C58.1846 5.80859 58.891 5.4668 59.7705 5.4668C60.6729 5.4668 61.377 5.78581 61.8828 6.42383L61.9443 5.60352H63.0996V12.8223C63.0996 13.7793 62.8148 14.5335 62.2451 15.085C61.68 15.6364 60.9189 15.9121 59.9619 15.9121C59.4287 15.9121 58.9069 15.7982 58.3965 15.5703C57.8861 15.3424 57.4964 15.0303 57.2275 14.6338L57.8838 13.875C58.4261 14.5449 59.0892 14.8799 59.873 14.8799C60.4883 14.8799 60.9668 14.7067 61.3086 14.3604C61.6549 14.014 61.8281 13.5264 61.8281 12.8975V12.2617C61.3223 12.8451 60.6318 13.1367 59.7568 13.1367C58.891 13.1367 58.1891 12.7881 57.6514 12.0908C57.1182 11.3936 56.8516 10.4434 56.8516 9.24023ZM58.123 9.38379C58.123 10.2178 58.2939 10.874 58.6357 11.3525C58.9775 11.8265 59.4561 12.0635 60.0713 12.0635C60.8688 12.0635 61.4544 11.7012 61.8281 10.9766V7.59961C61.4408 6.89323 60.8597 6.54004 60.085 6.54004C59.4697 6.54004 58.9889 6.7793 58.6426 7.25781C58.2962 7.73633 58.123 8.44499 58.123 9.38379ZM68.5889 6.73828C68.3975 6.70638 68.1901 6.69043 67.9668 6.69043C67.1374 6.69043 66.5745 7.04362 66.2783 7.75V13H65.0137V5.60352H66.2441L66.2646 6.45801C66.6794 5.7972 67.2673 5.4668 68.0283 5.4668C68.2744 5.4668 68.4613 5.4987 68.5889 5.5625V6.73828ZM69.2861 9.2334C69.2861 8.50879 69.4274 7.8571 69.71 7.27832C69.9971 6.69954 70.3936 6.25293 70.8994 5.93848C71.4098 5.62402 71.9909 5.4668 72.6426 5.4668C73.6497 5.4668 74.4632 5.81543 75.083 6.5127C75.7074 7.20996 76.0195 8.13737 76.0195 9.29492V9.38379C76.0195 10.1038 75.8805 10.751 75.6025 11.3252C75.3291 11.8949 74.9349 12.3392 74.4199 12.6582C73.9095 12.9772 73.3216 13.1367 72.6562 13.1367C71.6536 13.1367 70.8402 12.7881 70.2158 12.0908C69.596 11.3936 69.2861 10.4707 69.2861 9.32227V9.2334ZM70.5576 9.38379C70.5576 10.2041 70.7467 10.8626 71.125 11.3594C71.5078 11.8561 72.0182 12.1045 72.6562 12.1045C73.2988 12.1045 73.8092 11.8538 74.1875 11.3525C74.5658 10.8467 74.7549 10.1403 74.7549 9.2334C74.7549 8.4222 74.5612 7.76595 74.1738 7.26465C73.791 6.75879 73.2806 6.50586 72.6426 6.50586C72.0182 6.50586 71.5146 6.75423 71.1318 7.25098C70.749 7.74772 70.5576 8.45866 70.5576 9.38379ZM84.1543 11.2568L85.5762 5.60352H86.8408L84.6875 13H83.6621L81.8643 7.39453L80.1143 13H79.0889L76.9424 5.60352H78.2002L79.6562 11.1406L81.3789 5.60352H82.3975L84.1543 11.2568ZM88.0918 12.3369C88.0918 12.1182 88.1556 11.9359 88.2832 11.79C88.4154 11.6442 88.6113 11.5713 88.8711 11.5713C89.1309 11.5713 89.3268 11.6442 89.459 11.79C89.5957 11.9359 89.6641 12.1182 89.6641 12.3369C89.6641 12.5465 89.5957 12.722 89.459 12.8633C89.3268 13.0046 89.1309 13.0752 88.8711 13.0752C88.6113 13.0752 88.4154 13.0046 88.2832 12.8633C88.1556 12.722 88.0918 12.5465 88.0918 12.3369ZM88.0986 6.30078C88.0986 6.08203 88.1624 5.89974 88.29 5.75391C88.4222 5.60807 88.6182 5.53516 88.8779 5.53516C89.1377 5.53516 89.3337 5.60807 89.4658 5.75391C89.6025 5.89974 89.6709 6.08203 89.6709 6.30078C89.6709 6.51042 89.6025 6.68587 89.4658 6.82715C89.3337 6.96842 89.1377 7.03906 88.8779 7.03906C88.6182 7.03906 88.4222 6.96842 88.29 6.82715C88.1624 6.68587 88.0986 6.51042 88.0986 6.30078ZM101.107 8.75488C101.107 10.236 100.854 11.3366 100.349 12.0566C99.8428 12.7767 99.0521 13.1367 97.9766 13.1367C96.9147 13.1367 96.1286 12.7858 95.6182 12.084C95.1077 11.3776 94.8434 10.3249 94.8252 8.92578V7.2373C94.8252 5.77441 95.0781 4.6875 95.584 3.97656C96.0898 3.26562 96.8828 2.91016 97.9629 2.91016C99.0339 2.91016 99.8223 3.25423 100.328 3.94238C100.834 4.62598 101.094 5.68327 101.107 7.11426V8.75488ZM99.8428 7.02539C99.8428 5.95443 99.6924 5.17513 99.3916 4.6875C99.0908 4.19531 98.6146 3.94922 97.9629 3.94922C97.3158 3.94922 96.8441 4.19303 96.5479 4.68066C96.2516 5.16829 96.099 5.91797 96.0898 6.92969V8.95312C96.0898 10.0286 96.2448 10.8239 96.5547 11.3389C96.8691 11.8493 97.3431 12.1045 97.9766 12.1045C98.6009 12.1045 99.0635 11.863 99.3643 11.3799C99.6696 10.8968 99.8291 10.1357 99.8428 9.09668V7.02539ZM102.659 6.30078C102.659 6.08203 102.723 5.89974 102.851 5.75391C102.983 5.60807 103.179 5.53516 103.438 5.53516C103.698 5.53516 103.894 5.60807 104.026 5.75391C104.163 5.89974 104.231 6.08203 104.231 6.30078C104.231 6.51042 104.163 6.68587 104.026 6.82715C103.894 6.96842 103.698 7.03906 103.438 7.03906C103.179 7.03906 102.983 6.96842 102.851 6.82715C102.723 6.68587 102.659 6.51042 102.659 6.30078ZM102.898 14.9824L102.181 14.4902C102.609 13.8932 102.832 13.278 102.851 12.6445V11.5029H104.088V12.4941C104.088 12.9544 103.974 13.4147 103.746 13.875C103.523 14.3353 103.24 14.7044 102.898 14.9824Z" fill="#212121"/>
<path d="M49.9834 178H48.7119V169.571L46.1621 170.508V169.359L49.7852 167.999H49.9834V178ZM59.9297 173.755C59.9297 175.236 59.6768 176.337 59.1709 177.057C58.665 177.777 57.8743 178.137 56.7988 178.137C55.737 178.137 54.9508 177.786 54.4404 177.084C53.93 176.378 53.6657 175.325 53.6475 173.926V172.237C53.6475 170.774 53.9004 169.688 54.4062 168.977C54.9121 168.266 55.7051 167.91 56.7852 167.91C57.8561 167.91 58.6445 168.254 59.1504 168.942C59.6562 169.626 59.916 170.683 59.9297 172.114V173.755ZM58.665 172.025C58.665 170.954 58.5146 170.175 58.2139 169.688C57.9131 169.195 57.4368 168.949 56.7852 168.949C56.138 168.949 55.6663 169.193 55.3701 169.681C55.0739 170.168 54.9212 170.918 54.9121 171.93V173.953C54.9121 175.029 55.0671 175.824 55.377 176.339C55.6914 176.849 56.1654 177.104 56.7988 177.104C57.4232 177.104 57.8857 176.863 58.1865 176.38C58.4919 175.897 58.6514 175.136 58.665 174.097V172.025ZM67.791 173.755C67.791 175.236 67.5381 176.337 67.0322 177.057C66.5264 177.777 65.7357 178.137 64.6602 178.137C63.5983 178.137 62.8122 177.786 62.3018 177.084C61.7913 176.378 61.527 175.325 61.5088 173.926V172.237C61.5088 170.774 61.7617 169.688 62.2676 168.977C62.7734 168.266 63.5664 167.91 64.6465 167.91C65.7174 167.91 66.5059 168.254 67.0117 168.942C67.5176 169.626 67.7773 170.683 67.791 172.114V173.755ZM66.5264 172.025C66.5264 170.954 66.376 170.175 66.0752 169.688C65.7744 169.195 65.2982 168.949 64.6465 168.949C63.9993 168.949 63.5277 169.193 63.2314 169.681C62.9352 170.168 62.7826 170.918 62.7734 171.93V173.953C62.7734 175.029 62.9284 175.824 63.2383 176.339C63.5527 176.849 64.0267 177.104 64.6602 177.104C65.2845 177.104 65.7471 176.863 66.0479 176.38C66.3532 175.897 66.5127 175.136 66.5264 174.097V172.025ZM75.7891 174.384C75.7891 175.509 75.5316 176.416 75.0166 177.104C74.5016 177.793 73.8044 178.137 72.9248 178.137C72.027 178.137 71.3206 177.852 70.8057 177.282V180.844H69.541V170.604H70.6963L70.7578 171.424C71.2728 170.786 71.9883 170.467 72.9043 170.467C73.793 170.467 74.4948 170.802 75.0098 171.472C75.5293 172.142 75.7891 173.074 75.7891 174.268V174.384ZM74.5244 174.24C74.5244 173.406 74.3467 172.748 73.9912 172.265C73.6357 171.782 73.1481 171.54 72.5283 171.54C71.7627 171.54 71.1885 171.88 70.8057 172.559V176.093C71.1839 176.767 71.7627 177.104 72.542 177.104C73.1481 177.104 73.6289 176.865 73.9844 176.387C74.3444 175.904 74.5244 175.188 74.5244 174.24ZM79.7744 173.304L81.415 170.604H82.8916L80.4717 174.261L82.9668 178H81.5039L79.7949 175.231L78.0859 178H76.6162L79.1113 174.261L76.6914 170.604H78.1543L79.7744 173.304Z" fill="#212121"/>
<path d="M136.578 4.57324C136.013 4.4821 135.557 4.43652 135.211 4.43652C134.299 4.43652 133.844 4.91504 133.844 5.87207V6.60352H135.423V7.58105H133.844V14H132.579V7.58105H131.41V6.60352H132.579V5.79688C132.584 5.00846 132.805 4.40462 133.242 3.98535C133.68 3.56608 134.302 3.35645 135.108 3.35645C135.569 3.35645 136.48 3.49544 137.843 3.77344V14H136.578V4.57324ZM142.983 14.1367C141.981 14.1367 141.165 13.8086 140.536 13.1523C139.907 12.4915 139.593 11.6097 139.593 10.5068V10.2744C139.593 9.54069 139.732 8.88672 140.01 8.3125C140.292 7.73372 140.684 7.28255 141.186 6.95898C141.691 6.63086 142.238 6.4668 142.826 6.4668C143.788 6.4668 144.535 6.78353 145.068 7.41699C145.602 8.05046 145.868 8.95736 145.868 10.1377V10.6641H140.857C140.876 11.3932 141.088 11.9834 141.493 12.4346C141.903 12.8812 142.423 13.1045 143.052 13.1045C143.498 13.1045 143.877 13.0133 144.187 12.8311C144.496 12.6488 144.768 12.4072 145 12.1064L145.772 12.708C145.153 13.6605 144.223 14.1367 142.983 14.1367ZM142.826 7.50586C142.316 7.50586 141.887 7.69271 141.541 8.06641C141.195 8.43555 140.98 8.95508 140.898 9.625H144.604V9.5293C144.567 8.88672 144.394 8.38997 144.084 8.03906C143.774 7.68359 143.355 7.50586 142.826 7.50586ZM149.819 9.30371L151.46 6.60352H152.937L150.517 10.2607L153.012 14H151.549L149.84 11.2314L148.131 14H146.661L149.156 10.2607L146.736 6.60352H148.199L149.819 9.30371ZM156.915 10.2881H153.579V9.25586H156.915V10.2881ZM157.852 10.2402C157.852 9.08724 158.118 8.17122 158.651 7.49219C159.185 6.80859 159.891 6.4668 160.771 6.4668C161.673 6.4668 162.377 6.78581 162.883 7.42383L162.944 6.60352H164.1V13.8223C164.1 14.7793 163.815 15.5335 163.245 16.085C162.68 16.6364 161.919 16.9121 160.962 16.9121C160.429 16.9121 159.907 16.7982 159.396 16.5703C158.886 16.3424 158.496 16.0303 158.228 15.6338L158.884 14.875C159.426 15.5449 160.089 15.8799 160.873 15.8799C161.488 15.8799 161.967 15.7067 162.309 15.3604C162.655 15.014 162.828 14.5264 162.828 13.8975V13.2617C162.322 13.8451 161.632 14.1367 160.757 14.1367C159.891 14.1367 159.189 13.7881 158.651 13.0908C158.118 12.3936 157.852 11.4434 157.852 10.2402ZM159.123 10.3838C159.123 11.2178 159.294 11.874 159.636 12.3525C159.978 12.8265 160.456 13.0635 161.071 13.0635C161.869 13.0635 162.454 12.7012 162.828 11.9766V8.59961C162.441 7.89323 161.86 7.54004 161.085 7.54004C160.47 7.54004 159.989 7.7793 159.643 8.25781C159.296 8.73633 159.123 9.44499 159.123 10.3838ZM169.589 7.73828C169.397 7.70638 169.19 7.69043 168.967 7.69043C168.137 7.69043 167.575 8.04362 167.278 8.75V14H166.014V6.60352H167.244L167.265 7.45801C167.679 6.7972 168.267 6.4668 169.028 6.4668C169.274 6.4668 169.461 6.4987 169.589 6.5625V7.73828ZM170.286 10.2334C170.286 9.50879 170.427 8.8571 170.71 8.27832C170.997 7.69954 171.394 7.25293 171.899 6.93848C172.41 6.62402 172.991 6.4668 173.643 6.4668C174.65 6.4668 175.463 6.81543 176.083 7.5127C176.707 8.20996 177.02 9.13737 177.02 10.2949V10.3838C177.02 11.1038 176.881 11.751 176.603 12.3252C176.329 12.8949 175.935 13.3392 175.42 13.6582C174.91 13.9772 174.322 14.1367 173.656 14.1367C172.654 14.1367 171.84 13.7881 171.216 13.0908C170.596 12.3936 170.286 11.4707 170.286 10.3223V10.2334ZM171.558 10.3838C171.558 11.2041 171.747 11.8626 172.125 12.3594C172.508 12.8561 173.018 13.1045 173.656 13.1045C174.299 13.1045 174.809 12.8538 175.188 12.3525C175.566 11.8467 175.755 11.1403 175.755 10.2334C175.755 9.4222 175.561 8.76595 175.174 8.26465C174.791 7.75879 174.281 7.50586 173.643 7.50586C173.018 7.50586 172.515 7.75423 172.132 8.25098C171.749 8.74772 171.558 9.45866 171.558 10.3838ZM185.154 12.2568L186.576 6.60352H187.841L185.688 14H184.662L182.864 8.39453L181.114 14H180.089L177.942 6.60352H179.2L180.656 12.1406L182.379 6.60352H183.397L185.154 12.2568ZM189.092 13.3369C189.092 13.1182 189.156 12.9359 189.283 12.79C189.415 12.6442 189.611 12.5713 189.871 12.5713C190.131 12.5713 190.327 12.6442 190.459 12.79C190.596 12.9359 190.664 13.1182 190.664 13.3369C190.664 13.5465 190.596 13.722 190.459 13.8633C190.327 14.0046 190.131 14.0752 189.871 14.0752C189.611 14.0752 189.415 14.0046 189.283 13.8633C189.156 13.722 189.092 13.5465 189.092 13.3369ZM189.099 7.30078C189.099 7.08203 189.162 6.89974 189.29 6.75391C189.422 6.60807 189.618 6.53516 189.878 6.53516C190.138 6.53516 190.334 6.60807 190.466 6.75391C190.603 6.89974 190.671 7.08203 190.671 7.30078C190.671 7.51042 190.603 7.68587 190.466 7.82715C190.334 7.96842 190.138 8.03906 189.878 8.03906C189.618 8.03906 189.422 7.96842 189.29 7.82715C189.162 7.68587 189.099 7.51042 189.099 7.30078ZM202.107 9.75488C202.107 11.236 201.854 12.3366 201.349 13.0566C200.843 13.7767 200.052 14.1367 198.977 14.1367C197.915 14.1367 197.129 13.7858 196.618 13.084C196.108 12.3776 195.843 11.3249 195.825 9.92578V8.2373C195.825 6.77441 196.078 5.6875 196.584 4.97656C197.09 4.26562 197.883 3.91016 198.963 3.91016C200.034 3.91016 200.822 4.25423 201.328 4.94238C201.834 5.62598 202.094 6.68327 202.107 8.11426V9.75488ZM200.843 8.02539C200.843 6.95443 200.692 6.17513 200.392 5.6875C200.091 5.19531 199.615 4.94922 198.963 4.94922C198.316 4.94922 197.844 5.19303 197.548 5.68066C197.252 6.16829 197.099 6.91797 197.09 7.92969V9.95312C197.09 11.0286 197.245 11.8239 197.555 12.3389C197.869 12.8493 198.343 13.1045 198.977 13.1045C199.601 13.1045 200.063 12.863 200.364 12.3799C200.67 11.8968 200.829 11.1357 200.843 10.0967V8.02539ZM203.659 7.30078C203.659 7.08203 203.723 6.89974 203.851 6.75391C203.983 6.60807 204.179 6.53516 204.438 6.53516C204.698 6.53516 204.894 6.60807 205.026 6.75391C205.163 6.89974 205.231 7.08203 205.231 7.30078C205.231 7.51042 205.163 7.68587 205.026 7.82715C204.894 7.96842 204.698 8.03906 204.438 8.03906C204.179 8.03906 203.983 7.96842 203.851 7.82715C203.723 7.68587 203.659 7.51042 203.659 7.30078ZM203.898 15.9824L203.181 15.4902C203.609 14.8932 203.832 14.278 203.851 13.6445V12.5029H205.088V13.4941C205.088 13.9544 204.974 14.4147 204.746 14.875C204.523 15.3353 204.24 15.7044 203.898 15.9824Z" fill="#212121"/>
<path d="M136.578 4.57324C136.013 4.4821 135.557 4.43652 135.211 4.43652C134.299 4.43652 133.844 4.91504 133.844 5.87207V6.60352H135.423V7.58105H133.844V14H132.579V7.58105H131.41V6.60352H132.579V5.79688C132.584 5.00846 132.805 4.40462 133.242 3.98535C133.68 3.56608 134.302 3.35645 135.108 3.35645C135.569 3.35645 136.48 3.49544 137.843 3.77344V14H136.578V4.57324ZM142.983 14.1367C141.981 14.1367 141.165 13.8086 140.536 13.1523C139.907 12.4915 139.593 11.6097 139.593 10.5068V10.2744C139.593 9.54069 139.732 8.88672 140.01 8.3125C140.292 7.73372 140.684 7.28255 141.186 6.95898C141.691 6.63086 142.238 6.4668 142.826 6.4668C143.788 6.4668 144.535 6.78353 145.068 7.41699C145.602 8.05046 145.868 8.95736 145.868 10.1377V10.6641H140.857C140.876 11.3932 141.088 11.9834 141.493 12.4346C141.903 12.8812 142.423 13.1045 143.052 13.1045C143.498 13.1045 143.877 13.0133 144.187 12.8311C144.496 12.6488 144.768 12.4072 145 12.1064L145.772 12.708C145.153 13.6605 144.223 14.1367 142.983 14.1367ZM142.826 7.50586C142.316 7.50586 141.887 7.69271 141.541 8.06641C141.195 8.43555 140.98 8.95508 140.898 9.625H144.604V9.5293C144.567 8.88672 144.394 8.38997 144.084 8.03906C143.774 7.68359 143.355 7.50586 142.826 7.50586ZM149.819 9.30371L151.46 6.60352H152.937L150.517 10.2607L153.012 14H151.549L149.84 11.2314L148.131 14H146.661L149.156 10.2607L146.736 6.60352H148.199L149.819 9.30371ZM156.915 10.2881H153.579V9.25586H156.915V10.2881ZM157.852 10.2402C157.852 9.08724 158.118 8.17122 158.651 7.49219C159.185 6.80859 159.891 6.4668 160.771 6.4668C161.673 6.4668 162.377 6.78581 162.883 7.42383L162.944 6.60352H164.1V13.8223C164.1 14.7793 163.815 15.5335 163.245 16.085C162.68 16.6364 161.919 16.9121 160.962 16.9121C160.429 16.9121 159.907 16.7982 159.396 16.5703C158.886 16.3424 158.496 16.0303 158.228 15.6338L158.884 14.875C159.426 15.5449 160.089 15.8799 160.873 15.8799C161.488 15.8799 161.967 15.7067 162.309 15.3604C162.655 15.014 162.828 14.5264 162.828 13.8975V13.2617C162.322 13.8451 161.632 14.1367 160.757 14.1367C159.891 14.1367 159.189 13.7881 158.651 13.0908C158.118 12.3936 157.852 11.4434 157.852 10.2402ZM159.123 10.3838C159.123 11.2178 159.294 11.874 159.636 12.3525C159.978 12.8265 160.456 13.0635 161.071 13.0635C161.869 13.0635 162.454 12.7012 162.828 11.9766V8.59961C162.441 7.89323 161.86 7.54004 161.085 7.54004C160.47 7.54004 159.989 7.7793 159.643 8.25781C159.296 8.73633 159.123 9.44499 159.123 10.3838ZM169.589 7.73828C169.397 7.70638 169.19 7.69043 168.967 7.69043C168.137 7.69043 167.575 8.04362 167.278 8.75V14H166.014V6.60352H167.244L167.265 7.45801C167.679 6.7972 168.267 6.4668 169.028 6.4668C169.274 6.4668 169.461 6.4987 169.589 6.5625V7.73828ZM170.286 10.2334C170.286 9.50879 170.427 8.8571 170.71 8.27832C170.997 7.69954 171.394 7.25293 171.899 6.93848C172.41 6.62402 172.991 6.4668 173.643 6.4668C174.65 6.4668 175.463 6.81543 176.083 7.5127C176.707 8.20996 177.02 9.13737 177.02 10.2949V10.3838C177.02 11.1038 176.881 11.751 176.603 12.3252C176.329 12.8949 175.935 13.3392 175.42 13.6582C174.91 13.9772 174.322 14.1367 173.656 14.1367C172.654 14.1367 171.84 13.7881 171.216 13.0908C170.596 12.3936 170.286 11.4707 170.286 10.3223V10.2334ZM171.558 10.3838C171.558 11.2041 171.747 11.8626 172.125 12.3594C172.508 12.8561 173.018 13.1045 173.656 13.1045C174.299 13.1045 174.809 12.8538 175.188 12.3525C175.566 11.8467 175.755 11.1403 175.755 10.2334C175.755 9.4222 175.561 8.76595 175.174 8.26465C174.791 7.75879 174.281 7.50586 173.643 7.50586C173.018 7.50586 172.515 7.75423 172.132 8.25098C171.749 8.74772 171.558 9.45866 171.558 10.3838ZM185.154 12.2568L186.576 6.60352H187.841L185.688 14H184.662L182.864 8.39453L181.114 14H180.089L177.942 6.60352H179.2L180.656 12.1406L182.379 6.60352H183.397L185.154 12.2568ZM189.092 13.3369C189.092 13.1182 189.156 12.9359 189.283 12.79C189.415 12.6442 189.611 12.5713 189.871 12.5713C190.131 12.5713 190.327 12.6442 190.459 12.79C190.596 12.9359 190.664 13.1182 190.664 13.3369C190.664 13.5465 190.596 13.722 190.459 13.8633C190.327 14.0046 190.131 14.0752 189.871 14.0752C189.611 14.0752 189.415 14.0046 189.283 13.8633C189.156 13.722 189.092 13.5465 189.092 13.3369ZM189.099 7.30078C189.099 7.08203 189.162 6.89974 189.29 6.75391C189.422 6.60807 189.618 6.53516 189.878 6.53516C190.138 6.53516 190.334 6.60807 190.466 6.75391C190.603 6.89974 190.671 7.08203 190.671 7.30078C190.671 7.51042 190.603 7.68587 190.466 7.82715C190.334 7.96842 190.138 8.03906 189.878 8.03906C189.618 8.03906 189.422 7.96842 189.29 7.82715C189.162 7.68587 189.099 7.51042 189.099 7.30078ZM202.107 9.75488C202.107 11.236 201.854 12.3366 201.349 13.0566C200.843 13.7767 200.052 14.1367 198.977 14.1367C197.915 14.1367 197.129 13.7858 196.618 13.084C196.108 12.3776 195.843 11.3249 195.825 9.92578V8.2373C195.825 6.77441 196.078 5.6875 196.584 4.97656C197.09 4.26562 197.883 3.91016 198.963 3.91016C200.034 3.91016 200.822 4.25423 201.328 4.94238C201.834 5.62598 202.094 6.68327 202.107 8.11426V9.75488ZM200.843 8.02539C200.843 6.95443 200.692 6.17513 200.392 5.6875C200.091 5.19531 199.615 4.94922 198.963 4.94922C198.316 4.94922 197.844 5.19303 197.548 5.68066C197.252 6.16829 197.099 6.91797 197.09 7.92969V9.95312C197.09 11.0286 197.245 11.8239 197.555 12.3389C197.869 12.8493 198.343 13.1045 198.977 13.1045C199.601 13.1045 200.063 12.863 200.364 12.3799C200.67 11.8968 200.829 11.1357 200.843 10.0967V8.02539ZM203.659 7.30078C203.659 7.08203 203.723 6.89974 203.851 6.75391C203.983 6.60807 204.179 6.53516 204.438 6.53516C204.698 6.53516 204.894 6.60807 205.026 6.75391C205.163 6.89974 205.231 7.08203 205.231 7.30078C205.231 7.51042 205.163 7.68587 205.026 7.82715C204.894 7.96842 204.698 8.03906 204.438 8.03906C204.179 8.03906 203.983 7.96842 203.851 7.82715C203.723 7.68587 203.659 7.51042 203.659 7.30078ZM203.898 15.9824L203.181 15.4902C203.609 14.8932 203.832 14.278 203.851 13.6445V12.5029H205.088V13.4941C205.088 13.9544 204.974 14.4147 204.746 14.875C204.523 15.3353 204.24 15.7044 203.898 15.9824Z" fill="#212121"/>
<path d="M151.983 179H150.712V170.571L148.162 171.508V170.359L151.785 168.999H151.983V179ZM161.93 174.755C161.93 176.236 161.677 177.337 161.171 178.057C160.665 178.777 159.874 179.137 158.799 179.137C157.737 179.137 156.951 178.786 156.44 178.084C155.93 177.378 155.666 176.325 155.647 174.926V173.237C155.647 171.774 155.9 170.688 156.406 169.977C156.912 169.266 157.705 168.91 158.785 168.91C159.856 168.91 160.645 169.254 161.15 169.942C161.656 170.626 161.916 171.683 161.93 173.114V174.755ZM160.665 173.025C160.665 171.954 160.515 171.175 160.214 170.688C159.913 170.195 159.437 169.949 158.785 169.949C158.138 169.949 157.666 170.193 157.37 170.681C157.074 171.168 156.921 171.918 156.912 172.93V174.953C156.912 176.029 157.067 176.824 157.377 177.339C157.691 177.849 158.165 178.104 158.799 178.104C159.423 178.104 159.886 177.863 160.187 177.38C160.492 176.897 160.651 176.136 160.665 175.097V173.025ZM169.791 174.755C169.791 176.236 169.538 177.337 169.032 178.057C168.526 178.777 167.736 179.137 166.66 179.137C165.598 179.137 164.812 178.786 164.302 178.084C163.791 177.378 163.527 176.325 163.509 174.926V173.237C163.509 171.774 163.762 170.688 164.268 169.977C164.773 169.266 165.566 168.91 166.646 168.91C167.717 168.91 168.506 169.254 169.012 169.942C169.518 170.626 169.777 171.683 169.791 173.114V174.755ZM168.526 173.025C168.526 171.954 168.376 171.175 168.075 170.688C167.774 170.195 167.298 169.949 166.646 169.949C165.999 169.949 165.528 170.193 165.231 170.681C164.935 171.168 164.783 171.918 164.773 172.93V174.953C164.773 176.029 164.928 176.824 165.238 177.339C165.553 177.849 166.027 178.104 166.66 178.104C167.285 178.104 167.747 177.863 168.048 177.38C168.353 176.897 168.513 176.136 168.526 175.097V173.025ZM177.789 175.384C177.789 176.509 177.532 177.416 177.017 178.104C176.502 178.793 175.804 179.137 174.925 179.137C174.027 179.137 173.321 178.852 172.806 178.282V181.844H171.541V171.604H172.696L172.758 172.424C173.273 171.786 173.988 171.467 174.904 171.467C175.793 171.467 176.495 171.802 177.01 172.472C177.529 173.142 177.789 174.074 177.789 175.268V175.384ZM176.524 175.24C176.524 174.406 176.347 173.748 175.991 173.265C175.636 172.782 175.148 172.54 174.528 172.54C173.763 172.54 173.188 172.88 172.806 173.559V177.093C173.184 177.767 173.763 178.104 174.542 178.104C175.148 178.104 175.629 177.865 175.984 177.387C176.344 176.904 176.524 176.188 176.524 175.24ZM181.774 174.304L183.415 171.604H184.892L182.472 175.261L184.967 179H183.504L181.795 176.231L180.086 179H178.616L181.111 175.261L178.691 171.604H180.154L181.774 174.304Z" fill="#212121"/>
<path d="M236.578 3.57324C236.013 3.4821 235.557 3.43652 235.211 3.43652C234.299 3.43652 233.844 3.91504 233.844 4.87207V5.60352H235.423V6.58105H233.844V13H232.579V6.58105H231.41V5.60352H232.579V4.79688C232.584 4.00846 232.805 3.40462 233.242 2.98535C233.68 2.56608 234.302 2.35645 235.108 2.35645C235.569 2.35645 236.48 2.49544 237.843 2.77344V13H236.578V3.57324ZM242.983 13.1367C241.981 13.1367 241.165 12.8086 240.536 12.1523C239.907 11.4915 239.593 10.6097 239.593 9.50684V9.27441C239.593 8.54069 239.732 7.88672 240.01 7.3125C240.292 6.73372 240.684 6.28255 241.186 5.95898C241.691 5.63086 242.238 5.4668 242.826 5.4668C243.788 5.4668 244.535 5.78353 245.068 6.41699C245.602 7.05046 245.868 7.95736 245.868 9.1377V9.66406H240.857C240.876 10.3932 241.088 10.9834 241.493 11.4346C241.903 11.8812 242.423 12.1045 243.052 12.1045C243.498 12.1045 243.877 12.0133 244.187 11.8311C244.496 11.6488 244.768 11.4072 245 11.1064L245.772 11.708C245.153 12.6605 244.223 13.1367 242.983 13.1367ZM242.826 6.50586C242.316 6.50586 241.887 6.69271 241.541 7.06641C241.195 7.43555 240.98 7.95508 240.898 8.625H244.604V8.5293C244.567 7.88672 244.394 7.38997 244.084 7.03906C243.774 6.68359 243.355 6.50586 242.826 6.50586ZM249.819 8.30371L251.46 5.60352H252.937L250.517 9.26074L253.012 13H251.549L249.84 10.2314L248.131 13H246.661L249.156 9.26074L246.736 5.60352H248.199L249.819 8.30371ZM256.915 9.28809H253.579V8.25586H256.915V9.28809ZM257.852 9.24023C257.852 8.08724 258.118 7.17122 258.651 6.49219C259.185 5.80859 259.891 5.4668 260.771 5.4668C261.673 5.4668 262.377 5.78581 262.883 6.42383L262.944 5.60352H264.1V12.8223C264.1 13.7793 263.815 14.5335 263.245 15.085C262.68 15.6364 261.919 15.9121 260.962 15.9121C260.429 15.9121 259.907 15.7982 259.396 15.5703C258.886 15.3424 258.496 15.0303 258.228 14.6338L258.884 13.875C259.426 14.5449 260.089 14.8799 260.873 14.8799C261.488 14.8799 261.967 14.7067 262.309 14.3604C262.655 14.014 262.828 13.5264 262.828 12.8975V12.2617C262.322 12.8451 261.632 13.1367 260.757 13.1367C259.891 13.1367 259.189 12.7881 258.651 12.0908C258.118 11.3936 257.852 10.4434 257.852 9.24023ZM259.123 9.38379C259.123 10.2178 259.294 10.874 259.636 11.3525C259.978 11.8265 260.456 12.0635 261.071 12.0635C261.869 12.0635 262.454 11.7012 262.828 10.9766V7.59961C262.441 6.89323 261.86 6.54004 261.085 6.54004C260.47 6.54004 259.989 6.7793 259.643 7.25781C259.296 7.73633 259.123 8.44499 259.123 9.38379ZM269.589 6.73828C269.397 6.70638 269.19 6.69043 268.967 6.69043C268.137 6.69043 267.575 7.04362 267.278 7.75V13H266.014V5.60352H267.244L267.265 6.45801C267.679 5.7972 268.267 5.4668 269.028 5.4668C269.274 5.4668 269.461 5.4987 269.589 5.5625V6.73828ZM270.286 9.2334C270.286 8.50879 270.427 7.8571 270.71 7.27832C270.997 6.69954 271.394 6.25293 271.899 5.93848C272.41 5.62402 272.991 5.4668 273.643 5.4668C274.65 5.4668 275.463 5.81543 276.083 6.5127C276.707 7.20996 277.02 8.13737 277.02 9.29492V9.38379C277.02 10.1038 276.881 10.751 276.603 11.3252C276.329 11.8949 275.935 12.3392 275.42 12.6582C274.91 12.9772 274.322 13.1367 273.656 13.1367C272.654 13.1367 271.84 12.7881 271.216 12.0908C270.596 11.3936 270.286 10.4707 270.286 9.32227V9.2334ZM271.558 9.38379C271.558 10.2041 271.747 10.8626 272.125 11.3594C272.508 11.8561 273.018 12.1045 273.656 12.1045C274.299 12.1045 274.809 11.8538 275.188 11.3525C275.566 10.8467 275.755 10.1403 275.755 9.2334C275.755 8.4222 275.561 7.76595 275.174 7.26465C274.791 6.75879 274.281 6.50586 273.643 6.50586C273.018 6.50586 272.515 6.75423 272.132 7.25098C271.749 7.74772 271.558 8.45866 271.558 9.38379ZM285.154 11.2568L286.576 5.60352H287.841L285.688 13H284.662L282.864 7.39453L281.114 13H280.089L277.942 5.60352H279.2L280.656 11.1406L282.379 5.60352H283.397L285.154 11.2568ZM289.092 12.3369C289.092 12.1182 289.156 11.9359 289.283 11.79C289.415 11.6442 289.611 11.5713 289.871 11.5713C290.131 11.5713 290.327 11.6442 290.459 11.79C290.596 11.9359 290.664 12.1182 290.664 12.3369C290.664 12.5465 290.596 12.722 290.459 12.8633C290.327 13.0046 290.131 13.0752 289.871 13.0752C289.611 13.0752 289.415 13.0046 289.283 12.8633C289.156 12.722 289.092 12.5465 289.092 12.3369ZM289.099 6.30078C289.099 6.08203 289.162 5.89974 289.29 5.75391C289.422 5.60807 289.618 5.53516 289.878 5.53516C290.138 5.53516 290.334 5.60807 290.466 5.75391C290.603 5.89974 290.671 6.08203 290.671 6.30078C290.671 6.51042 290.603 6.68587 290.466 6.82715C290.334 6.96842 290.138 7.03906 289.878 7.03906C289.618 7.03906 289.422 6.96842 289.29 6.82715C289.162 6.68587 289.099 6.51042 289.099 6.30078ZM302.107 8.75488C302.107 10.236 301.854 11.3366 301.349 12.0566C300.843 12.7767 300.052 13.1367 298.977 13.1367C297.915 13.1367 297.129 12.7858 296.618 12.084C296.108 11.3776 295.843 10.3249 295.825 8.92578V7.2373C295.825 5.77441 296.078 4.6875 296.584 3.97656C297.09 3.26562 297.883 2.91016 298.963 2.91016C300.034 2.91016 300.822 3.25423 301.328 3.94238C301.834 4.62598 302.094 5.68327 302.107 7.11426V8.75488ZM300.843 7.02539C300.843 5.95443 300.692 5.17513 300.392 4.6875C300.091 4.19531 299.615 3.94922 298.963 3.94922C298.316 3.94922 297.844 4.19303 297.548 4.68066C297.252 5.16829 297.099 5.91797 297.09 6.92969V8.95312C297.09 10.0286 297.245 10.8239 297.555 11.3389C297.869 11.8493 298.343 12.1045 298.977 12.1045C299.601 12.1045 300.063 11.863 300.364 11.3799C300.67 10.8968 300.829 10.1357 300.843 9.09668V7.02539ZM303.659 6.30078C303.659 6.08203 303.723 5.89974 303.851 5.75391C303.983 5.60807 304.179 5.53516 304.438 5.53516C304.698 5.53516 304.894 5.60807 305.026 5.75391C305.163 5.89974 305.231 6.08203 305.231 6.30078C305.231 6.51042 305.163 6.68587 305.026 6.82715C304.894 6.96842 304.698 7.03906 304.438 7.03906C304.179 7.03906 303.983 6.96842 303.851 6.82715C303.723 6.68587 303.659 6.51042 303.659 6.30078ZM303.898 14.9824L303.181 14.4902C303.609 13.8932 303.832 13.278 303.851 12.6445V11.5029H305.088V12.4941C305.088 12.9544 304.974 13.4147 304.746 13.875C304.523 14.3353 304.24 14.7044 303.898 14.9824Z" fill="#212121"/>
<path d="M253.983 178H252.712V169.571L250.162 170.508V169.359L253.785 167.999H253.983V178ZM263.93 173.755C263.93 175.236 263.677 176.337 263.171 177.057C262.665 177.777 261.874 178.137 260.799 178.137C259.737 178.137 258.951 177.786 258.44 177.084C257.93 176.378 257.666 175.325 257.647 173.926V172.237C257.647 170.774 257.9 169.688 258.406 168.977C258.912 168.266 259.705 167.91 260.785 167.91C261.856 167.91 262.645 168.254 263.15 168.942C263.656 169.626 263.916 170.683 263.93 172.114V173.755ZM262.665 172.025C262.665 170.954 262.515 170.175 262.214 169.688C261.913 169.195 261.437 168.949 260.785 168.949C260.138 168.949 259.666 169.193 259.37 169.681C259.074 170.168 258.921 170.918 258.912 171.93V173.953C258.912 175.029 259.067 175.824 259.377 176.339C259.691 176.849 260.165 177.104 260.799 177.104C261.423 177.104 261.886 176.863 262.187 176.38C262.492 175.897 262.651 175.136 262.665 174.097V172.025ZM271.791 173.755C271.791 175.236 271.538 176.337 271.032 177.057C270.526 177.777 269.736 178.137 268.66 178.137C267.598 178.137 266.812 177.786 266.302 177.084C265.791 176.378 265.527 175.325 265.509 173.926V172.237C265.509 170.774 265.762 169.688 266.268 168.977C266.773 168.266 267.566 167.91 268.646 167.91C269.717 167.91 270.506 168.254 271.012 168.942C271.518 169.626 271.777 170.683 271.791 172.114V173.755ZM270.526 172.025C270.526 170.954 270.376 170.175 270.075 169.688C269.774 169.195 269.298 168.949 268.646 168.949C267.999 168.949 267.528 169.193 267.231 169.681C266.935 170.168 266.783 170.918 266.773 171.93V173.953C266.773 175.029 266.928 175.824 267.238 176.339C267.553 176.849 268.027 177.104 268.66 177.104C269.285 177.104 269.747 176.863 270.048 176.38C270.353 175.897 270.513 175.136 270.526 174.097V172.025ZM279.789 174.384C279.789 175.509 279.532 176.416 279.017 177.104C278.502 177.793 277.804 178.137 276.925 178.137C276.027 178.137 275.321 177.852 274.806 177.282V180.844H273.541V170.604H274.696L274.758 171.424C275.273 170.786 275.988 170.467 276.904 170.467C277.793 170.467 278.495 170.802 279.01 171.472C279.529 172.142 279.789 173.074 279.789 174.268V174.384ZM278.524 174.24C278.524 173.406 278.347 172.748 277.991 172.265C277.636 171.782 277.148 171.54 276.528 171.54C275.763 171.54 275.188 171.88 274.806 172.559V176.093C275.184 176.767 275.763 177.104 276.542 177.104C277.148 177.104 277.629 176.865 277.984 176.387C278.344 175.904 278.524 175.188 278.524 174.24ZM283.774 173.304L285.415 170.604H286.892L284.472 174.261L286.967 178H285.504L283.795 175.231L282.086 178H280.616L283.111 174.261L280.691 170.604H282.154L283.774 173.304Z" fill="#212121"/>
<path d="M197.306 276.849C197.886 276.849 198.393 276.673 198.826 276.321C199.26 275.97 199.5 275.53 199.547 275.003H201.085C201.056 275.548 200.868 276.066 200.522 276.559C200.177 277.051 199.714 277.443 199.134 277.736C198.56 278.029 197.95 278.176 197.306 278.176C196.011 278.176 194.979 277.745 194.212 276.884C193.45 276.017 193.069 274.833 193.069 273.333V273.061C193.069 272.135 193.239 271.312 193.579 270.591C193.919 269.87 194.405 269.311 195.038 268.912C195.677 268.514 196.43 268.314 197.297 268.314C198.363 268.314 199.248 268.634 199.951 269.272C200.66 269.911 201.038 270.74 201.085 271.76H199.547C199.5 271.145 199.266 270.641 198.844 270.248C198.428 269.85 197.912 269.65 197.297 269.65C196.471 269.65 195.829 269.949 195.372 270.547C194.921 271.139 194.695 271.997 194.695 273.122V273.43C194.695 274.525 194.921 275.369 195.372 275.961C195.823 276.553 196.468 276.849 197.306 276.849ZM206.024 275.618L208.239 268.49H209.979L206.156 279.468C205.564 281.05 204.624 281.841 203.335 281.841L203.027 281.814L202.421 281.7V280.382L202.86 280.417C203.411 280.417 203.839 280.306 204.144 280.083C204.454 279.86 204.709 279.453 204.908 278.861L205.269 277.895L201.876 268.49H203.651L206.024 275.618ZM216.914 275.847L220.148 268.49H222.179V278H220.553V271.083L217.477 278H216.352L213.214 270.934V278H211.588V268.49H213.697L216.914 275.847ZM230.669 278C230.575 277.812 230.499 277.479 230.44 276.998C229.685 277.783 228.782 278.176 227.733 278.176C226.796 278.176 226.025 277.912 225.422 277.385C224.824 276.852 224.525 276.178 224.525 275.363C224.525 274.373 224.9 273.605 225.65 273.061C226.406 272.51 227.467 272.234 228.832 272.234H230.414V271.487C230.414 270.919 230.244 270.468 229.904 270.134C229.564 269.794 229.063 269.624 228.401 269.624C227.821 269.624 227.335 269.771 226.942 270.063C226.55 270.356 226.354 270.711 226.354 271.127H224.719C224.719 270.652 224.886 270.195 225.22 269.756C225.56 269.311 226.017 268.959 226.591 268.701C227.171 268.443 227.807 268.314 228.498 268.314C229.594 268.314 230.452 268.59 231.073 269.141C231.694 269.686 232.017 270.438 232.04 271.399V275.776C232.04 276.649 232.151 277.344 232.374 277.859V278H230.669ZM227.971 276.761C228.48 276.761 228.964 276.629 229.421 276.365C229.878 276.102 230.209 275.759 230.414 275.337V273.386H229.14C227.147 273.386 226.151 273.969 226.151 275.135C226.151 275.645 226.321 276.043 226.661 276.33C227.001 276.617 227.438 276.761 227.971 276.761ZM239.854 278V269.747H238.351V268.49H239.854V267.515C239.854 266.495 240.126 265.707 240.671 265.15C241.216 264.594 241.986 264.315 242.982 264.315C243.357 264.315 243.729 264.365 244.099 264.465L244.011 265.783C243.735 265.73 243.442 265.704 243.132 265.704C242.604 265.704 242.197 265.859 241.91 266.17C241.623 266.475 241.479 266.914 241.479 267.488V268.49H243.51V269.747H241.479V278H239.854ZM247.078 278H245.452V264.5H247.078V278ZM253.635 278.176C252.346 278.176 251.297 277.754 250.488 276.91C249.68 276.061 249.275 274.927 249.275 273.509V273.21C249.275 272.267 249.454 271.426 249.812 270.688C250.175 269.943 250.679 269.363 251.323 268.947C251.974 268.525 252.677 268.314 253.433 268.314C254.669 268.314 255.63 268.722 256.315 269.536C257.001 270.351 257.344 271.517 257.344 273.034V273.711H250.901C250.925 274.648 251.197 275.407 251.719 275.987C252.246 276.562 252.914 276.849 253.723 276.849C254.297 276.849 254.783 276.731 255.182 276.497C255.58 276.263 255.929 275.952 256.228 275.565L257.221 276.339C256.424 277.563 255.229 278.176 253.635 278.176ZM253.433 269.65C252.776 269.65 252.226 269.891 251.78 270.371C251.335 270.846 251.06 271.514 250.954 272.375H255.718V272.252C255.671 271.426 255.448 270.787 255.05 270.336C254.651 269.879 254.112 269.65 253.433 269.65ZM262.424 271.962L264.533 268.49H266.432L263.32 273.192L266.528 278H264.647L262.45 274.44L260.253 278H258.363L261.571 273.192L258.46 268.49H260.341L262.424 271.962ZM271.547 273.228H267.258V271.9H271.547V273.228ZM272.751 273.166C272.751 271.684 273.094 270.506 273.779 269.633C274.465 268.754 275.373 268.314 276.504 268.314C277.664 268.314 278.569 268.725 279.22 269.545L279.299 268.49H280.784V277.771C280.784 279.002 280.418 279.972 279.686 280.681C278.959 281.39 277.98 281.744 276.75 281.744C276.064 281.744 275.394 281.598 274.737 281.305C274.081 281.012 273.58 280.61 273.234 280.101L274.078 279.125C274.775 279.986 275.628 280.417 276.636 280.417C277.427 280.417 278.042 280.194 278.481 279.749C278.927 279.304 279.149 278.677 279.149 277.868V277.051C278.499 277.801 277.611 278.176 276.486 278.176C275.373 278.176 274.471 277.728 273.779 276.831C273.094 275.935 272.751 274.713 272.751 273.166ZM274.386 273.351C274.386 274.423 274.605 275.267 275.045 275.882C275.484 276.491 276.1 276.796 276.891 276.796C277.916 276.796 278.669 276.33 279.149 275.398V271.057C278.651 270.148 277.904 269.694 276.908 269.694C276.117 269.694 275.499 270.002 275.054 270.617C274.608 271.232 274.386 272.144 274.386 273.351ZM287.842 269.949C287.596 269.908 287.329 269.888 287.042 269.888C285.976 269.888 285.252 270.342 284.871 271.25V278H283.245V268.49H284.827L284.854 269.589C285.387 268.739 286.143 268.314 287.121 268.314C287.438 268.314 287.678 268.355 287.842 268.438V269.949ZM288.738 273.157C288.738 272.226 288.92 271.388 289.283 270.644C289.652 269.899 290.162 269.325 290.812 268.921C291.469 268.517 292.216 268.314 293.054 268.314C294.349 268.314 295.395 268.763 296.191 269.659C296.994 270.556 297.396 271.748 297.396 273.236V273.351C297.396 274.276 297.217 275.108 296.859 275.847C296.508 276.579 296.001 277.15 295.339 277.561C294.683 277.971 293.927 278.176 293.071 278.176C291.782 278.176 290.736 277.728 289.934 276.831C289.137 275.935 288.738 274.748 288.738 273.271V273.157ZM290.373 273.351C290.373 274.405 290.616 275.252 291.103 275.891C291.595 276.529 292.251 276.849 293.071 276.849C293.897 276.849 294.554 276.526 295.04 275.882C295.526 275.231 295.77 274.323 295.77 273.157C295.77 272.114 295.521 271.271 295.022 270.626C294.53 269.976 293.874 269.65 293.054 269.65C292.251 269.65 291.604 269.97 291.111 270.608C290.619 271.247 290.373 272.161 290.373 273.351ZM307.854 275.759L309.683 268.49H311.309L308.54 278H307.222L304.91 270.793L302.66 278H301.342L298.582 268.49H300.199L302.071 275.609L304.286 268.49H305.596L307.854 275.759Z" fill="#212121"/>
<path d="M357.38 263V253.49H361.089C362.354 253.49 363.324 253.713 363.998 254.158C364.678 254.598 365.018 255.245 365.018 256.101C365.018 256.54 364.886 256.938 364.622 257.296C364.358 257.647 363.969 257.917 363.453 258.104C364.027 258.239 364.487 258.503 364.833 258.896C365.185 259.288 365.36 259.757 365.36 260.302C365.36 261.175 365.038 261.843 364.394 262.306C363.755 262.769 362.85 263 361.678 263H357.38ZM359.006 258.825V261.69H361.695C362.375 261.69 362.882 261.564 363.216 261.312C363.556 261.061 363.726 260.706 363.726 260.249C363.726 259.3 363.028 258.825 361.634 258.825H359.006ZM359.006 257.524H361.106C362.63 257.524 363.392 257.079 363.392 256.188C363.392 255.298 362.671 254.838 361.229 254.809H359.006V257.524ZM369.28 263H367.654V253.49H369.28V263ZM367.522 250.968C367.522 250.704 367.602 250.481 367.76 250.3C367.924 250.118 368.164 250.027 368.48 250.027C368.797 250.027 369.037 250.118 369.201 250.3C369.365 250.481 369.447 250.704 369.447 250.968C369.447 251.231 369.365 251.451 369.201 251.627C369.037 251.803 368.797 251.891 368.48 251.891C368.164 251.891 367.924 251.803 367.76 251.627C367.602 251.451 367.522 251.231 367.522 250.968ZM379.687 253.49V263H378.052V254.835H374.817L374.624 258.395C374.519 260.029 374.243 261.198 373.798 261.901C373.358 262.604 372.658 262.971 371.697 263H371.047V261.567L371.513 261.532C372.04 261.474 372.418 261.169 372.646 260.618C372.875 260.067 373.021 259.048 373.086 257.56L373.262 253.49H379.687ZM384.072 256.769H386.542C387.62 256.78 388.473 257.062 389.1 257.612C389.727 258.163 390.04 258.91 390.04 259.854C390.04 260.803 389.718 261.564 389.073 262.139C388.429 262.713 387.562 263 386.472 263H382.446V253.49H384.072V256.769ZM384.072 258.096V261.673H386.489C387.099 261.673 387.57 261.518 387.904 261.207C388.238 260.891 388.405 260.46 388.405 259.915C388.405 259.388 388.241 258.957 387.913 258.623C387.591 258.283 387.137 258.107 386.551 258.096H384.072ZM399.84 263H398.214V258.939H393.846V263H392.211V253.49H393.846V257.612H398.214V253.49H399.84V263ZM406.405 263.176C405.116 263.176 404.067 262.754 403.259 261.91C402.45 261.061 402.046 259.927 402.046 258.509V258.21C402.046 257.267 402.225 256.426 402.582 255.688C402.945 254.943 403.449 254.363 404.094 253.947C404.744 253.525 405.447 253.314 406.203 253.314C407.439 253.314 408.4 253.722 409.086 254.536C409.771 255.351 410.114 256.517 410.114 258.034V258.711H403.672C403.695 259.648 403.968 260.407 404.489 260.987C405.017 261.562 405.685 261.849 406.493 261.849C407.067 261.849 407.554 261.731 407.952 261.497C408.351 261.263 408.699 260.952 408.998 260.565L409.991 261.339C409.194 262.563 407.999 263.176 406.405 263.176ZM406.203 254.65C405.547 254.65 404.996 254.891 404.551 255.371C404.105 255.846 403.83 256.514 403.725 257.375H408.488V257.252C408.441 256.426 408.219 255.787 407.82 255.336C407.422 254.879 406.883 254.65 406.203 254.65ZM421.944 260.847L425.179 253.49H427.209V263H425.583V256.083L422.507 263H421.382L418.244 255.934V263H416.618V253.49H418.728L421.944 260.847ZM431.595 263H429.969V253.49H431.595V263ZM429.837 250.968C429.837 250.704 429.916 250.481 430.074 250.3C430.238 250.118 430.479 250.027 430.795 250.027C431.111 250.027 431.352 250.118 431.516 250.3C431.68 250.481 431.762 250.704 431.762 250.968C431.762 251.231 431.68 251.451 431.516 251.627C431.352 251.803 431.111 251.891 430.795 251.891C430.479 251.891 430.238 251.803 430.074 251.627C429.916 251.451 429.837 251.231 429.837 250.968ZM438.02 261.849C438.6 261.849 439.106 261.673 439.54 261.321C439.974 260.97 440.214 260.53 440.261 260.003H441.799C441.77 260.548 441.582 261.066 441.236 261.559C440.891 262.051 440.428 262.443 439.848 262.736C439.273 263.029 438.664 263.176 438.02 263.176C436.725 263.176 435.693 262.745 434.926 261.884C434.164 261.017 433.783 259.833 433.783 258.333V258.061C433.783 257.135 433.953 256.312 434.293 255.591C434.633 254.87 435.119 254.311 435.752 253.912C436.391 253.514 437.144 253.314 438.011 253.314C439.077 253.314 439.962 253.634 440.665 254.272C441.374 254.911 441.752 255.74 441.799 256.76H440.261C440.214 256.145 439.979 255.641 439.558 255.248C439.142 254.85 438.626 254.65 438.011 254.65C437.185 254.65 436.543 254.949 436.086 255.547C435.635 256.139 435.409 256.997 435.409 258.122V258.43C435.409 259.525 435.635 260.369 436.086 260.961C436.537 261.553 437.182 261.849 438.02 261.849ZM443.768 253.49H445.402V261.673H449.779V253.49H451.405V261.673H452.539L452.381 265.821H450.922V263H443.768V253.49ZM458.243 263.176C456.954 263.176 455.905 262.754 455.097 261.91C454.288 261.061 453.884 259.927 453.884 258.509V258.21C453.884 257.267 454.062 256.426 454.42 255.688C454.783 254.943 455.287 254.363 455.932 253.947C456.582 253.525 457.285 253.314 458.041 253.314C459.277 253.314 460.238 253.722 460.924 254.536C461.609 255.351 461.952 256.517 461.952 258.034V258.711H455.51C455.533 259.648 455.806 260.407 456.327 260.987C456.854 261.562 457.522 261.849 458.331 261.849C458.905 261.849 459.392 261.731 459.79 261.497C460.188 261.263 460.537 260.952 460.836 260.565L461.829 261.339C461.032 262.563 459.837 263.176 458.243 263.176ZM458.041 254.65C457.385 254.65 456.834 254.891 456.389 255.371C455.943 255.846 455.668 256.514 455.562 257.375H460.326V257.252C460.279 256.426 460.057 255.787 459.658 255.336C459.26 254.879 458.721 254.65 458.041 254.65Z" fill="black"/>
<path d="M493.889 256.136H497.457V257.674H493.889V261.717H492.254V257.674H488.686V256.136H492.254V252.4H493.889V256.136ZM503.829 261.673L504.392 260.979C505.024 260.158 505.385 258.928 505.473 257.287L505.622 253.49H511.748V261.673H512.97V265.795H511.344V263H504.708V265.795H503.082L503.091 261.673H503.829ZM505.754 261.673H510.122V254.993H507.195L507.099 257.261C506.999 259.153 506.551 260.624 505.754 261.673ZM514.341 258.157C514.341 257.226 514.522 256.388 514.886 255.644C515.255 254.899 515.765 254.325 516.415 253.921C517.071 253.517 517.818 253.314 518.656 253.314C519.951 253.314 520.997 253.763 521.794 254.659C522.597 255.556 522.998 256.748 522.998 258.236V258.351C522.998 259.276 522.819 260.108 522.462 260.847C522.11 261.579 521.604 262.15 520.941 262.561C520.285 262.971 519.529 263.176 518.674 263.176C517.385 263.176 516.339 262.728 515.536 261.831C514.739 260.935 514.341 259.748 514.341 258.271V258.157ZM515.976 258.351C515.976 259.405 516.219 260.252 516.705 260.891C517.197 261.529 517.854 261.849 518.674 261.849C519.5 261.849 520.156 261.526 520.643 260.882C521.129 260.231 521.372 259.323 521.372 258.157C521.372 257.114 521.123 256.271 520.625 255.626C520.133 254.976 519.477 254.65 518.656 254.65C517.854 254.65 517.206 254.97 516.714 255.608C516.222 256.247 515.976 257.161 515.976 258.351ZM525.187 263V253.49H528.896C530.161 253.49 531.131 253.713 531.805 254.158C532.484 254.598 532.824 255.245 532.824 256.101C532.824 256.54 532.692 256.938 532.429 257.296C532.165 257.647 531.775 257.917 531.26 258.104C531.834 258.239 532.294 258.503 532.64 258.896C532.991 259.288 533.167 259.757 533.167 260.302C533.167 261.175 532.845 261.843 532.2 262.306C531.562 262.769 530.656 263 529.484 263H525.187ZM526.812 258.825V261.69H529.502C530.182 261.69 530.688 261.564 531.022 261.312C531.362 261.061 531.532 260.706 531.532 260.249C531.532 259.3 530.835 258.825 529.44 258.825H526.812ZM526.812 257.524H528.913C530.437 257.524 531.198 257.079 531.198 256.188C531.198 255.298 530.478 254.838 529.036 254.809H526.812V257.524ZM542.905 258.869H541.763V263H540.137V258.869H538.994L536.331 263H534.274L537.676 258.078L534.6 253.49H536.568L539.021 257.428H540.137V253.49H541.763V257.428H542.87L545.34 253.49H547.309L544.224 258.087L547.625 263H545.568L542.905 258.869ZM555.254 253.49H556.88V263H555.254V256.065L550.868 263H549.242V253.49H550.868V260.434L555.254 253.49ZM567.26 263H565.634V258.939H561.266V263H559.631V253.49H561.266V257.612H565.634V253.49H567.26V263ZM575.75 263C575.656 262.812 575.58 262.479 575.521 261.998C574.766 262.783 573.863 263.176 572.814 263.176C571.877 263.176 571.106 262.912 570.503 262.385C569.905 261.852 569.606 261.178 569.606 260.363C569.606 259.373 569.981 258.605 570.731 258.061C571.487 257.51 572.548 257.234 573.913 257.234H575.495V256.487C575.495 255.919 575.325 255.468 574.985 255.134C574.646 254.794 574.145 254.624 573.482 254.624C572.902 254.624 572.416 254.771 572.023 255.063C571.631 255.356 571.435 255.711 571.435 256.127H569.8C569.8 255.652 569.967 255.195 570.301 254.756C570.641 254.311 571.098 253.959 571.672 253.701C572.252 253.443 572.888 253.314 573.579 253.314C574.675 253.314 575.533 253.59 576.154 254.141C576.775 254.686 577.098 255.438 577.121 256.399V260.776C577.121 261.649 577.232 262.344 577.455 262.859V263H575.75ZM573.052 261.761C573.562 261.761 574.045 261.629 574.502 261.365C574.959 261.102 575.29 260.759 575.495 260.337V258.386H574.221C572.229 258.386 571.232 258.969 571.232 260.135C571.232 260.645 571.402 261.043 571.742 261.33C572.082 261.617 572.519 261.761 573.052 261.761Z" fill="black"/>
<path d="M342.421 255.962L344.53 252.49H346.429L343.317 257.192L346.525 262H344.645L342.447 258.44L340.25 262H338.36L341.568 257.192L338.457 252.49H340.338L342.421 255.962Z" fill="black"/>
<path d="M173.965 227.551H176.285C175.09 229.098 173.977 230.82 172.945 232.719C171.914 234.594 170.918 236.773 169.957 239.258C168.996 241.742 168.234 244.566 167.672 247.73C167.109 250.871 166.828 254.129 166.828 257.504C166.828 260.855 167.098 264.113 167.637 267.277C168.199 270.441 168.961 273.312 169.922 275.891C170.883 278.445 171.879 280.707 172.91 282.676C173.941 284.645 175.066 286.496 176.285 288.23H173.93C172.359 286.332 170.883 283.965 169.5 281.129C168.117 278.293 166.91 274.754 165.879 270.512C164.871 266.27 164.367 261.945 164.367 257.539C164.367 251.094 165.316 245.27 167.215 240.066C169.113 234.863 171.363 230.691 173.965 227.551Z" fill="#212121"/>
<path d="M467.406 227.551H469.727C472.328 230.691 474.578 234.863 476.477 240.066C478.375 245.27 479.324 251.094 479.324 257.539C479.324 261.945 478.809 266.27 477.777 270.512C476.77 274.754 475.574 278.293 474.191 281.129C472.809 283.965 471.332 286.332 469.762 288.23H467.406C468.625 286.496 469.75 284.645 470.781 282.676C471.812 280.707 472.809 278.445 473.77 275.891C474.73 273.312 475.48 270.441 476.02 267.277C476.582 264.113 476.863 260.855 476.863 257.504C476.863 254.129 476.582 250.871 476.02 247.73C475.457 244.566 474.695 241.742 473.734 239.258C472.773 236.773 471.777 234.594 470.746 232.719C469.715 230.82 468.602 229.098 467.406 227.551Z" fill="#212121"/>
<rect x="181" y="257" width="144" height="1.5" fill="#212121"/>
<path d="M444.666 90.4082H445.616C446.213 90.3991 446.683 90.2419 447.024 89.9365C447.366 89.6312 447.537 89.2188 447.537 88.6992C447.537 87.5326 446.956 86.9492 445.794 86.9492C445.247 86.9492 444.81 87.1064 444.481 87.4209C444.158 87.7308 443.996 88.1432 443.996 88.6582H442.731C442.731 87.8698 443.019 87.2158 443.593 86.6963C444.172 86.1722 444.905 85.9102 445.794 85.9102C446.733 85.9102 447.469 86.1585 448.002 86.6553C448.535 87.152 448.802 87.8424 448.802 88.7266C448.802 89.1595 448.66 89.5788 448.378 89.9844C448.1 90.39 447.719 90.693 447.236 90.8936C447.783 91.0667 448.205 91.3538 448.501 91.7549C448.802 92.1559 448.952 92.6458 448.952 93.2246C448.952 94.1178 448.66 94.8265 448.077 95.3506C447.494 95.8747 446.735 96.1367 445.801 96.1367C444.867 96.1367 444.105 95.8838 443.518 95.3779C442.934 94.8721 442.643 94.2044 442.643 93.375H443.914C443.914 93.8991 444.085 94.3184 444.427 94.6328C444.769 94.9473 445.227 95.1045 445.801 95.1045C446.411 95.1045 446.879 94.945 447.202 94.626C447.526 94.307 447.688 93.849 447.688 93.252C447.688 92.6732 447.51 92.2288 447.154 91.9189C446.799 91.609 446.286 91.4495 445.616 91.4404H444.666V90.4082ZM456.93 91.7549C456.93 93.236 456.677 94.3366 456.171 95.0566C455.665 95.7767 454.874 96.1367 453.799 96.1367C452.737 96.1367 451.951 95.7858 451.44 95.084C450.93 94.3776 450.666 93.3249 450.647 91.9258V90.2373C450.647 88.7744 450.9 87.6875 451.406 86.9766C451.912 86.2656 452.705 85.9102 453.785 85.9102C454.856 85.9102 455.645 86.2542 456.15 86.9424C456.656 87.626 456.916 88.6833 456.93 90.1143V91.7549ZM455.665 90.0254C455.665 88.9544 455.515 88.1751 455.214 87.6875C454.913 87.1953 454.437 86.9492 453.785 86.9492C453.138 86.9492 452.666 87.193 452.37 87.6807C452.074 88.1683 451.921 88.918 451.912 89.9297V91.9531C451.912 93.0286 452.067 93.8239 452.377 94.3389C452.691 94.8493 453.165 95.1045 453.799 95.1045C454.423 95.1045 454.886 94.863 455.187 94.3799C455.492 93.8968 455.651 93.1357 455.665 92.0967V90.0254ZM464.791 91.7549C464.791 93.236 464.538 94.3366 464.032 95.0566C463.526 95.7767 462.736 96.1367 461.66 96.1367C460.598 96.1367 459.812 95.7858 459.302 95.084C458.791 94.3776 458.527 93.3249 458.509 91.9258V90.2373C458.509 88.7744 458.762 87.6875 459.268 86.9766C459.773 86.2656 460.566 85.9102 461.646 85.9102C462.717 85.9102 463.506 86.2542 464.012 86.9424C464.518 87.626 464.777 88.6833 464.791 90.1143V91.7549ZM463.526 90.0254C463.526 88.9544 463.376 88.1751 463.075 87.6875C462.774 87.1953 462.298 86.9492 461.646 86.9492C460.999 86.9492 460.528 87.193 460.231 87.6807C459.935 88.1683 459.783 88.918 459.773 89.9297V91.9531C459.773 93.0286 459.928 93.8239 460.238 94.3389C460.553 94.8493 461.027 95.1045 461.66 95.1045C462.285 95.1045 462.747 94.863 463.048 94.3799C463.353 93.8968 463.513 93.1357 463.526 92.0967V90.0254ZM472.789 92.3838C472.789 93.5094 472.532 94.4163 472.017 95.1045C471.502 95.7926 470.804 96.1367 469.925 96.1367C469.027 96.1367 468.321 95.8519 467.806 95.2822V98.8438H466.541V88.6035H467.696L467.758 89.4238C468.273 88.7858 468.988 88.4668 469.904 88.4668C470.793 88.4668 471.495 88.8018 472.01 89.4717C472.529 90.1416 472.789 91.0736 472.789 92.2676V92.3838ZM471.524 92.2402C471.524 91.4062 471.347 90.7477 470.991 90.2646C470.636 89.7816 470.148 89.54 469.528 89.54C468.763 89.54 468.188 89.8796 467.806 90.5586V94.0928C468.184 94.7673 468.763 95.1045 469.542 95.1045C470.148 95.1045 470.629 94.8652 470.984 94.3867C471.344 93.9036 471.524 93.1882 471.524 92.2402ZM476.774 91.3037L478.415 88.6035H479.892L477.472 92.2607L479.967 96H478.504L476.795 93.2314L475.086 96H473.616L476.111 92.2607L473.691 88.6035H475.154L476.774 91.3037Z" fill="#0B5A72"/>
<path d="M555.707 91.7071C556.098 91.3166 556.098 90.6834 555.707 90.2929L549.343 83.9289C548.953 83.5384 548.319 83.5384 547.929 83.9289C547.538 84.3195 547.538 84.9526 547.929 85.3431L553.586 91L547.929 96.6569C547.538 97.0474 547.538 97.6805 547.929 98.0711C548.319 98.4616 548.953 98.4616 549.343 98.0711L555.707 91.7071ZM490 92H555V90H490V92Z" fill="#0B5A72"/>
<path d="M364.293 90.2929C363.902 90.6834 363.902 91.3166 364.293 91.7071L370.657 98.0711C371.047 98.4616 371.681 98.4616 372.071 98.0711C372.462 97.6805 372.462 97.0474 372.071 96.6569L366.414 91L372.071 85.3432C372.462 84.9526 372.462 84.3195 372.071 83.9289C371.681 83.5384 371.047 83.5384 370.657 83.9289L364.293 90.2929ZM430 90L365 90L365 92L430 92L430 90Z" fill="#0B5A72"/>
</svg>
