<svg width="434" height="215" viewBox="0 0 434 215" fill="none" xmlns="http://www.w3.org/2000/svg">
<path d="M9.29687 5.28874C8.35503 5.13683 7.59549 5.06087 7.01823 5.06087C5.49913 5.06087 4.73958 5.8584 4.73958 7.45345V8.67253H7.37142V10.3018H4.73958V21H2.63184V10.3018H0.683594V8.67253H2.63184V7.32813C2.63943 6.01411 3.00781 5.0077 3.73698 4.30892C4.46615 3.61014 5.50293 3.26074 6.84733 3.26074C7.61447 3.26074 9.13357 3.49241 11.4046 3.95573V21H9.29687V5.28874ZM19.9723 21.2279C18.3013 21.2279 16.9417 20.681 15.8936 19.5872C14.8454 18.4859 14.3213 17.0162 14.3213 15.1781V14.7907C14.3213 13.5678 14.553 12.4779 15.0163 11.5208C15.4872 10.5562 16.1404 9.80425 16.9759 9.26497C17.819 8.7181 18.7305 8.44466 19.7103 8.44466C21.3129 8.44466 22.5586 8.97255 23.4473 10.0283C24.3359 11.0841 24.7803 12.5956 24.7803 14.5628V15.4401H16.429C16.4594 16.6554 16.8126 17.639 17.4886 18.391C18.1722 19.1353 19.0381 19.5075 20.0863 19.5075C20.8306 19.5075 21.461 19.3556 21.9775 19.0518C22.494 18.7479 22.946 18.3454 23.3333 17.8441L24.6208 18.8467C23.5878 20.4341 22.0383 21.2279 19.9723 21.2279ZM19.7103 10.1764C18.8596 10.1764 18.1456 10.4878 17.5684 11.1107C16.9911 11.7259 16.6341 12.5918 16.4974 13.7083H22.6725V13.5488C22.6118 12.4779 22.3231 11.65 21.8066 11.0651C21.2901 10.4727 20.5914 10.1764 19.7103 10.1764ZM31.3656 13.1729L34.0999 8.67253H36.5609L32.5277 14.7679L36.6862 21H34.248L31.3997 16.3857L28.5514 21H26.1019L30.2604 14.7679L26.2272 8.67253H28.6654L31.3656 13.1729Z" fill="black"/>
<path d="M9.29687 118.622C8.35503 118.47 7.59549 118.394 7.01823 118.394C5.49913 118.394 4.73958 119.192 4.73958 120.787V122.006H7.37142V123.635H4.73958V134.333H2.63184V123.635H0.683594V122.006H2.63184V120.661C2.63943 119.347 3.00781 118.341 3.73698 117.642C4.46615 116.943 5.50293 116.594 6.84733 116.594C7.61447 116.594 9.13357 116.826 11.4046 117.289V134.333H9.29687V118.622ZM19.9723 134.561C18.3013 134.561 16.9417 134.014 15.8936 132.921C14.8454 131.819 14.3213 130.35 14.3213 128.511V128.124C14.3213 126.901 14.553 125.811 15.0163 124.854C15.4872 123.89 16.1404 123.138 16.9759 122.598C17.819 122.051 18.7305 121.778 19.7103 121.778C21.3129 121.778 22.5586 122.306 23.4473 123.362C24.3359 124.417 24.7803 125.929 24.7803 127.896V128.773H16.429C16.4594 129.989 16.8126 130.972 17.4886 131.724C18.1722 132.469 19.0381 132.841 20.0863 132.841C20.8306 132.841 21.461 132.689 21.9775 132.385C22.494 132.081 22.946 131.679 23.3333 131.177L24.6208 132.18C23.5878 133.767 22.0383 134.561 19.9723 134.561ZM19.7103 123.51C18.8596 123.51 18.1456 123.821 17.5684 124.444C16.9911 125.059 16.6341 125.925 16.4974 127.042H22.6725V126.882C22.6118 125.811 22.3231 124.983 21.8066 124.398C21.2901 123.806 20.5914 123.51 19.7103 123.51ZM31.3656 126.506L34.0999 122.006H36.5609L32.5277 128.101L36.6862 134.333H34.248L31.3997 129.719L28.5514 134.333H26.1019L30.2604 128.101L26.2272 122.006H28.6654L31.3656 126.506Z" fill="black"/>
<rect x="0.5" y="30.5" width="432.333" height="69" stroke="#212121" stroke-dasharray="5 5"/>
<rect x="0.5" y="145.5" width="432.333" height="69" stroke="#212121" stroke-dasharray="5 5"/>
<rect x="5" y="35" width="60" height="60" fill="#159A6B"/>
<rect x="5" y="150" width="60" height="60" fill="#159A6B"/>
<rect x="70" y="35" width="60" height="60" fill="#128279"/>
<rect x="70" y="150" width="60" height="60" fill="#128279"/>
<rect x="135" y="35" width="60" height="60" fill="#0B5A72"/>
<rect x="135" y="150" width="60" height="60" fill="#0B5A72"/>
<path d="M36.3057 73H34.1865V58.9521L29.9368 60.513V58.599L35.9753 56.3317H36.3057V73Z" fill="white"/>
<path d="M36.3057 188H34.1865V173.952L29.9368 175.513V173.599L35.9753 171.332H36.3057V188Z" fill="white"/>
<path d="M102.248 73H91.3786V71.4847L97.1208 65.1045C97.9715 64.1399 98.5563 63.3575 98.8753 62.7575C99.2019 62.1498 99.3652 61.5232 99.3652 60.8776C99.3652 60.0117 99.1032 59.3015 98.5791 58.7471C98.055 58.1926 97.3562 57.9154 96.4827 57.9154C95.4346 57.9154 94.6181 58.2154 94.0332 58.8154C93.4559 59.4079 93.1673 60.2358 93.1673 61.2992H91.0596C91.0596 59.7725 91.5495 58.5382 92.5293 57.5964C93.5167 56.6545 94.8345 56.1836 96.4827 56.1836C98.0246 56.1836 99.2437 56.59 100.14 57.4027C101.036 58.2078 101.484 59.2826 101.484 60.627C101.484 62.26 100.444 64.2044 98.3626 66.4603L93.9193 71.2796H102.248V73Z" fill="white"/>
<path d="M104.248 188H93.3786V186.485L99.1208 180.104C99.9715 179.14 100.556 178.358 100.875 177.757C101.202 177.15 101.365 176.523 101.365 175.878C101.365 175.012 101.103 174.302 100.579 173.747C100.055 173.193 99.3562 172.915 98.4827 172.915C97.4346 172.915 96.6181 173.215 96.0332 173.815C95.4559 174.408 95.1673 175.236 95.1673 176.299H93.0596C93.0596 174.772 93.5495 173.538 94.5293 172.596C95.5167 171.655 96.8345 171.184 98.4827 171.184C100.025 171.184 101.244 171.59 102.14 172.403C103.036 173.208 103.484 174.283 103.484 175.627C103.484 177.26 102.444 179.204 100.363 181.46L95.9193 186.28H104.248V188Z" fill="white"/>
<path d="M162.443 63.6803H164.027C165.022 63.6651 165.804 63.4031 166.374 62.8942C166.944 62.3853 167.229 61.6979 167.229 60.832C167.229 58.8876 166.26 57.9154 164.323 57.9154C163.412 57.9154 162.683 58.1774 162.136 58.7015C161.596 59.218 161.327 59.9054 161.327 60.7637H159.219C159.219 59.4497 159.698 58.3597 160.655 57.4938C161.619 56.6203 162.842 56.1836 164.323 56.1836C165.888 56.1836 167.115 56.5975 168.003 57.4255C168.892 58.2534 169.336 59.4041 169.336 60.8776C169.336 61.5992 169.101 62.298 168.63 62.974C168.167 63.65 167.532 64.1551 166.727 64.4893C167.639 64.7779 168.341 65.2564 168.835 65.9248C169.336 66.5932 169.587 67.4097 169.587 68.3743C169.587 69.8631 169.101 71.0442 168.129 71.9176C167.156 72.7911 165.892 73.2279 164.335 73.2279C162.778 73.2279 161.509 72.8063 160.529 71.9632C159.557 71.1201 159.071 70.0074 159.071 68.625H161.19C161.19 69.4985 161.475 70.1973 162.045 70.7214C162.614 71.2454 163.378 71.5075 164.335 71.5075C165.352 71.5075 166.131 71.2416 166.67 70.71C167.21 70.1783 167.479 69.4149 167.479 68.4199C167.479 67.4553 167.183 66.7147 166.59 66.1982C165.998 65.6817 165.144 65.4159 164.027 65.4007H162.443V63.6803Z" fill="white"/>
<path d="M162.443 178.68H164.027C165.022 178.665 165.804 178.403 166.374 177.894C166.944 177.385 167.229 176.698 167.229 175.832C167.229 173.888 166.26 172.915 164.323 172.915C163.412 172.915 162.683 173.177 162.136 173.701C161.596 174.218 161.327 174.905 161.327 175.764H159.219C159.219 174.45 159.698 173.36 160.655 172.494C161.619 171.62 162.842 171.184 164.323 171.184C165.888 171.184 167.115 171.598 168.003 172.425C168.892 173.253 169.336 174.404 169.336 175.878C169.336 176.599 169.101 177.298 168.63 177.974C168.167 178.65 167.532 179.155 166.727 179.489C167.639 179.778 168.341 180.256 168.835 180.925C169.336 181.593 169.587 182.41 169.587 183.374C169.587 184.863 169.101 186.044 168.129 186.918C167.156 187.791 165.892 188.228 164.335 188.228C162.778 188.228 161.509 187.806 160.529 186.963C159.557 186.12 159.071 185.007 159.071 183.625H161.19C161.19 184.498 161.475 185.197 162.045 185.721C162.614 186.245 163.378 186.507 164.335 186.507C165.352 186.507 166.131 186.242 166.67 185.71C167.21 185.178 167.479 184.415 167.479 183.42C167.479 182.455 167.183 181.715 166.59 181.198C165.998 180.682 165.144 180.416 164.027 180.401H162.443V178.68Z" fill="white"/>
</svg>
