<svg width="640" height="288" viewBox="0 0 640 288" fill="none" xmlns="http://www.w3.org/2000/svg">
<rect x="0.5" y="0.5" width="199" height="235" stroke="#159A6B"/>
<path d="M30.9688 56.5332C30.1615 56.403 29.5104 56.3379 29.0156 56.3379C27.7135 56.3379 27.0625 57.0215 27.0625 58.3887V59.4336H29.3184V60.8301H27.0625V70H25.2559V60.8301H23.5859V59.4336H25.2559V58.2812C25.2624 57.1549 25.5781 56.2923 26.2031 55.6934C26.8281 55.0944 27.7168 54.7949 28.8691 54.7949C29.5267 54.7949 30.8288 54.9935 32.7754 55.3906V70H30.9688V56.5332ZM40.1191 70.1953C38.6868 70.1953 37.5215 69.7266 36.623 68.7891C35.7246 67.8451 35.2754 66.5853 35.2754 65.0098V64.6777C35.2754 63.6296 35.474 62.6953 35.8711 61.875C36.2747 61.0482 36.8346 60.4036 37.5508 59.9414C38.2734 59.4727 39.0547 59.2383 39.8945 59.2383C41.2682 59.2383 42.3359 59.6908 43.0977 60.5957C43.8594 61.5007 44.2402 62.7962 44.2402 64.4824V65.2344H37.082C37.1081 66.276 37.4108 67.1191 37.9902 67.7637C38.5762 68.4017 39.3184 68.7207 40.2168 68.7207C40.8548 68.7207 41.3952 68.5905 41.8379 68.3301C42.2806 68.0697 42.668 67.7246 43 67.2949L44.1035 68.1543C43.2181 69.515 41.89 70.1953 40.1191 70.1953ZM39.8945 60.7227C39.1654 60.7227 38.5534 60.9896 38.0586 61.5234C37.5638 62.0508 37.2578 62.793 37.1406 63.75H42.4336V63.6133C42.3815 62.6953 42.1341 61.9857 41.6914 61.4844C41.2487 60.9766 40.6497 60.7227 39.8945 60.7227ZM49.8848 63.291L52.2285 59.4336H54.3379L50.8809 64.6582L54.4453 70H52.3555L49.9141 66.0449L47.4727 70H45.373L48.9375 64.6582L45.4805 59.4336H47.5703L49.8848 63.291ZM60.0215 64.6973H55.2559V63.2227H60.0215V64.6973ZM61.3496 64.6289C61.3496 63.0078 61.7337 61.7057 62.502 60.7227C63.2702 59.7331 64.276 59.2383 65.5195 59.2383C66.7565 59.2383 67.7363 59.6615 68.459 60.5078V55H70.2656V70H68.6055L68.5176 68.8672C67.7949 69.7526 66.7891 70.1953 65.5 70.1953C64.276 70.1953 63.2767 69.694 62.502 68.6914C61.7337 67.6888 61.3496 66.3802 61.3496 64.7656V64.6289ZM63.1562 64.834C63.1562 66.0319 63.4036 66.9694 63.8984 67.6465C64.3932 68.3236 65.0768 68.6621 65.9492 68.6621C67.0951 68.6621 67.9316 68.1478 68.459 67.1191V62.2656C67.9186 61.2695 67.0885 60.7715 65.9688 60.7715C65.0833 60.7715 64.3932 61.1133 63.8984 61.7969C63.4036 62.4805 63.1562 63.4928 63.1562 64.834ZM75.041 70H73.2344V59.4336H75.041V70ZM73.0879 56.6309C73.0879 56.3379 73.1758 56.0905 73.3516 55.8887C73.5339 55.6868 73.8008 55.5859 74.1523 55.5859C74.5039 55.5859 74.7708 55.6868 74.9531 55.8887C75.1354 56.0905 75.2266 56.3379 75.2266 56.6309C75.2266 56.9238 75.1354 57.168 74.9531 57.3633C74.7708 57.5586 74.5039 57.6562 74.1523 57.6562C73.8008 57.6562 73.5339 57.5586 73.3516 57.3633C73.1758 57.168 73.0879 56.9238 73.0879 56.6309ZM83.0488 61.0547C82.7754 61.0091 82.4792 60.9863 82.1602 60.9863C80.9753 60.9863 80.1712 61.4909 79.748 62.5V70H77.9414V59.4336H79.6992L79.7285 60.6543C80.321 59.7103 81.1608 59.2383 82.248 59.2383C82.5996 59.2383 82.8665 59.2839 83.0488 59.375V61.0547ZM88.9082 70.1953C87.4759 70.1953 86.3105 69.7266 85.4121 68.7891C84.5137 67.8451 84.0645 66.5853 84.0645 65.0098V64.6777C84.0645 63.6296 84.263 62.6953 84.6602 61.875C85.0638 61.0482 85.6237 60.4036 86.3398 59.9414C87.0625 59.4727 87.8438 59.2383 88.6836 59.2383C90.0573 59.2383 91.125 59.6908 91.8867 60.5957C92.6484 61.5007 93.0293 62.7962 93.0293 64.4824V65.2344H85.8711C85.8971 66.276 86.1999 67.1191 86.7793 67.7637C87.3652 68.4017 88.1074 68.7207 89.0059 68.7207C89.6439 68.7207 90.1842 68.5905 90.627 68.3301C91.0697 68.0697 91.457 67.7246 91.7891 67.2949L92.8926 68.1543C92.0072 69.515 90.679 70.1953 88.9082 70.1953ZM88.6836 60.7227C87.9544 60.7227 87.3424 60.9896 86.8477 61.5234C86.3529 62.0508 86.0469 62.793 85.9297 63.75H91.2227V63.6133C91.1706 62.6953 90.9232 61.9857 90.4805 61.4844C90.0378 60.9766 89.4388 60.7227 88.6836 60.7227ZM99.3672 68.7207C100.012 68.7207 100.575 68.5254 101.057 68.1348C101.538 67.7441 101.805 67.2559 101.857 66.6699H103.566C103.534 67.2754 103.326 67.8516 102.941 68.3984C102.557 68.9453 102.043 69.3815 101.398 69.707C100.76 70.0326 100.083 70.1953 99.3672 70.1953C97.9284 70.1953 96.7826 69.7168 95.9297 68.7598C95.0833 67.7962 94.6602 66.4811 94.6602 64.8145V64.5117C94.6602 63.4831 94.849 62.5684 95.2266 61.7676C95.6042 60.9668 96.1445 60.3451 96.8477 59.9023C97.5573 59.4596 98.3939 59.2383 99.3574 59.2383C100.542 59.2383 101.525 59.5931 102.307 60.3027C103.094 61.0124 103.514 61.9336 103.566 63.0664H101.857C101.805 62.3828 101.545 61.8229 101.076 61.3867C100.614 60.944 100.041 60.7227 99.3574 60.7227C98.4395 60.7227 97.7266 61.0547 97.2188 61.7188C96.7174 62.3763 96.4668 63.3301 96.4668 64.5801V64.9219C96.4668 66.1393 96.7174 67.0768 97.2188 67.7344C97.7201 68.3919 98.4362 68.7207 99.3672 68.7207ZM108.049 56.875V59.4336H110.021V60.8301H108.049V67.3828C108.049 67.806 108.137 68.125 108.312 68.3398C108.488 68.5482 108.788 68.6523 109.211 68.6523C109.419 68.6523 109.706 68.6133 110.07 68.5352V70C109.595 70.1302 109.133 70.1953 108.684 70.1953C107.876 70.1953 107.268 69.9512 106.857 69.4629C106.447 68.9746 106.242 68.2812 106.242 67.3828V60.8301H104.318V59.4336H106.242V56.875H108.049ZM114.104 70H112.297V59.4336H114.104V70ZM112.15 56.6309C112.15 56.3379 112.238 56.0905 112.414 55.8887C112.596 55.6868 112.863 55.5859 113.215 55.5859C113.566 55.5859 113.833 55.6868 114.016 55.8887C114.198 56.0905 114.289 56.3379 114.289 56.6309C114.289 56.9238 114.198 57.168 114.016 57.3633C113.833 57.5586 113.566 57.6562 113.215 57.6562C112.863 57.6562 112.596 57.5586 112.414 57.3633C112.238 57.168 112.15 56.9238 112.15 56.6309ZM116.525 64.6191C116.525 63.584 116.727 62.653 117.131 61.8262C117.541 60.9993 118.107 60.3613 118.83 59.9121C119.559 59.4629 120.389 59.2383 121.32 59.2383C122.759 59.2383 123.921 59.7363 124.807 60.7324C125.699 61.7285 126.145 63.0534 126.145 64.707V64.834C126.145 65.8626 125.946 66.7871 125.549 67.6074C125.158 68.4212 124.595 69.056 123.859 69.5117C123.13 69.9674 122.29 70.1953 121.34 70.1953C119.908 70.1953 118.745 69.6973 117.854 68.7012C116.968 67.7051 116.525 66.3867 116.525 64.7461V64.6191ZM118.342 64.834C118.342 66.0059 118.612 66.9466 119.152 67.6562C119.699 68.3659 120.428 68.7207 121.34 68.7207C122.258 68.7207 122.987 68.3626 123.527 67.6465C124.068 66.9238 124.338 65.9147 124.338 64.6191C124.338 63.4603 124.061 62.5228 123.508 61.8066C122.961 61.084 122.232 60.7227 121.32 60.7227C120.428 60.7227 119.709 61.0775 119.162 61.7871C118.615 62.4967 118.342 63.5124 118.342 64.834ZM130.119 59.4336L130.178 60.7617C130.985 59.7461 132.04 59.2383 133.342 59.2383C135.575 59.2383 136.701 60.498 136.721 63.0176V70H134.914V63.0078C134.908 62.2461 134.732 61.6829 134.387 61.3184C134.048 60.9538 133.518 60.7715 132.795 60.7715C132.209 60.7715 131.695 60.9277 131.252 61.2402C130.809 61.5527 130.464 61.9629 130.217 62.4707V70H128.41V59.4336H130.119Z" fill="#0089C7"/>
<path d="M30.9688 99.5332C30.1615 99.403 29.5104 99.3379 29.0156 99.3379C27.7135 99.3379 27.0625 100.021 27.0625 101.389V102.434H29.3184V103.83H27.0625V113H25.2559V103.83H23.5859V102.434H25.2559V101.281C25.2624 100.155 25.5781 99.2923 26.2031 98.6934C26.8281 98.0944 27.7168 97.7949 28.8691 97.7949C29.5267 97.7949 30.8288 97.9935 32.7754 98.3906V113H30.9688V99.5332ZM40.1191 113.195C38.6868 113.195 37.5215 112.727 36.623 111.789C35.7246 110.845 35.2754 109.585 35.2754 108.01V107.678C35.2754 106.63 35.474 105.695 35.8711 104.875C36.2747 104.048 36.8346 103.404 37.5508 102.941C38.2734 102.473 39.0547 102.238 39.8945 102.238C41.2682 102.238 42.3359 102.691 43.0977 103.596C43.8594 104.501 44.2402 105.796 44.2402 107.482V108.234H37.082C37.1081 109.276 37.4108 110.119 37.9902 110.764C38.5762 111.402 39.3184 111.721 40.2168 111.721C40.8548 111.721 41.3952 111.59 41.8379 111.33C42.2806 111.07 42.668 110.725 43 110.295L44.1035 111.154C43.2181 112.515 41.89 113.195 40.1191 113.195ZM39.8945 103.723C39.1654 103.723 38.5534 103.99 38.0586 104.523C37.5638 105.051 37.2578 105.793 37.1406 106.75H42.4336V106.613C42.3815 105.695 42.1341 104.986 41.6914 104.484C41.2487 103.977 40.6497 103.723 39.8945 103.723ZM49.8848 106.291L52.2285 102.434H54.3379L50.8809 107.658L54.4453 113H52.3555L49.9141 109.045L47.4727 113H45.373L48.9375 107.658L45.4805 102.434H47.5703L49.8848 106.291ZM60.0215 107.697H55.2559V106.223H60.0215V107.697ZM71.1445 110.51L73.1758 102.434H74.9824L71.9062 113H70.4414L67.873 104.992L65.373 113H63.9082L60.8418 102.434H62.6387L64.7188 110.344L67.1797 102.434H68.6348L71.1445 110.51ZM81.9355 104.055C81.6621 104.009 81.3659 103.986 81.0469 103.986C79.862 103.986 79.0579 104.491 78.6348 105.5V113H76.8281V102.434H78.5859L78.6152 103.654C79.2077 102.71 80.0475 102.238 81.1348 102.238C81.4863 102.238 81.7533 102.284 81.9355 102.375V104.055ZM89.7383 113C89.6341 112.792 89.5495 112.421 89.4844 111.887C88.6445 112.759 87.6419 113.195 86.4766 113.195C85.4349 113.195 84.5788 112.902 83.9082 112.316C83.2441 111.724 82.9121 110.975 82.9121 110.07C82.9121 108.97 83.3288 108.117 84.1621 107.512C85.002 106.9 86.1803 106.594 87.6973 106.594H89.4551V105.764C89.4551 105.132 89.2663 104.631 88.8887 104.26C88.5111 103.882 87.9544 103.693 87.2188 103.693C86.5742 103.693 86.0339 103.856 85.5977 104.182C85.1615 104.507 84.9434 104.901 84.9434 105.363H83.127C83.127 104.836 83.3125 104.328 83.6836 103.84C84.0612 103.345 84.569 102.954 85.207 102.668C85.8516 102.382 86.5579 102.238 87.3262 102.238C88.5436 102.238 89.4974 102.544 90.1875 103.156C90.8776 103.762 91.2357 104.598 91.2617 105.666V110.529C91.2617 111.499 91.3854 112.271 91.6328 112.844V113H89.7383ZM86.7402 111.623C87.3066 111.623 87.8438 111.477 88.3516 111.184C88.8594 110.891 89.2272 110.51 89.4551 110.041V107.873H88.0391C85.8255 107.873 84.7188 108.521 84.7188 109.816C84.7188 110.383 84.9076 110.826 85.2852 111.145C85.6628 111.464 86.1478 111.623 86.7402 111.623ZM103.02 107.834C103.02 109.442 102.652 110.738 101.916 111.721C101.18 112.704 100.184 113.195 98.9277 113.195C97.6452 113.195 96.6361 112.788 95.9004 111.975V117.062H94.0938V102.434H95.7441L95.832 103.605C96.5677 102.694 97.5898 102.238 98.8984 102.238C100.168 102.238 101.171 102.717 101.906 103.674C102.648 104.631 103.02 105.962 103.02 107.668V107.834ZM101.213 107.629C101.213 106.438 100.959 105.497 100.451 104.807C99.9434 104.117 99.2467 103.771 98.3613 103.771C97.2676 103.771 96.4473 104.257 95.9004 105.227V110.275C96.4408 111.239 97.2676 111.721 98.3809 111.721C99.2467 111.721 99.9336 111.379 100.441 110.695C100.956 110.005 101.213 108.983 101.213 107.629Z" fill="#0089C7"/>
<path d="M30.9688 142.533C30.1615 142.403 29.5104 142.338 29.0156 142.338C27.7135 142.338 27.0625 143.021 27.0625 144.389V145.434H29.3184V146.83H27.0625V156H25.2559V146.83H23.5859V145.434H25.2559V144.281C25.2624 143.155 25.5781 142.292 26.2031 141.693C26.8281 141.094 27.7168 140.795 28.8691 140.795C29.5267 140.795 30.8288 140.993 32.7754 141.391V156H30.9688V142.533ZM40.1191 156.195C38.6868 156.195 37.5215 155.727 36.623 154.789C35.7246 153.845 35.2754 152.585 35.2754 151.01V150.678C35.2754 149.63 35.474 148.695 35.8711 147.875C36.2747 147.048 36.8346 146.404 37.5508 145.941C38.2734 145.473 39.0547 145.238 39.8945 145.238C41.2682 145.238 42.3359 145.691 43.0977 146.596C43.8594 147.501 44.2402 148.796 44.2402 150.482V151.234H37.082C37.1081 152.276 37.4108 153.119 37.9902 153.764C38.5762 154.402 39.3184 154.721 40.2168 154.721C40.8548 154.721 41.3952 154.59 41.8379 154.33C42.2806 154.07 42.668 153.725 43 153.295L44.1035 154.154C43.2181 155.515 41.89 156.195 40.1191 156.195ZM39.8945 146.723C39.1654 146.723 38.5534 146.99 38.0586 147.523C37.5638 148.051 37.2578 148.793 37.1406 149.75H42.4336V149.613C42.3815 148.695 42.1341 147.986 41.6914 147.484C41.2487 146.977 40.6497 146.723 39.8945 146.723ZM49.8848 149.291L52.2285 145.434H54.3379L50.8809 150.658L54.4453 156H52.3555L49.9141 152.045L47.4727 156H45.373L48.9375 150.658L45.4805 145.434H47.5703L49.8848 149.291ZM60.0215 150.697H55.2559V149.223H60.0215V150.697ZM68.3906 142.533C67.5833 142.403 66.9323 142.338 66.4375 142.338C65.1354 142.338 64.4844 143.021 64.4844 144.389V145.434H66.7402V146.83H64.4844V156H62.6777V146.83H61.0078V145.434H62.6777V144.281C62.6842 143.155 63 142.292 63.625 141.693C64.25 141.094 65.1387 140.795 66.291 140.795C66.9486 140.795 68.2507 140.993 70.1973 141.391V156H68.3906V142.533ZM72.6777 150.619C72.6777 149.584 72.8796 148.653 73.2832 147.826C73.6934 146.999 74.2598 146.361 74.9824 145.912C75.7116 145.463 76.5417 145.238 77.4727 145.238C78.9115 145.238 80.0736 145.736 80.959 146.732C81.8509 147.729 82.2969 149.053 82.2969 150.707V150.834C82.2969 151.863 82.0983 152.787 81.7012 153.607C81.3105 154.421 80.7474 155.056 80.0117 155.512C79.2826 155.967 78.4427 156.195 77.4922 156.195C76.0599 156.195 74.8978 155.697 74.0059 154.701C73.1204 153.705 72.6777 152.387 72.6777 150.746V150.619ZM74.4941 150.834C74.4941 152.006 74.7643 152.947 75.3047 153.656C75.8516 154.366 76.5807 154.721 77.4922 154.721C78.4102 154.721 79.1393 154.363 79.6797 153.646C80.2201 152.924 80.4902 151.915 80.4902 150.619C80.4902 149.46 80.2135 148.523 79.6602 147.807C79.1133 147.084 78.3841 146.723 77.4727 146.723C76.5807 146.723 75.8613 147.077 75.3145 147.787C74.7676 148.497 74.4941 149.512 74.4941 150.834ZM93.918 153.51L95.9492 145.434H97.7559L94.6797 156H93.2148L90.6465 147.992L88.1465 156H86.6816L83.6152 145.434H85.4121L87.4922 153.344L89.9531 145.434H91.4082L93.918 153.51Z" fill="#0089C7"/>
<path d="M23.8887 193.619C23.8887 192.584 24.0905 191.653 24.4941 190.826C24.9043 189.999 25.4707 189.361 26.1934 188.912C26.9225 188.463 27.7526 188.238 28.6836 188.238C30.1224 188.238 31.2845 188.736 32.1699 189.732C33.0618 190.729 33.5078 192.053 33.5078 193.707V193.834C33.5078 194.863 33.3092 195.787 32.9121 196.607C32.5215 197.421 31.9583 198.056 31.2227 198.512C30.4935 198.967 29.6536 199.195 28.7031 199.195C27.2708 199.195 26.1087 198.697 25.2168 197.701C24.3314 196.705 23.8887 195.387 23.8887 193.746V193.619ZM25.7051 193.834C25.7051 195.006 25.9753 195.947 26.5156 196.656C27.0625 197.366 27.7917 197.721 28.7031 197.721C29.6211 197.721 30.3503 197.363 30.8906 196.646C31.431 195.924 31.7012 194.915 31.7012 193.619C31.7012 192.46 31.4245 191.523 30.8711 190.807C30.3242 190.084 29.5951 189.723 28.6836 189.723C27.7917 189.723 27.0723 190.077 26.5254 190.787C25.9785 191.497 25.7051 192.512 25.7051 193.834ZM40.8809 190.055C40.6074 190.009 40.3112 189.986 39.9922 189.986C38.8073 189.986 38.0033 190.491 37.5801 191.5V199H35.7734V188.434H37.5312L37.5605 189.654C38.153 188.71 38.9928 188.238 40.0801 188.238C40.4316 188.238 40.6986 188.284 40.8809 188.375V190.055ZM41.916 193.629C41.916 192.008 42.3001 190.706 43.0684 189.723C43.8366 188.733 44.8424 188.238 46.0859 188.238C47.3229 188.238 48.3027 188.661 49.0254 189.508V184H50.832V199H49.1719L49.084 197.867C48.3613 198.753 47.3555 199.195 46.0664 199.195C44.8424 199.195 43.8431 198.694 43.0684 197.691C42.3001 196.689 41.916 195.38 41.916 193.766V193.629ZM43.7227 193.834C43.7227 195.032 43.9701 195.969 44.4648 196.646C44.9596 197.324 45.6432 197.662 46.5156 197.662C47.6615 197.662 48.498 197.148 49.0254 196.119V191.266C48.485 190.27 47.6549 189.771 46.5352 189.771C45.6497 189.771 44.9596 190.113 44.4648 190.797C43.9701 191.48 43.7227 192.493 43.7227 193.834ZM58.0293 199.195C56.597 199.195 55.4316 198.727 54.5332 197.789C53.6348 196.845 53.1855 195.585 53.1855 194.01V193.678C53.1855 192.63 53.3841 191.695 53.7812 190.875C54.1849 190.048 54.7448 189.404 55.4609 188.941C56.1836 188.473 56.9648 188.238 57.8047 188.238C59.1784 188.238 60.2461 188.691 61.0078 189.596C61.7695 190.501 62.1504 191.796 62.1504 193.482V194.234H54.9922C55.0182 195.276 55.321 196.119 55.9004 196.764C56.4863 197.402 57.2285 197.721 58.127 197.721C58.765 197.721 59.3053 197.59 59.748 197.33C60.1908 197.07 60.5781 196.725 60.9102 196.295L62.0137 197.154C61.1283 198.515 59.8001 199.195 58.0293 199.195ZM57.8047 189.723C57.0755 189.723 56.4635 189.99 55.9688 190.523C55.474 191.051 55.168 191.793 55.0508 192.75H60.3438V192.613C60.2917 191.695 60.0443 190.986 59.6016 190.484C59.1589 189.977 58.5599 189.723 57.8047 189.723ZM69.3574 190.055C69.084 190.009 68.7878 189.986 68.4688 189.986C67.2839 189.986 66.4798 190.491 66.0566 191.5V199H64.25V188.434H66.0078L66.0371 189.654C66.6296 188.71 67.4694 188.238 68.5566 188.238C68.9082 188.238 69.1751 188.284 69.3574 188.375V190.055Z" fill="#0089C7"/>
<rect width="200" height="30" fill="#159A6B"/>
<path d="M60.0625 21H58.5547V15.7422H52.8203V21H51.3203V9.625H52.8203V14.5156H58.5547V9.625H60.0625V21ZM69.1484 18.0312H64.3828L63.3125 21H61.7656L66.1094 9.625H67.4219L71.7734 21H70.2344L69.1484 18.0312ZM64.8359 16.7969H68.7031L66.7656 11.4766L64.8359 16.7969ZM81.9922 21H80.4844V10.8594H74.875V21H73.375V9.625H81.9922V21ZM86.2266 16.5469V21H84.7266V9.625H88.9219C90.1667 9.625 91.1406 9.94271 91.8438 10.5781C92.5521 11.2135 92.9062 12.0547 92.9062 13.1016C92.9062 14.2057 92.5599 15.0573 91.8672 15.6562C91.1797 16.25 90.1927 16.5469 88.9062 16.5469H86.2266ZM86.2266 15.3203H88.9219C89.724 15.3203 90.3385 15.1328 90.7656 14.7578C91.1927 14.3776 91.4062 13.8307 91.4062 13.1172C91.4062 12.4401 91.1927 11.8984 90.7656 11.4922C90.3385 11.0859 89.7526 10.875 89.0078 10.8594H86.2266V15.3203ZM100.773 21V16.5703H98.1484L95.7969 21H94.1953L96.8359 16.1562C95.3672 15.5781 94.6328 14.5443 94.6328 13.0547C94.6328 11.9714 94.987 11.1302 95.6953 10.5312C96.4089 9.92708 97.3984 9.625 98.6641 9.625H102.281V21H100.773ZM96.1328 13.0547C96.1328 13.7422 96.3464 14.2943 96.7734 14.7109C97.2057 15.1276 97.8047 15.3385 98.5703 15.3438H100.773V10.8594H98.6406C97.8281 10.8594 97.2057 11.0521 96.7734 11.4375C96.3464 11.8229 96.1328 12.362 96.1328 13.0547ZM106.945 9.625L110.664 18.9062L114.383 9.625H116.328V21H114.828V16.5703L114.969 11.7891L111.234 21H110.086L106.359 11.8125L106.508 16.5703V21H105.008V9.625H106.945ZM127.727 15.6797C127.727 16.7943 127.539 17.7682 127.164 18.6016C126.789 19.4297 126.258 20.0625 125.57 20.5C124.883 20.9375 124.081 21.1562 123.164 21.1562C122.268 21.1562 121.474 20.9375 120.781 20.5C120.089 20.0573 119.549 19.4297 119.164 18.6172C118.784 17.7995 118.589 16.8542 118.578 15.7812V14.9609C118.578 13.8672 118.768 12.901 119.148 12.0625C119.529 11.224 120.065 10.5833 120.758 10.1406C121.456 9.69271 122.253 9.46875 123.148 9.46875C124.06 9.46875 124.862 9.6901 125.555 10.1328C126.253 10.5703 126.789 11.2083 127.164 12.0469C127.539 12.8802 127.727 13.8516 127.727 14.9609V15.6797ZM126.234 14.9453C126.234 13.5964 125.964 12.5625 125.422 11.8438C124.88 11.1198 124.122 10.7578 123.148 10.7578C122.201 10.7578 121.453 11.1198 120.906 11.8438C120.365 12.5625 120.086 13.5625 120.07 14.8438V15.6797C120.07 16.987 120.344 18.0156 120.891 18.7656C121.443 19.5104 122.201 19.8828 123.164 19.8828C124.133 19.8828 124.883 19.5312 125.414 18.8281C125.945 18.1198 126.219 17.1068 126.234 15.7891V14.9453ZM132.93 15.8906H131.547V21H130.047V9.625H131.547V14.6406H132.719L136.695 9.625H138.562L134.219 15.1406L138.883 21H137.047L132.93 15.8906Z" fill="white"/>
<rect x="220.5" y="0.5" width="199" height="235" stroke="#128279"/>
<path d="M246.232 59.4336V71.2207C246.232 73.252 245.311 74.2676 243.469 74.2676C243.072 74.2676 242.704 74.209 242.365 74.0918V72.6465C242.574 72.6986 242.847 72.7246 243.186 72.7246C243.589 72.7246 243.895 72.6139 244.104 72.3926C244.318 72.1777 244.426 71.8001 244.426 71.2598V59.4336H246.232ZM244.24 56.6309C244.24 56.3444 244.328 56.1003 244.504 55.8984C244.686 55.6901 244.95 55.5859 245.295 55.5859C245.646 55.5859 245.913 55.6868 246.096 55.8887C246.278 56.0905 246.369 56.3379 246.369 56.6309C246.369 56.9238 246.278 57.168 246.096 57.3633C245.913 57.5586 245.646 57.6562 245.295 57.6562C244.943 57.6562 244.68 57.5586 244.504 57.3633C244.328 57.168 244.24 56.9238 244.24 56.6309ZM255.676 68.9551C254.973 69.7819 253.941 70.1953 252.58 70.1953C251.454 70.1953 250.594 69.8698 250.002 69.2188C249.416 68.5612 249.12 67.5911 249.113 66.3086V59.4336H250.92V66.2598C250.92 67.8613 251.571 68.6621 252.873 68.6621C254.253 68.6621 255.171 68.1478 255.627 67.1191V59.4336H257.434V70H255.715L255.676 68.9551ZM266.34 67.1973C266.34 66.709 266.154 66.3314 265.783 66.0645C265.419 65.791 264.777 65.5566 263.859 65.3613C262.948 65.166 262.222 64.9316 261.682 64.6582C261.148 64.3848 260.751 64.0592 260.49 63.6816C260.236 63.304 260.109 62.8548 260.109 62.334C260.109 61.4681 260.474 60.7357 261.203 60.1367C261.939 59.5378 262.876 59.2383 264.016 59.2383C265.214 59.2383 266.184 59.5475 266.926 60.166C267.674 60.7845 268.049 61.5755 268.049 62.5391H266.232C266.232 62.0443 266.021 61.6178 265.598 61.2598C265.181 60.9017 264.654 60.7227 264.016 60.7227C263.358 60.7227 262.844 60.8659 262.473 61.1523C262.102 61.4388 261.916 61.8132 261.916 62.2754C261.916 62.7116 262.089 63.0404 262.434 63.2617C262.779 63.4831 263.4 63.6947 264.299 63.8965C265.204 64.0983 265.936 64.3392 266.496 64.6191C267.056 64.8991 267.469 65.2376 267.736 65.6348C268.01 66.0254 268.146 66.5039 268.146 67.0703C268.146 68.0143 267.769 68.7728 267.014 69.3457C266.258 69.9121 265.279 70.1953 264.074 70.1953C263.228 70.1953 262.479 70.0456 261.828 69.7461C261.177 69.4466 260.666 69.0299 260.295 68.4961C259.93 67.9557 259.748 67.373 259.748 66.748H261.555C261.587 67.3535 261.828 67.8353 262.277 68.1934C262.733 68.5449 263.332 68.7207 264.074 68.7207C264.758 68.7207 265.305 68.584 265.715 68.3105C266.132 68.0306 266.34 67.6595 266.34 67.1973ZM272.951 56.875V59.4336H274.924V60.8301H272.951V67.3828C272.951 67.806 273.039 68.125 273.215 68.3398C273.391 68.5482 273.69 68.6523 274.113 68.6523C274.322 68.6523 274.608 68.6133 274.973 68.5352V70C274.497 70.1302 274.035 70.1953 273.586 70.1953C272.779 70.1953 272.17 69.9512 271.76 69.4629C271.35 68.9746 271.145 68.2812 271.145 67.3828V60.8301H269.221V59.4336H271.145V56.875H272.951ZM279.006 70H277.199V59.4336H279.006V70ZM277.053 56.6309C277.053 56.3379 277.141 56.0905 277.316 55.8887C277.499 55.6868 277.766 55.5859 278.117 55.5859C278.469 55.5859 278.736 55.6868 278.918 55.8887C279.1 56.0905 279.191 56.3379 279.191 56.6309C279.191 56.9238 279.1 57.168 278.918 57.3633C278.736 57.5586 278.469 57.6562 278.117 57.6562C277.766 57.6562 277.499 57.5586 277.316 57.3633C277.141 57.168 277.053 56.9238 277.053 56.6309ZM282.795 70V60.8301H281.125V59.4336H282.795V58.3496C282.795 57.2168 283.098 56.3411 283.703 55.7227C284.309 55.1042 285.165 54.7949 286.271 54.7949C286.688 54.7949 287.102 54.8503 287.512 54.9609L287.414 56.4258C287.108 56.3672 286.783 56.3379 286.438 56.3379C285.852 56.3379 285.399 56.5104 285.08 56.8555C284.761 57.194 284.602 57.6823 284.602 58.3203V59.4336H286.857V60.8301H284.602V70H282.795ZM292.316 67.3535L294.777 59.4336H296.711L292.463 71.6309C291.805 73.3887 290.76 74.2676 289.328 74.2676L288.986 74.2383L288.312 74.1113V72.6465L288.801 72.6855C289.413 72.6855 289.888 72.5618 290.227 72.3145C290.572 72.0671 290.855 71.6146 291.076 70.957L291.477 69.8828L287.707 59.4336H289.68L292.316 67.3535ZM302.092 64.6973H297.326V63.2227H302.092V64.6973ZM308.098 68.7207C308.742 68.7207 309.305 68.5254 309.787 68.1348C310.269 67.7441 310.536 67.2559 310.588 66.6699H312.297C312.264 67.2754 312.056 67.8516 311.672 68.3984C311.288 68.9453 310.773 69.3815 310.129 69.707C309.491 70.0326 308.814 70.1953 308.098 70.1953C306.659 70.1953 305.513 69.7168 304.66 68.7598C303.814 67.7962 303.391 66.4811 303.391 64.8145V64.5117C303.391 63.4831 303.579 62.5684 303.957 61.7676C304.335 60.9668 304.875 60.3451 305.578 59.9023C306.288 59.4596 307.124 59.2383 308.088 59.2383C309.273 59.2383 310.256 59.5931 311.037 60.3027C311.825 61.0124 312.245 61.9336 312.297 63.0664H310.588C310.536 62.3828 310.275 61.8229 309.807 61.3867C309.344 60.944 308.771 60.7227 308.088 60.7227C307.17 60.7227 306.457 61.0547 305.949 61.7188C305.448 62.3763 305.197 63.3301 305.197 64.5801V64.9219C305.197 66.1393 305.448 67.0768 305.949 67.7344C306.451 68.3919 307.167 68.7207 308.098 68.7207ZM313.85 64.6191C313.85 63.584 314.051 62.653 314.455 61.8262C314.865 60.9993 315.432 60.3613 316.154 59.9121C316.883 59.4629 317.714 59.2383 318.645 59.2383C320.083 59.2383 321.245 59.7363 322.131 60.7324C323.023 61.7285 323.469 63.0534 323.469 64.707V64.834C323.469 65.8626 323.27 66.7871 322.873 67.6074C322.482 68.4212 321.919 69.056 321.184 69.5117C320.454 69.9674 319.615 70.1953 318.664 70.1953C317.232 70.1953 316.07 69.6973 315.178 68.7012C314.292 67.7051 313.85 66.3867 313.85 64.7461V64.6191ZM315.666 64.834C315.666 66.0059 315.936 66.9466 316.477 67.6562C317.023 68.3659 317.753 68.7207 318.664 68.7207C319.582 68.7207 320.311 68.3626 320.852 67.6465C321.392 66.9238 321.662 65.9147 321.662 64.6191C321.662 63.4603 321.385 62.5228 320.832 61.8066C320.285 61.084 319.556 60.7227 318.645 60.7227C317.753 60.7227 317.033 61.0775 316.486 61.7871C315.939 62.4967 315.666 63.5124 315.666 64.834ZM327.443 59.4336L327.502 60.7617C328.309 59.7461 329.364 59.2383 330.666 59.2383C332.899 59.2383 334.025 60.498 334.045 63.0176V70H332.238V63.0078C332.232 62.2461 332.056 61.6829 331.711 61.3184C331.372 60.9538 330.842 60.7715 330.119 60.7715C329.533 60.7715 329.019 60.9277 328.576 61.2402C328.133 61.5527 327.788 61.9629 327.541 62.4707V70H325.734V59.4336H327.443ZM339.221 56.875V59.4336H341.193V60.8301H339.221V67.3828C339.221 67.806 339.309 68.125 339.484 68.3398C339.66 68.5482 339.96 68.6523 340.383 68.6523C340.591 68.6523 340.878 68.6133 341.242 68.5352V70C340.767 70.1302 340.305 70.1953 339.855 70.1953C339.048 70.1953 338.439 69.9512 338.029 69.4629C337.619 68.9746 337.414 68.2812 337.414 67.3828V60.8301H335.49V59.4336H337.414V56.875H339.221ZM347.697 70.1953C346.265 70.1953 345.1 69.7266 344.201 68.7891C343.303 67.8451 342.854 66.5853 342.854 65.0098V64.6777C342.854 63.6296 343.052 62.6953 343.449 61.875C343.853 61.0482 344.413 60.4036 345.129 59.9414C345.852 59.4727 346.633 59.2383 347.473 59.2383C348.846 59.2383 349.914 59.6908 350.676 60.5957C351.438 61.5007 351.818 62.7962 351.818 64.4824V65.2344H344.66C344.686 66.276 344.989 67.1191 345.568 67.7637C346.154 68.4017 346.896 68.7207 347.795 68.7207C348.433 68.7207 348.973 68.5905 349.416 68.3301C349.859 68.0697 350.246 67.7246 350.578 67.2949L351.682 68.1543C350.796 69.515 349.468 70.1953 347.697 70.1953ZM347.473 60.7227C346.743 60.7227 346.132 60.9896 345.637 61.5234C345.142 62.0508 344.836 62.793 344.719 63.75H350.012V63.6133C349.96 62.6953 349.712 61.9857 349.27 61.4844C348.827 60.9766 348.228 60.7227 347.473 60.7227ZM355.627 59.4336L355.686 60.7617C356.493 59.7461 357.548 59.2383 358.85 59.2383C361.083 59.2383 362.209 60.498 362.229 63.0176V70H360.422V63.0078C360.415 62.2461 360.24 61.6829 359.895 61.3184C359.556 60.9538 359.025 60.7715 358.303 60.7715C357.717 60.7715 357.202 60.9277 356.76 61.2402C356.317 61.5527 355.972 61.9629 355.725 62.4707V70H353.918V59.4336H355.627ZM367.404 56.875V59.4336H369.377V60.8301H367.404V67.3828C367.404 67.806 367.492 68.125 367.668 68.3398C367.844 68.5482 368.143 68.6523 368.566 68.6523C368.775 68.6523 369.061 68.6133 369.426 68.5352V70C368.951 70.1302 368.488 70.1953 368.039 70.1953C367.232 70.1953 366.623 69.9512 366.213 69.4629C365.803 68.9746 365.598 68.2812 365.598 67.3828V60.8301H363.674V59.4336H365.598V56.875H367.404Z" fill="#0089C7"/>
<path d="M250.891 113C250.786 112.792 250.702 112.421 250.637 111.887C249.797 112.759 248.794 113.195 247.629 113.195C246.587 113.195 245.731 112.902 245.061 112.316C244.396 111.724 244.064 110.975 244.064 110.07C244.064 108.97 244.481 108.117 245.314 107.512C246.154 106.9 247.333 106.594 248.85 106.594H250.607V105.764C250.607 105.132 250.419 104.631 250.041 104.26C249.663 103.882 249.107 103.693 248.371 103.693C247.727 103.693 247.186 103.856 246.75 104.182C246.314 104.507 246.096 104.901 246.096 105.363H244.279C244.279 104.836 244.465 104.328 244.836 103.84C245.214 103.345 245.721 102.954 246.359 102.668C247.004 102.382 247.71 102.238 248.479 102.238C249.696 102.238 250.65 102.544 251.34 103.156C252.03 103.762 252.388 104.598 252.414 105.666V110.529C252.414 111.499 252.538 112.271 252.785 112.844V113H250.891ZM247.893 111.623C248.459 111.623 248.996 111.477 249.504 111.184C250.012 110.891 250.38 110.51 250.607 110.041V107.873H249.191C246.978 107.873 245.871 108.521 245.871 109.816C245.871 110.383 246.06 110.826 246.438 111.145C246.815 111.464 247.3 111.623 247.893 111.623ZM257.209 113H255.402V98H257.209V113ZM262.072 113H260.266V102.434H262.072V113ZM260.119 99.6309C260.119 99.3379 260.207 99.0905 260.383 98.8887C260.565 98.6868 260.832 98.5859 261.184 98.5859C261.535 98.5859 261.802 98.6868 261.984 98.8887C262.167 99.0905 262.258 99.3379 262.258 99.6309C262.258 99.9238 262.167 100.168 261.984 100.363C261.802 100.559 261.535 100.656 261.184 100.656C260.832 100.656 260.565 100.559 260.383 100.363C260.207 100.168 260.119 99.9238 260.119 99.6309ZM264.543 107.629C264.543 105.982 264.924 104.673 265.686 103.703C266.447 102.727 267.456 102.238 268.713 102.238C270.002 102.238 271.008 102.694 271.73 103.605L271.818 102.434H273.469V112.746C273.469 114.113 273.062 115.191 272.248 115.979C271.441 116.766 270.354 117.16 268.986 117.16C268.225 117.16 267.479 116.997 266.75 116.672C266.021 116.346 265.464 115.9 265.08 115.334L266.018 114.25C266.792 115.207 267.74 115.686 268.859 115.686C269.738 115.686 270.422 115.438 270.91 114.943C271.405 114.449 271.652 113.752 271.652 112.854V111.945C270.93 112.779 269.943 113.195 268.693 113.195C267.456 113.195 266.454 112.697 265.686 111.701C264.924 110.705 264.543 109.348 264.543 107.629ZM266.359 107.834C266.359 109.025 266.604 109.963 267.092 110.646C267.58 111.324 268.264 111.662 269.143 111.662C270.282 111.662 271.118 111.145 271.652 110.109V105.285C271.099 104.276 270.269 103.771 269.162 103.771C268.283 103.771 267.596 104.113 267.102 104.797C266.607 105.48 266.359 106.493 266.359 107.834ZM277.912 102.434L277.971 103.762C278.778 102.746 279.833 102.238 281.135 102.238C283.368 102.238 284.494 103.498 284.514 106.018V113H282.707V106.008C282.701 105.246 282.525 104.683 282.18 104.318C281.841 103.954 281.311 103.771 280.588 103.771C280.002 103.771 279.488 103.928 279.045 104.24C278.602 104.553 278.257 104.963 278.01 105.471V113H276.203V102.434H277.912ZM290.998 107.697H286.232V106.223H290.998V107.697ZM294.729 113H292.922V102.434H294.729V113ZM292.775 99.6309C292.775 99.3379 292.863 99.0905 293.039 98.8887C293.221 98.6868 293.488 98.5859 293.84 98.5859C294.191 98.5859 294.458 98.6868 294.641 98.8887C294.823 99.0905 294.914 99.3379 294.914 99.6309C294.914 99.9238 294.823 100.168 294.641 100.363C294.458 100.559 294.191 100.656 293.84 100.656C293.488 100.656 293.221 100.559 293.039 100.363C292.863 100.168 292.775 99.9238 292.775 99.6309ZM300.08 99.875V102.434H302.053V103.83H300.08V110.383C300.08 110.806 300.168 111.125 300.344 111.34C300.52 111.548 300.819 111.652 301.242 111.652C301.451 111.652 301.737 111.613 302.102 111.535V113C301.626 113.13 301.164 113.195 300.715 113.195C299.908 113.195 299.299 112.951 298.889 112.463C298.479 111.975 298.273 111.281 298.273 110.383V103.83H296.35V102.434H298.273V99.875H300.08ZM308.557 113.195C307.124 113.195 305.959 112.727 305.061 111.789C304.162 110.845 303.713 109.585 303.713 108.01V107.678C303.713 106.63 303.911 105.695 304.309 104.875C304.712 104.048 305.272 103.404 305.988 102.941C306.711 102.473 307.492 102.238 308.332 102.238C309.706 102.238 310.773 102.691 311.535 103.596C312.297 104.501 312.678 105.796 312.678 107.482V108.234H305.52C305.546 109.276 305.848 110.119 306.428 110.764C307.014 111.402 307.756 111.721 308.654 111.721C309.292 111.721 309.833 111.59 310.275 111.33C310.718 111.07 311.105 110.725 311.438 110.295L312.541 111.154C311.656 112.515 310.327 113.195 308.557 113.195ZM308.332 103.723C307.603 103.723 306.991 103.99 306.496 104.523C306.001 105.051 305.695 105.793 305.578 106.75H310.871V106.613C310.819 105.695 310.572 104.986 310.129 104.484C309.686 103.977 309.087 103.723 308.332 103.723ZM316.477 102.434L316.525 103.605C317.3 102.694 318.345 102.238 319.66 102.238C321.138 102.238 322.144 102.805 322.678 103.938C323.029 103.43 323.485 103.02 324.045 102.707C324.611 102.395 325.279 102.238 326.047 102.238C328.365 102.238 329.543 103.465 329.582 105.92V113H327.775V106.027C327.775 105.272 327.603 104.709 327.258 104.338C326.913 103.96 326.333 103.771 325.52 103.771C324.849 103.771 324.292 103.973 323.85 104.377C323.407 104.774 323.15 105.311 323.078 105.988V113H321.262V106.076C321.262 104.54 320.51 103.771 319.006 103.771C317.821 103.771 317.01 104.276 316.574 105.285V113H314.768V102.434H316.477ZM338.469 110.197C338.469 109.709 338.283 109.331 337.912 109.064C337.548 108.791 336.906 108.557 335.988 108.361C335.077 108.166 334.351 107.932 333.811 107.658C333.277 107.385 332.88 107.059 332.619 106.682C332.365 106.304 332.238 105.855 332.238 105.334C332.238 104.468 332.603 103.736 333.332 103.137C334.068 102.538 335.005 102.238 336.145 102.238C337.342 102.238 338.312 102.548 339.055 103.166C339.803 103.785 340.178 104.576 340.178 105.539H338.361C338.361 105.044 338.15 104.618 337.727 104.26C337.31 103.902 336.783 103.723 336.145 103.723C335.487 103.723 334.973 103.866 334.602 104.152C334.23 104.439 334.045 104.813 334.045 105.275C334.045 105.712 334.217 106.04 334.562 106.262C334.908 106.483 335.529 106.695 336.428 106.896C337.333 107.098 338.065 107.339 338.625 107.619C339.185 107.899 339.598 108.238 339.865 108.635C340.139 109.025 340.275 109.504 340.275 110.07C340.275 111.014 339.898 111.773 339.143 112.346C338.387 112.912 337.408 113.195 336.203 113.195C335.357 113.195 334.608 113.046 333.957 112.746C333.306 112.447 332.795 112.03 332.424 111.496C332.059 110.956 331.877 110.373 331.877 109.748H333.684C333.716 110.354 333.957 110.835 334.406 111.193C334.862 111.545 335.461 111.721 336.203 111.721C336.887 111.721 337.434 111.584 337.844 111.311C338.26 111.031 338.469 110.66 338.469 110.197Z" fill="#0089C7"/>
<path d="M250.891 156C250.786 155.792 250.702 155.421 250.637 154.887C249.797 155.759 248.794 156.195 247.629 156.195C246.587 156.195 245.731 155.902 245.061 155.316C244.396 154.724 244.064 153.975 244.064 153.07C244.064 151.97 244.481 151.117 245.314 150.512C246.154 149.9 247.333 149.594 248.85 149.594H250.607V148.764C250.607 148.132 250.419 147.631 250.041 147.26C249.663 146.882 249.107 146.693 248.371 146.693C247.727 146.693 247.186 146.856 246.75 147.182C246.314 147.507 246.096 147.901 246.096 148.363H244.279C244.279 147.836 244.465 147.328 244.836 146.84C245.214 146.345 245.721 145.954 246.359 145.668C247.004 145.382 247.71 145.238 248.479 145.238C249.696 145.238 250.65 145.544 251.34 146.156C252.03 146.762 252.388 147.598 252.414 148.666V153.529C252.414 154.499 252.538 155.271 252.785 155.844V156H250.891ZM247.893 154.623C248.459 154.623 248.996 154.477 249.504 154.184C250.012 153.891 250.38 153.51 250.607 153.041V150.873H249.191C246.978 150.873 245.871 151.521 245.871 152.816C245.871 153.383 246.06 153.826 246.438 154.145C246.815 154.464 247.3 154.623 247.893 154.623ZM257.209 156H255.402V141H257.209V156ZM262.072 156H260.266V145.434H262.072V156ZM260.119 142.631C260.119 142.338 260.207 142.09 260.383 141.889C260.565 141.687 260.832 141.586 261.184 141.586C261.535 141.586 261.802 141.687 261.984 141.889C262.167 142.09 262.258 142.338 262.258 142.631C262.258 142.924 262.167 143.168 261.984 143.363C261.802 143.559 261.535 143.656 261.184 143.656C260.832 143.656 260.565 143.559 260.383 143.363C260.207 143.168 260.119 142.924 260.119 142.631ZM264.543 150.629C264.543 148.982 264.924 147.673 265.686 146.703C266.447 145.727 267.456 145.238 268.713 145.238C270.002 145.238 271.008 145.694 271.73 146.605L271.818 145.434H273.469V155.746C273.469 157.113 273.062 158.191 272.248 158.979C271.441 159.766 270.354 160.16 268.986 160.16C268.225 160.16 267.479 159.997 266.75 159.672C266.021 159.346 265.464 158.9 265.08 158.334L266.018 157.25C266.792 158.207 267.74 158.686 268.859 158.686C269.738 158.686 270.422 158.438 270.91 157.943C271.405 157.449 271.652 156.752 271.652 155.854V154.945C270.93 155.779 269.943 156.195 268.693 156.195C267.456 156.195 266.454 155.697 265.686 154.701C264.924 153.705 264.543 152.348 264.543 150.629ZM266.359 150.834C266.359 152.025 266.604 152.963 267.092 153.646C267.58 154.324 268.264 154.662 269.143 154.662C270.282 154.662 271.118 154.145 271.652 153.109V148.285C271.099 147.276 270.269 146.771 269.162 146.771C268.283 146.771 267.596 147.113 267.102 147.797C266.607 148.48 266.359 149.493 266.359 150.834ZM277.912 145.434L277.971 146.762C278.778 145.746 279.833 145.238 281.135 145.238C283.368 145.238 284.494 146.498 284.514 149.018V156H282.707V149.008C282.701 148.246 282.525 147.683 282.18 147.318C281.841 146.954 281.311 146.771 280.588 146.771C280.002 146.771 279.488 146.928 279.045 147.24C278.602 147.553 278.257 147.963 278.01 148.471V156H276.203V145.434H277.912ZM290.998 150.697H286.232V149.223H290.998V150.697ZM297.004 154.721C297.648 154.721 298.212 154.525 298.693 154.135C299.175 153.744 299.442 153.256 299.494 152.67H301.203C301.171 153.275 300.962 153.852 300.578 154.398C300.194 154.945 299.68 155.382 299.035 155.707C298.397 156.033 297.72 156.195 297.004 156.195C295.565 156.195 294.419 155.717 293.566 154.76C292.72 153.796 292.297 152.481 292.297 150.814V150.512C292.297 149.483 292.486 148.568 292.863 147.768C293.241 146.967 293.781 146.345 294.484 145.902C295.194 145.46 296.031 145.238 296.994 145.238C298.179 145.238 299.162 145.593 299.943 146.303C300.731 147.012 301.151 147.934 301.203 149.066H299.494C299.442 148.383 299.182 147.823 298.713 147.387C298.251 146.944 297.678 146.723 296.994 146.723C296.076 146.723 295.363 147.055 294.855 147.719C294.354 148.376 294.104 149.33 294.104 150.58V150.922C294.104 152.139 294.354 153.077 294.855 153.734C295.357 154.392 296.073 154.721 297.004 154.721ZM302.756 150.619C302.756 149.584 302.958 148.653 303.361 147.826C303.771 146.999 304.338 146.361 305.061 145.912C305.79 145.463 306.62 145.238 307.551 145.238C308.99 145.238 310.152 145.736 311.037 146.732C311.929 147.729 312.375 149.053 312.375 150.707V150.834C312.375 151.863 312.176 152.787 311.779 153.607C311.389 154.421 310.826 155.056 310.09 155.512C309.361 155.967 308.521 156.195 307.57 156.195C306.138 156.195 304.976 155.697 304.084 154.701C303.199 153.705 302.756 152.387 302.756 150.746V150.619ZM304.572 150.834C304.572 152.006 304.842 152.947 305.383 153.656C305.93 154.366 306.659 154.721 307.57 154.721C308.488 154.721 309.217 154.363 309.758 153.646C310.298 152.924 310.568 151.915 310.568 150.619C310.568 149.46 310.292 148.523 309.738 147.807C309.191 147.084 308.462 146.723 307.551 146.723C306.659 146.723 305.939 147.077 305.393 147.787C304.846 148.497 304.572 149.512 304.572 150.834ZM316.35 145.434L316.408 146.762C317.215 145.746 318.27 145.238 319.572 145.238C321.805 145.238 322.932 146.498 322.951 149.018V156H321.145V149.008C321.138 148.246 320.962 147.683 320.617 147.318C320.279 146.954 319.748 146.771 319.025 146.771C318.439 146.771 317.925 146.928 317.482 147.24C317.04 147.553 316.695 147.963 316.447 148.471V156H314.641V145.434H316.35ZM328.127 142.875V145.434H330.1V146.83H328.127V153.383C328.127 153.806 328.215 154.125 328.391 154.34C328.566 154.548 328.866 154.652 329.289 154.652C329.497 154.652 329.784 154.613 330.148 154.535V156C329.673 156.13 329.211 156.195 328.762 156.195C327.954 156.195 327.346 155.951 326.936 155.463C326.525 154.975 326.32 154.281 326.32 153.383V146.83H324.396V145.434H326.32V142.875H328.127ZM336.604 156.195C335.171 156.195 334.006 155.727 333.107 154.789C332.209 153.845 331.76 152.585 331.76 151.01V150.678C331.76 149.63 331.958 148.695 332.355 147.875C332.759 147.048 333.319 146.404 334.035 145.941C334.758 145.473 335.539 145.238 336.379 145.238C337.753 145.238 338.82 145.691 339.582 146.596C340.344 147.501 340.725 148.796 340.725 150.482V151.234H333.566C333.592 152.276 333.895 153.119 334.475 153.764C335.061 154.402 335.803 154.721 336.701 154.721C337.339 154.721 337.88 154.59 338.322 154.33C338.765 154.07 339.152 153.725 339.484 153.295L340.588 154.154C339.702 155.515 338.374 156.195 336.604 156.195ZM336.379 146.723C335.65 146.723 335.038 146.99 334.543 147.523C334.048 148.051 333.742 148.793 333.625 149.75H338.918V149.613C338.866 148.695 338.618 147.986 338.176 147.484C337.733 146.977 337.134 146.723 336.379 146.723ZM344.533 145.434L344.592 146.762C345.399 145.746 346.454 145.238 347.756 145.238C349.989 145.238 351.115 146.498 351.135 149.018V156H349.328V149.008C349.322 148.246 349.146 147.683 348.801 147.318C348.462 146.954 347.932 146.771 347.209 146.771C346.623 146.771 346.109 146.928 345.666 147.24C345.223 147.553 344.878 147.963 344.631 148.471V156H342.824V145.434H344.533ZM356.311 142.875V145.434H358.283V146.83H356.311V153.383C356.311 153.806 356.398 154.125 356.574 154.34C356.75 154.548 357.049 154.652 357.473 154.652C357.681 154.652 357.967 154.613 358.332 154.535V156C357.857 156.13 357.395 156.195 356.945 156.195C356.138 156.195 355.529 155.951 355.119 155.463C354.709 154.975 354.504 154.281 354.504 153.383V146.83H352.58V145.434H354.504V142.875H356.311Z" fill="#0089C7"/>
<rect x="220" width="200" height="30" fill="#128279"/>
<path d="M250.891 199C250.786 198.792 250.702 198.421 250.637 197.887C249.797 198.759 248.794 199.195 247.629 199.195C246.587 199.195 245.731 198.902 245.061 198.316C244.396 197.724 244.064 196.975 244.064 196.07C244.064 194.97 244.481 194.117 245.314 193.512C246.154 192.9 247.333 192.594 248.85 192.594H250.607V191.764C250.607 191.132 250.419 190.631 250.041 190.26C249.663 189.882 249.107 189.693 248.371 189.693C247.727 189.693 247.186 189.856 246.75 190.182C246.314 190.507 246.096 190.901 246.096 191.363H244.279C244.279 190.836 244.465 190.328 244.836 189.84C245.214 189.345 245.721 188.954 246.359 188.668C247.004 188.382 247.71 188.238 248.479 188.238C249.696 188.238 250.65 188.544 251.34 189.156C252.03 189.762 252.388 190.598 252.414 191.666V196.529C252.414 197.499 252.538 198.271 252.785 198.844V199H250.891ZM247.893 197.623C248.459 197.623 248.996 197.477 249.504 197.184C250.012 196.891 250.38 196.51 250.607 196.041V193.873H249.191C246.978 193.873 245.871 194.521 245.871 195.816C245.871 196.383 246.06 196.826 246.438 197.145C246.815 197.464 247.3 197.623 247.893 197.623ZM257.209 199H255.402V184H257.209V199ZM262.072 199H260.266V188.434H262.072V199ZM260.119 185.631C260.119 185.338 260.207 185.09 260.383 184.889C260.565 184.687 260.832 184.586 261.184 184.586C261.535 184.586 261.802 184.687 261.984 184.889C262.167 185.09 262.258 185.338 262.258 185.631C262.258 185.924 262.167 186.168 261.984 186.363C261.802 186.559 261.535 186.656 261.184 186.656C260.832 186.656 260.565 186.559 260.383 186.363C260.207 186.168 260.119 185.924 260.119 185.631ZM264.543 193.629C264.543 191.982 264.924 190.673 265.686 189.703C266.447 188.727 267.456 188.238 268.713 188.238C270.002 188.238 271.008 188.694 271.73 189.605L271.818 188.434H273.469V198.746C273.469 200.113 273.062 201.191 272.248 201.979C271.441 202.766 270.354 203.16 268.986 203.16C268.225 203.16 267.479 202.997 266.75 202.672C266.021 202.346 265.464 201.9 265.08 201.334L266.018 200.25C266.792 201.207 267.74 201.686 268.859 201.686C269.738 201.686 270.422 201.438 270.91 200.943C271.405 200.449 271.652 199.752 271.652 198.854V197.945C270.93 198.779 269.943 199.195 268.693 199.195C267.456 199.195 266.454 198.697 265.686 197.701C264.924 196.705 264.543 195.348 264.543 193.629ZM266.359 193.834C266.359 195.025 266.604 195.963 267.092 196.646C267.58 197.324 268.264 197.662 269.143 197.662C270.282 197.662 271.118 197.145 271.652 196.109V191.285C271.099 190.276 270.269 189.771 269.162 189.771C268.283 189.771 267.596 190.113 267.102 190.797C266.607 191.48 266.359 192.493 266.359 193.834ZM277.912 188.434L277.971 189.762C278.778 188.746 279.833 188.238 281.135 188.238C283.368 188.238 284.494 189.498 284.514 192.018V199H282.707V192.008C282.701 191.246 282.525 190.683 282.18 190.318C281.841 189.954 281.311 189.771 280.588 189.771C280.002 189.771 279.488 189.928 279.045 190.24C278.602 190.553 278.257 190.963 278.01 191.471V199H276.203V188.434H277.912ZM290.998 193.697H286.232V192.223H290.998V193.697ZM298.918 196.197C298.918 195.709 298.732 195.331 298.361 195.064C297.997 194.791 297.355 194.557 296.438 194.361C295.526 194.166 294.8 193.932 294.26 193.658C293.726 193.385 293.329 193.059 293.068 192.682C292.814 192.304 292.688 191.855 292.688 191.334C292.688 190.468 293.052 189.736 293.781 189.137C294.517 188.538 295.454 188.238 296.594 188.238C297.792 188.238 298.762 188.548 299.504 189.166C300.253 189.785 300.627 190.576 300.627 191.539H298.811C298.811 191.044 298.599 190.618 298.176 190.26C297.759 189.902 297.232 189.723 296.594 189.723C295.936 189.723 295.422 189.866 295.051 190.152C294.68 190.439 294.494 190.813 294.494 191.275C294.494 191.712 294.667 192.04 295.012 192.262C295.357 192.483 295.979 192.695 296.877 192.896C297.782 193.098 298.514 193.339 299.074 193.619C299.634 193.899 300.048 194.238 300.314 194.635C300.588 195.025 300.725 195.504 300.725 196.07C300.725 197.014 300.347 197.773 299.592 198.346C298.837 198.912 297.857 199.195 296.652 199.195C295.806 199.195 295.057 199.046 294.406 198.746C293.755 198.447 293.244 198.03 292.873 197.496C292.508 196.956 292.326 196.373 292.326 195.748H294.133C294.165 196.354 294.406 196.835 294.855 197.193C295.311 197.545 295.91 197.721 296.652 197.721C297.336 197.721 297.883 197.584 298.293 197.311C298.71 197.031 298.918 196.66 298.918 196.197ZM307.463 199.195C306.031 199.195 304.865 198.727 303.967 197.789C303.068 196.845 302.619 195.585 302.619 194.01V193.678C302.619 192.63 302.818 191.695 303.215 190.875C303.618 190.048 304.178 189.404 304.895 188.941C305.617 188.473 306.398 188.238 307.238 188.238C308.612 188.238 309.68 188.691 310.441 189.596C311.203 190.501 311.584 191.796 311.584 193.482V194.234H304.426C304.452 195.276 304.755 196.119 305.334 196.764C305.92 197.402 306.662 197.721 307.561 197.721C308.199 197.721 308.739 197.59 309.182 197.33C309.624 197.07 310.012 196.725 310.344 196.295L311.447 197.154C310.562 198.515 309.234 199.195 307.463 199.195ZM307.238 189.723C306.509 189.723 305.897 189.99 305.402 190.523C304.908 191.051 304.602 191.793 304.484 192.75H309.777V192.613C309.725 191.695 309.478 190.986 309.035 190.484C308.592 189.977 307.993 189.723 307.238 189.723ZM315.646 199H313.84V184H315.646V199ZM319.436 199V189.83H317.766V188.434H319.436V187.35C319.436 186.217 319.738 185.341 320.344 184.723C320.949 184.104 321.805 183.795 322.912 183.795C323.329 183.795 323.742 183.85 324.152 183.961L324.055 185.426C323.749 185.367 323.423 185.338 323.078 185.338C322.492 185.338 322.04 185.51 321.721 185.855C321.402 186.194 321.242 186.682 321.242 187.32V188.434H323.498V189.83H321.242V199H319.436Z" fill="#6E528D"/>
<path d="M258.32 21V9.625H262.039C263.273 9.625 264.201 9.88021 264.82 10.3906C265.445 10.901 265.758 11.6562 265.758 12.6562C265.758 13.1875 265.607 13.6589 265.305 14.0703C265.003 14.4766 264.591 14.7917 264.07 15.0156C264.685 15.1875 265.169 15.5156 265.523 16C265.883 16.4792 266.062 17.0521 266.062 17.7188C266.062 18.7396 265.732 19.5417 265.07 20.125C264.409 20.7083 263.474 21 262.266 21H258.32ZM259.82 15.6797V19.7734H262.297C262.995 19.7734 263.544 19.5938 263.945 19.2344C264.352 18.8698 264.555 18.3698 264.555 17.7344C264.555 16.3646 263.81 15.6797 262.32 15.6797H259.82ZM259.82 14.4766H262.086C262.742 14.4766 263.266 14.3125 263.656 13.9844C264.052 13.6562 264.25 13.2109 264.25 12.6484C264.25 12.0234 264.068 11.5703 263.703 11.2891C263.339 11.0026 262.784 10.8594 262.039 10.8594H259.82V14.4766ZM275.461 9.625H276.961V21H275.461V12.2344L269.859 21H268.352V9.625H269.859V18.3906L275.461 9.625ZM281.195 16.5469V21H279.695V9.625H283.891C285.135 9.625 286.109 9.94271 286.812 10.5781C287.521 11.2135 287.875 12.0547 287.875 13.1016C287.875 14.2057 287.529 15.0573 286.836 15.6562C286.148 16.25 285.161 16.5469 283.875 16.5469H281.195ZM281.195 15.3203H283.891C284.693 15.3203 285.307 15.1328 285.734 14.7578C286.161 14.3776 286.375 13.8307 286.375 13.1172C286.375 12.4401 286.161 11.8984 285.734 11.4922C285.307 11.0859 284.721 10.875 283.977 10.8594H281.195V15.3203ZM291.398 21H289.898V9.625H291.398V21ZM294.148 21V9.625H297.867C299.102 9.625 300.029 9.88021 300.648 10.3906C301.273 10.901 301.586 11.6562 301.586 12.6562C301.586 13.1875 301.435 13.6589 301.133 14.0703C300.831 14.4766 300.419 14.7917 299.898 15.0156C300.513 15.1875 300.997 15.5156 301.352 16C301.711 16.4792 301.891 17.0521 301.891 17.7188C301.891 18.7396 301.56 19.5417 300.898 20.125C300.237 20.7083 299.302 21 298.094 21H294.148ZM295.648 15.6797V19.7734H298.125C298.823 19.7734 299.372 19.5938 299.773 19.2344C300.18 18.8698 300.383 18.3698 300.383 17.7344C300.383 16.3646 299.638 15.6797 298.148 15.6797H295.648ZM295.648 14.4766H297.914C298.57 14.4766 299.094 14.3125 299.484 13.9844C299.88 13.6562 300.078 13.2109 300.078 12.6484C300.078 12.0234 299.896 11.5703 299.531 11.2891C299.167 11.0026 298.612 10.8594 297.867 10.8594H295.648V14.4766ZM312.859 21H311.352V15.7422H305.617V21H304.117V9.625H305.617V14.5156H311.352V9.625H312.859V21ZM327.906 15.6797C327.906 16.7943 327.719 17.7682 327.344 18.6016C326.969 19.4297 326.438 20.0625 325.75 20.5C325.062 20.9375 324.26 21.1562 323.344 21.1562C322.479 21.1562 321.703 20.9479 321.016 20.5312C320.333 20.1146 319.797 19.5182 319.406 18.7422C319.021 17.9661 318.807 17.0599 318.766 16.0234H317.133V21H315.633V9.625H317.133V14.8438H318.758C318.773 13.7708 318.969 12.8307 319.344 12.0234C319.719 11.2109 320.253 10.5833 320.945 10.1406C321.638 9.69271 322.432 9.46875 323.328 9.46875C324.24 9.46875 325.042 9.6901 325.734 10.1328C326.432 10.5703 326.969 11.2083 327.344 12.0469C327.719 12.8802 327.906 13.8516 327.906 14.9609V15.6797ZM326.414 14.9453C326.414 13.5964 326.143 12.5625 325.602 11.8438C325.06 11.1198 324.302 10.7578 323.328 10.7578C322.38 10.7578 321.633 11.1198 321.086 11.8438C320.544 12.5625 320.266 13.5625 320.25 14.8438V15.6797C320.25 16.987 320.523 18.0156 321.07 18.7656C321.622 19.5104 322.38 19.8828 323.344 19.8828C324.312 19.8828 325.062 19.5312 325.594 18.8281C326.125 18.1198 326.398 17.1068 326.414 15.7891V14.9453ZM329.836 21V9.625H333.555C334.789 9.625 335.716 9.88021 336.336 10.3906C336.961 10.901 337.273 11.6562 337.273 12.6562C337.273 13.1875 337.122 13.6589 336.82 14.0703C336.518 14.4766 336.107 14.7917 335.586 15.0156C336.201 15.1875 336.685 15.5156 337.039 16C337.398 16.4792 337.578 17.0521 337.578 17.7188C337.578 18.7396 337.247 19.5417 336.586 20.125C335.924 20.7083 334.99 21 333.781 21H329.836ZM331.336 15.6797V19.7734H333.812C334.51 19.7734 335.06 19.5938 335.461 19.2344C335.867 18.8698 336.07 18.3698 336.07 17.7344C336.07 16.3646 335.326 15.6797 333.836 15.6797H331.336ZM331.336 14.4766H333.602C334.258 14.4766 334.781 14.3125 335.172 13.9844C335.568 13.6562 335.766 13.2109 335.766 12.6484C335.766 12.0234 335.583 11.5703 335.219 11.2891C334.854 11.0026 334.299 10.8594 333.555 10.8594H331.336V14.4766ZM346.086 18.0312H341.32L340.25 21H338.703L343.047 9.625H344.359L348.711 21H347.172L346.086 18.0312ZM341.773 16.7969H345.641L343.703 11.4766L341.773 16.7969ZM358.984 21H357.477V15.7422H351.742V21H350.242V9.625H351.742V14.5156H357.477V9.625H358.984V21ZM370.391 21H368.883V15.7422H363.148V21H361.648V9.625H363.148V14.5156H368.883V9.625H370.391V21ZM379.008 21V16.5703H376.383L374.031 21H372.43L375.07 16.1562C373.602 15.5781 372.867 14.5443 372.867 13.0547C372.867 11.9714 373.221 11.1302 373.93 10.5312C374.643 9.92708 375.633 9.625 376.898 9.625H380.516V21H379.008ZM374.367 13.0547C374.367 13.7422 374.581 14.2943 375.008 14.7109C375.44 15.1276 376.039 15.3385 376.805 15.3438H379.008V10.8594H376.875C376.062 10.8594 375.44 11.0521 375.008 11.4375C374.581 11.8229 374.367 12.362 374.367 13.0547Z" fill="white"/>
<rect x="440.5" y="0.5" width="199" height="235" stroke="#0B5A72"/>
<path d="M470.969 56.5332C470.161 56.403 469.51 56.3379 469.016 56.3379C467.714 56.3379 467.062 57.0215 467.062 58.3887V59.4336H469.318V60.8301H467.062V70H465.256V60.8301H463.586V59.4336H465.256V58.2812C465.262 57.1549 465.578 56.2923 466.203 55.6934C466.828 55.0944 467.717 54.7949 468.869 54.7949C469.527 54.7949 470.829 54.9935 472.775 55.3906V70H470.969V56.5332ZM480.119 70.1953C478.687 70.1953 477.521 69.7266 476.623 68.7891C475.725 67.8451 475.275 66.5853 475.275 65.0098V64.6777C475.275 63.6296 475.474 62.6953 475.871 61.875C476.275 61.0482 476.835 60.4036 477.551 59.9414C478.273 59.4727 479.055 59.2383 479.895 59.2383C481.268 59.2383 482.336 59.6908 483.098 60.5957C483.859 61.5007 484.24 62.7962 484.24 64.4824V65.2344H477.082C477.108 66.276 477.411 67.1191 477.99 67.7637C478.576 68.4017 479.318 68.7207 480.217 68.7207C480.855 68.7207 481.395 68.5905 481.838 68.3301C482.281 68.0697 482.668 67.7246 483 67.2949L484.104 68.1543C483.218 69.515 481.89 70.1953 480.119 70.1953ZM479.895 60.7227C479.165 60.7227 478.553 60.9896 478.059 61.5234C477.564 62.0508 477.258 62.793 477.141 63.75H482.434V63.6133C482.382 62.6953 482.134 61.9857 481.691 61.4844C481.249 60.9766 480.65 60.7227 479.895 60.7227ZM489.885 63.291L492.229 59.4336H494.338L490.881 64.6582L494.445 70H492.355L489.914 66.0449L487.473 70H485.373L488.938 64.6582L485.48 59.4336H487.57L489.885 63.291ZM500.021 64.6973H495.256V63.2227H500.021V64.6973ZM501.359 64.6289C501.359 62.9818 501.74 61.6732 502.502 60.7031C503.264 59.7266 504.273 59.2383 505.529 59.2383C506.818 59.2383 507.824 59.694 508.547 60.6055L508.635 59.4336H510.285V69.7461C510.285 71.1133 509.878 72.1908 509.064 72.9785C508.257 73.7663 507.17 74.1602 505.803 74.1602C505.041 74.1602 504.296 73.9974 503.566 73.6719C502.837 73.3464 502.281 72.9004 501.896 72.334L502.834 71.25C503.609 72.207 504.556 72.6855 505.676 72.6855C506.555 72.6855 507.238 72.4382 507.727 71.9434C508.221 71.4486 508.469 70.752 508.469 69.8535V68.9453C507.746 69.7786 506.76 70.1953 505.51 70.1953C504.273 70.1953 503.27 69.6973 502.502 68.7012C501.74 67.7051 501.359 66.3477 501.359 64.6289ZM503.176 64.834C503.176 66.0254 503.42 66.9629 503.908 67.6465C504.396 68.3236 505.08 68.6621 505.959 68.6621C507.098 68.6621 507.935 68.1445 508.469 67.1094V62.2852C507.915 61.276 507.085 60.7715 505.979 60.7715C505.1 60.7715 504.413 61.1133 503.918 61.7969C503.423 62.4805 503.176 63.4928 503.176 64.834ZM518.127 61.0547C517.854 61.0091 517.557 60.9863 517.238 60.9863C516.053 60.9863 515.249 61.4909 514.826 62.5V70H513.02V59.4336H514.777L514.807 60.6543C515.399 59.7103 516.239 59.2383 517.326 59.2383C517.678 59.2383 517.945 59.2839 518.127 59.375V61.0547ZM519.123 64.6191C519.123 63.584 519.325 62.653 519.729 61.8262C520.139 60.9993 520.705 60.3613 521.428 59.9121C522.157 59.4629 522.987 59.2383 523.918 59.2383C525.357 59.2383 526.519 59.7363 527.404 60.7324C528.296 61.7285 528.742 63.0534 528.742 64.707V64.834C528.742 65.8626 528.544 66.7871 528.146 67.6074C527.756 68.4212 527.193 69.056 526.457 69.5117C525.728 69.9674 524.888 70.1953 523.938 70.1953C522.505 70.1953 521.343 69.6973 520.451 68.7012C519.566 67.7051 519.123 66.3867 519.123 64.7461V64.6191ZM520.939 64.834C520.939 66.0059 521.21 66.9466 521.75 67.6562C522.297 68.3659 523.026 68.7207 523.938 68.7207C524.855 68.7207 525.585 68.3626 526.125 67.6465C526.665 66.9238 526.936 65.9147 526.936 64.6191C526.936 63.4603 526.659 62.5228 526.105 61.8066C525.559 61.084 524.829 60.7227 523.918 60.7227C523.026 60.7227 522.307 61.0775 521.76 61.7871C521.213 62.4967 520.939 63.5124 520.939 64.834ZM540.363 67.5098L542.395 59.4336H544.201L541.125 70H539.66L537.092 61.9922L534.592 70H533.127L530.061 59.4336H531.857L533.938 67.3438L536.398 59.4336H537.854L540.363 67.5098Z" fill="#6E528D"/>
<path d="M470.969 99.5332C470.161 99.403 469.51 99.3379 469.016 99.3379C467.714 99.3379 467.062 100.021 467.062 101.389V102.434H469.318V103.83H467.062V113H465.256V103.83H463.586V102.434H465.256V101.281C465.262 100.155 465.578 99.2923 466.203 98.6934C466.828 98.0944 467.717 97.7949 468.869 97.7949C469.527 97.7949 470.829 97.9935 472.775 98.3906V113H470.969V99.5332ZM480.119 113.195C478.687 113.195 477.521 112.727 476.623 111.789C475.725 110.845 475.275 109.585 475.275 108.01V107.678C475.275 106.63 475.474 105.695 475.871 104.875C476.275 104.048 476.835 103.404 477.551 102.941C478.273 102.473 479.055 102.238 479.895 102.238C481.268 102.238 482.336 102.691 483.098 103.596C483.859 104.501 484.24 105.796 484.24 107.482V108.234H477.082C477.108 109.276 477.411 110.119 477.99 110.764C478.576 111.402 479.318 111.721 480.217 111.721C480.855 111.721 481.395 111.59 481.838 111.33C482.281 111.07 482.668 110.725 483 110.295L484.104 111.154C483.218 112.515 481.89 113.195 480.119 113.195ZM479.895 103.723C479.165 103.723 478.553 103.99 478.059 104.523C477.564 105.051 477.258 105.793 477.141 106.75H482.434V106.613C482.382 105.695 482.134 104.986 481.691 104.484C481.249 103.977 480.65 103.723 479.895 103.723ZM489.885 106.291L492.229 102.434H494.338L490.881 107.658L494.445 113H492.355L489.914 109.045L487.473 113H485.373L488.938 107.658L485.48 102.434H487.57L489.885 106.291ZM500.021 107.697H495.256V106.223H500.021V107.697ZM507.941 110.197C507.941 109.709 507.756 109.331 507.385 109.064C507.02 108.791 506.379 108.557 505.461 108.361C504.549 108.166 503.824 107.932 503.283 107.658C502.749 107.385 502.352 107.059 502.092 106.682C501.838 106.304 501.711 105.855 501.711 105.334C501.711 104.468 502.076 103.736 502.805 103.137C503.54 102.538 504.478 102.238 505.617 102.238C506.815 102.238 507.785 102.548 508.527 103.166C509.276 103.785 509.65 104.576 509.65 105.539H507.834C507.834 105.044 507.622 104.618 507.199 104.26C506.783 103.902 506.255 103.723 505.617 103.723C504.96 103.723 504.445 103.866 504.074 104.152C503.703 104.439 503.518 104.813 503.518 105.275C503.518 105.712 503.69 106.04 504.035 106.262C504.38 106.483 505.002 106.695 505.9 106.896C506.805 107.098 507.538 107.339 508.098 107.619C508.658 107.899 509.071 108.238 509.338 108.635C509.611 109.025 509.748 109.504 509.748 110.07C509.748 111.014 509.37 111.773 508.615 112.346C507.86 112.912 506.88 113.195 505.676 113.195C504.829 113.195 504.081 113.046 503.43 112.746C502.779 112.447 502.268 112.03 501.896 111.496C501.532 110.956 501.35 110.373 501.35 109.748H503.156C503.189 110.354 503.43 110.835 503.879 111.193C504.335 111.545 504.934 111.721 505.676 111.721C506.359 111.721 506.906 111.584 507.316 111.311C507.733 111.031 507.941 110.66 507.941 110.197ZM513.908 103.713C514.709 102.73 515.751 102.238 517.033 102.238C519.266 102.238 520.393 103.498 520.412 106.018V113H518.605V106.008C518.599 105.246 518.423 104.683 518.078 104.318C517.74 103.954 517.209 103.771 516.486 103.771C515.9 103.771 515.386 103.928 514.943 104.24C514.501 104.553 514.156 104.963 513.908 105.471V113H512.102V98H513.908V103.713ZM528.225 104.055C527.951 104.009 527.655 103.986 527.336 103.986C526.151 103.986 525.347 104.491 524.924 105.5V113H523.117V102.434H524.875L524.904 103.654C525.497 102.71 526.337 102.238 527.424 102.238C527.775 102.238 528.042 102.284 528.225 102.375V104.055ZM531.857 113H530.051V102.434H531.857V113ZM529.904 99.6309C529.904 99.3379 529.992 99.0905 530.168 98.8887C530.35 98.6868 530.617 98.5859 530.969 98.5859C531.32 98.5859 531.587 98.6868 531.77 98.8887C531.952 99.0905 532.043 99.3379 532.043 99.6309C532.043 99.9238 531.952 100.168 531.77 100.363C531.587 100.559 531.32 100.656 530.969 100.656C530.617 100.656 530.35 100.559 530.168 100.363C529.992 100.168 529.904 99.9238 529.904 99.6309ZM536.467 102.434L536.525 103.762C537.333 102.746 538.387 102.238 539.689 102.238C541.923 102.238 543.049 103.498 543.068 106.018V113H541.262V106.008C541.255 105.246 541.079 104.683 540.734 104.318C540.396 103.954 539.865 103.771 539.143 103.771C538.557 103.771 538.042 103.928 537.6 104.24C537.157 104.553 536.812 104.963 536.564 105.471V113H534.758V102.434H536.467ZM548.742 108.107L547.609 109.289V113H545.803V98H547.609V107.072L548.576 105.91L551.867 102.434H554.064L549.953 106.848L554.543 113H552.424L548.742 108.107Z" fill="#6E528D"/>
<path d="M470.969 142.533C470.161 142.403 469.51 142.338 469.016 142.338C467.714 142.338 467.062 143.021 467.062 144.389V145.434H469.318V146.83H467.062V156H465.256V146.83H463.586V145.434H465.256V144.281C465.262 143.155 465.578 142.292 466.203 141.693C466.828 141.094 467.717 140.795 468.869 140.795C469.527 140.795 470.829 140.993 472.775 141.391V156H470.969V142.533ZM480.119 156.195C478.687 156.195 477.521 155.727 476.623 154.789C475.725 153.845 475.275 152.585 475.275 151.01V150.678C475.275 149.63 475.474 148.695 475.871 147.875C476.275 147.048 476.835 146.404 477.551 145.941C478.273 145.473 479.055 145.238 479.895 145.238C481.268 145.238 482.336 145.691 483.098 146.596C483.859 147.501 484.24 148.796 484.24 150.482V151.234H477.082C477.108 152.276 477.411 153.119 477.99 153.764C478.576 154.402 479.318 154.721 480.217 154.721C480.855 154.721 481.395 154.59 481.838 154.33C482.281 154.07 482.668 153.725 483 153.295L484.104 154.154C483.218 155.515 481.89 156.195 480.119 156.195ZM479.895 146.723C479.165 146.723 478.553 146.99 478.059 147.523C477.564 148.051 477.258 148.793 477.141 149.75H482.434V149.613C482.382 148.695 482.134 147.986 481.691 147.484C481.249 146.977 480.65 146.723 479.895 146.723ZM489.885 149.291L492.229 145.434H494.338L490.881 150.658L494.445 156H492.355L489.914 152.045L487.473 156H485.373L488.938 150.658L485.48 145.434H487.57L489.885 149.291ZM500.021 150.697H495.256V149.223H500.021V150.697ZM510.734 150.834C510.734 152.449 510.363 153.747 509.621 154.73C508.879 155.707 507.883 156.195 506.633 156.195C505.298 156.195 504.266 155.723 503.537 154.779L503.449 156H501.789V141H503.596V146.596C504.325 145.691 505.331 145.238 506.613 145.238C507.896 145.238 508.902 145.723 509.631 146.693C510.367 147.663 510.734 148.992 510.734 150.678V150.834ZM508.928 150.629C508.928 149.398 508.69 148.448 508.215 147.777C507.74 147.107 507.056 146.771 506.164 146.771C504.973 146.771 504.117 147.325 503.596 148.432V153.002C504.149 154.109 505.012 154.662 506.184 154.662C507.049 154.662 507.723 154.327 508.205 153.656C508.687 152.986 508.928 151.977 508.928 150.629ZM519.543 156C519.439 155.792 519.354 155.421 519.289 154.887C518.449 155.759 517.447 156.195 516.281 156.195C515.24 156.195 514.383 155.902 513.713 155.316C513.049 154.724 512.717 153.975 512.717 153.07C512.717 151.97 513.133 151.117 513.967 150.512C514.807 149.9 515.985 149.594 517.502 149.594H519.26V148.764C519.26 148.132 519.071 147.631 518.693 147.26C518.316 146.882 517.759 146.693 517.023 146.693C516.379 146.693 515.839 146.856 515.402 147.182C514.966 147.507 514.748 147.901 514.748 148.363H512.932C512.932 147.836 513.117 147.328 513.488 146.84C513.866 146.345 514.374 145.954 515.012 145.668C515.656 145.382 516.363 145.238 517.131 145.238C518.348 145.238 519.302 145.544 519.992 146.156C520.682 146.762 521.04 147.598 521.066 148.666V153.529C521.066 154.499 521.19 155.271 521.438 155.844V156H519.543ZM516.545 154.623C517.111 154.623 517.648 154.477 518.156 154.184C518.664 153.891 519.032 153.51 519.26 153.041V150.873H517.844C515.63 150.873 514.523 151.521 514.523 152.816C514.523 153.383 514.712 153.826 515.09 154.145C515.467 154.464 515.952 154.623 516.545 154.623ZM530.051 153.197C530.051 152.709 529.865 152.331 529.494 152.064C529.13 151.791 528.488 151.557 527.57 151.361C526.659 151.166 525.933 150.932 525.393 150.658C524.859 150.385 524.462 150.059 524.201 149.682C523.947 149.304 523.82 148.855 523.82 148.334C523.82 147.468 524.185 146.736 524.914 146.137C525.65 145.538 526.587 145.238 527.727 145.238C528.924 145.238 529.895 145.548 530.637 146.166C531.385 146.785 531.76 147.576 531.76 148.539H529.943C529.943 148.044 529.732 147.618 529.309 147.26C528.892 146.902 528.365 146.723 527.727 146.723C527.069 146.723 526.555 146.866 526.184 147.152C525.812 147.439 525.627 147.813 525.627 148.275C525.627 148.712 525.799 149.04 526.145 149.262C526.49 149.483 527.111 149.695 528.01 149.896C528.915 150.098 529.647 150.339 530.207 150.619C530.767 150.899 531.18 151.238 531.447 151.635C531.721 152.025 531.857 152.504 531.857 153.07C531.857 154.014 531.48 154.773 530.725 155.346C529.969 155.912 528.99 156.195 527.785 156.195C526.939 156.195 526.19 156.046 525.539 155.746C524.888 155.447 524.377 155.03 524.006 154.496C523.641 153.956 523.459 153.373 523.459 152.748H525.266C525.298 153.354 525.539 153.835 525.988 154.193C526.444 154.545 527.043 154.721 527.785 154.721C528.469 154.721 529.016 154.584 529.426 154.311C529.842 154.031 530.051 153.66 530.051 153.197ZM536.174 156H534.367V145.434H536.174V156ZM534.221 142.631C534.221 142.338 534.309 142.09 534.484 141.889C534.667 141.687 534.934 141.586 535.285 141.586C535.637 141.586 535.904 141.687 536.086 141.889C536.268 142.09 536.359 142.338 536.359 142.631C536.359 142.924 536.268 143.168 536.086 143.363C535.904 143.559 535.637 143.656 535.285 143.656C534.934 143.656 534.667 143.559 534.484 143.363C534.309 143.168 534.221 142.924 534.221 142.631ZM545.227 153.197C545.227 152.709 545.041 152.331 544.67 152.064C544.305 151.791 543.664 151.557 542.746 151.361C541.835 151.166 541.109 150.932 540.568 150.658C540.035 150.385 539.637 150.059 539.377 149.682C539.123 149.304 538.996 148.855 538.996 148.334C538.996 147.468 539.361 146.736 540.09 146.137C540.826 145.538 541.763 145.238 542.902 145.238C544.1 145.238 545.07 145.548 545.812 146.166C546.561 146.785 546.936 147.576 546.936 148.539H545.119C545.119 148.044 544.908 147.618 544.484 147.26C544.068 146.902 543.54 146.723 542.902 146.723C542.245 146.723 541.73 146.866 541.359 147.152C540.988 147.439 540.803 147.813 540.803 148.275C540.803 148.712 540.975 149.04 541.32 149.262C541.665 149.483 542.287 149.695 543.186 149.896C544.09 150.098 544.823 150.339 545.383 150.619C545.943 150.899 546.356 151.238 546.623 151.635C546.896 152.025 547.033 152.504 547.033 153.07C547.033 154.014 546.656 154.773 545.9 155.346C545.145 155.912 544.165 156.195 542.961 156.195C542.115 156.195 541.366 156.046 540.715 155.746C540.064 155.447 539.553 155.03 539.182 154.496C538.817 153.956 538.635 153.373 538.635 152.748H540.441C540.474 153.354 540.715 153.835 541.164 154.193C541.62 154.545 542.219 154.721 542.961 154.721C543.645 154.721 544.191 154.584 544.602 154.311C545.018 154.031 545.227 153.66 545.227 153.197Z" fill="#6E528D"/>
<path d="M470.969 185.533C470.161 185.403 469.51 185.338 469.016 185.338C467.714 185.338 467.062 186.021 467.062 187.389V188.434H469.318V189.83H467.062V199H465.256V189.83H463.586V188.434H465.256V187.281C465.262 186.155 465.578 185.292 466.203 184.693C466.828 184.094 467.717 183.795 468.869 183.795C469.527 183.795 470.829 183.993 472.775 184.391V199H470.969V185.533ZM480.119 199.195C478.687 199.195 477.521 198.727 476.623 197.789C475.725 196.845 475.275 195.585 475.275 194.01V193.678C475.275 192.63 475.474 191.695 475.871 190.875C476.275 190.048 476.835 189.404 477.551 188.941C478.273 188.473 479.055 188.238 479.895 188.238C481.268 188.238 482.336 188.691 483.098 189.596C483.859 190.501 484.24 191.796 484.24 193.482V194.234H477.082C477.108 195.276 477.411 196.119 477.99 196.764C478.576 197.402 479.318 197.721 480.217 197.721C480.855 197.721 481.395 197.59 481.838 197.33C482.281 197.07 482.668 196.725 483 196.295L484.104 197.154C483.218 198.515 481.89 199.195 480.119 199.195ZM479.895 189.723C479.165 189.723 478.553 189.99 478.059 190.523C477.564 191.051 477.258 191.793 477.141 192.75H482.434V192.613C482.382 191.695 482.134 190.986 481.691 190.484C481.249 189.977 480.65 189.723 479.895 189.723ZM489.885 192.291L492.229 188.434H494.338L490.881 193.658L494.445 199H492.355L489.914 195.045L487.473 199H485.373L488.938 193.658L485.48 188.434H487.57L489.885 192.291Z" fill="#6E528D"/>
<rect x="440" width="200" height="30" fill="#0B5A72"/>
<path d="M512.82 16.5469V21H511.32V9.625H515.516C516.76 9.625 517.734 9.94271 518.438 10.5781C519.146 11.2135 519.5 12.0547 519.5 13.1016C519.5 14.2057 519.154 15.0573 518.461 15.6562C517.773 16.25 516.786 16.5469 515.5 16.5469H512.82ZM512.82 15.3203H515.516C516.318 15.3203 516.932 15.1328 517.359 14.7578C517.786 14.3776 518 13.8307 518 13.1172C518 12.4401 517.786 11.8984 517.359 11.4922C516.932 11.0859 516.346 10.875 515.602 10.8594H512.82V15.3203ZM530.164 15.6797C530.164 16.7943 529.977 17.7682 529.602 18.6016C529.227 19.4297 528.695 20.0625 528.008 20.5C527.32 20.9375 526.518 21.1562 525.602 21.1562C524.706 21.1562 523.911 20.9375 523.219 20.5C522.526 20.0573 521.987 19.4297 521.602 18.6172C521.221 17.7995 521.026 16.8542 521.016 15.7812V14.9609C521.016 13.8672 521.206 12.901 521.586 12.0625C521.966 11.224 522.503 10.5833 523.195 10.1406C523.893 9.69271 524.69 9.46875 525.586 9.46875C526.497 9.46875 527.299 9.6901 527.992 10.1328C528.69 10.5703 529.227 11.2083 529.602 12.0469C529.977 12.8802 530.164 13.8516 530.164 14.9609V15.6797ZM528.672 14.9453C528.672 13.5964 528.401 12.5625 527.859 11.8438C527.318 11.1198 526.56 10.7578 525.586 10.7578C524.638 10.7578 523.891 11.1198 523.344 11.8438C522.802 12.5625 522.523 13.5625 522.508 14.8438V15.6797C522.508 16.987 522.781 18.0156 523.328 18.7656C523.88 19.5104 524.638 19.8828 525.602 19.8828C526.57 19.8828 527.32 19.5312 527.852 18.8281C528.383 18.1198 528.656 17.1068 528.672 15.7891V14.9453ZM538.25 12.6797C538.25 12.0755 538.029 11.5964 537.586 11.2422C537.148 10.8828 536.531 10.7031 535.734 10.7031C535.068 10.7031 534.508 10.888 534.055 11.2578C533.607 11.6224 533.383 12.0755 533.383 12.6172H531.883C531.883 12.013 532.047 11.4714 532.375 10.9922C532.708 10.513 533.172 10.1406 533.766 9.875C534.359 9.60417 535.016 9.46875 535.734 9.46875C537.005 9.46875 537.992 9.75521 538.695 10.3281C539.398 10.8958 539.75 11.6875 539.75 12.7031C539.75 13.2292 539.589 13.7083 539.266 14.1406C538.943 14.5729 538.492 14.9141 537.914 15.1641C539.253 15.612 539.922 16.5 539.922 17.8281C539.922 18.849 539.542 19.6589 538.781 20.2578C538.021 20.8568 537.005 21.1562 535.734 21.1562C534.979 21.1562 534.292 21.0234 533.672 20.7578C533.057 20.487 532.578 20.1042 532.234 19.6094C531.891 19.1146 531.719 18.526 531.719 17.8438H533.219C533.219 18.4427 533.456 18.9427 533.93 19.3438C534.404 19.7396 535.005 19.9375 535.734 19.9375C536.552 19.9375 537.203 19.7474 537.688 19.3672C538.177 18.987 538.422 18.4844 538.422 17.8594C538.422 16.526 537.596 15.8464 535.945 15.8203H534.539V14.5859H535.938C536.698 14.5703 537.273 14.3984 537.664 14.0703C538.055 13.7422 538.25 13.2786 538.25 12.6797ZM543.852 9.625L547.57 18.9062L551.289 9.625H553.234V21H551.734V16.5703L551.875 11.7891L548.141 21H546.992L543.266 11.8125L543.414 16.5703V21H541.914V9.625H543.852ZM557.492 21H555.992V9.625H557.492V21ZM561.742 16.5469V21H560.242V9.625H564.438C565.682 9.625 566.656 9.94271 567.359 10.5781C568.068 11.2135 568.422 12.0547 568.422 13.1016C568.422 14.2057 568.076 15.0573 567.383 15.6562C566.695 16.25 565.708 16.5469 564.422 16.5469H561.742ZM561.742 15.3203H564.438C565.24 15.3203 565.854 15.1328 566.281 14.7578C566.708 14.3776 566.922 13.8307 566.922 13.1172C566.922 12.4401 566.708 11.8984 566.281 11.4922C565.854 11.0859 565.268 10.875 564.523 10.8594H561.742V15.3203Z" fill="white"/>
<path d="M43.8076 273.252H42.252V279H40.5645V266.203H42.252V271.846H43.5703L48.0439 266.203H50.1445L45.2578 272.408L50.5049 279H48.4395L43.8076 273.252ZM61.6143 273.015C61.6143 274.269 61.4033 275.364 60.9814 276.302C60.5596 277.233 59.9619 277.945 59.1885 278.438C58.415 278.93 57.5127 279.176 56.4814 279.176C55.4736 279.176 54.5801 278.93 53.8008 278.438C53.0215 277.939 52.415 277.233 51.9814 276.319C51.5537 275.399 51.334 274.336 51.3223 273.129V272.206C51.3223 270.976 51.5361 269.889 51.9639 268.945C52.3916 268.002 52.9951 267.281 53.7744 266.783C54.5596 266.279 55.4561 266.027 56.4639 266.027C57.4893 266.027 58.3916 266.276 59.1709 266.774C59.9561 267.267 60.5596 267.984 60.9814 268.928C61.4033 269.865 61.6143 270.958 61.6143 272.206V273.015ZM59.9355 272.188C59.9355 270.671 59.6309 269.508 59.0215 268.699C58.4121 267.885 57.5596 267.478 56.4639 267.478C55.3975 267.478 54.5566 267.885 53.9414 268.699C53.332 269.508 53.0186 270.633 53.001 272.074V273.015C53.001 274.485 53.3086 275.643 53.9238 276.486C54.5449 277.324 55.3975 277.743 56.4814 277.743C57.5713 277.743 58.415 277.348 59.0127 276.557C59.6104 275.76 59.918 274.62 59.9355 273.138V272.188ZM73.9805 279H72.2842V273.085H65.833V279H64.1455V266.203H65.833V271.705H72.2842V266.203H73.9805V279ZM85.5557 267.592H81.4424V279H79.7637V267.592H75.6592V266.203H85.5557V267.592ZM94.6875 273.085H89.1416V277.62H95.584V279H87.4541V266.203H95.4961V267.592H89.1416V271.705H94.6875V273.085ZM105.753 266.203H107.44V279H105.753V269.139L99.4512 279H97.7549V266.203H99.4512V276.064L105.753 266.203ZM105.278 263.021C105.278 263.73 105.035 264.302 104.549 264.735C104.068 265.163 103.436 265.377 102.65 265.377C101.865 265.377 101.229 265.16 100.743 264.727C100.257 264.293 100.014 263.725 100.014 263.021H101.341C101.341 263.432 101.452 263.754 101.675 263.988C101.897 264.217 102.223 264.331 102.65 264.331C103.061 264.331 103.38 264.217 103.608 263.988C103.843 263.76 103.96 263.438 103.96 263.021H105.278ZM120.352 279H118.655V273.085H112.204V279H110.517V266.203H112.204V271.705H118.655V266.203H120.352V279ZM130.582 273.085H125.036V277.62H131.479V279H123.349V266.203H131.391V267.592H125.036V271.705H130.582V273.085ZM135.267 273.99V279H133.579V266.203H138.299C139.699 266.203 140.795 266.561 141.586 267.275C142.383 267.99 142.781 268.937 142.781 270.114C142.781 271.356 142.392 272.314 141.612 272.988C140.839 273.656 139.729 273.99 138.281 273.99H135.267ZM135.267 272.61H138.299C139.201 272.61 139.893 272.399 140.373 271.978C140.854 271.55 141.094 270.935 141.094 270.132C141.094 269.37 140.854 268.761 140.373 268.304C139.893 267.847 139.233 267.609 138.396 267.592H135.267V272.61Z" fill="#0089C7"/>
<path d="M267.719 273.085H262.173V277.62H268.615V279H260.485V266.203H268.527V267.592H262.173V271.705H267.719V273.085ZM280.393 266.203V279H278.705V267.592H274.117L273.889 272.663C273.801 274.362 273.625 275.64 273.361 276.495C273.104 277.351 272.723 277.98 272.219 278.385C271.715 278.783 271.041 278.988 270.197 279H269.644V277.62L269.995 277.603C270.54 277.562 270.959 277.386 271.252 277.075C271.545 276.759 271.768 276.258 271.92 275.572C272.072 274.887 272.181 273.832 272.245 272.408L272.509 266.203H280.393ZM290.693 273.085H285.147V277.62H291.59V279H283.46V266.203H291.502V267.592H285.147V271.705H290.693V273.085ZM295.87 266.203L300.054 276.645L304.237 266.203H306.426V279H304.738V274.017L304.896 268.638L300.695 279H299.403L295.211 268.664L295.378 274.017V279H293.69V266.203H295.87ZM316.639 273.085H311.093V277.62H317.535V279H309.405V266.203H317.447V267.592H311.093V271.705H316.639V273.085ZM329.471 279H327.774V273.085H321.323V279H319.636V266.203H321.323V271.705H327.774V266.203H329.471V279ZM341.046 267.592H336.933V279H335.254V267.592H331.149V266.203H341.046V267.592Z" fill="#6E528D"/>
<rect y="258" width="30" height="30" rx="3" fill="#0089C7"/>
<rect x="220" y="258" width="30" height="30" rx="3" fill="#6E528D"/>
</svg>
