<svg width="434" height="257" viewBox="0 0 434 257" fill="none" xmlns="http://www.w3.org/2000/svg">
<path d="M3.88509 177.333H1.77734V165.006H3.88509V177.333ZM1.60645 161.736C1.60645 161.394 1.70898 161.106 1.91406 160.87C2.12674 160.635 2.43815 160.517 2.84831 160.517C3.25846 160.517 3.56988 160.635 3.78255 160.87C3.99523 161.106 4.10156 161.394 4.10156 161.736C4.10156 162.078 3.99523 162.363 3.78255 162.59C3.56988 162.818 3.25846 162.932 2.84831 162.932C2.43815 162.932 2.12674 162.818 1.91406 162.59C1.70898 162.363 1.60645 162.078 1.60645 161.736ZM9.26269 165.006L9.33105 166.555C10.2729 165.37 11.5034 164.778 13.0225 164.778C15.6277 164.778 16.9417 166.248 16.9645 169.187V177.333H14.8568V169.176C14.8492 168.287 14.6441 167.63 14.2415 167.205C13.8466 166.779 13.2275 166.567 12.3844 166.567C11.7008 166.567 11.1008 166.749 10.5843 167.114C10.0678 167.478 9.66526 167.957 9.37663 168.549V177.333H7.26888V165.006H9.26269ZM22.4333 177.333H20.3255V159.833H22.4333V177.333ZM28.1071 177.333H25.9993V165.006H28.1071V177.333ZM25.8284 161.736C25.8284 161.394 25.931 161.106 26.1361 160.87C26.3487 160.635 26.6602 160.517 27.0703 160.517C27.4805 160.517 27.7919 160.635 28.0046 160.87C28.2172 161.106 28.3236 161.394 28.3236 161.736C28.3236 162.078 28.2172 162.363 28.0046 162.59C27.7919 162.818 27.4805 162.932 27.0703 162.932C26.6602 162.932 26.3487 162.818 26.1361 162.59C25.931 162.363 25.8284 162.078 25.8284 161.736ZM33.4847 165.006L33.5531 166.555C34.4949 165.37 35.7254 164.778 37.2445 164.778C39.8497 164.778 41.1637 166.248 41.1865 169.187V177.333H39.0788V169.176C39.0712 168.287 38.8661 167.63 38.4635 167.205C38.0686 166.779 37.4495 166.567 36.6064 166.567C35.9228 166.567 35.3228 166.749 34.8063 167.114C34.2898 167.478 33.8873 167.957 33.5986 168.549V177.333H31.4909V165.006H33.4847ZM49.4808 177.561C47.8098 177.561 46.4502 177.014 45.402 175.921C44.3538 174.819 43.8298 173.349 43.8298 171.511V171.124C43.8298 169.901 44.0614 168.811 44.5247 167.854C44.9957 166.89 45.6489 166.138 46.4844 165.598C47.3275 165.051 48.2389 164.778 49.2187 164.778C50.8214 164.778 52.0671 165.306 52.9557 166.362C53.8444 167.417 54.2887 168.929 54.2887 170.896V171.773H45.9375C45.9679 172.989 46.3211 173.972 46.9971 174.724C47.6807 175.469 48.5465 175.841 49.5947 175.841C50.3391 175.841 50.9695 175.689 51.486 175.385C52.0025 175.081 52.4544 174.679 52.8418 174.177L54.1292 175.18C53.0962 176.767 51.5468 177.561 49.4808 177.561ZM49.2187 166.51C48.3681 166.51 47.6541 166.821 47.0768 167.444C46.4996 168.059 46.1426 168.925 46.0059 170.042H52.181V169.882C52.1202 168.811 51.8316 167.983 51.3151 167.398C50.7986 166.806 50.0998 166.51 49.2187 166.51ZM67.6416 177.561C65.9706 177.561 64.611 177.014 63.5628 175.921C62.5146 174.819 61.9906 173.349 61.9906 171.511V171.124C61.9906 169.901 62.2222 168.811 62.6855 167.854C63.1565 166.89 63.8097 166.138 64.6452 165.598C65.4883 165.051 66.3997 164.778 67.3796 164.778C68.9822 164.778 70.2279 165.306 71.1165 166.362C72.0052 167.417 72.4495 168.929 72.4495 170.896V171.773H64.0983C64.1287 172.989 64.4819 173.972 65.1579 174.724C65.8415 175.469 66.7074 175.841 67.7555 175.841C68.4999 175.841 69.1303 175.689 69.6468 175.385C70.1633 175.081 70.6152 174.679 71.0026 174.177L72.29 175.18C71.257 176.767 69.7076 177.561 67.6416 177.561ZM67.3796 166.51C66.5289 166.51 65.8149 166.821 65.2376 167.444C64.6604 168.059 64.3034 168.925 64.1667 170.042H70.3418V169.882C70.281 168.811 69.9924 167.983 69.4759 167.398C68.9594 166.806 68.2606 166.51 67.3796 166.51ZM77.1891 177.333H75.0814V159.833H77.1891V177.333ZM85.6885 177.561C84.0175 177.561 82.6579 177.014 81.6097 175.921C80.5615 174.819 80.0374 173.349 80.0374 171.511V171.124C80.0374 169.901 80.2691 168.811 80.7324 167.854C81.2033 166.89 81.8565 166.138 82.6921 165.598C83.5352 165.051 84.4466 164.778 85.4264 164.778C87.0291 164.778 88.2747 165.306 89.1634 166.362C90.0521 167.417 90.4964 168.929 90.4964 170.896V171.773H82.1452C82.1756 172.989 82.5287 173.972 83.2047 174.724C83.8883 175.469 84.7542 175.841 85.8024 175.841C86.5468 175.841 87.1772 175.689 87.6937 175.385C88.2102 175.081 88.6621 174.679 89.0495 174.177L90.3369 175.18C89.3039 176.767 87.7544 177.561 85.6885 177.561ZM85.4264 166.51C84.5757 166.51 83.8618 166.821 83.2845 167.444C82.7072 168.059 82.3503 168.925 82.2135 170.042H88.3887V169.882C88.3279 168.811 88.0393 167.983 87.5228 167.398C87.0063 166.806 86.3075 166.51 85.4264 166.51ZM94.9284 165.006L94.9853 166.373C95.8892 165.31 97.1083 164.778 98.6426 164.778C100.367 164.778 101.54 165.439 102.163 166.76C102.573 166.168 103.105 165.689 103.758 165.325C104.419 164.96 105.197 164.778 106.094 164.778C108.798 164.778 110.173 166.21 110.218 169.073V177.333H108.11V169.199C108.11 168.317 107.909 167.66 107.507 167.228C107.104 166.787 106.428 166.567 105.479 166.567C104.696 166.567 104.047 166.802 103.53 167.273C103.014 167.736 102.714 168.363 102.63 169.153V177.333H100.511V169.256C100.511 167.463 99.6338 166.567 97.8792 166.567C96.4968 166.567 95.5512 167.155 95.0423 168.333V177.333H92.9346V165.006H94.9284ZM118.524 177.561C116.853 177.561 115.493 177.014 114.445 175.921C113.397 174.819 112.873 173.349 112.873 171.511V171.124C112.873 169.901 113.104 168.811 113.568 167.854C114.039 166.89 114.692 166.138 115.527 165.598C116.37 165.051 117.282 164.778 118.262 164.778C119.864 164.778 121.11 165.306 121.999 166.362C122.887 167.417 123.332 168.929 123.332 170.896V171.773H114.98C115.011 172.989 115.364 173.972 116.04 174.724C116.724 175.469 117.59 175.841 118.638 175.841C119.382 175.841 120.012 175.689 120.529 175.385C121.045 175.081 121.497 174.679 121.885 174.177L123.172 175.18C122.139 176.767 120.59 177.561 118.524 177.561ZM118.262 166.51C117.411 166.51 116.697 166.821 116.12 167.444C115.543 168.059 115.186 168.925 115.049 170.042H121.224V169.882C121.163 168.811 120.875 167.983 120.358 167.398C119.842 166.806 119.143 166.51 118.262 166.51ZM127.775 165.006L127.843 166.555C128.785 165.37 130.016 164.778 131.535 164.778C134.14 164.778 135.454 166.248 135.477 169.187V177.333H133.369V169.176C133.362 168.287 133.156 167.63 132.754 167.205C132.359 166.779 131.74 166.567 130.897 166.567C130.213 166.567 129.613 166.749 129.097 167.114C128.58 167.478 128.178 167.957 127.889 168.549V177.333H125.781V165.006H127.775ZM141.515 162.021V165.006H143.817V166.635H141.515V174.28C141.515 174.774 141.618 175.146 141.823 175.396C142.028 175.64 142.377 175.761 142.871 175.761C143.114 175.761 143.448 175.715 143.874 175.624V177.333C143.319 177.485 142.78 177.561 142.256 177.561C141.314 177.561 140.604 177.276 140.125 176.707C139.647 176.137 139.408 175.328 139.408 174.28V166.635H137.163V165.006H139.408V162.021H141.515Z" fill="black"/>
<path d="M237.218 177.333H235.111V165.006H237.218V177.333ZM234.94 161.736C234.94 161.394 235.042 161.106 235.247 160.87C235.46 160.635 235.772 160.517 236.182 160.517C236.592 160.517 236.903 160.635 237.116 160.87C237.329 161.106 237.435 161.394 237.435 161.736C237.435 162.078 237.329 162.363 237.116 162.59C236.903 162.818 236.592 162.932 236.182 162.932C235.772 162.932 235.46 162.818 235.247 162.59C235.042 162.363 234.94 162.078 234.94 161.736ZM242.596 165.006L242.664 166.555C243.606 165.37 244.837 164.778 246.356 164.778C248.961 164.778 250.275 166.248 250.298 169.187V177.333H248.19V169.176C248.183 168.287 247.977 167.63 247.575 167.205C247.18 166.779 246.561 166.567 245.718 166.567C245.034 166.567 244.434 166.749 243.918 167.114C243.401 167.478 242.999 167.957 242.71 168.549V177.333H240.602V165.006H242.596ZM255.767 177.333H253.659V159.833H255.767V177.333ZM261.44 177.333H259.333V165.006H261.44V177.333ZM259.162 161.736C259.162 161.394 259.264 161.106 259.469 160.87C259.682 160.635 259.994 160.517 260.404 160.517C260.814 160.517 261.125 160.635 261.338 160.87C261.551 161.106 261.657 161.394 261.657 161.736C261.657 162.078 261.551 162.363 261.338 162.59C261.125 162.818 260.814 162.932 260.404 162.932C259.994 162.932 259.682 162.818 259.469 162.59C259.264 162.363 259.162 162.078 259.162 161.736ZM266.818 165.006L266.886 166.555C267.828 165.37 269.059 164.778 270.578 164.778C273.183 164.778 274.497 166.248 274.52 169.187V177.333H272.412V169.176C272.405 168.287 272.199 167.63 271.797 167.205C271.402 166.779 270.783 166.567 269.94 166.567C269.256 166.567 268.656 166.749 268.14 167.114C267.623 167.478 267.221 167.957 266.932 168.549V177.333H264.824V165.006H266.818ZM282.814 177.561C281.143 177.561 279.784 177.014 278.735 175.921C277.687 174.819 277.163 173.349 277.163 171.511V171.124C277.163 169.901 277.395 168.811 277.858 167.854C278.329 166.89 278.982 166.138 279.818 165.598C280.661 165.051 281.572 164.778 282.552 164.778C284.155 164.778 285.4 165.306 286.289 166.362C287.178 167.417 287.622 168.929 287.622 170.896V171.773H279.271C279.301 172.989 279.654 173.972 280.33 174.724C281.014 175.469 281.88 175.841 282.928 175.841C283.672 175.841 284.303 175.689 284.819 175.385C285.336 175.081 285.788 174.679 286.175 174.177L287.463 175.18C286.43 176.767 284.88 177.561 282.814 177.561ZM282.552 166.51C281.701 166.51 280.987 166.821 280.41 167.444C279.833 168.059 279.476 168.925 279.339 170.042H285.514V169.882C285.454 168.811 285.165 167.983 284.648 167.398C284.132 166.806 283.433 166.51 282.552 166.51ZM294.458 171.147H288.898V169.426H294.458V171.147ZM304.222 161.622C303.28 161.47 302.521 161.394 301.943 161.394C300.424 161.394 299.665 162.192 299.665 163.787V165.006H302.297V166.635H299.665V177.333H297.557V166.635H295.609V165.006H297.557V163.661C297.565 162.347 297.933 161.341 298.662 160.642C299.391 159.943 300.428 159.594 301.772 159.594C302.54 159.594 304.059 159.826 306.33 160.289V177.333H304.222V161.622ZM314.897 177.561C313.226 177.561 311.867 177.014 310.819 175.921C309.771 174.819 309.246 173.349 309.246 171.511V171.124C309.246 169.901 309.478 168.811 309.941 167.854C310.412 166.89 311.066 166.138 311.901 165.598C312.744 165.051 313.656 164.778 314.635 164.778C316.238 164.778 317.484 165.306 318.372 166.362C319.261 167.417 319.705 168.929 319.705 170.896V171.773H311.354C311.385 172.989 311.738 173.972 312.414 174.724C313.097 175.469 313.963 175.841 315.011 175.841C315.756 175.841 316.386 175.689 316.903 175.385C317.419 175.081 317.871 174.679 318.258 174.177L319.546 175.18C318.513 176.767 316.963 177.561 314.897 177.561ZM314.635 166.51C313.785 166.51 313.071 166.821 312.494 167.444C311.916 168.059 311.559 168.925 311.423 170.042H317.598V169.882C317.537 168.811 317.248 167.983 316.732 167.398C316.215 166.806 315.517 166.51 314.635 166.51ZM326.291 169.506L329.025 165.006H331.486L327.453 171.101L331.611 177.333H329.173L326.325 172.719L323.477 177.333H321.027L325.186 171.101L321.152 165.006H323.591L326.291 169.506Z" fill="black"/>
<rect x="0.5" y="186.833" width="199" height="69" stroke="#212121" stroke-dasharray="5 5"/>
<rect x="233.833" y="186.833" width="199" height="69" stroke="#212121" stroke-dasharray="5 5"/>
<rect x="238.333" y="191.333" width="60" height="60" fill="#159A6B"/>
<rect x="303.333" y="191.333" width="60" height="60" fill="#128279"/>
<path d="M4.21846 21H2.11072V8.67253H4.21846V21ZM1.93982 5.40267C1.93982 5.06087 2.04236 4.77224 2.24744 4.53678C2.46011 4.30132 2.77152 4.18359 3.18168 4.18359C3.59184 4.18359 3.90325 4.30132 4.11593 4.53678C4.3286 4.77224 4.43494 5.06087 4.43494 5.40267C4.43494 5.74447 4.3286 6.0293 4.11593 6.25716C3.90325 6.48503 3.59184 6.59896 3.18168 6.59896C2.77152 6.59896 2.46011 6.48503 2.24744 6.25716C2.04236 6.0293 1.93982 5.74447 1.93982 5.40267ZM9.59607 8.67253L9.66443 10.222C10.6063 9.03711 11.8367 8.44466 13.3558 8.44466C15.9611 8.44466 17.2751 9.91439 17.2979 12.8538V21H15.1901V12.8424C15.1825 11.9538 14.9775 11.2968 14.5749 10.8714C14.1799 10.4461 13.5609 10.2334 12.7178 10.2334C12.0342 10.2334 11.4342 10.4157 10.9177 10.7803C10.4012 11.1449 9.99863 11.6234 9.71 12.2158V21H7.60225V8.67253H9.59607ZM22.7666 21H20.6589V3.5H22.7666V21ZM28.4405 21H26.3327V8.67253H28.4405V21ZM26.1618 5.40267C26.1618 5.06087 26.2644 4.77224 26.4694 4.53678C26.6821 4.30132 26.9935 4.18359 27.4037 4.18359C27.8138 4.18359 28.1253 4.30132 28.3379 4.53678C28.5506 4.77224 28.6569 5.06087 28.6569 5.40267C28.6569 5.74447 28.5506 6.0293 28.3379 6.25716C28.1253 6.48503 27.8138 6.59896 27.4037 6.59896C26.9935 6.59896 26.6821 6.48503 26.4694 6.25716C26.2644 6.0293 26.1618 5.74447 26.1618 5.40267ZM33.8181 8.67253L33.8864 10.222C34.8283 9.03711 36.0587 8.44466 37.5778 8.44466C40.1831 8.44466 41.4971 9.91439 41.5199 12.8538V21H39.4121V12.8424C39.4046 11.9538 39.1995 11.2968 38.7969 10.8714C38.4019 10.4461 37.7829 10.2334 36.9398 10.2334C36.2562 10.2334 35.6562 10.4157 35.1397 10.7803C34.6232 11.1449 34.2206 11.6234 33.932 12.2158V21H31.8243V8.67253H33.8181ZM49.8142 21.2279C48.1432 21.2279 46.7836 20.681 45.7354 19.5872C44.6872 18.4859 44.1631 17.0162 44.1631 15.1781V14.7907C44.1631 13.5678 44.3948 12.4779 44.8581 11.5208C45.329 10.5562 45.9822 9.80425 46.8177 9.26497C47.6608 8.7181 48.5723 8.44466 49.5521 8.44466C51.1548 8.44466 52.4004 8.97255 53.2891 10.0283C54.1778 11.0841 54.6221 12.5956 54.6221 14.5628V15.4401H46.2709C46.3013 16.6554 46.6544 17.639 47.3304 18.391C48.014 19.1353 48.8799 19.5075 49.9281 19.5075C50.6725 19.5075 51.3029 19.3556 51.8194 19.0518C52.3359 18.7479 52.7878 18.3454 53.1752 17.8441L54.4626 18.8467C53.4296 20.4341 51.8801 21.2279 49.8142 21.2279ZM49.5521 10.1764C48.7014 10.1764 47.9875 10.4878 47.4102 11.1107C46.8329 11.7259 46.4759 12.5918 46.3392 13.7083H52.5144V13.5488C52.4536 12.4779 52.165 11.65 51.6485 11.0651C51.132 10.4727 50.4332 10.1764 49.5521 10.1764ZM61.458 14.8135H55.8982V13.0931H61.458V14.8135ZM71.222 5.28874C70.2802 5.13683 69.5207 5.06087 68.9434 5.06087C67.4243 5.06087 66.6648 5.8584 66.6648 7.45345V8.67253H69.2966V10.3018H66.6648V21H64.557V10.3018H62.6088V8.67253H64.557V7.32813C64.5646 6.01411 64.933 5.0077 65.6621 4.30892C66.3913 3.61014 67.4281 3.26074 68.7725 3.26074C69.5396 3.26074 71.0587 3.49241 73.3298 3.95573V21H71.222V5.28874ZM81.8975 21.2279C80.2265 21.2279 78.8669 20.681 77.8187 19.5872C76.7705 18.4859 76.2465 17.0162 76.2465 15.1781V14.7907C76.2465 13.5678 76.4781 12.4779 76.9414 11.5208C77.4124 10.5562 78.0656 9.80425 78.9011 9.26497C79.7442 8.7181 80.6556 8.44466 81.6354 8.44466C83.2381 8.44466 84.4838 8.97255 85.3724 10.0283C86.2611 11.0841 86.7054 12.5956 86.7054 14.5628V15.4401H78.3542C78.3846 16.6554 78.7378 17.639 79.4138 18.391C80.0974 19.1353 80.9632 19.5075 82.0114 19.5075C82.7558 19.5075 83.3862 19.3556 83.9027 19.0518C84.4192 18.7479 84.8711 18.3454 85.2585 17.8441L86.5459 18.8467C85.5129 20.4341 83.9635 21.2279 81.8975 21.2279ZM81.6354 10.1764C80.7848 10.1764 80.0708 10.4878 79.4935 11.1107C78.9163 11.7259 78.5593 12.5918 78.4226 13.7083H84.5977V13.5488C84.5369 12.4779 84.2483 11.65 83.7318 11.0651C83.2153 10.4727 82.5165 10.1764 81.6354 10.1764ZM93.2907 13.1729L96.0251 8.67253H98.486L94.4528 14.7679L98.6114 21H96.1732L93.3249 16.3857L90.4766 21H88.0271L92.1856 14.7679L88.1524 8.67253H90.5905L93.2907 13.1729Z" fill="black"/>
<path d="M237.552 21H235.444V8.67253H237.552V21ZM235.273 5.40267C235.273 5.06087 235.376 4.77224 235.581 4.53678C235.793 4.30132 236.105 4.18359 236.515 4.18359C236.925 4.18359 237.237 4.30132 237.449 4.53678C237.662 4.77224 237.768 5.06087 237.768 5.40267C237.768 5.74447 237.662 6.0293 237.449 6.25716C237.237 6.48503 236.925 6.59896 236.515 6.59896C236.105 6.59896 235.793 6.48503 235.581 6.25716C235.376 6.0293 235.273 5.74447 235.273 5.40267ZM242.929 8.67253L242.998 10.222C243.94 9.03711 245.17 8.44466 246.689 8.44466C249.294 8.44466 250.608 9.91439 250.631 12.8538V21H248.524V12.8424C248.516 11.9538 248.311 11.2968 247.908 10.8714C247.513 10.4461 246.894 10.2334 246.051 10.2334C245.368 10.2334 244.768 10.4157 244.251 10.7803C243.735 11.1449 243.332 11.6234 243.043 12.2158V21H240.936V8.67253H242.929ZM256.1 21H253.992V3.5H256.1V21ZM261.774 21H259.666V8.67253H261.774V21ZM259.495 5.40267C259.495 5.06087 259.598 4.77224 259.803 4.53678C260.015 4.30132 260.327 4.18359 260.737 4.18359C261.147 4.18359 261.459 4.30132 261.671 4.53678C261.884 4.77224 261.99 5.06087 261.99 5.40267C261.99 5.74447 261.884 6.0293 261.671 6.25716C261.459 6.48503 261.147 6.59896 260.737 6.59896C260.327 6.59896 260.015 6.48503 259.803 6.25716C259.598 6.0293 259.495 5.74447 259.495 5.40267ZM267.151 8.67253L267.22 10.222C268.162 9.03711 269.392 8.44466 270.911 8.44466C273.516 8.44466 274.83 9.91439 274.853 12.8538V21H272.746V12.8424C272.738 11.9538 272.533 11.2968 272.13 10.8714C271.735 10.4461 271.116 10.2334 270.273 10.2334C269.59 10.2334 268.99 10.4157 268.473 10.7803C267.957 11.1449 267.554 11.6234 267.265 12.2158V21H265.158V8.67253H267.151ZM283.148 21.2279C281.477 21.2279 280.117 20.681 279.069 19.5872C278.021 18.4859 277.496 17.0162 277.496 15.1781V14.7907C277.496 13.5678 277.728 12.4779 278.191 11.5208C278.662 10.5562 279.316 9.80425 280.151 9.26497C280.994 8.7181 281.906 8.44466 282.885 8.44466C284.488 8.44466 285.734 8.97255 286.622 10.0283C287.511 11.0841 287.955 12.5956 287.955 14.5628V15.4401H279.604C279.635 16.6554 279.988 17.639 280.664 18.391C281.347 19.1353 282.213 19.5075 283.261 19.5075C284.006 19.5075 284.636 19.3556 285.153 19.0518C285.669 18.7479 286.121 18.3454 286.509 17.8441L287.796 18.8467C286.763 20.4341 285.214 21.2279 283.148 21.2279ZM282.885 10.1764C282.035 10.1764 281.321 10.4878 280.744 11.1107C280.166 11.7259 279.809 12.5918 279.673 13.7083H285.848V13.5488C285.787 12.4779 285.498 11.65 284.982 11.0651C284.465 10.4727 283.767 10.1764 282.885 10.1764ZM294.791 14.8135H289.232V13.0931H294.791V14.8135ZM304.555 5.28874C303.614 5.13683 302.854 5.06087 302.277 5.06087C300.758 5.06087 299.998 5.8584 299.998 7.45345V8.67253H302.63V10.3018H299.998V21H297.89V10.3018H295.942V8.67253H297.89V7.32813C297.898 6.01411 298.266 5.0077 298.996 4.30892C299.725 3.61014 300.761 3.26074 302.106 3.26074C302.873 3.26074 304.392 3.49241 306.663 3.95573V21H304.555V5.28874ZM315.231 21.2279C313.56 21.2279 312.2 20.681 311.152 19.5872C310.104 18.4859 309.58 17.0162 309.58 15.1781V14.7907C309.58 13.5678 309.811 12.4779 310.275 11.5208C310.746 10.5562 311.399 9.80425 312.234 9.26497C313.078 8.7181 313.989 8.44466 314.969 8.44466C316.571 8.44466 317.817 8.97255 318.706 10.0283C319.594 11.0841 320.039 12.5956 320.039 14.5628V15.4401H311.688C311.718 16.6554 312.071 17.639 312.747 18.391C313.431 19.1353 314.297 19.5075 315.345 19.5075C316.089 19.5075 316.72 19.3556 317.236 19.0518C317.753 18.7479 318.205 18.3454 318.592 17.8441L319.879 18.8467C318.846 20.4341 317.297 21.2279 315.231 21.2279ZM314.969 10.1764C314.118 10.1764 313.404 10.4878 312.827 11.1107C312.25 11.7259 311.893 12.5918 311.756 13.7083H317.931V13.5488C317.87 12.4779 317.582 11.65 317.065 11.0651C316.549 10.4727 315.85 10.1764 314.969 10.1764ZM326.624 13.1729L329.358 8.67253H331.819L327.786 14.7679L331.945 21H329.507L326.658 16.3857L323.81 21H321.36L325.519 14.7679L321.486 8.67253H323.924L326.624 13.1729Z" fill="black"/>
<rect x="0.833374" y="30.5" width="199" height="69" stroke="#212121" stroke-dasharray="5 5"/>
<rect x="234.167" y="30.5" width="199" height="69" stroke="#212121" stroke-dasharray="5 5"/>
<rect x="5.33337" y="35" width="60" height="60" fill="#159A6B"/>
<rect x="238.667" y="35" width="60" height="60" fill="#159A6B"/>
<rect x="70.3334" y="35" width="60" height="60" fill="#128279"/>
<rect x="303.667" y="35" width="60" height="60" fill="#128279"/>
<rect x="135.333" y="35" width="60" height="60" fill="#0B5A72"/>
<rect x="368.667" y="35" width="60" height="60" fill="#0B5A72"/>
<rect x="368.333" y="191.333" width="60" height="60" fill="#0B5A72"/>
<path d="M36.3057 73H34.1865V58.9521L29.9368 60.513V58.599L35.9753 56.3317H36.3057V73Z" fill="white"/>
<path d="M105.248 73H94.3786V71.4847L100.121 65.1045C100.971 64.1399 101.556 63.3575 101.875 62.7575C102.202 62.1498 102.365 61.5232 102.365 60.8776C102.365 60.0117 102.103 59.3015 101.579 58.7471C101.055 58.1926 100.356 57.9154 99.4827 57.9154C98.4346 57.9154 97.6181 58.2154 97.0332 58.8154C96.4559 59.4079 96.1673 60.2358 96.1673 61.2992H94.0596C94.0596 59.7725 94.5495 58.5382 95.5293 57.5964C96.5167 56.6545 97.8345 56.1836 99.4827 56.1836C101.025 56.1836 102.244 56.59 103.14 57.4027C104.036 58.2078 104.484 59.2826 104.484 60.627C104.484 62.26 103.444 64.2044 101.363 66.4603L96.9193 71.2796H105.248V73Z" fill="white"/>
<path d="M162.443 63.6803H164.027C165.022 63.6651 165.804 63.4031 166.374 62.8942C166.944 62.3853 167.229 61.6979 167.229 60.832C167.229 58.8876 166.26 57.9154 164.323 57.9154C163.412 57.9154 162.683 58.1774 162.136 58.7015C161.596 59.218 161.327 59.9054 161.327 60.7637H159.219C159.219 59.4497 159.698 58.3597 160.655 57.4938C161.619 56.6203 162.842 56.1836 164.323 56.1836C165.888 56.1836 167.115 56.5975 168.003 57.4255C168.892 58.2534 169.336 59.4041 169.336 60.8776C169.336 61.5992 169.101 62.298 168.63 62.974C168.167 63.65 167.532 64.1551 166.727 64.4893C167.639 64.7779 168.341 65.2564 168.835 65.9248C169.336 66.5932 169.587 67.4097 169.587 68.3743C169.587 69.8631 169.101 71.0442 168.129 71.9176C167.156 72.7911 165.892 73.2279 164.335 73.2279C162.778 73.2279 161.509 72.8063 160.529 71.9632C159.557 71.1201 159.071 70.0074 159.071 68.625H161.19C161.19 69.4985 161.475 70.1973 162.045 70.7214C162.614 71.2454 163.378 71.5075 164.335 71.5075C165.352 71.5075 166.131 71.2416 166.67 70.71C167.21 70.1783 167.479 69.4149 167.479 68.4199C167.479 67.4553 167.183 66.7147 166.59 66.1982C165.998 65.6817 165.144 65.4159 164.027 65.4007H162.443V63.6803Z" fill="white"/>
<path d="M396.443 63.6803H398.027C399.022 63.6651 399.804 63.4031 400.374 62.8942C400.944 62.3853 401.229 61.6979 401.229 60.832C401.229 58.8876 400.26 57.9154 398.323 57.9154C397.412 57.9154 396.683 58.1774 396.136 58.7015C395.596 59.218 395.327 59.9054 395.327 60.7637H393.219C393.219 59.4497 393.698 58.3597 394.655 57.4938C395.619 56.6203 396.842 56.1836 398.323 56.1836C399.888 56.1836 401.115 56.5975 402.003 57.4255C402.892 58.2534 403.336 59.4041 403.336 60.8776C403.336 61.5992 403.101 62.298 402.63 62.974C402.167 63.65 401.532 64.1551 400.727 64.4893C401.639 64.7779 402.341 65.2564 402.835 65.9248C403.336 66.5932 403.587 67.4097 403.587 68.3743C403.587 69.8631 403.101 71.0442 402.129 71.9176C401.156 72.7911 399.892 73.2279 398.335 73.2279C396.778 73.2279 395.509 72.8063 394.529 71.9632C393.557 71.1201 393.071 70.0074 393.071 68.625H395.19C395.19 69.4985 395.475 70.1973 396.045 70.7214C396.614 71.2454 397.378 71.5075 398.335 71.5075C399.352 71.5075 400.131 71.2416 400.67 70.71C401.21 70.1783 401.479 69.4149 401.479 68.4199C401.479 67.4553 401.183 66.7147 400.59 66.1982C399.998 65.6817 399.144 65.4159 398.027 65.4007H396.443V63.6803Z" fill="white"/>
<path d="M395.443 219.68H397.027C398.022 219.665 398.804 219.403 399.374 218.894C399.944 218.385 400.229 217.698 400.229 216.832C400.229 214.888 399.26 213.915 397.323 213.915C396.412 213.915 395.683 214.177 395.136 214.701C394.596 215.218 394.327 215.905 394.327 216.764H392.219C392.219 215.45 392.698 214.36 393.655 213.494C394.619 212.62 395.842 212.184 397.323 212.184C398.888 212.184 400.115 212.598 401.003 213.425C401.892 214.253 402.336 215.404 402.336 216.878C402.336 217.599 402.101 218.298 401.63 218.974C401.167 219.65 400.532 220.155 399.727 220.489C400.639 220.778 401.341 221.256 401.835 221.925C402.336 222.593 402.587 223.41 402.587 224.374C402.587 225.863 402.101 227.044 401.129 227.918C400.156 228.791 398.892 229.228 397.335 229.228C395.778 229.228 394.509 228.806 393.529 227.963C392.557 227.12 392.071 226.007 392.071 224.625H394.19C394.19 225.498 394.475 226.197 395.045 226.721C395.614 227.245 396.378 227.507 397.335 227.507C398.352 227.507 399.131 227.242 399.67 226.71C400.21 226.178 400.479 225.415 400.479 224.42C400.479 223.455 400.183 222.715 399.59 222.198C398.998 221.682 398.144 221.416 397.027 221.401H395.443V219.68Z" fill="white"/>
<path d="M339.248 73H328.379V71.4847L334.121 65.1045C334.971 64.1399 335.556 63.3575 335.875 62.7575C336.202 62.1498 336.365 61.5232 336.365 60.8776C336.365 60.0117 336.103 59.3015 335.579 58.7471C335.055 58.1926 334.356 57.9154 333.483 57.9154C332.435 57.9154 331.618 58.2154 331.033 58.8154C330.456 59.4079 330.167 60.2358 330.167 61.2992H328.06C328.06 59.7725 328.549 58.5382 329.529 57.5964C330.517 56.6545 331.835 56.1836 333.483 56.1836C335.025 56.1836 336.244 56.59 337.14 57.4027C338.036 58.2078 338.484 59.2826 338.484 60.627C338.484 62.26 337.444 64.2044 335.363 66.4603L330.919 71.2796H339.248V73Z" fill="white"/>
<path d="M338.248 229H327.379V227.485L333.121 221.104C333.971 220.14 334.556 219.358 334.875 218.757C335.202 218.15 335.365 217.523 335.365 216.878C335.365 216.012 335.103 215.302 334.579 214.747C334.055 214.193 333.356 213.915 332.483 213.915C331.435 213.915 330.618 214.215 330.033 214.815C329.456 215.408 329.167 216.236 329.167 217.299H327.06C327.06 215.772 327.549 214.538 328.529 213.596C329.517 212.655 330.835 212.184 332.483 212.184C334.025 212.184 335.244 212.59 336.14 213.403C337.036 214.208 337.484 215.283 337.484 216.627C337.484 218.26 336.444 220.204 334.363 222.46L329.919 227.28H338.248V229Z" fill="white"/>
<path d="M269.306 73H267.187V58.9521L262.937 60.513V58.599L268.975 56.3317H269.306V73Z" fill="white"/>
<path d="M269.306 229H267.187V214.952L262.937 216.513V214.599L268.975 212.332H269.306V229Z" fill="white"/>
</svg>
