<svg width="400" height="100" viewBox="0 0 400 100" fill="none" xmlns="http://www.w3.org/2000/svg">
<path d="M3.58887 8.67253L3.65723 10.222C4.59907 9.03711 5.82954 8.44466 7.34863 8.44466C9.95388 8.44466 11.2679 9.91439 11.2907 12.8538V21H9.18294V12.8424C9.17535 11.9538 8.97027 11.2968 8.56771 10.8714C8.17274 10.4461 7.55371 10.2334 6.71061 10.2334C6.02702 10.2334 5.42697 10.4157 4.91048 10.7803C4.39399 11.1449 3.99143 11.6234 3.7028 12.2158V21H1.59505V8.67253H3.58887ZM13.9111 14.7223C13.9111 13.5146 14.1466 12.4285 14.6175 11.4639C15.096 10.4992 15.7568 9.75488 16.5999 9.23079C17.4506 8.70671 18.4191 8.44466 19.5052 8.44466C21.1838 8.44466 22.5396 9.02572 23.5726 10.1878C24.6132 11.3499 25.1335 12.8956 25.1335 14.8249V14.973C25.1335 16.1731 24.9018 17.2516 24.4385 18.2087C23.9827 19.1581 23.3257 19.8987 22.4674 20.4303C21.6168 20.962 20.6369 21.2279 19.528 21.2279C17.857 21.2279 16.5012 20.6468 15.4606 19.4847C14.4276 18.3226 13.9111 16.7845 13.9111 14.8704V14.7223ZM16.0303 14.973C16.0303 16.3402 16.3455 17.4377 16.9759 18.2656C17.6139 19.0935 18.4646 19.5075 19.528 19.5075C20.599 19.5075 21.4497 19.0897 22.0801 18.2542C22.7105 17.4111 23.0257 16.2338 23.0257 14.7223C23.0257 13.3703 22.7029 12.2766 22.0573 11.4411C21.4193 10.598 20.5686 10.1764 19.5052 10.1764C18.4646 10.1764 17.6253 10.5904 16.9873 11.4183C16.3493 12.2462 16.0303 13.4311 16.0303 14.973ZM38.6914 18.0947L41.0612 8.67253H43.1689L39.5801 21H37.8711L34.8747 11.6576L31.958 21H30.249L26.6715 8.67253H28.7679L31.1947 17.901L34.0658 8.67253H35.7633L38.6914 18.0947ZM51.2809 10.5638C50.9619 10.5106 50.6163 10.4841 50.2441 10.4841C48.8618 10.4841 47.9237 11.0727 47.43 12.25V21H45.3223V8.67253H47.373L47.4072 10.0967C48.0984 8.99533 49.0782 8.44466 50.3467 8.44466C50.7568 8.44466 51.0682 8.49783 51.2809 8.60417V10.5638ZM60.3841 21C60.2626 20.7569 60.1638 20.324 60.0879 19.7012C59.1081 20.719 57.9384 21.2279 56.5788 21.2279C55.3635 21.2279 54.3647 20.8861 53.5824 20.2025C52.8076 19.5113 52.4202 18.6378 52.4202 17.582C52.4202 16.2984 52.9064 15.3034 53.8786 14.597C54.8584 13.883 56.2332 13.526 58.0029 13.526H60.0537V12.5576C60.0537 11.8209 59.8334 11.236 59.3929 10.8031C58.9524 10.3625 58.3029 10.1423 57.4447 10.1423C56.6927 10.1423 56.0623 10.3321 55.5534 10.7119C55.0445 11.0917 54.79 11.5512 54.79 12.0905H52.6709C52.6709 11.4753 52.8874 10.8828 53.3203 10.3132C53.7608 9.73589 54.3533 9.28017 55.0977 8.94596C55.8496 8.61176 56.6737 8.44466 57.57 8.44466C58.9903 8.44466 60.1031 8.80165 60.9082 9.51563C61.7133 10.222 62.1311 11.198 62.1615 12.4437V18.1175C62.1615 19.2492 62.3058 20.1493 62.5944 20.8177V21H60.3841ZM56.8864 19.3936C57.5472 19.3936 58.1738 19.2227 58.7663 18.8809C59.3587 18.5391 59.7879 18.0947 60.0537 17.5479V15.0186H58.4017C55.8192 15.0186 54.528 15.7743 54.528 17.2858C54.528 17.9466 54.7483 18.4631 55.1888 18.8353C55.6293 19.2075 56.1952 19.3936 56.8864 19.3936ZM75.8789 14.973C75.8789 16.8491 75.4498 18.3606 74.5915 19.5075C73.7332 20.6544 72.5711 21.2279 71.1051 21.2279C69.6088 21.2279 68.4315 20.7531 67.5732 19.8037V25.7396H65.4655V8.67253H67.3909L67.4935 10.0397C68.3518 8.97635 69.5443 8.44466 71.071 8.44466C72.5521 8.44466 73.7218 9.00293 74.5801 10.1195C75.446 11.236 75.8789 12.7893 75.8789 14.7793V14.973ZM73.7712 14.7337C73.7712 13.3438 73.4749 12.2462 72.8825 11.4411C72.29 10.636 71.4773 10.2334 70.4443 10.2334C69.1683 10.2334 68.2113 10.7993 67.5732 11.931V17.8213C68.2037 18.9454 69.1683 19.5075 70.4671 19.5075C71.4773 19.5075 72.2786 19.1087 72.8711 18.3112C73.4711 17.5061 73.7712 16.3136 73.7712 14.7337Z" fill="black"/>
<rect x="0.5" y="30.5" width="399" height="69" stroke="black" stroke-dasharray="5 5"/>
<path d="M5 35H103V95H5V35Z" fill="#159A6B"/>
<rect x="102" y="35" width="98" height="60" fill="#128279"/>
<rect x="200" y="35" width="98" height="60" fill="#0B5A72"/>
<rect x="298" y="35" width="98" height="60" fill="#063F5B"/>
<path d="M52.3057 73H50.1865V58.9521L45.9368 60.513V58.599L51.9753 56.3317H52.3057V73Z" fill="white"/>
<path d="M156.248 73H145.379V71.4847L151.121 65.1045C151.971 64.1399 152.556 63.3575 152.875 62.7575C153.202 62.1498 153.365 61.5232 153.365 60.8776C153.365 60.0117 153.103 59.3015 152.579 58.7471C152.055 58.1926 151.356 57.9154 150.483 57.9154C149.435 57.9154 148.618 58.2154 148.033 58.8154C147.456 59.4079 147.167 60.2358 147.167 61.2992H145.06C145.06 59.7725 145.549 58.5382 146.529 57.5964C147.517 56.6545 148.835 56.1836 150.483 56.1836C152.025 56.1836 153.244 56.59 154.14 57.4027C155.036 58.2078 155.484 59.2826 155.484 60.627C155.484 62.26 154.444 64.2044 152.363 66.4603L147.919 71.2796H156.248V73Z" fill="white"/>
<path d="M246.443 63.6803H248.027C249.022 63.6651 249.804 63.4031 250.374 62.8942C250.944 62.3853 251.229 61.6979 251.229 60.832C251.229 58.8876 250.26 57.9154 248.323 57.9154C247.412 57.9154 246.683 58.1774 246.136 58.7015C245.596 59.218 245.327 59.9054 245.327 60.7637H243.219C243.219 59.4497 243.698 58.3597 244.655 57.4938C245.619 56.6203 246.842 56.1836 248.323 56.1836C249.888 56.1836 251.115 56.5975 252.003 57.4255C252.892 58.2534 253.336 59.4041 253.336 60.8776C253.336 61.5992 253.101 62.298 252.63 62.974C252.167 63.65 251.532 64.1551 250.727 64.4893C251.639 64.7779 252.341 65.2564 252.835 65.9248C253.336 66.5932 253.587 67.4097 253.587 68.3743C253.587 69.8631 253.101 71.0442 252.129 71.9176C251.156 72.7911 249.892 73.2279 248.335 73.2279C246.778 73.2279 245.509 72.8063 244.529 71.9632C243.557 71.1201 243.071 70.0074 243.071 68.625H245.19C245.19 69.4985 245.475 70.1973 246.045 70.7214C246.614 71.2454 247.378 71.5075 248.335 71.5075C249.352 71.5075 250.131 71.2416 250.67 70.71C251.21 70.1783 251.479 69.4149 251.479 68.4199C251.479 67.4553 251.183 66.7147 250.59 66.1982C249.998 65.6817 249.144 65.4159 248.027 65.4007H246.443V63.6803Z" fill="white"/>
<path d="M350.277 67.4287H352.578V69.1491H350.277V73H348.158V69.1491H340.604V67.9072L348.032 56.4115H350.277V67.4287ZM342.996 67.4287H348.158V59.2939L347.907 59.7497L342.996 67.4287Z" fill="white"/>
</svg>
