<svg width="400" height="160" viewBox="0 0 400 160" fill="none" xmlns="http://www.w3.org/2000/svg">
<path d="M12.5098 18.0947L14.8796 8.67253H16.9873L13.3984 21H11.6895L8.69303 11.6576L5.77637 21H4.06738L0.489909 8.67253H2.58626L5.01302 17.901L7.88411 8.67253H9.58171L12.5098 18.0947ZM25.0993 10.5638C24.7803 10.5106 24.4347 10.4841 24.0625 10.4841C22.6801 10.4841 21.7421 11.0727 21.2484 12.25V21H19.1406V8.67253H21.1914L21.2256 10.0967C21.9168 8.99533 22.8966 8.44466 24.165 8.44466C24.5752 8.44466 24.8866 8.49783 25.0993 8.60417V10.5638ZM34.2025 21C34.0809 20.7569 33.9822 20.324 33.9062 19.7012C32.9264 20.719 31.7567 21.2279 30.3971 21.2279C29.1819 21.2279 28.1831 20.8861 27.4007 20.2025C26.626 19.5113 26.2386 18.6378 26.2386 17.582C26.2386 16.2984 26.7247 15.3034 27.6969 14.597C28.6768 13.883 30.0515 13.526 31.8213 13.526H33.8721V12.5576C33.8721 11.8209 33.6518 11.236 33.2113 10.8031C32.7707 10.3625 32.1213 10.1423 31.263 10.1423C30.5111 10.1423 29.8806 10.3321 29.3717 10.7119C28.8628 11.0917 28.6084 11.5512 28.6084 12.0905H26.4893C26.4893 11.4753 26.7057 10.8828 27.1387 10.3132C27.5792 9.73589 28.1717 9.28017 28.916 8.94596C29.668 8.61176 30.4921 8.44466 31.3883 8.44466C32.8087 8.44466 33.9214 8.80165 34.7266 9.51563C35.5317 10.222 35.9494 11.198 35.9798 12.4437V18.1175C35.9798 19.2492 36.1241 20.1493 36.4128 20.8177V21H34.2025ZM30.7048 19.3936C31.3656 19.3936 31.9922 19.2227 32.5846 18.8809C33.1771 18.5391 33.6062 18.0947 33.8721 17.5479V15.0186H32.2201C29.6376 15.0186 28.3464 15.7743 28.3464 17.2858C28.3464 17.9466 28.5666 18.4631 29.0072 18.8353C29.4477 19.2075 30.0136 19.3936 30.7048 19.3936ZM49.6973 14.973C49.6973 16.8491 49.2681 18.3606 48.4098 19.5075C47.5515 20.6544 46.3894 21.2279 44.9235 21.2279C43.4272 21.2279 42.2499 20.7531 41.3916 19.8037V25.7396H39.2839V8.67253H41.2093L41.3118 10.0397C42.1701 8.97635 43.3626 8.44466 44.8893 8.44466C46.3704 8.44466 47.5401 9.00293 48.3984 10.1195C49.2643 11.236 49.6973 12.7893 49.6973 14.7793V14.973ZM47.5895 14.7337C47.5895 13.3438 47.2933 12.2462 46.7008 11.4411C46.1084 10.636 45.2957 10.2334 44.2627 10.2334C42.9867 10.2334 42.0296 10.7993 41.3916 11.931V17.8213C42.022 18.9454 42.9867 19.5075 44.2855 19.5075C45.2957 19.5075 46.097 19.1087 46.6895 18.3112C47.2895 17.5061 47.5895 16.3136 47.5895 14.7337ZM56.7725 14.8135H51.2126V13.0931H56.7725V14.8135ZM64.7933 10.5638C64.4743 10.5106 64.1287 10.4841 63.7565 10.4841C62.3741 10.4841 61.4361 11.0727 60.9424 12.25V21H58.8346V8.67253H60.8854L60.9196 10.0967C61.6108 8.99533 62.5906 8.44466 63.859 8.44466C64.2692 8.44466 64.5806 8.49783 64.7933 8.60417V10.5638ZM71.6292 21.2279C69.9582 21.2279 68.5986 20.681 67.5505 19.5872C66.5023 18.4859 65.9782 17.0162 65.9782 15.1781V14.7907C65.9782 13.5678 66.2098 12.4779 66.6732 11.5208C67.1441 10.5562 67.7973 9.80425 68.6328 9.26497C69.4759 8.7181 70.3874 8.44466 71.3672 8.44466C72.9698 8.44466 74.2155 8.97255 75.1042 10.0283C75.9928 11.0841 76.4372 12.5956 76.4372 14.5628V15.4401H68.0859C68.1163 16.6554 68.4695 17.639 69.1455 18.391C69.8291 19.1353 70.695 19.5075 71.7432 19.5075C72.4875 19.5075 73.1179 19.3556 73.6344 19.0518C74.1509 18.7479 74.6029 18.3454 74.9902 17.8441L76.2777 18.8467C75.2447 20.4341 73.6952 21.2279 71.6292 21.2279ZM71.3672 10.1764C70.5165 10.1764 69.8025 10.4878 69.2253 11.1107C68.648 11.7259 68.291 12.5918 68.1543 13.7083H74.3294V13.5488C74.2687 12.4779 73.98 11.65 73.4635 11.0651C72.947 10.4727 72.2483 10.1764 71.3672 10.1764ZM82.7946 18.1403L85.848 8.67253H88.0013L83.5807 21H81.9743L77.5081 8.67253H79.6615L82.7946 18.1403ZM94.9853 21.2279C93.3143 21.2279 91.9547 20.681 90.9066 19.5872C89.8584 18.4859 89.3343 17.0162 89.3343 15.1781V14.7907C89.3343 13.5678 89.566 12.4779 90.0293 11.5208C90.5002 10.5562 91.1534 9.80425 91.9889 9.26497C92.832 8.7181 93.7435 8.44466 94.7233 8.44466C96.3259 8.44466 97.5716 8.97255 98.4603 10.0283C99.349 11.0841 99.7933 12.5956 99.7933 14.5628V15.4401H91.4421C91.4724 16.6554 91.8256 17.639 92.5016 18.391C93.1852 19.1353 94.0511 19.5075 95.0993 19.5075C95.8436 19.5075 96.4741 19.3556 96.9906 19.0518C97.507 18.7479 97.959 18.3454 98.3463 17.8441L99.6338 18.8467C98.6008 20.4341 97.0513 21.2279 94.9853 21.2279ZM94.7233 10.1764C93.8726 10.1764 93.1586 10.4878 92.5814 11.1107C92.0041 11.7259 91.6471 12.5918 91.5104 13.7083H97.6855V13.5488C97.6248 12.4779 97.3361 11.65 96.8197 11.0651C96.3032 10.4727 95.6044 10.1764 94.7233 10.1764ZM108.201 10.5638C107.882 10.5106 107.537 10.4841 107.165 10.4841C105.782 10.4841 104.844 11.0727 104.351 12.25V21H102.243V8.67253H104.294L104.328 10.0967C105.019 8.99533 105.999 8.44466 107.267 8.44466C107.677 8.44466 107.989 8.49783 108.201 8.60417V10.5638ZM117.327 17.7301C117.327 17.1605 117.111 16.7199 116.678 16.4085C116.253 16.0895 115.505 15.8161 114.434 15.5882C113.37 15.3604 112.523 15.0869 111.893 14.7679C111.27 14.4489 110.807 14.0691 110.503 13.6286C110.207 13.188 110.059 12.664 110.059 12.0563C110.059 11.0461 110.484 10.1916 111.335 9.49284C112.193 8.79405 113.287 8.44466 114.616 8.44466C116.013 8.44466 117.145 8.80545 118.011 9.52702C118.885 10.2486 119.321 11.1714 119.321 12.2956H117.202C117.202 11.7183 116.955 11.2208 116.462 10.8031C115.975 10.3853 115.36 10.1764 114.616 10.1764C113.849 10.1764 113.249 10.3435 112.816 10.6777C112.383 11.0119 112.166 11.4487 112.166 11.988C112.166 12.4969 112.368 12.8804 112.77 13.1387C113.173 13.3969 113.898 13.6438 114.946 13.8792C116.002 14.1147 116.857 14.3957 117.51 14.7223C118.163 15.0489 118.645 15.4439 118.957 15.9072C119.276 16.363 119.435 16.9212 119.435 17.582C119.435 18.6834 118.995 19.5683 118.114 20.2367C117.233 20.8975 116.089 21.2279 114.684 21.2279C113.697 21.2279 112.823 21.0532 112.064 20.7038C111.304 20.3544 110.708 19.8683 110.275 19.2454C109.85 18.615 109.637 17.9352 109.637 17.2061H111.745C111.783 17.9124 112.064 18.4745 112.588 18.8923C113.12 19.3024 113.818 19.5075 114.684 19.5075C115.482 19.5075 116.12 19.348 116.598 19.029C117.084 18.7024 117.327 18.2694 117.327 17.7301ZM127.297 21.2279C125.626 21.2279 124.266 20.681 123.218 19.5872C122.17 18.4859 121.646 17.0162 121.646 15.1781V14.7907C121.646 13.5678 121.877 12.4779 122.34 11.5208C122.811 10.5562 123.465 9.80425 124.3 9.26497C125.143 8.7181 126.055 8.44466 127.034 8.44466C128.637 8.44466 129.883 8.97255 130.771 10.0283C131.66 11.0841 132.104 12.5956 132.104 14.5628V15.4401H123.753C123.784 16.6554 124.137 17.639 124.813 18.391C125.496 19.1353 126.362 19.5075 127.41 19.5075C128.155 19.5075 128.785 19.3556 129.302 19.0518C129.818 18.7479 130.27 18.3454 130.658 17.8441L131.945 18.8467C130.912 20.4341 129.363 21.2279 127.297 21.2279ZM127.034 10.1764C126.184 10.1764 125.47 10.4878 124.893 11.1107C124.315 11.7259 123.958 12.5918 123.822 13.7083H129.997V13.5488C129.936 12.4779 129.647 11.65 129.131 11.0651C128.614 10.4727 127.916 10.1764 127.034 10.1764Z" fill="black"/>
<rect x="0.5" y="30.5" width="399" height="129" stroke="black" stroke-dasharray="5 5"/>
<rect x="6" y="94" width="194" height="60" fill="#159A6B"/>
<rect x="200" y="94" width="194" height="60" fill="#128279"/>
<rect x="6" y="35" width="194" height="60" fill="#0B5A72"/>
<rect x="200" y="35" width="194" height="60" fill="#063F5B"/>
<path d="M99.3057 132H97.1865V117.952L92.9368 119.513V117.599L98.9753 115.332H99.3057V132Z" fill="white"/>
<path d="M304.248 132H293.379V130.485L299.121 124.104C299.971 123.14 300.556 122.358 300.875 121.757C301.202 121.15 301.365 120.523 301.365 119.878C301.365 119.012 301.103 118.302 300.579 117.747C300.055 117.193 299.356 116.915 298.483 116.915C297.435 116.915 296.618 117.215 296.033 117.815C295.456 118.408 295.167 119.236 295.167 120.299H293.06C293.06 118.772 293.549 117.538 294.529 116.596C295.517 115.655 296.835 115.184 298.483 115.184C300.025 115.184 301.244 115.59 302.14 116.403C303.036 117.208 303.484 118.283 303.484 119.627C303.484 121.26 302.444 123.204 300.363 125.46L295.919 130.28H304.248V132Z" fill="white"/>
<path d="M96.4434 63.6803H98.027C99.022 63.6651 99.8044 63.4031 100.374 62.8942C100.944 62.3853 101.229 61.6979 101.229 60.832C101.229 58.8876 100.26 57.9154 98.3232 57.9154C97.4118 57.9154 96.6826 58.1774 96.1357 58.7015C95.5965 59.218 95.3268 59.9054 95.3268 60.7637H93.2191C93.2191 59.4497 93.6976 58.3597 94.6546 57.4938C95.6192 56.6203 96.8421 56.1836 98.3232 56.1836C99.8879 56.1836 101.115 56.5975 102.003 57.4255C102.892 58.2534 103.336 59.4041 103.336 60.8776C103.336 61.5992 103.101 62.298 102.63 62.974C102.167 63.65 101.532 64.1551 100.727 64.4893C101.639 64.7779 102.341 65.2564 102.835 65.9248C103.336 66.5932 103.587 67.4097 103.587 68.3743C103.587 69.8631 103.101 71.0442 102.129 71.9176C101.156 72.7911 99.8917 73.2279 98.3346 73.2279C96.7776 73.2279 95.5091 72.8063 94.5293 71.9632C93.5571 71.1201 93.071 70.0074 93.071 68.625H95.1901C95.1901 69.4985 95.4749 70.1973 96.0446 70.7214C96.6143 71.2454 97.3776 71.5075 98.3346 71.5075C99.3524 71.5075 100.131 71.2416 100.67 70.71C101.21 70.1783 101.479 69.4149 101.479 68.4199C101.479 67.4553 101.183 66.7147 100.59 66.1982C99.998 65.6817 99.1436 65.4159 98.027 65.4007H96.4434V63.6803Z" fill="white"/>
<path d="M300.277 69.4287H302.578V71.1491H300.277V75H298.158V71.1491H290.604V69.9072L298.032 58.4115H300.277V69.4287ZM292.996 69.4287H298.158V61.2939L297.907 61.7497L292.996 69.4287Z" fill="white"/>
</svg>
