<svg width="400" height="160" viewBox="0 0 400 160" fill="none" xmlns="http://www.w3.org/2000/svg">
<path d="M12.5098 18.0947L14.8796 8.67253H16.9873L13.3984 21H11.6895L8.69303 11.6576L5.77637 21H4.06738L0.489909 8.67253H2.58626L5.01302 17.901L7.88411 8.67253H9.58171L12.5098 18.0947ZM25.0993 10.5638C24.7803 10.5106 24.4347 10.4841 24.0625 10.4841C22.6801 10.4841 21.7421 11.0727 21.2484 12.25V21H19.1406V8.67253H21.1914L21.2256 10.0967C21.9168 8.99533 22.8966 8.44466 24.165 8.44466C24.5752 8.44466 24.8866 8.49783 25.0993 8.60417V10.5638ZM34.2025 21C34.0809 20.7569 33.9822 20.324 33.9062 19.7012C32.9264 20.719 31.7567 21.2279 30.3971 21.2279C29.1819 21.2279 28.1831 20.8861 27.4007 20.2025C26.626 19.5113 26.2386 18.6378 26.2386 17.582C26.2386 16.2984 26.7247 15.3034 27.6969 14.597C28.6768 13.883 30.0515 13.526 31.8213 13.526H33.8721V12.5576C33.8721 11.8209 33.6518 11.236 33.2113 10.8031C32.7707 10.3625 32.1213 10.1423 31.263 10.1423C30.5111 10.1423 29.8806 10.3321 29.3717 10.7119C28.8628 11.0917 28.6084 11.5512 28.6084 12.0905H26.4893C26.4893 11.4753 26.7057 10.8828 27.1387 10.3132C27.5792 9.73589 28.1717 9.28017 28.916 8.94596C29.668 8.61176 30.4921 8.44466 31.3883 8.44466C32.8087 8.44466 33.9214 8.80165 34.7266 9.51563C35.5317 10.222 35.9494 11.198 35.9798 12.4437V18.1175C35.9798 19.2492 36.1241 20.1493 36.4128 20.8177V21H34.2025ZM30.7048 19.3936C31.3656 19.3936 31.9922 19.2227 32.5846 18.8809C33.1771 18.5391 33.6062 18.0947 33.8721 17.5479V15.0186H32.2201C29.6376 15.0186 28.3464 15.7743 28.3464 17.2858C28.3464 17.9466 28.5666 18.4631 29.0072 18.8353C29.4477 19.2075 30.0136 19.3936 30.7048 19.3936ZM49.6973 14.973C49.6973 16.8491 49.2681 18.3606 48.4098 19.5075C47.5515 20.6544 46.3894 21.2279 44.9235 21.2279C43.4272 21.2279 42.2499 20.7531 41.3916 19.8037V25.7396H39.2839V8.67253H41.2093L41.3118 10.0397C42.1701 8.97635 43.3626 8.44466 44.8893 8.44466C46.3704 8.44466 47.5401 9.00293 48.3984 10.1195C49.2643 11.236 49.6973 12.7893 49.6973 14.7793V14.973ZM47.5895 14.7337C47.5895 13.3438 47.2933 12.2462 46.7008 11.4411C46.1084 10.636 45.2957 10.2334 44.2627 10.2334C42.9867 10.2334 42.0296 10.7993 41.3916 11.931V17.8213C42.022 18.9454 42.9867 19.5075 44.2855 19.5075C45.2957 19.5075 46.097 19.1087 46.6895 18.3112C47.2895 17.5061 47.5895 16.3136 47.5895 14.7337Z" fill="black"/>
<rect x="0.5" y="30.5" width="399" height="129" stroke="black" stroke-dasharray="5 5"/>
<rect x="5" y="35" width="194" height="60" fill="#159A6B"/>
<rect x="199" y="35" width="194" height="60" fill="#128279"/>
<rect x="5" y="95" width="194" height="60" fill="#0B5A72"/>
<rect x="199" y="95" width="194" height="60" fill="#063F5B"/>
<path d="M98.3057 73H96.1865V58.9521L91.9368 60.513V58.599L97.9753 56.3317H98.3057V73Z" fill="white"/>
<path d="M303.248 73H292.379V71.4847L298.121 65.1045C298.971 64.1399 299.556 63.3575 299.875 62.7575C300.202 62.1498 300.365 61.5232 300.365 60.8776C300.365 60.0117 300.103 59.3015 299.579 58.7471C299.055 58.1926 298.356 57.9154 297.483 57.9154C296.435 57.9154 295.618 58.2154 295.033 58.8154C294.456 59.4079 294.167 60.2358 294.167 61.2992H292.06C292.06 59.7725 292.549 58.5382 293.529 57.5964C294.517 56.6545 295.835 56.1836 297.483 56.1836C299.025 56.1836 300.244 56.59 301.14 57.4027C302.036 58.2078 302.484 59.2826 302.484 60.627C302.484 62.26 301.444 64.2044 299.363 66.4603L294.919 71.2796H303.248V73Z" fill="white"/>
<path d="M95.4434 123.68H97.027C98.022 123.665 98.8044 123.403 99.374 122.894C99.9437 122.385 100.229 121.698 100.229 120.832C100.229 118.888 99.2601 117.915 97.3232 117.915C96.4118 117.915 95.6826 118.177 95.1357 118.701C94.5965 119.218 94.3268 119.905 94.3268 120.764H92.2191C92.2191 119.45 92.6976 118.36 93.6546 117.494C94.6192 116.62 95.8421 116.184 97.3232 116.184C98.8879 116.184 100.115 116.598 101.003 117.425C101.892 118.253 102.336 119.404 102.336 120.878C102.336 121.599 102.101 122.298 101.63 122.974C101.167 123.65 100.532 124.155 99.7272 124.489C100.639 124.778 101.341 125.256 101.835 125.925C102.336 126.593 102.587 127.41 102.587 128.374C102.587 129.863 102.101 131.044 101.129 131.918C100.156 132.791 98.8917 133.228 97.3346 133.228C95.7776 133.228 94.5091 132.806 93.5293 131.963C92.5571 131.12 92.071 130.007 92.071 128.625H94.1901C94.1901 129.498 94.4749 130.197 95.0446 130.721C95.6143 131.245 96.3776 131.507 97.3346 131.507C98.3524 131.507 99.131 131.242 99.6702 130.71C100.21 130.178 100.479 129.415 100.479 128.42C100.479 127.455 100.183 126.715 99.5905 126.198C98.998 125.682 98.1436 125.416 97.027 125.401H95.4434V123.68Z" fill="white"/>
<path d="M299.277 129.429H301.578V131.149H299.277V135H297.158V131.149H289.604V129.907L297.032 118.411H299.277V129.429ZM291.996 129.429H297.158V121.294L296.907 121.75L291.996 129.429Z" fill="white"/>
</svg>
