<svg width="685" height="100" viewBox="0 0 685 100" fill="none" xmlns="http://www.w3.org/2000/svg">
<path d="M14.6859 13.2412C14.6859 14.8666 14.4124 16.287 13.8656 17.5023C13.3187 18.71 12.5439 19.6328 11.5413 20.2708C10.5387 20.9089 9.36903 21.2279 8.03223 21.2279C6.7258 21.2279 5.56749 20.9089 4.55729 20.2708C3.54709 19.6252 2.76096 18.71 2.19889 17.5251C1.64442 16.3326 1.35959 14.954 1.3444 13.3893V12.193C1.3444 10.598 1.62164 9.18902 2.17611 7.96615C2.73058 6.74327 3.51291 5.80903 4.52311 5.16341C5.54091 4.5102 6.70302 4.18359 8.00944 4.18359C9.33865 4.18359 10.5084 4.5064 11.5186 5.15202C12.5363 5.79004 13.3187 6.72049 13.8656 7.94336C14.4124 9.15864 14.6859 10.5752 14.6859 12.193V13.2412ZM12.5098 12.1702C12.5098 10.203 12.1148 8.69531 11.3249 7.64714C10.5349 6.59136 9.4298 6.06348 8.00944 6.06348C6.62706 6.06348 5.53711 6.59136 4.73958 7.64714C3.94965 8.69531 3.54329 10.1536 3.52051 12.0221V13.2412C3.52051 15.1477 3.91927 16.6478 4.7168 17.7415C5.52192 18.8277 6.62706 19.3708 8.03223 19.3708C9.44499 19.3708 10.5387 18.8581 11.3135 17.8327C12.0882 16.7997 12.487 15.3224 12.5098 13.4007V12.1702ZM28.0501 14.973C28.0501 16.8491 27.621 18.3606 26.7627 19.5075C25.9044 20.6544 24.7423 21.2279 23.2764 21.2279C21.7801 21.2279 20.6028 20.7531 19.7445 19.8037V25.7396H17.6367V8.67253H19.5622L19.6647 10.0397C20.523 8.97635 21.7155 8.44466 23.2422 8.44466C24.7233 8.44466 25.893 9.00293 26.7513 10.1195C27.6172 11.236 28.0501 12.7893 28.0501 14.7793V14.973ZM25.9424 14.7337C25.9424 13.3438 25.6462 12.2462 25.0537 11.4411C24.4613 10.636 23.6485 10.2334 22.6156 10.2334C21.3395 10.2334 20.3825 10.7993 19.7445 11.931V17.8213C20.3749 18.9454 21.3395 19.5075 22.6383 19.5075C23.6485 19.5075 24.4499 19.1087 25.0423 18.3112C25.6424 17.5061 25.9424 16.3136 25.9424 14.7337ZM38.7142 8.67253H40.8219V21H38.7142V12.0107L33.029 21H30.9212V8.67253H33.029V17.6732L38.7142 8.67253ZM52.1696 10.4157H46.4844V21H44.3652V8.67253H52.1696V10.4157ZM56.2939 21H54.1862V8.67253H56.2939V21ZM54.0153 5.40267C54.0153 5.06087 54.1178 4.77224 54.3229 4.53678C54.5356 4.30132 54.847 4.18359 55.2572 4.18359C55.6673 4.18359 55.9787 4.30132 56.1914 4.53678C56.4041 4.77224 56.5104 5.06087 56.5104 5.40267C56.5104 5.74447 56.4041 6.0293 56.1914 6.25716C55.9787 6.48503 55.6673 6.59896 55.2572 6.59896C54.847 6.59896 54.5356 6.48503 54.3229 6.25716C54.1178 6.0293 54.0153 5.74447 54.0153 5.40267ZM69.7493 21H67.6416V15.7363H61.9792V21H59.86V8.67253H61.9792V14.016H67.6416V8.67253H69.7493V21ZM80.7552 21C80.6337 20.7569 80.5349 20.324 80.459 19.7012C79.4792 20.719 78.3095 21.2279 76.9499 21.2279C75.7346 21.2279 74.7358 20.8861 73.9534 20.2025C73.1787 19.5113 72.7913 18.6378 72.7913 17.582C72.7913 16.2984 73.2774 15.3034 74.2497 14.597C75.2295 13.883 76.6043 13.526 78.374 13.526H80.4248V12.5576C80.4248 11.8209 80.2045 11.236 79.764 10.8031C79.3235 10.3625 78.674 10.1423 77.8158 10.1423C77.0638 10.1423 76.4334 10.3321 75.9245 10.7119C75.4156 11.0917 75.1611 11.5512 75.1611 12.0905H73.042C73.042 11.4753 73.2585 10.8828 73.6914 10.3132C74.1319 9.73589 74.7244 9.28017 75.4687 8.94596C76.2207 8.61176 77.0448 8.44466 77.9411 8.44466C79.3614 8.44466 80.4742 8.80165 81.2793 9.51563C82.0844 10.222 82.5022 11.198 82.5325 12.4437V18.1175C82.5325 19.2492 82.6769 20.1493 82.9655 20.8177V21H80.7552ZM77.2575 19.3936C77.9183 19.3936 78.5449 19.2227 79.1374 18.8809C79.7298 18.5391 80.159 18.0947 80.4248 17.5479V15.0186H78.7728C76.1903 15.0186 74.8991 15.7743 74.8991 17.2858C74.8991 17.9466 75.1194 18.4631 75.5599 18.8353C76.0004 19.2075 76.5663 19.3936 77.2575 19.3936ZM95.9424 8.67253V21H93.8232V10.4157H89.6305L89.3799 15.0299C89.2432 17.1491 88.8862 18.6644 88.3089 19.5758C87.7393 20.4873 86.8316 20.962 85.5859 21H84.7428V19.1429L85.3467 19.0973C86.0303 19.0214 86.5202 18.6264 86.8164 17.9124C87.1126 17.1985 87.3025 15.8768 87.3861 13.9476L87.6139 8.67253H95.9424ZM101.628 12.9222H104.829C106.227 12.9374 107.332 13.302 108.145 14.016C108.957 14.7299 109.364 15.6984 109.364 16.9212C109.364 18.1517 108.946 19.1391 108.11 19.8835C107.275 20.6278 106.151 21 104.738 21H99.5199V8.67253H101.628V12.9222ZM101.628 14.6426V19.2796H104.761C105.551 19.2796 106.162 19.0783 106.595 18.6758C107.028 18.2656 107.244 17.7074 107.244 17.001C107.244 16.3174 107.032 15.7591 106.606 15.3262C106.189 14.8856 105.6 14.6578 104.84 14.6426H101.628ZM122.067 21H119.959V15.7363H114.297V21H112.178V8.67253H114.297V14.016H119.959V8.67253H122.067V21ZM133.437 8.67253H135.545V21H133.437V12.0107L127.752 21H125.645V8.67253H127.752V17.6732L133.437 8.67253ZM146.904 8.67253H149.012V21H146.904V12.0107L141.219 21H139.111V8.67253H141.219V17.6732L146.904 8.67253ZM147.474 4.18359C147.474 5.10265 147.159 5.84321 146.528 6.40527C145.905 6.95974 145.085 7.23698 144.067 7.23698C143.05 7.23698 142.225 6.95595 141.595 6.39388C140.965 5.83182 140.649 5.09505 140.649 4.18359H142.37C142.37 4.71528 142.514 5.13303 142.803 5.43685C143.091 5.73307 143.513 5.88119 144.067 5.88119C144.599 5.88119 145.013 5.73307 145.309 5.43685C145.613 5.14063 145.765 4.72287 145.765 4.18359H147.474ZM168.597 14.973C168.597 16.8491 168.168 18.3606 167.31 19.5075C166.451 20.6544 165.289 21.2279 163.823 21.2279C162.327 21.2279 161.15 20.7531 160.291 19.8037V25.7396H158.184V8.67253H160.109L160.212 10.0397C161.07 8.97635 162.262 8.44466 163.789 8.44466C165.27 8.44466 166.44 9.00293 167.298 10.1195C168.164 11.236 168.597 12.7893 168.597 14.7793V14.973ZM166.489 14.7337C166.489 13.3438 166.193 12.2462 165.601 11.4411C165.008 10.636 164.195 10.2334 163.162 10.2334C161.886 10.2334 160.929 10.7993 160.291 11.931V17.8213C160.922 18.9454 161.886 19.5075 163.185 19.5075C164.195 19.5075 164.997 19.1087 165.589 18.3112C166.189 17.5061 166.489 16.3136 166.489 14.7337ZM170.728 14.7223C170.728 13.5146 170.963 12.4285 171.434 11.4639C171.912 10.4992 172.573 9.75488 173.416 9.23079C174.267 8.70671 175.235 8.44466 176.322 8.44466C178 8.44466 179.356 9.02572 180.389 10.1878C181.43 11.3499 181.95 12.8956 181.95 14.8249V14.973C181.95 16.1731 181.718 17.2516 181.255 18.2087C180.799 19.1581 180.142 19.8987 179.284 20.4303C178.433 20.962 177.453 21.2279 176.344 21.2279C174.673 21.2279 173.318 20.6468 172.277 19.4847C171.244 18.3226 170.728 16.7845 170.728 14.8704V14.7223ZM172.847 14.973C172.847 16.3402 173.162 17.4377 173.792 18.2656C174.43 19.0935 175.281 19.5075 176.344 19.5075C177.415 19.5075 178.266 19.0897 178.896 18.2542C179.527 17.4111 179.842 16.2338 179.842 14.7223C179.842 13.3703 179.519 12.2766 178.874 11.4411C178.236 10.598 177.385 10.1764 176.322 10.1764C175.281 10.1764 174.442 10.5904 173.804 11.4183C173.166 12.2462 172.847 13.4311 172.847 14.973ZM191.372 12.0449C191.372 11.4677 191.152 11.0119 190.711 10.6777C190.271 10.3359 189.667 10.165 188.9 10.165C188.155 10.165 187.533 10.3587 187.031 10.7461C186.538 11.1335 186.291 11.5892 186.291 12.1133H184.194C184.194 11.0423 184.642 10.165 185.539 9.48145C186.435 8.79785 187.555 8.45606 188.9 8.45606C190.343 8.45606 191.467 8.76747 192.272 9.3903C193.077 10.0055 193.48 10.8866 193.48 12.0335C193.48 12.588 193.313 13.0969 192.978 13.5602C192.644 14.0235 192.17 14.3919 191.554 14.6654C192.99 15.1515 193.708 16.1085 193.708 17.5365C193.708 18.6682 193.271 19.5645 192.397 20.2253C191.524 20.8861 190.358 21.2165 188.9 21.2165C187.479 21.2165 186.306 20.8709 185.379 20.1797C184.46 19.4809 184.001 18.5391 184.001 17.3542H186.097C186.097 17.9542 186.363 18.4707 186.895 18.9036C187.434 19.329 188.102 19.5417 188.9 19.5417C189.705 19.5417 190.354 19.3556 190.848 18.9834C191.342 18.6112 191.589 18.1289 191.589 17.5365C191.589 16.8453 191.38 16.3516 190.962 16.0553C190.552 15.7515 189.91 15.5996 189.036 15.5996H186.929V13.8223H189.219C190.654 13.7843 191.372 13.1918 191.372 12.0449ZM203.54 18.2087L207.733 8.67253H210.365V21H208.257V12.0335L204.269 21H202.811L198.743 11.8398V21H196.636V8.67253H199.37L203.54 18.2087ZM216.05 21H213.942V8.67253H216.05V21ZM213.771 5.40267C213.771 5.06087 213.874 4.77224 214.079 4.53678C214.291 4.30132 214.603 4.18359 215.013 4.18359C215.423 4.18359 215.735 4.30132 215.947 4.53678C216.16 4.77224 216.266 5.06087 216.266 5.40267C216.266 5.74447 216.16 6.0293 215.947 6.25716C215.735 6.48503 215.423 6.59896 215.013 6.59896C214.603 6.59896 214.291 6.48503 214.079 6.25716C213.874 6.0293 213.771 5.74447 213.771 5.40267ZM229.847 14.973C229.847 16.8491 229.418 18.3606 228.56 19.5075C227.701 20.6544 226.539 21.2279 225.073 21.2279C223.577 21.2279 222.4 20.7531 221.541 19.8037V25.7396H219.434V8.67253H221.359L221.462 10.0397C222.32 8.97635 223.512 8.44466 225.039 8.44466C226.52 8.44466 227.69 9.00293 228.548 10.1195C229.414 11.236 229.847 12.7893 229.847 14.7793V14.973ZM227.739 14.7337C227.739 13.3438 227.443 12.2462 226.851 11.4411C226.258 10.636 225.445 10.2334 224.412 10.2334C223.136 10.2334 222.179 10.7993 221.541 11.931V17.8213C222.172 18.9454 223.136 19.5075 224.435 19.5075C225.445 19.5075 226.247 19.1087 226.839 18.3112C227.439 17.5061 227.739 16.3136 227.739 14.7337ZM243.439 21.2279C241.768 21.2279 240.409 20.681 239.36 19.5872C238.312 18.4859 237.788 17.0162 237.788 15.1781V14.7907C237.788 13.5678 238.02 12.4779 238.483 11.5208C238.954 10.5562 239.607 9.80425 240.443 9.26497C241.286 8.7181 242.197 8.44466 243.177 8.44466C244.78 8.44466 246.025 8.97255 246.914 10.0283C247.803 11.0841 248.247 12.5956 248.247 14.5628V15.4401H239.896C239.926 16.6554 240.279 17.639 240.955 18.391C241.639 19.1353 242.505 19.5075 243.553 19.5075C244.297 19.5075 244.928 19.3556 245.444 19.0518C245.961 18.7479 246.413 18.3454 246.8 17.8441L248.088 18.8467C247.055 20.4341 245.505 21.2279 243.439 21.2279ZM243.177 10.1764C242.326 10.1764 241.612 10.4878 241.035 11.1107C240.458 11.7259 240.101 12.5918 239.964 13.7083H246.139V13.5488C246.079 12.4779 245.79 11.65 245.273 11.0651C244.757 10.4727 244.058 10.1764 243.177 10.1764ZM260.802 8.67253V21H258.683V10.4157H254.491L254.24 15.0299C254.103 17.1491 253.746 18.6644 253.169 19.5758C252.599 20.4873 251.692 20.962 250.446 21H249.603V19.1429L250.207 19.0973C250.89 19.0214 251.38 18.6264 251.676 17.9124C251.973 17.1985 252.163 15.8768 252.246 13.9476L252.474 8.67253H260.802ZM269.302 21.2279C267.631 21.2279 266.271 20.681 265.223 19.5872C264.175 18.4859 263.651 17.0162 263.651 15.1781V14.7907C263.651 13.5678 263.882 12.4779 264.346 11.5208C264.817 10.5562 265.47 9.80425 266.305 9.26497C267.148 8.7181 268.06 8.44466 269.04 8.44466C270.642 8.44466 271.888 8.97255 272.777 10.0283C273.665 11.0841 274.11 12.5956 274.11 14.5628V15.4401H265.758C265.789 16.6554 266.142 17.639 266.818 18.391C267.502 19.1353 268.367 19.5075 269.416 19.5075C270.16 19.5075 270.79 19.3556 271.307 19.0518C271.823 18.7479 272.275 18.3454 272.663 17.8441L273.95 18.8467C272.917 20.4341 271.368 21.2279 269.302 21.2279ZM269.04 10.1764C268.189 10.1764 267.475 10.4878 266.898 11.1107C266.321 11.7259 265.964 12.5918 265.827 13.7083H272.002V13.5488C271.941 12.4779 271.653 11.65 271.136 11.0651C270.62 10.4727 269.921 10.1764 269.04 10.1764ZM283.657 18.2087L287.85 8.67253H290.482V21H288.374V12.0335L284.386 21H282.928L278.861 11.8398V21H276.753V8.67253H279.487L283.657 18.2087ZM298.993 21.2279C297.321 21.2279 295.962 20.681 294.914 19.5872C293.866 18.4859 293.341 17.0162 293.341 15.1781V14.7907C293.341 13.5678 293.573 12.4779 294.036 11.5208C294.507 10.5562 295.161 9.80425 295.996 9.26497C296.839 8.7181 297.751 8.44466 298.73 8.44466C300.333 8.44466 301.579 8.97255 302.467 10.0283C303.356 11.0841 303.8 12.5956 303.8 14.5628V15.4401H295.449C295.48 16.6554 295.833 17.639 296.509 18.391C297.192 19.1353 298.058 19.5075 299.106 19.5075C299.851 19.5075 300.481 19.3556 300.998 19.0518C301.514 18.7479 301.966 18.3454 302.354 17.8441L303.641 18.8467C302.608 20.4341 301.058 21.2279 298.993 21.2279ZM298.73 10.1764C297.88 10.1764 297.166 10.4878 296.589 11.1107C296.011 11.7259 295.654 12.5918 295.518 13.7083H301.693V13.5488C301.632 12.4779 301.343 11.65 300.827 11.0651C300.31 10.4727 299.612 10.1764 298.73 10.1764ZM316.322 21H314.214V15.7363H308.551V21H306.432V8.67253H308.551V14.016H314.214V8.67253H316.322V21ZM328.877 10.3815H324.741V21H322.633V10.3815H318.577V8.67253H328.877V10.3815ZM333.218 21H331.11V8.67253H333.218V21ZM330.939 5.40267C330.939 5.06087 331.042 4.77224 331.247 4.53678C331.459 4.30132 331.771 4.18359 332.181 4.18359C332.591 4.18359 332.903 4.30132 333.115 4.53678C333.328 4.77224 333.434 5.06087 333.434 5.40267C333.434 5.74447 333.328 6.0293 333.115 6.25716C332.903 6.48503 332.591 6.59896 332.181 6.59896C331.771 6.59896 331.459 6.48503 331.247 6.25716C331.042 6.0293 330.939 5.74447 330.939 5.40267ZM336.795 21V8.67253H341.603C343.244 8.67253 344.501 8.96116 345.374 9.53841C346.255 10.1081 346.696 10.9474 346.696 12.0563C346.696 12.626 346.525 13.1425 346.183 13.6058C345.841 14.0615 345.336 14.4109 344.668 14.654C345.412 14.8287 346.009 15.1705 346.457 15.6794C346.912 16.1883 347.14 16.7959 347.14 17.5023C347.14 18.634 346.723 19.4999 345.887 20.0999C345.059 20.7 343.886 21 342.367 21H336.795ZM338.903 15.5882V19.3024H342.389C343.27 19.3024 343.927 19.1391 344.36 18.8125C344.801 18.4859 345.021 18.0264 345.021 17.4339C345.021 16.2035 344.117 15.5882 342.31 15.5882H338.903ZM338.903 13.902H341.626C343.601 13.902 344.588 13.3248 344.588 12.1702C344.588 11.0157 343.654 10.4195 341.785 10.3815H338.903V13.902Z" fill="black"/>
<rect x="0.5" y="30.5" width="399" height="69" stroke="black" stroke-dasharray="5 5"/>
<rect x="5" y="35" width="170" height="60" fill="#159A6B"/>
<rect x="175" y="35" width="170" height="60" fill="#128279"/>
<rect x="345" y="35" width="170" height="60" fill="#0B5A72"/>
<rect x="515" y="35" width="170" height="60" fill="#063F5B"/>
<path d="M90.3057 73H88.1865V58.9521L83.9368 60.513V58.599L89.9753 56.3317H90.3057V73Z" fill="white"/>
<path d="M265.248 73H254.379V71.4847L260.121 65.1045C260.971 64.1399 261.556 63.3575 261.875 62.7575C262.202 62.1498 262.365 61.5232 262.365 60.8776C262.365 60.0117 262.103 59.3015 261.579 58.7471C261.055 58.1926 260.356 57.9154 259.483 57.9154C258.435 57.9154 257.618 58.2154 257.033 58.8154C256.456 59.4079 256.167 60.2358 256.167 61.2992H254.06C254.06 59.7725 254.549 58.5382 255.529 57.5964C256.517 56.6545 257.835 56.1836 259.483 56.1836C261.025 56.1836 262.244 56.59 263.14 57.4027C264.036 58.2078 264.484 59.2826 264.484 60.627C264.484 62.26 263.444 64.2044 261.363 66.4603L256.919 71.2796H265.248V73Z" fill="white"/>
<path d="M427.443 63.6803H429.027C430.022 63.6651 430.804 63.4031 431.374 62.8942C431.944 62.3853 432.229 61.6979 432.229 60.832C432.229 58.8876 431.26 57.9154 429.323 57.9154C428.412 57.9154 427.683 58.1774 427.136 58.7015C426.596 59.218 426.327 59.9054 426.327 60.7637H424.219C424.219 59.4497 424.698 58.3597 425.655 57.4938C426.619 56.6203 427.842 56.1836 429.323 56.1836C430.888 56.1836 432.115 56.5975 433.003 57.4255C433.892 58.2534 434.336 59.4041 434.336 60.8776C434.336 61.5992 434.101 62.298 433.63 62.974C433.167 63.65 432.532 64.1551 431.727 64.4893C432.639 64.7779 433.341 65.2564 433.835 65.9248C434.336 66.5932 434.587 67.4097 434.587 68.3743C434.587 69.8631 434.101 71.0442 433.129 71.9176C432.156 72.7911 430.892 73.2279 429.335 73.2279C427.778 73.2279 426.509 72.8063 425.529 71.9632C424.557 71.1201 424.071 70.0074 424.071 68.625H426.19C426.19 69.4985 426.475 70.1973 427.045 70.7214C427.614 71.2454 428.378 71.5075 429.335 71.5075C430.352 71.5075 431.131 71.2416 431.67 70.71C432.21 70.1783 432.479 69.4149 432.479 68.4199C432.479 67.4553 432.183 66.7147 431.59 66.1982C430.998 65.6817 430.144 65.4159 429.027 65.4007H427.443V63.6803Z" fill="white"/>
<path d="M606.277 67.4287H608.578V69.1491H606.277V73H604.158V69.1491H596.604V67.9072L604.032 56.4115H606.277V67.4287ZM598.996 67.4287H604.158V59.2939L603.907 59.7497L598.996 67.4287Z" fill="white"/>
</svg>
